<?xml version="1.0" encoding="UTF-8"?>
<svg width="1848px" height="406px" viewBox="0 0 1848 406" version="1.1" xmlns="http://www.w3.org/2000/svg" xmlns:xlink="http://www.w3.org/1999/xlink">
    <!-- Generator: Sketch 53.2 (72643) - https://sketchapp.com -->
    <title>logo-h</title>
    <desc>Created with Sketch.</desc>
    <g id="logo-h" stroke="none" stroke-width="1" fill="none" fill-rule="evenodd">
        <path d="M69.391859,301.861951 C71.4683686,300.618744 73.802966,299.193358 75.6331959,300.426444 C77.449931,301.659529 82.3957689,303.292398 82.3957689,303.292398 C82.3957689,303.292398 80.6633761,302.953342 89.9595945,304.933701 C99.2524392,306.917434 99.7281303,300.181851 99.7281303,300.181851 L99.8462096,300.08064 C99.5931824,298.521992 98.5979422,296.35608 95.9597122,293.486752 C87.3854647,284.151736 88.9626674,247.122052 107.607396,244.016566 C108.430578,248.692508 109.758127,253.314471 111.407865,257.77787 C111.831263,258.9283 112.242854,260.082104 112.750595,261.193737 C113.244842,262.334046 113.680049,263.400134 114.2249,264.589362 C114.736015,265.643641 115.255564,266.704669 115.775114,267.753888 C116.276107,268.814915 116.900241,269.902932 117.460275,270.967333 C119.553653,274.761054 121.839332,278.32199 124.349361,281.61809 C124.46238,281.968955 124.577086,282.321506 124.710347,282.668997 L125.683658,285.3106 C126.022714,286.186074 126.400568,287.027811 126.75818,287.886417 C127.124226,288.739962 127.473403,289.615436 127.863065,290.430183 C128.325261,291.373131 128.74866,292.172697 129.217604,293.011061 C131.054581,296.29704 133.186757,299.27264 135.44882,301.986778 C135.728837,302.3174 136.01054,302.663204 136.28887,302.988765 C136.579008,303.319388 136.874206,303.638202 137.16097,303.958703 C137.746307,304.603079 138.309714,305.247455 138.908545,305.839538 C139.51581,306.436682 140.114641,307.018645 140.706724,307.595547 C140.742148,307.632658 140.774198,307.668081 140.812996,307.700131 C136.147175,307.607355 129.231099,306.414753 120.484793,301.882193 C113.244842,298.125583 105.584866,315.333118 105.584866,315.333118 C103.633183,318.797903 98.5135998,322.235699 92.1946679,318.355949 C85.8740491,314.474512 78.2309416,314.425594 78.2309416,314.425594 L76.4884278,315.987615 C72.5901225,317.95954 72.9409868,314.941769 72.9409868,314.941769 C74.3073335,314.223172 71.353663,311.78399 70.8020638,313.079489 C70.2572119,314.376675 69.8371868,313.958337 69.8371868,313.958337 C65.8461048,313.659765 62.8215867,310.009426 60.4802419,308.896107 C58.1355234,307.770979 57.7121246,307.119856 57.7121246,307.119856 C57.3831893,304.861167 65.5154827,303.170945 65.5154827,303.170945 C65.5154827,303.170945 67.3052282,303.113592 69.391859,301.861951 Z M69.3682431,164.169624 C65.1055787,162.847135 62.0625052,154.379159 61.6812776,152.513505 C61.232576,150.347593 62.862071,151.170774 62.862071,151.170774 C61.9933444,148.066974 63.2213696,148.287951 63.2213696,148.287951 C63.2213696,148.287951 65.8427312,151.255117 69.1928109,151.164027 C69.2434164,151.164027 69.3041429,151.164027 69.3682431,151.164027 L69.3682431,164.169624 Z M251.59504,279.634357 C251.633837,279.463986 251.674322,279.278432 251.702998,279.114808 L251.945904,277.402658 L251.974581,277.230599 L251.989762,277.063601 L251.999883,276.979259 L252.047115,276.233672 C252.072418,275.744486 252.114589,275.263735 252.131458,274.772862 C252.139892,274.180778 252.131458,273.583634 252.101094,272.989864 C254.152301,271.937271 263.008252,266.148009 254.980544,246.929752 C254.980544,246.929752 274.730158,266.83793 251.59504,279.634357 Z M167.024924,54.1011163 C167.067095,54.1314796 167.10758,54.1567823 167.146377,54.1888324 C167.424707,54.3845067 167.677734,54.6442813 167.959438,54.8669452 C168.239455,55.1115382 168.502603,55.3881812 168.777559,55.6597637 C169.028899,55.9566489 169.324098,56.2113629 169.555196,56.531864 C169.806536,56.8354966 170.067998,57.1273213 170.294035,57.4545698 C170.518386,57.773384 170.788282,58.0567745 170.983956,58.3823361 C171.186378,58.704524 171.42085,58.9912882 171.60809,59.2847997 C171.786896,59.5884323 171.987631,59.8667622 172.159689,60.123163 C172.513927,60.6359648 172.772015,61.0998479 173.003113,61.4017937 C173.217343,61.7155474 173.353977,61.8892927 173.353977,61.8892927 C173.353977,61.8892927 173.35229,61.6683157 173.308432,61.2904617 C173.25108,60.9176684 173.212282,60.3610086 173.021668,59.7419354 C172.85467,59.1076807 172.598269,58.3823361 172.22885,57.6468704 C172.053418,57.2707034 171.829067,56.8995969 171.591221,56.5352377 C171.382052,56.155697 171.081793,55.8183274 170.803463,55.4691499 C170.531881,55.113225 170.191138,54.8146529 169.870637,54.5076466 C169.546762,54.2124483 169.182403,53.9627948 168.836599,53.7182019 C168.678035,53.6186778 168.519471,53.5292749 168.357534,53.439872 C170.828766,52.4125816 176.874429,51.2284145 186.924668,57.3162483 C186.924668,57.3162483 191.561813,59.1498519 193.968945,65.1533433 C193.968945,65.1533433 194.107266,65.2090092 194.340051,65.311907 C197.226248,65.3051596 200.699467,65.4181784 204.63657,66.0052014 C206.679343,66.3155814 208.840195,66.7575355 211.068521,67.4423958 C213.29516,68.1323165 215.587586,69.080325 217.797357,70.4652271 C219.985199,71.8551897 222.066769,73.7647014 223.527579,76.2359335 C225.013692,78.6970444 225.779521,81.6574624 225.889166,84.6684858 C225.987003,87.6879434 225.474201,90.7377642 224.649333,93.7302323 C224.209066,95.2197189 223.728314,96.7142661 223.146351,98.1733894 C222.582944,99.6055232 222.016163,101.057899 221.442635,102.518709 C220.327629,105.430209 219.293591,108.415929 218.446793,111.479245 C217.601683,114.539187 216.92863,117.686845 216.746451,120.824382 C216.67729,122.01867 216.700906,123.218019 216.820672,124.381944 C218.706568,124.439297 220.221357,125.979389 220.221357,127.877093 C220.221357,128.818354 219.836756,129.675273 219.229491,130.30278 C219.465649,130.442788 219.703495,130.587857 219.958209,130.726179 C221.474685,131.561168 223.417934,132.380976 225.764339,132.895465 C226.936698,133.172108 228.201834,133.337419 229.566494,133.566831 C230.948023,133.809737 232.363288,134.153854 233.827472,134.62111 C236.735597,135.570806 239.797226,137.013061 242.600767,139.20765 C244.994404,141.088485 247.224417,143.573212 248.663298,146.62472 C249.557328,147.943835 250.309662,149.348979 250.857887,150.85196 C252.134831,154.222282 252.433403,157.929974 251.824451,161.359335 C251.190196,164.788697 249.781679,167.938042 247.988559,170.630251 C246.198814,173.342702 244.071699,175.658744 241.828191,177.669467 C240.716558,178.681576 239.569502,179.607655 238.415698,180.484816 C237.855664,180.906528 237.305752,181.323179 236.757526,181.739831 C236.254846,182.144674 235.774094,182.525902 235.293343,182.962795 C233.390578,184.632775 231.786386,186.48662 230.79958,188.480475 C229.807713,190.465894 229.43492,192.572767 229.711563,194.573369 C229.969651,196.590839 230.816448,198.454806 231.806628,200.089361 C232.827171,201.735725 234.013025,203.164485 235.198879,204.397571 C236.39148,205.645838 237.5689,206.727108 238.680533,207.654874 C240.900425,209.510406 242.818371,210.772169 244.117244,211.637522 C244.884759,212.133455 245.443106,212.475885 245.787223,212.674933 C246.092542,212.841931 246.278096,212.933021 246.278096,212.933021 L246.160016,213.23328 C246.160016,213.23328 246.102663,213.221472 246.016634,213.189422 L245.98121,213.263643 L245.809152,213.192795 L245.790597,213.231593 C245.790597,213.231593 245.335148,213.067968 244.479916,212.769396 C243.629745,212.440461 242.396659,211.939467 240.85488,211.236052 C240.812709,211.21581 240.760416,211.197254 240.724993,211.171952 C239.142729,210.493839 237.278762,209.630173 235.222495,208.481429 C233.049835,207.280394 230.67644,205.774038 228.265935,203.812234 C227.069959,202.815307 225.870611,201.710422 224.74717,200.41661 C223.611921,199.131232 222.559328,197.643432 221.758076,195.92116 C220.951762,194.202262 220.396789,192.215156 220.425466,190.128525 C220.437274,188.041894 221.02261,185.936708 221.987487,184.092983 C222.94393,182.218895 224.24955,180.58434 225.700239,179.140398 C227.159362,177.674527 228.733191,176.400957 230.423413,175.203295 C231.295513,174.582535 232.047847,174.113592 232.965493,173.533316 C233.790361,173.034009 234.606795,172.506026 235.406361,171.951053 C237.00718,170.857975 238.540525,169.663687 239.984466,168.381683 C242.858855,165.804179 245.36045,162.784722 246.814513,159.365481 C247.194054,158.479886 247.492626,157.572362 247.706856,156.651343 C247.732158,156.175652 247.738906,155.701648 247.728785,155.231017 C247.582029,154.227343 247.349244,153.237163 246.99838,152.263852 C246.030129,149.569956 244.326413,147.064987 242.091339,145.074506 C239.85964,143.067157 237.111765,141.560802 234.153033,140.7275 C232.764758,140.33109 230.956457,140.05276 229.301659,139.607433 C227.626619,139.1756 225.948206,138.65605 224.301842,137.986372 C222.657166,137.308259 221.034418,136.464835 219.551679,135.339708 C218.112797,134.24663 216.834167,132.856668 215.896279,131.262596 C214.366308,130.889803 213.220939,129.521769 213.220939,127.877093 C213.220939,127.031982 213.534692,126.271214 214.022191,125.665635 C213.79278,123.968666 213.79278,122.276758 213.91592,120.635455 C214.190876,117.185851 214.992129,113.91168 215.92833,110.753901 C216.884772,107.601182 218.018334,104.57329 219.207562,101.638175 C220.425466,98.6642622 221.710844,95.9450635 222.559328,93.1179065 C223.411186,90.2991838 223.935796,87.4619057 223.935796,84.7089701 C223.925675,81.961095 223.31841,79.3144308 222.066769,77.0793574 C220.830309,74.8358498 219.000079,73.0359831 216.999478,71.6763838 C214.980321,70.3167845 212.821156,69.3367259 210.690667,68.6096945 C208.556805,67.8759157 206.46174,67.3782955 204.467885,67.0156233 C201.234198,66.4286002 198.290649,66.1823204 195.740135,66.0676148 C197.858816,67.3749218 201.197087,70.1987051 201.971351,75.3587726 C202.296912,77.5685433 202.317154,80.8933203 199.695793,82.8062058 C198.413789,83.7424063 197.371317,84.5048615 196.504277,85.1340558 C196.308602,84.7713835 196.10112,84.3985901 195.866648,84.0291704 C195.515784,83.4674501 195.168293,82.8517506 194.76851,82.2562934 C194.343425,81.6675835 193.908218,81.0620051 193.464577,80.4395583 C192.972017,79.8424141 192.471024,79.2317752 191.961596,78.6076415 C191.425178,78.0003763 190.849963,77.4116664 190.276435,76.7942801 C189.67423,76.2106308 189.05347,75.6236077 188.409094,75.0399584 C187.746163,74.4866723 187.088292,73.9047098 186.381503,73.3716659 C184.976359,72.2988306 183.502054,71.2766009 181.960275,70.3673899 C178.883464,68.5287258 175.604232,67.0696024 172.443079,66.0220699 C170.870937,65.4704707 169.307229,65.0808088 167.834611,64.7113891 C166.351872,64.3622116 164.945041,64.0889423 163.630986,63.9000153 C162.833107,63.7735017 162.0774,63.6857857 161.362176,63.6132512 C161.304823,63.5558984 161.259278,63.5069798 161.200239,63.4563744 C161.198552,63.4445664 161.186744,63.4411927 161.186744,63.4411927 L161.048422,63.437819 C160.542368,62.9030883 159.957032,62.451013 159.408806,61.9584535 C159.123729,61.7104869 158.813349,61.4962572 158.518151,61.2617853 C158.221265,61.0340609 157.921007,60.7962153 157.595445,60.5921067 C157.276631,60.3812508 156.967938,60.1602737 156.630568,59.9730336 L155.588096,59.4180607 C155.225424,59.2645575 154.866125,59.0891253 154.483211,58.949117 C154.086801,58.8175428 153.7022,58.6741608 153.273741,58.5881315 C152.877332,58.4936681 152.448872,58.4430626 151.996797,58.4312547 C151.779194,58.4312547 151.554843,58.4380021 151.320371,58.4767996 C151.193857,58.4886075 151.042041,58.5290919 150.900346,58.561142 C150.836246,58.5746367 150.755277,58.6016263 150.669248,58.6336764 C150.586592,58.6640397 150.515745,58.682595 150.343686,58.7770585 L150.512371,58.6960898 C149.436162,59.1178017 148.386943,59.6322903 147.379894,60.2378687 L147.319168,60.2041317 C146.851911,60.4841485 146.394775,60.77766 145.951134,61.0964742 L140.968186,60.1973844 C140.968186,60.1973844 141.140244,58.6201816 143.559184,57.8003736 C142.315977,55.8841145 139.971259,51.2773331 146.689974,49.6410907 C156.659244,47.2170903 166.316448,53.6186778 167.024924,54.1011163 Z M81.7429588,202.081529 C84.0876772,198.790489 88.4869764,189.83164 88.4869764,189.83164 C91.7459664,181.540783 97.1607479,181.545843 97.1607479,181.545843 C107.932958,180.363363 122.898672,170.017925 131.506656,160.37759 C138.476712,152.582666 143.029514,153.100528 144.510566,153.58634 C149.441223,137.515741 132.947224,129.854078 132.947224,129.854078 C113.764391,122.791247 98.4680549,106.24833 98.4680549,106.24833 C92.9571231,104.671127 94.0029687,98.7064333 94.5225179,97.7466169 C95.042067,96.7834268 94.1412903,92.4111173 94.1412903,92.4111173 C94.1412903,92.4111173 92.5219164,85.629989 95.2782257,85.4090119 C98.0429693,85.1914086 97.5824598,88.0539893 98.7683138,87.2949078 C99.9575416,86.5341394 100.984832,86.9389829 100.984832,86.9389829 C100.984832,86.9389829 106.067304,88.7489706 115.105435,81.5107066 C121.279298,76.5699293 132.09874,72.2667805 138.341764,70.0317072 C126.270681,70.9409182 126.587808,68.4106464 126.587808,68.4106464 L138.081989,63.7650675 L142.40538,64.4566751 C141.086265,65.8095271 139.956077,67.3631139 139.102532,69.0381538 C138.964211,69.3198574 138.841071,69.6116821 138.719618,69.8967593 C138.112353,71.2546718 137.636661,72.6513818 137.300979,74.0733946 C137.27905,74.1391816 137.273989,74.2032818 137.248686,74.2623215 C137.157597,74.6739124 137.066507,75.0838164 136.987225,75.498781 C136.579008,77.7051779 136.427192,79.9453118 136.465989,82.1500219 C136.501413,84.3513584 136.644795,86.5138973 136.907943,88.6848704 C137.208202,90.8710252 137.538824,93.0200693 138.404177,95.2871928 C138.642023,95.872529 138.874808,96.415694 139.369054,97.0836857 L139.493881,97.2405626 L139.633889,97.4008131 L139.726666,97.5104582 C139.870048,97.657214 140.043793,97.8191514 140.271518,97.9827756 C140.495868,98.1379656 140.811309,98.3252057 141.261697,98.4129218 C141.710399,98.5056985 142.256938,98.4196692 142.616236,98.2459239 C143.33652,97.8849385 143.567618,97.5155188 143.812211,97.2371889 C144.034875,96.9386168 144.191752,96.6855897 144.350316,96.4409967 L145.165063,95.0881448 C146.200788,93.4097312 147.4305,92.1462822 149.044813,91.5002194 C149.238801,91.4226244 149.461465,91.3399689 149.640271,91.2893635 C149.719552,91.2623739 149.866308,91.2235764 149.996195,91.1898394 L150.325131,91.1206787 C150.800822,91.0245284 151.261331,90.9115096 151.757265,90.8575304 C152.239703,90.7748749 152.733949,90.7158352 153.246751,90.6837851 C153.742684,90.6264323 154.248739,90.6045032 154.763227,90.5910085 C156.215603,90.5319688 157.691595,90.5437767 159.169274,90.6045032 L159.176021,90.5926953 C159.779913,90.6163112 160.382118,90.6433007 160.979262,90.6770377 C162.701533,90.7833091 164.428865,90.9199438 166.162945,91.0515179 C166.542486,91.0801943 166.913592,91.1122444 167.291446,91.1375472 C168.350787,91.2185159 169.423622,91.294424 170.504891,91.3534637 C171.063238,91.3770796 171.635079,91.4108165 172.159689,91.4006954 L172.552725,91.4040691 L172.976123,91.3956349 L173.772316,91.3770796 C174.823222,91.3534637 175.872441,91.3433426 176.849126,91.3956349 C177.819063,91.4378061 178.760325,91.6570963 179.040341,92.0282028 C179.379398,92.3773803 179.392892,93.3878022 179.200592,94.342558 C179.058897,95.2602032 178.689477,95.9450635 177.967506,96.3364122 C177.247222,96.7345082 176.235113,96.7969216 175.248307,96.6973976 C174.241259,96.5944999 173.229151,96.3566543 172.230537,96.0563954 C171.57604,95.8522868 170.924916,95.6161281 170.27548,95.3647878 C170.135472,95.3141824 169.990403,95.2602032 169.853768,95.2011636 C168.678035,94.7322199 167.524231,94.209297 166.390669,93.6273345 C168.123062,94.8671677 169.958353,95.9754267 171.947146,96.8424665 C172.935639,97.2759864 173.964616,97.6521535 175.066128,97.86807 C176.159205,98.0738654 177.373736,98.1885711 178.598387,97.6875773 C179.203966,97.4480449 179.767373,97.002717 180.165469,96.4612389 C180.556817,95.9180739 180.79635,95.2838191 180.927924,94.7170382 C181.062872,94.1856812 181.182638,93.5699817 181.196133,92.9407875 C181.209628,92.3132801 181.103356,91.5423906 180.629352,90.8575304 C180.1486,90.1844781 179.438437,89.8049374 178.827798,89.6058893 C178.213786,89.3916597 177.62845,89.3005699 177.065042,89.2280354 C175.931481,89.0795928 174.848524,89.0610375 173.777376,89.0289874 L172.981184,89.0104321 L172.608391,88.9986241 L172.215355,88.9783819 C171.663756,88.9615135 171.188065,88.9092212 170.687071,88.8687368 C169.649659,88.7641523 168.603814,88.6393255 167.556281,88.5128119 C167.001308,88.4470249 166.442962,88.3829247 165.887989,88.3171376 C165.228431,88.2361689 164.570561,88.1670081 163.904256,88.0927868 C163.001792,87.9966365 162.095955,87.9004862 161.186744,87.8279517 C159.044447,87.647459 156.878535,87.514198 154.677198,87.5445613 C154.134033,87.5496218 153.574,87.5648035 153.020714,87.6086615 C152.46068,87.6305905 151.907394,87.6795091 151.340613,87.7571041 C150.78058,87.8077096 150.201991,87.9207284 149.63521,88.035434 C149.486767,88.069171 149.372062,88.0894131 149.188195,88.1298975 L148.769857,88.2446031 C148.434174,88.3373798 148.167652,88.4419643 147.865707,88.5532963 C146.695034,89.0171794 145.607017,89.7256555 144.704554,90.5758268 C143.79703,91.4226244 143.068311,92.402683 142.461046,93.3540652 L141.676662,94.6360695 C141.641238,94.5736562 141.605814,94.509556 141.575451,94.4403952 C141.553522,94.3881029 141.534967,94.342558 141.511351,94.2919526 C141.482674,94.2160444 141.447251,94.1418231 141.423635,94.0692887 C140.769138,92.3655724 140.41996,90.2873759 140.163559,88.2699059 C139.910532,86.2271331 139.763777,84.1489366 139.713171,82.094356 C139.706424,81.5849279 139.70305,81.0822473 139.709797,80.5812535 L139.709797,80.5778798 C139.709797,80.5492034 139.713171,80.5255875 139.713171,80.5002848 C139.723292,80.0802597 139.741848,79.6585477 139.770524,79.2402094 C139.777271,79.0799589 139.792453,78.9180215 139.802574,78.757771 C139.822816,78.46932 139.851493,78.1741216 139.886916,77.8839838 C139.907159,77.7119253 139.920653,77.5331195 139.945956,77.361061 C139.988127,77.0321256 140.04042,76.6998166 140.089338,76.374255 C140.10958,76.2730441 140.118015,76.1701464 140.134883,76.0689355 C140.480687,74.1003841 141.055902,72.1925592 141.917881,70.4466717 C142.224888,69.834346 142.569004,69.2473229 142.936737,68.6805421 C142.975535,68.6164418 143.017706,68.5624627 143.05819,68.4983625 C143.236996,68.22678 143.424236,67.960258 143.618224,67.7004835 C143.727869,67.5587883 143.840888,67.4238404 143.950533,67.2855189 C144.104036,67.1016525 144.247418,66.9110387 144.405982,66.7339197 C144.697806,66.4066712 145.003126,66.0895438 145.328688,65.7909717 C146.44032,64.7501866 147.727385,63.8932679 149.108913,63.1949129 L149.007703,63.1780445 C149.368688,62.9958649 149.7263,62.8204327 150.104154,62.6601822 L150.215486,62.606203 C150.261031,62.5927083 150.276212,62.5741529 150.333565,62.5690924 C150.428028,62.5454765 150.53936,62.5302949 150.665874,62.5235475 C150.804196,62.5100527 150.949264,62.506679 151.101081,62.5100527 C151.264705,62.5083659 151.436763,62.5100527 151.613883,62.540416 C151.907394,62.5589713 152.212713,62.6382532 152.518033,62.7006665 C152.826726,62.7748878 153.137106,62.8912803 153.449173,62.9806833 L154.375252,63.3568503 L155.303019,63.7988045 C155.616772,63.9303786 155.922092,64.1074976 156.229098,64.2744955 C156.493933,64.4279987 156.772263,64.5747545 157.035411,64.7366919 C157.035411,64.7366919 157.045533,64.7366919 157.053967,64.7400655 C157.075896,64.7619946 157.107946,64.7754894 157.138309,64.7940447 C157.727019,65.1853934 158.342718,65.5295103 158.928055,65.9444749 C159.137224,66.0895438 159.356514,66.231239 159.569057,66.3763079 L159.574117,66.3796816 C159.950284,66.6394562 160.329825,66.8941702 160.692498,67.1826212 C161.264339,67.6161411 161.874978,68.0108635 162.435011,68.4713729 C163.001792,68.9082665 163.57026,69.3451601 164.155596,69.7736195 C164.16403,69.7769932 164.165717,69.7854274 164.180899,69.7955485 C164.012214,69.567824 163.835095,69.3535943 163.66641,69.1292436 C163.394828,68.769945 163.118185,68.4072727 162.843228,68.0513478 C162.706594,67.8792893 162.564899,67.7224125 162.423203,67.5554146 C162.214034,67.3074479 162.004865,67.0594813 161.783888,66.8148884 L162.396214,67.2416609 C163.475796,67.5908384 164.604298,67.9872476 165.800273,68.3937779 C167.176741,68.8981454 168.617309,69.4564921 170.083179,70.0772521 C171.555797,70.6845173 173.035163,71.3828723 174.531397,72.10653 C176.002328,72.8706721 177.51037,73.6415615 178.937444,74.5220961 C180.396567,75.3621463 181.784843,76.3169022 183.134321,77.261537 C183.810747,77.7406017 184.446689,78.2550903 185.094438,78.7341551 C185.721946,79.2503305 186.341019,79.7597586 186.948284,80.2607524 C187.531933,80.7870489 188.108835,81.3099717 188.670556,81.8143392 C189.213721,82.3507568 189.745078,82.8736797 190.26294,83.379734 C191.239625,84.444135 192.182573,85.4545568 192.985512,86.4464234 C193.1795,86.6690873 193.356619,86.8951249 193.530364,87.1228493 C193.61808,87.2291207 193.699049,87.3353922 193.785078,87.448411 C193.785078,87.4517847 193.786765,87.4585321 193.786765,87.4585321 C193.898097,87.6019141 194.007742,87.7503567 194.119074,87.8886782 C194.468252,88.3542482 194.830924,88.7827076 195.127809,89.2145406 C195.696277,90.086641 196.263058,90.8187329 196.667901,91.4597351 C197.462406,92.7468 197.961713,93.4805788 197.961713,93.4805788 C197.961713,93.4805788 197.948219,93.4316602 197.924603,93.3506915 C200.962616,98.6642622 202.060754,102.687394 202.060754,102.687394 C202.060754,102.687394 205.328178,110.433399 209.449147,125.716241 C216.183044,150.688336 217.432998,156.148662 215.383478,169.898159 C213.94797,179.560423 209.280462,188.463606 213.571803,201.943207 C226.535229,242.655279 216.459687,266.178372 204.359927,279.246382 C205.172988,282.712855 208.482583,288.797315 221.732773,289.382651 C228.330035,289.669415 232.764758,287.6705 235.625652,284.651043 L236.320633,284.099444 L236.976817,283.455068 C237.837109,282.562725 238.607999,281.547243 239.189961,280.428863 C239.756742,279.312169 240.230746,278.138123 240.471965,276.942148 C240.73174,275.756294 240.85488,274.56538 240.843072,273.435192 C240.82283,271.1512 240.348825,269.088185 239.692642,267.445195 C239.67746,267.408084 239.658905,267.377721 239.64541,267.343984 C239.215264,265.458088 238.540525,263.958481 237.752767,263.131925 C235.799397,261.079031 229.549626,258.61286 227.726143,264.771541 C227.726143,264.771541 226.292323,271.055049 237.87928,273.647734 C237.778069,274.486098 237.607698,275.332895 237.383347,276.166198 C237.120199,277.11758 236.744032,278.028478 236.288583,278.895518 C236.099656,279.278432 235.873618,279.641105 235.639146,279.99703 C230.54824,278.745389 216.164488,273.865338 221.89471,259.432668 C227.619872,245.001685 251.69119,255.340375 249.238514,276.844311 C246.574981,300.247638 213.339018,316.294621 192.433913,289.031787 C188.697545,291.334334 185.522897,292.698994 183.699415,293.397349 C188.616576,298.542235 184.881895,301.485784 183.606638,304.970812 C182.172818,308.869117 189.004551,311.856525 196.023525,317.023339 C203.040812,322.188467 202.264862,324.868869 197.757605,334.018331 C193.2436,343.166107 196.305229,349.063327 196.305229,349.063327 C196.441863,353.604321 195.834598,360.886443 194.873095,364.906202 C193.916652,368.914152 193.515182,369.180674 192.352944,370.646545 C191.182272,372.110729 190.785863,370.7292 190.480543,369.585518 C190.173537,368.446895 188.500184,368.031931 188.299449,369.027171 C188.103775,370.035906 187.972201,370.703898 187.972201,370.703898 C187.536994,375.189226 178.00799,374.836675 176.255356,374.506053 C174.509468,374.185552 175.617727,373.217301 175.617727,373.217301 C173.040224,372.937284 173.574954,372.083739 173.574954,372.083739 C173.574954,372.083739 176.580917,371.024399 177.527239,368.49244 C178.481995,365.968916 178.643932,363.656248 180.119924,360.75993 C184.458497,352.194117 185.737127,342.690416 186.111607,338.100503 C184.748634,332.824043 179.853402,327.787115 168.033659,322.767056 C167.045166,322.345344 166.08535,321.910138 165.147463,321.454689 C164.433926,321.002613 163.450494,320.34643 162.188732,319.587348 C161.5258,319.165636 160.84094,318.629219 160.061616,318.080993 C159.305909,317.512525 158.447303,316.971047 157.583637,316.308116 C155.890042,314.941769 153.943419,313.484333 152.001858,311.686153 C151.512672,311.234078 150.979628,310.829234 150.497189,310.341735 C150.008003,309.85761 149.51207,309.36505 149.007703,308.869117 C147.968604,307.902553 146.983485,306.819597 145.973063,305.719772 C144.917097,304.641876 143.980896,303.410477 142.948545,302.227997 C142.459359,301.624106 141.992103,300.978043 141.494482,300.360657 C141.248203,300.041842 141.001923,299.726402 140.748896,299.410961 C140.519484,299.082026 140.286699,298.751404 140.052228,298.419095 C139.100845,297.09998 138.196695,295.726886 137.300979,294.328489 C136.447434,292.908163 135.587141,291.462534 134.819626,289.983169 C134.649254,289.65592 134.480569,289.321924 134.313571,288.991302 C134.151634,288.653933 134.008252,288.340179 133.871617,288.03486 C133.83282,287.952204 133.785588,287.861114 133.758598,287.78858 C133.402673,286.98058 133.097354,286.175953 132.759984,285.374701 C132.437796,284.571761 132.086932,283.767135 131.783299,282.954074 L130.906139,280.501397 C129.750648,277.24072 128.784084,273.927751 128.153203,270.635024 C128.12284,270.478147 128.100911,270.322957 128.072234,270.162707 C127.922105,269.373262 127.792218,268.585504 127.677512,267.797746 C127.591483,267.214097 127.517261,266.628761 127.453161,266.050172 C127.414364,265.722923 127.389061,265.400735 127.363758,265.078547 C127.3199,264.651775 127.28785,264.226689 127.259174,263.799917 C127.238931,263.538455 127.227124,263.283741 127.215316,263.02228 C127.179892,262.327299 127.161336,261.630631 127.166397,260.954205 C127.174831,260.262597 127.213629,259.582797 127.259174,258.902998 C127.277729,258.670213 127.297971,258.444175 127.318213,258.204643 C127.355324,257.764375 127.402556,257.317361 127.456535,256.87878 C127.486898,256.615632 127.520635,256.360918 127.557746,256.107891 C127.650522,255.51412 127.748359,254.923724 127.863065,254.338387 C128.021629,253.569185 128.203808,252.813477 128.416351,252.072951 C129.192301,249.314955 130.356226,246.838662 131.698957,244.679497 C131.978974,244.229108 132.277546,243.790528 132.574431,243.363755 C132.690824,243.191697 132.808903,243.02976 132.93373,242.861075 C133.087233,242.655279 133.233989,242.449484 133.395926,242.25381 C133.751851,241.7933 134.106089,241.344599 134.472135,240.917826 L134.477195,240.917826 C135.000118,240.303813 135.528102,239.715104 136.052711,239.176999 C137.552319,237.677391 138.994574,236.462861 140.247902,235.538468 C141.511351,234.634318 142.552136,233.949458 143.287602,233.527746 C144.019694,233.0976 144.431284,232.898552 144.431284,232.898552 C144.431284,232.898552 143.975836,232.962652 143.142533,233.180255 C142.319351,233.419787 141.093013,233.762218 139.605213,234.416715 C138.12416,235.06109 136.337789,235.939938 134.443458,237.242185 C132.549128,238.53431 130.528285,240.238026 128.650823,242.434302 C127.075307,244.27128 125.60775,246.469242 124.428643,248.967464 C124.200919,249.448216 123.978255,249.932341 123.774146,250.438395 C122.500576,253.543882 121.670647,257.035657 121.372075,260.66238 C121.319782,261.252777 121.291106,261.851608 121.272551,262.447065 C121.264116,262.595507 121.260743,262.735516 121.260743,262.883958 C121.247248,263.447366 121.233753,264.027641 121.247248,264.609604 L121.247248,264.668643 C121.260743,265.306272 121.286045,265.948961 121.319782,266.593337 C121.329904,266.660811 121.333277,266.71985 121.336651,266.782264 C121.372075,267.360853 121.42268,267.936068 121.480033,268.507909 C121.076876,267.605446 120.665285,266.731658 120.285745,265.768468 C119.853912,264.677078 119.418705,263.582313 118.986872,262.482489 C118.622513,261.490622 118.242972,260.335131 117.875239,259.275791 C117.47883,258.194522 117.17351,257.084576 116.866504,255.989811 C115.611489,251.588825 114.688784,247.113618 114.28394,242.677208 C113.860541,238.249233 113.872349,233.876923 114.28394,229.705349 C115.083506,221.347018 117.51088,213.855726 120.356592,207.869103 C121.505336,205.450164 122.701311,203.289312 123.888852,201.359558 C124.221161,201.413537 124.545035,201.477637 124.875658,201.516435 C125.390146,201.56704 125.916443,201.605838 126.432618,201.617645 C126.955541,201.629453 127.481838,201.621019 127.9997,201.577161 C128.527683,201.546798 129.042172,201.469203 129.563408,201.398355 C130.592385,201.222923 131.614615,200.959775 132.601421,200.629153 C133.102414,200.48071 133.571358,200.258046 134.053797,200.070806 C134.534548,199.868384 134.989997,199.635599 135.460628,199.411249 L135.629313,199.315098 C135.958248,199.126171 136.460928,198.854589 136.901196,198.638672 C137.353271,198.416008 137.828962,198.206839 138.30634,198.007791 C139.252662,197.597887 140.222599,197.267265 141.199284,196.980501 C141.685096,196.838806 142.179343,196.700484 142.675276,196.60096 C143.167835,196.491315 143.657021,196.398538 144.152955,196.315883 L145.774015,196.118522 C146.53141,196.024058 147.150483,195.878989 147.796546,195.693436 C150.343686,194.915799 152.558517,193.456676 154.230183,191.560659 C155.056739,190.604216 155.75172,189.534754 156.208856,188.362395 C156.644063,187.195097 156.86504,185.896224 156.55466,184.74242 C156.299946,185.617894 155.881608,186.360107 155.363745,187.014604 C155.218676,187.205218 155.056739,187.390771 154.886367,187.566203 C154.169457,188.353961 153.331094,188.99665 152.458993,189.55837 C150.704672,190.661569 148.76311,191.376792 146.870466,191.633193 C146.406583,191.697293 145.897155,191.732717 145.510867,191.732717 L145.092529,191.724283 L144.684312,191.732717 L143.727869,191.747899 C143.091927,191.798504 142.450925,191.825494 141.823418,191.938513 C141.199284,192.032976 140.580211,192.161177 139.966198,192.299498 C138.736486,192.59301 137.552319,193.002914 136.396828,193.475231 C135.8233,193.728258 135.256519,193.984659 134.699859,194.281544 C134.151634,194.561561 133.672569,194.824709 133.082172,195.209311 C132.743116,195.39149 132.407433,195.588851 132.061629,195.754162 C131.688836,195.92116 131.317729,196.125269 130.944936,196.275398 C130.570456,196.442396 130.187541,196.60096 129.801253,196.730847 C129.420026,196.874229 129.023616,196.978814 128.640702,197.110388 C128.269595,197.218346 127.896802,197.306062 127.517261,197.383657 C127.233871,197.454505 126.940359,197.491616 126.653595,197.543908 C126.581061,197.554029 126.500092,197.570898 126.425871,197.577645 C125.54871,197.710906 124.656367,197.780067 123.75053,197.775006 C123.337252,197.766572 122.907106,197.758138 122.485394,197.726088 C122.060309,197.699098 121.638597,197.641745 121.213511,197.577645 C120.779991,197.521979 120.349845,197.447758 119.921386,197.354981 C119.497987,197.260518 119.061093,197.166054 118.636008,197.042914 C118.207548,196.921461 117.777402,196.794948 117.345569,196.653252 C116.92217,196.498062 116.48359,196.363114 116.056817,196.191056 C115.206646,195.841879 114.358161,195.465711 113.513051,195.015323 C112.126462,194.247807 109.741259,193.643916 106.347321,195.273411 C103.241834,196.754463 102.681801,199.446672 100.8735,202.719157 C99.753433,205.443416 98.4056416,207.882598 96.948205,210.647342 C94.5495074,215.176528 93.9844134,215.373889 92.1305677,216.772286 C90.2733482,218.175744 90.2227428,216.380938 90.2109348,214.911693 C90.1957532,213.445822 88.3098573,212.432027 87.7633186,213.57571 C87.2100326,214.714332 86.8473603,215.488595 86.8473603,215.488595 C84.9277274,220.736379 73.5853627,217.36437 71.5780138,216.434917 C69.5706648,215.497029 71.2018467,214.682282 71.2018467,214.682282 C68.1891365,213.540286 69.1000343,212.674933 69.1000343,212.674933 C69.1000343,212.674933 73.0438845,212.340937 74.9719516,209.591375 C76.8898976,206.845187 79.389806,205.370882 81.7429588,202.081529 Z M93.124121,150.26325 C101.720298,147.953956 104.935429,152.304336 104.935429,152.304336 C109.282436,156.993773 117.058805,160.957865 125.346288,163.660196 C124.924576,163.972263 124.482622,164.287703 124.032234,164.620012 C123.170254,165.281256 122.210438,165.915511 121.264116,166.632422 C120.285745,167.3021 119.302312,168.020697 118.271648,168.713992 C117.252792,169.41572 116.217068,170.125883 115.15604,170.798936 C114.125376,171.51922 113.035673,172.146727 112.001635,172.823153 C110.938921,173.442226 109.923439,174.110218 108.886027,174.676999 C107.884039,175.28089 106.880365,175.798753 105.932357,176.321675 C105.461726,176.598319 104.984348,176.793993 104.532273,177.040273 C104.304548,177.154978 104.075137,177.273058 103.850786,177.392824 C103.712465,176.132749 103.801868,175.344991 103.801868,175.344991 C103.801868,175.344991 105.043388,170.854602 99.3755791,167.846952 C96.3443135,166.237699 93.8460919,167.394877 90.1333398,167.885749 C87.2876276,168.609407 84.5262577,168.97714 81.4308919,169.451144 C77.9964697,169.977441 76.6604863,169.987562 75.4645111,169.739595 L75.4645111,184.74242 C75.289079,187.581385 71.1124438,187.581385 70.9285773,184.74242 L70.9285773,164.338309 C70.8982141,164.339995 70.8729114,164.333248 70.844235,164.338309 L70.844235,148.58315 C70.8594166,137.215482 70.9285773,91.4074428 70.9285773,71.2074401 C71.1124438,68.3701621 75.289079,68.3701621 75.4645111,71.2074401 L75.4645111,151.87925 C76.6233756,152.039501 77.8581482,152.159267 79.2599188,152.135651 C83.2999193,152.066491 93.124121,150.26325 93.124121,150.26325 Z M-6.8567374e-12,73.304192 L67.9327356,73.304192 L67.9327356,133.328985 L-6.8567374e-12,133.328985 L21.6861156,103.319962 L-6.8567374e-12,73.304192 Z M135.457254,86.6690873 C134.984937,85.7615631 134.102715,84.7966862 132.835893,84.2585817 C132.517078,84.1236339 132.174648,84.0139888 131.810289,83.944828 C131.599433,83.9195253 131.391951,83.8891621 131.186155,83.8655462 C131.020844,83.8604856 130.852159,83.8604856 130.688535,83.8587988 C130.214531,83.8537383 129.892343,83.9397675 129.548226,84.05616 C129.217604,84.1725525 128.939274,84.3277425 128.709863,84.5048615 C128.247666,84.8574127 127.992952,85.2369535 127.856318,85.5169702 C127.716309,85.8121686 127.684259,85.9876007 127.684259,85.9876007 C127.684259,85.9876007 127.858005,85.9454296 128.151516,85.9319348 C128.288151,85.9218137 128.456836,85.9100057 128.639015,85.9218137 C128.814447,85.9218137 129.008435,85.9218137 129.200735,85.962298 C129.394723,85.996035 129.590397,86.0466404 129.765829,86.1039932 C129.932827,86.1765277 130.153804,86.2490622 130.226339,86.3384651 L130.266823,86.3603941 L130.362974,86.405939 L130.556961,86.505463 L130.583951,86.5138973 L130.592385,86.5223315 C130.570456,86.5138973 130.51985,86.5020893 130.51985,86.5020893 L130.533345,86.5122104 L130.570456,86.5375131 L130.632869,86.5931791 L130.76107,86.6977637 C130.944936,86.8428326 131.143984,86.9811541 131.351466,87.126223 C132.193203,87.6913171 133.245797,88.1248369 134.188744,88.3087034 C134.664436,88.3947326 135.099642,88.4385906 135.431951,88.4419643 C135.588828,88.4520854 135.738958,88.4385906 135.828361,88.4318432 C135.926198,88.4284696 135.976803,88.4284696 135.976803,88.4284696 C135.976803,88.4284696 135.971743,88.3744904 135.956561,88.2783401 C135.948127,88.1838766 135.939693,88.0371209 135.897521,87.880244 C135.828361,87.5445613 135.686665,87.126223 135.457254,86.6690873 Z M102.300573,93.7622824 L102.059354,93.4805788 L101.937901,93.3439441 L101.833316,93.2309253 L101.811387,93.2022489 L101.759095,93.1533303 L101.563421,92.9660902 C101.323888,92.6995682 101.102911,92.4330463 100.959529,92.1344742 C100.797592,91.8443364 100.699755,91.527209 100.630594,91.2117685 C100.495646,90.5707663 100.520949,89.9500063 100.576615,89.509739 C100.576615,89.48781 100.576615,89.4726284 100.579988,89.4506993 L100.679512,88.7962024 C100.679512,88.7962024 100.43998,88.9412713 100.127913,89.310691 C99.97441,89.4945574 99.7888568,89.7290292 99.6302931,90.0394092 C99.4700425,90.341355 99.2979841,90.7158352 99.2136417,91.161163 C99.1259256,91.6031172 99.0888149,92.1176057 99.1900258,92.6590839 C99.2777419,93.2022489 99.5037795,93.7538481 99.8158463,94.2615893 L99.8411491,94.3003868 L98.4798629,103.227186 C98.4798629,103.227186 98.5439631,103.213691 98.6721635,103.195135 C98.7851823,103.154651 98.9943515,103.139469 99.2068943,103.028137 C99.4295582,102.935361 99.7112618,102.817281 99.9828443,102.61486 C100.278043,102.434367 100.56818,102.1864 100.8735,101.899636 C101.018569,101.744446 101.168698,101.587569 101.323888,101.423945 C101.46221,101.243452 101.607279,101.057899 101.750661,100.863912 C102.02393,100.469189 102.285392,100.027235 102.502995,99.541423 C102.715538,99.0572977 102.899404,98.5259406 103.01411,97.9642203 C103.074836,97.6808299 103.106886,97.3822578 103.145684,97.0853726 C103.157492,96.78174 103.157492,96.4730468 103.145684,96.16098 C103.059655,95.5132304 102.975312,94.9312679 102.58565,94.2362866 C102.496248,94.0726624 102.389976,93.876988 102.300573,93.7622824 Z" id="grisen" fill="#FFFFFF"></path>
        <path d="M449.204685,113.395995 C441.145203,103.558687 431.189522,98.6401066 419.337344,98.6401066 C414.122385,98.6401066 409.292695,99.5882666 404.848128,101.484615 C400.40356,103.380964 396.58129,105.958774 393.381202,109.218123 C390.181114,112.477472 387.662563,116.359003 385.825476,120.862831 C383.988388,125.366659 383.069858,130.225979 383.069858,135.440938 C383.069858,140.774418 383.988388,145.692999 385.825476,150.196827 C387.662563,154.700654 390.210744,158.611815 393.470093,161.930425 C396.729442,165.249035 400.551712,167.856475 404.937018,169.752824 C409.322325,171.649172 414.063125,172.597332 419.159562,172.597332 C430.30061,172.597332 440.315551,167.856532 449.204685,158.374789 L449.204685,199.620165 L445.649049,200.864638 C440.315569,202.760986 435.337728,204.153596 430.715378,205.04251 C426.093029,205.931423 421.530008,206.375873 417.02618,206.375873 C407.781481,206.375873 398.92211,204.627703 390.447802,201.13131 C381.973494,197.634917 374.506734,192.716337 368.047296,186.375421 C361.587859,180.034506 356.402608,172.508485 352.491389,163.797134 C348.58017,155.085782 346.62459,145.574551 346.62459,135.263156 C346.62459,124.95176 348.55054,115.49979 352.402499,106.90696 C356.254457,98.3141303 361.410077,90.9066297 367.869515,84.6842358 C374.328952,78.4618419 381.825343,73.6025215 390.358911,70.1061288 C398.89248,66.609736 407.840741,64.8615659 417.203962,64.8615659 C422.537443,64.8615659 427.781953,65.4245359 432.937651,66.5504929 C438.093349,67.6764499 443.515639,69.42462 449.204685,71.7950558 L449.204685,113.395995 Z M516.75412,120.329485 L567.066367,120.329485 L567.066367,68.5949835 L601.911599,68.5949835 L601.911599,202.642455 L567.066367,202.642455 L567.066367,147.352318 L516.75412,147.352318 L516.75412,202.642455 L481.908888,202.642455 L481.908888,68.5949835 L516.75412,68.5949835 L516.75412,120.329485 Z M707.861901,152.863553 L692.217103,108.240323 L676.572305,152.863553 L707.861901,152.863553 Z M717.106554,179.353041 L667.327652,179.353041 L659.327471,202.642455 L622.171076,202.642455 L673.194451,68.5949835 L711.239755,68.5949835 L762.263129,202.642455 L725.106735,202.642455 L717.106554,179.353041 Z M827.501401,98.1067612 L827.501401,202.642455 L792.656169,202.642455 L792.656169,98.1067612 L764.033301,98.1067612 L764.033301,68.5949835 L856.12427,68.5949835 L856.12427,98.1067612 L827.501401,98.1067612 Z M952.829918,98.1067612 L911.406761,98.1067612 L911.406761,120.507267 L950.518755,120.507267 L950.518755,150.019045 L911.406761,150.019045 L911.406761,173.130678 L952.829918,173.130678 L952.829918,202.642455 L876.561529,202.642455 L876.561529,68.5949835 L952.829918,68.5949835 L952.829918,98.1067612 Z M1055.75793,152.863553 L1040.11313,108.240323 L1024.46833,152.863553 L1055.75793,152.863553 Z M1065.00258,179.353041 L1015.22368,179.353041 L1007.2235,202.642455 L970.067106,202.642455 L1021.09048,68.5949835 L1059.13578,68.5949835 L1110.15916,202.642455 L1073.00276,202.642455 L1065.00258,179.353041 Z M1161.53045,68.5949835 L1161.53045,141.485519 C1161.53045,145.396738 1161.6786,149.396788 1161.9749,153.48579 C1162.27121,157.574791 1163.16011,161.278542 1164.64163,164.597152 C1166.12315,167.915762 1168.46392,170.612092 1171.66401,172.686223 C1174.8641,174.760355 1179.36786,175.797405 1185.17543,175.797405 C1190.983,175.797405 1195.45713,174.760355 1198.59795,172.686223 C1201.73878,170.612092 1204.07955,167.915762 1205.62034,164.597152 C1207.16112,161.278542 1208.07965,157.574791 1208.37595,153.48579 C1208.67226,149.396788 1208.82041,145.396738 1208.82041,141.485519 L1208.82041,68.5949835 L1243.48786,68.5949835 L1243.48786,146.285627 C1243.48786,167.145462 1238.71743,182.375283 1229.17642,191.975548 C1219.63542,201.575813 1204.96857,206.375873 1185.17543,206.375873 C1165.38229,206.375873 1150.68581,201.575813 1141.08554,191.975548 C1131.48528,182.375283 1126.68522,167.145462 1126.68522,146.285627 L1126.68522,68.5949835 L1161.53045,68.5949835 Z M1341.96368,202.642455 L1341.96368,68.5949835 L1376.80891,68.5949835 L1441.16592,150.55239 L1441.16592,68.5949835 L1475.83337,68.5949835 L1475.83337,202.642455 L1441.16592,202.642455 L1376.80891,120.685049 L1376.80891,202.642455 L1341.96368,202.642455 Z M1585.16152,98.1067612 L1543.73837,98.1067612 L1543.73837,120.507267 L1582.85036,120.507267 L1582.85036,150.019045 L1543.73837,150.019045 L1543.73837,173.130678 L1585.16152,173.130678 L1585.16152,202.642455 L1508.89313,202.642455 L1508.89313,68.5949835 L1585.16152,68.5949835 L1585.16152,98.1067612 Z M1650.04423,68.5949835 L1650.04423,141.485519 C1650.04423,145.396738 1650.19238,149.396788 1650.48869,153.48579 C1650.78499,157.574791 1651.67389,161.278542 1653.15541,164.597152 C1654.63694,167.915762 1656.97771,170.612092 1660.17779,172.686223 C1663.37788,174.760355 1667.88164,175.797405 1673.68921,175.797405 C1679.49678,175.797405 1683.97091,174.760355 1687.11174,172.686223 C1690.25256,170.612092 1692.59333,167.915762 1694.13412,164.597152 C1695.6749,161.278542 1696.59343,157.574791 1696.88973,153.48579 C1697.18604,149.396788 1697.33419,145.396738 1697.33419,141.485519 L1697.33419,68.5949835 L1732.00164,68.5949835 L1732.00164,146.285627 C1732.00164,167.145462 1727.23121,182.375283 1717.6902,191.975548 C1708.1492,201.575813 1693.48235,206.375873 1673.68921,206.375873 C1653.89607,206.375873 1639.19959,201.575813 1629.59933,191.975548 C1619.99906,182.375283 1615.199,167.145462 1615.199,146.285627 L1615.199,68.5949835 L1650.04423,68.5949835 Z M1841.86314,98.1067612 L1799.90664,98.1067612 L1799.90664,120.507267 L1838.12972,120.507267 L1838.12972,150.019045 L1799.90664,150.019045 L1799.90664,202.642455 L1765.06141,202.642455 L1765.06141,68.5949835 L1841.86314,68.5949835 L1841.86314,98.1067612 Z" id="CHATEAUNEUF" fill="#FFFFFF" fill-rule="nonzero"></path>
        <path d="M360.09118,321.7268 L360.09118,266.118274 L371.760327,266.118274 C377.354822,266.118274 381.772726,266.670512 385.014172,267.775005 C388.495725,268.855487 391.653086,270.692279 394.48635,273.285435 C400.224909,278.51977 403.094146,285.398735 403.094146,293.922537 C403.094146,302.47035 400.104858,309.38533 394.126191,314.667686 C391.124852,317.308865 387.979497,319.145656 384.690029,320.178117 C381.616658,321.210577 377.25878,321.7268 371.616263,321.7268 L360.09118,321.7268 Z M368.482881,313.839321 L372.264549,313.839321 C376.034231,313.839321 379.167581,313.44315 381.664695,312.650797 C384.161809,311.810422 386.418782,310.477848 388.435681,308.653034 C392.565523,304.883352 394.630413,299.973236 394.630413,293.922537 C394.630413,287.823817 392.589534,282.877685 388.507713,279.083993 C384.834074,275.698483 379.419741,274.005753 372.264549,274.005753 L368.482881,274.005753 L368.482881,313.839321 Z M449.495571,274.005753 L427.201739,274.005753 L427.201739,287.367646 L448.847285,287.367646 L448.847285,295.255125 L427.201739,295.255125 L427.201739,313.839321 L449.495571,313.839321 L449.495571,321.7268 L418.810038,321.7268 L418.810038,266.118274 L449.495571,266.118274 L449.495571,274.005753 Z M481.022435,274.005753 L481.022435,321.7268 L472.630734,321.7268 L472.630734,274.005753 L459.845095,274.005753 L459.845095,266.118274 L493.772059,266.118274 L493.772059,274.005753 L481.022435,274.005753 Z M534.351876,321.7268 L534.351876,262.336607 L574.905762,304.763318 L574.905762,266.118274 L583.297463,266.118274 L583.297463,325.112293 L542.743577,282.793629 L542.743577,321.7268 L534.351876,321.7268 Z M599.517576,293.670426 C599.517576,285.842935 602.386813,279.120037 608.125373,273.501531 C613.839922,267.883025 620.706881,265.073814 628.726458,265.073814 C636.649993,265.073814 643.444922,267.907035 649.111449,273.573562 C654.801987,279.24009 657.647214,286.047024 657.647214,293.994569 C657.647214,301.990135 654.789982,308.773059 649.075433,314.343544 C643.336874,319.938039 636.409888,322.735245 628.294268,322.735245 C621.115066,322.735245 614.668287,320.250173 608.953738,315.279957 C602.662932,309.781504 599.517576,302.578399 599.517576,293.670426 Z M607.981309,293.778474 C607.981309,299.925215 610.046199,304.979394 614.176041,308.941161 C618.281873,312.902928 623.023917,314.883782 628.402316,314.883782 C634.236918,314.883782 639.15904,312.866912 643.168828,308.833113 C647.178617,304.751293 649.183481,299.78115 649.183481,293.922537 C649.183481,287.991892 647.202627,283.021749 643.24086,279.011961 C639.303103,274.978162 634.429003,272.961292 628.618411,272.961292 C622.83183,272.961292 617.945724,274.978162 613.959946,279.011961 C609.974168,282.997739 607.981309,287.91986 607.981309,293.778474 Z M692.199412,298.028348 L709.415005,321.7268 L699.150478,321.7268 L683.267473,298.964761 L681.754806,298.964761 L681.754806,321.7268 L673.363105,321.7268 L673.363105,266.118274 L683.195441,266.118274 C690.542718,266.118274 695.849006,267.498869 699.114462,270.260101 C702.716069,273.333472 704.516845,277.391221 704.516845,282.43347 C704.516845,286.371226 703.388358,289.756686 701.131352,292.589949 C698.874345,295.423213 695.897062,297.235995 692.199412,298.028348 Z M681.754806,291.653536 L684.419981,291.653536 C692.367526,291.653536 696.341239,288.616227 696.341239,282.541518 C696.341239,276.850979 692.475573,274.005753 684.744124,274.005753 L681.754806,274.005753 L681.754806,291.653536 Z M754.375795,274.401928 L747.568792,278.435707 C746.296225,276.226722 745.083702,274.786101 743.931188,274.113801 C742.730653,273.345458 741.181985,272.961292 739.285139,272.961292 C736.9561,272.961292 735.023267,273.621577 733.486582,274.942166 C731.949896,276.238744 731.181565,277.871448 731.181565,279.840326 C731.181565,282.553537 733.198434,284.738478 737.232234,286.395217 L742.77868,288.664218 C747.292693,290.489032 750.594116,292.715992 752.683048,295.345165 C754.77198,297.974337 755.81643,301.197727 755.81643,305.015429 C755.81643,310.129711 754.111695,314.355532 750.702174,317.693021 C747.268643,321.05452 743.006806,322.735245 737.916535,322.735245 C733.090383,322.735245 729.104665,321.306629 725.959262,318.449354 C722.86188,315.59208 720.929047,311.570346 720.160704,306.384033 L728.660453,304.511207 C729.044624,307.776664 729.716914,310.033636 730.677343,311.282193 C732.406114,313.683264 734.9272,314.883782 738.240678,314.883782 C740.857846,314.883782 743.030782,314.007404 744.759553,312.254622 C746.488324,310.50184 747.352697,308.280883 747.352697,305.591684 C747.352697,304.511202 747.202632,303.520775 746.902499,302.620373 C746.602365,301.719972 746.134163,300.891615 745.497879,300.135277 C744.861595,299.37894 744.039241,298.670634 743.030791,298.01034 C742.022341,297.350045 740.821824,296.719774 739.429203,296.119506 L734.062836,293.886521 C726.451441,290.669086 722.6458,285.963058 722.6458,279.768295 C722.6458,275.590431 724.242489,272.096925 727.435913,269.287672 C730.629337,266.454408 734.60305,265.037798 739.357171,265.037798 C745.76803,265.037798 750.774188,268.159143 754.375795,274.401928 Z M779.491832,288.304059 L801.137378,266.118274 L812.338318,266.118274 L787.199231,291.293378 L812.482382,321.7268 L801.245426,321.7268 L781.220594,296.983887 L779.491832,298.71265 L779.491832,321.7268 L771.100131,321.7268 L771.100131,266.118274 L779.491832,266.118274 L779.491832,288.304059 Z M855.822456,274.005753 L833.528624,274.005753 L833.528624,287.367646 L855.17417,287.367646 L855.17417,295.255125 L833.528624,295.255125 L833.528624,313.839321 L855.822456,313.839321 L855.822456,321.7268 L825.136923,321.7268 L825.136923,266.118274 L855.822456,266.118274 L855.822456,274.005753 Z M931.373697,274.401928 L924.566695,278.435707 C923.294127,276.226722 922.081605,274.786101 920.929091,274.113801 C919.728555,273.345458 918.179888,272.961292 916.283042,272.961292 C913.954003,272.961292 912.02117,273.621577 910.484484,274.942166 C908.947799,276.238744 908.179468,277.871448 908.179468,279.840326 C908.179468,282.553537 910.196337,284.738478 914.230136,286.395217 L919.776582,288.664218 C924.290596,290.489032 927.592019,292.715992 929.680951,295.345165 C931.769882,297.974337 932.814333,301.197727 932.814333,305.015429 C932.814333,310.129711 931.109598,314.355532 927.700077,317.693021 C924.266546,321.05452 920.004708,322.735245 914.914438,322.735245 C910.088285,322.735245 906.102567,321.306629 902.957164,318.449354 C899.859783,315.59208 897.92695,311.570346 897.158607,306.384033 L905.658356,304.511207 C906.042527,307.776664 906.714817,310.033636 907.675245,311.282193 C909.404016,313.683264 911.925103,314.883782 915.238581,314.883782 C917.855748,314.883782 920.028685,314.007404 921.757456,312.254622 C923.486227,310.50184 924.3506,308.280883 924.3506,305.591684 C924.3506,304.511202 924.200535,303.520775 923.900401,302.620373 C923.600267,301.719972 923.132066,300.891615 922.495782,300.135277 C921.859498,299.37894 921.037143,298.670634 920.028694,298.01034 C919.020244,297.350045 917.819726,296.719774 916.427105,296.119506 L911.060738,293.886521 C903.449343,290.669086 899.643703,285.963058 899.643703,279.768295 C899.643703,275.590431 901.240391,272.096925 904.433816,269.287672 C907.62724,266.454408 911.600953,265.037798 916.355073,265.037798 C922.765933,265.037798 927.772091,268.159143 931.373697,274.401928 Z M964.485261,274.005753 L964.485261,321.7268 L956.09356,321.7268 L956.09356,274.005753 L943.307921,274.005753 L943.307921,266.118274 L977.234884,266.118274 L977.234884,274.005753 L964.485261,274.005753 Z M998.281126,266.118274 L998.281126,299.613047 C998.281126,304.391178 999.061462,307.884684 1000.62216,310.093669 C1002.9512,313.287094 1006.22861,314.883782 1010.45449,314.883782 C1014.70439,314.883782 1017.99381,313.287094 1020.32285,310.093669 C1021.88354,307.956716 1022.66388,304.46321 1022.66388,299.613047 L1022.66388,266.118274 L1031.05558,266.118274 L1031.05558,301.918063 C1031.05558,307.776677 1029.23079,312.602757 1025.58117,316.396449 C1021.47533,320.622334 1016.43316,322.735245 1010.45449,322.735245 C1004.47583,322.735245 999.44566,320.622334 995.363839,316.396449 C991.714211,312.602757 989.889425,307.776677 989.889425,301.918063 L989.889425,266.118274 L998.281126,266.118274 Z M1049.5447,321.7268 L1049.5447,266.118274 L1061.21384,266.118274 C1066.80834,266.118274 1071.22624,266.670512 1074.46769,267.775005 C1077.94924,268.855487 1081.1066,270.692279 1083.93986,273.285435 C1089.67842,278.51977 1092.54766,285.398735 1092.54766,293.922537 C1092.54766,302.47035 1089.55837,309.38533 1083.57971,314.667686 C1080.57837,317.308865 1077.43301,319.145656 1074.14354,320.178117 C1071.07017,321.210577 1066.71229,321.7268 1061.06978,321.7268 L1049.5447,321.7268 Z M1057.9364,313.839321 L1061.71806,313.839321 C1065.48775,313.839321 1068.6211,313.44315 1071.11821,312.650797 C1073.61532,311.810422 1075.8723,310.477848 1077.8892,308.653034 C1082.01904,304.883352 1084.08393,299.973236 1084.08393,293.922537 C1084.08393,287.823817 1082.04305,282.877685 1077.96123,279.083993 C1074.28759,275.698483 1068.87326,274.005753 1061.71806,274.005753 L1057.9364,274.005753 L1057.9364,313.839321 Z M1138.94909,274.005753 L1116.65525,274.005753 L1116.65525,287.367646 L1138.3008,287.367646 L1138.3008,295.255125 L1116.65525,295.255125 L1116.65525,313.839321 L1138.94909,313.839321 L1138.94909,321.7268 L1108.26355,321.7268 L1108.26355,266.118274 L1138.94909,266.118274 L1138.94909,274.005753 Z M1155.13318,321.7268 L1155.13318,262.336607 L1195.68707,304.763318 L1195.68707,266.118274 L1204.07877,266.118274 L1204.07877,325.112293 L1163.52488,282.793629 L1163.52488,321.7268 L1155.13318,321.7268 Z M1237.91065,274.005753 L1237.91065,321.7268 L1229.51895,321.7268 L1229.51895,274.005753 L1216.73331,274.005753 L1216.73331,266.118274 L1250.66027,266.118274 L1250.66027,274.005753 L1237.91065,274.005753 Z M1294.00035,274.005753 L1271.70652,274.005753 L1271.70652,287.367646 L1293.35206,287.367646 L1293.35206,295.255125 L1271.70652,295.255125 L1271.70652,313.839321 L1294.00035,313.839321 L1294.00035,321.7268 L1263.31482,321.7268 L1263.31482,266.118274 L1294.00035,266.118274 L1294.00035,274.005753 Z M1329.02075,298.028348 L1346.23635,321.7268 L1335.97182,321.7268 L1320.08882,298.964761 L1318.57615,298.964761 L1318.57615,321.7268 L1310.18445,321.7268 L1310.18445,266.118274 L1320.01678,266.118274 C1327.36406,266.118274 1332.67035,267.498869 1335.9358,270.260101 C1339.53741,273.333472 1341.33819,277.391221 1341.33819,282.43347 C1341.33819,286.371226 1340.2097,289.756686 1337.95269,292.589949 C1335.69569,295.423213 1332.7184,297.235995 1329.02075,298.028348 Z M1318.57615,291.653536 L1321.24132,291.653536 C1329.18887,291.653536 1333.16258,288.616227 1333.16258,282.541518 C1333.16258,276.850979 1329.29691,274.005753 1321.56547,274.005753 L1318.57615,274.005753 L1318.57615,291.653536 Z M1391.19714,274.401928 L1384.39013,278.435707 C1383.11757,276.226722 1381.90504,274.786101 1380.75253,274.113801 C1379.55199,273.345458 1378.00333,272.961292 1376.10648,272.961292 C1373.77744,272.961292 1371.84461,273.621577 1370.30792,274.942166 C1368.77124,276.238744 1368.00291,277.871448 1368.00291,279.840326 C1368.00291,282.553537 1370.01978,284.738478 1374.05358,286.395217 L1379.60002,288.664218 C1384.11404,290.489032 1387.41546,292.715992 1389.50439,295.345165 C1391.59332,297.974337 1392.63777,301.197727 1392.63777,305.015429 C1392.63777,310.129711 1390.93304,314.355532 1387.52352,317.693021 C1384.08998,321.05452 1379.82815,322.735245 1374.73788,322.735245 C1369.91172,322.735245 1365.92601,321.306629 1362.7806,318.449354 C1359.68322,315.59208 1357.75039,311.570346 1356.98205,306.384033 L1365.4818,304.511207 C1365.86597,307.776664 1366.53826,310.033636 1367.49868,311.282193 C1369.22746,313.683264 1371.74854,314.883782 1375.06202,314.883782 C1377.67919,314.883782 1379.85212,314.007404 1381.5809,312.254622 C1383.30967,310.50184 1384.17404,308.280883 1384.17404,305.591684 C1384.17404,304.511202 1384.02397,303.520775 1383.72384,302.620373 C1383.42371,301.719972 1382.9555,300.891615 1382.31922,300.135277 C1381.68294,299.37894 1380.86058,298.670634 1379.85213,298.01034 C1378.84368,297.350045 1377.64317,296.719774 1376.25054,296.119506 L1370.88418,293.886521 C1363.27278,290.669086 1359.46714,285.963058 1359.46714,279.768295 C1359.46714,275.590431 1361.06383,272.096925 1364.25725,269.287672 C1367.45068,266.454408 1371.42439,265.037798 1376.17851,265.037798 C1382.58937,265.037798 1387.59553,268.159143 1391.19714,274.401928 Z M1440.01163,308.220843 L1416.20513,308.220843 L1410.01039,321.7268 L1400.97041,321.7268 L1428.48654,262.624734 L1455.03025,321.7268 L1445.8462,321.7268 L1440.01163,308.220843 Z M1436.59012,300.333365 L1428.34248,281.425025 L1419.69867,300.333365 L1436.59012,300.333365 Z M1465.19969,321.7268 L1476.90486,261.940432 L1495.99328,305.159493 L1515.766,261.940432 L1526.28263,321.7268 L1517.67484,321.7268 L1512.30847,288.159996 L1495.84921,324.283928 L1479.85816,288.12398 L1473.87952,321.7268 L1465.19969,321.7268 Z M1570.99131,274.005753 L1551.61477,274.005753 L1551.61477,287.367646 L1570.30701,287.367646 L1570.30701,295.255125 L1551.61477,295.255125 L1551.61477,321.7268 L1543.22307,321.7268 L1543.22307,266.118274 L1570.99131,266.118274 L1570.99131,274.005753 Z M1594.27054,266.118274 L1594.27054,299.613047 C1594.27054,304.391178 1595.05088,307.884684 1596.61157,310.093669 C1598.94061,313.287094 1602.21802,314.883782 1606.44391,314.883782 C1610.6938,314.883782 1613.98322,313.287094 1616.31226,310.093669 C1617.87296,307.956716 1618.65329,304.46321 1618.65329,299.613047 L1618.65329,266.118274 L1627.04499,266.118274 L1627.04499,301.918063 C1627.04499,307.776677 1625.22021,312.602757 1621.57058,316.396449 C1617.46475,320.622334 1612.42258,322.735245 1606.44391,322.735245 C1600.46524,322.735245 1595.43507,320.622334 1591.35325,316.396449 C1587.70362,312.602757 1585.87884,307.776677 1585.87884,301.918063 L1585.87884,266.118274 L1594.27054,266.118274 Z M1645.53411,321.7268 L1645.53411,262.336607 L1686.08799,304.763318 L1686.08799,266.118274 L1694.4797,266.118274 L1694.4797,325.112293 L1653.92581,282.793629 L1653.92581,321.7268 L1645.53411,321.7268 Z M1712.96881,321.7268 L1712.96881,266.118274 L1724.63796,266.118274 C1730.23245,266.118274 1734.65036,266.670512 1737.8918,267.775005 C1741.37335,268.855487 1744.53072,270.692279 1747.36398,273.285435 C1753.10254,278.51977 1755.97178,285.398735 1755.97178,293.922537 C1755.97178,302.47035 1752.98249,309.38533 1747.00382,314.667686 C1744.00248,317.308865 1740.85713,319.145656 1737.56766,320.178117 C1734.49429,321.210577 1730.13641,321.7268 1724.49389,321.7268 L1712.96881,321.7268 Z M1721.36051,313.839321 L1725.14218,313.839321 C1728.91186,313.839321 1732.04521,313.44315 1734.54232,312.650797 C1737.03944,311.810422 1739.29641,310.477848 1741.31331,308.653034 C1745.44315,304.883352 1747.50804,299.973236 1747.50804,293.922537 C1747.50804,287.823817 1745.46716,282.877685 1741.38534,279.083993 C1737.7117,275.698483 1732.29737,274.005753 1725.14218,274.005753 L1721.36051,274.005753 L1721.36051,313.839321 Z" id="DETNORSKESTUDENTERSAMFUND" fill="#FFFFFF" fill-rule="nonzero"></path>
    </g>
</svg>