<?xml version="1.0" encoding="UTF-8"?>
<svg width="848px" height="848px" viewBox="0 0 848 848" version="1.1" xmlns="http://www.w3.org/2000/svg" xmlns:xlink="http://www.w3.org/1999/xlink">
    <!-- Generator: Sketch 53.2 (72643) - https://sketchapp.com -->
    <title>logo-m</title>
    <desc>Created with Sketch.</desc>
    <g id="logo-m" stroke="none" stroke-width="1" fill="none" fill-rule="evenodd">
        <rect fill="#000000" x="0" y="0" width="848" height="848"></rect>
        <path d="M657.146299,194.159214 L657.146299,560.768763 C657.146299,611.181563 630.201405,661.154121 589.642514,697 C549.083623,732.845879 492.53881,765.46991 424.008072,804.872094 C352.271979,765.46991 298.124487,732.845879 257.565596,697 C217.006705,661.154121 190.061811,611.942492 190.061811,560.768763 L190.061811,194.159214 L657.146299,194.159214 Z" id="Path" fill="#FFFFFF"></path>
        <path d="M673.804055,177.117359 L673.804055,571.408625 C669.043474,624.501795 644.937276,669.96347 601.48546,707.793651 C558.033645,745.623832 497.598339,782.330598 424.179543,823.913949 C347.326763,782.330598 289.174465,745.623832 245.72265,707.793651 C202.270834,669.96347 178.164636,624.501795 173.404055,571.408625 L173.404055,177.117359 L673.804055,177.117359 Z" id="Path" stroke="#FFFFFF" stroke-width="4"></path>
        <g id="Group" transform="translate(-911.000000, -3754.000000)">
            <path d="M1230.58449,4351.88802 C1233.39824,4350.20343 1236.56172,4348.27197 1239.04175,4349.94285 C1241.5035,4351.61373 1248.2053,4353.82633 1248.2053,4353.82633 C1248.2053,4353.82633 1245.85784,4353.3669 1258.45458,4356.05036 C1271.04675,4358.7384 1271.69133,4349.61142 1271.69133,4349.61142 L1271.85133,4349.47428 C1271.50847,4347.36225 1270.15988,4344.42735 1266.58497,4340.5393 C1254.96653,4327.88999 1257.1037,4277.71332 1282.36804,4273.50526 C1283.48348,4279.84135 1285.28237,4286.10429 1287.51782,4292.15237 C1288.09155,4293.71125 1288.64927,4295.2747 1289.33728,4296.781 C1290.007,4298.32616 1290.59672,4299.77076 1291.33502,4301.38221 C1292.0276,4302.8108 1292.73161,4304.24853 1293.43562,4305.67026 C1294.11448,4307.108 1294.96021,4308.5823 1295.71908,4310.02461 C1298.55569,4315.16525 1301.65287,4319.99045 1305.05406,4324.4568 C1305.2072,4324.93223 1305.36263,4325.40995 1305.54321,4325.88082 L1306.86208,4329.46029 C1307.32152,4330.6466 1307.83352,4331.78718 1308.3181,4332.95063 C1308.81411,4334.10721 1309.28726,4335.29352 1309.81526,4336.39753 C1310.44156,4337.67526 1311.01528,4338.7587 1311.65072,4339.89472 C1314.13989,4344.34735 1317.02908,4348.3794 1320.09426,4352.05717 C1320.47369,4352.50517 1320.85541,4352.97375 1321.23256,4353.4149 C1321.62571,4353.86291 1322.02571,4354.29491 1322.41429,4354.7292 C1323.20744,4355.60236 1323.97088,4356.47551 1324.78232,4357.27781 C1325.60519,4358.08696 1326.41663,4358.87554 1327.21893,4359.65727 C1327.26693,4359.70756 1327.31036,4359.75556 1327.36293,4359.79899 C1321.04056,4359.67327 1311.669,4358.05725 1299.81742,4351.91545 C1290.007,4346.8251 1279.62743,4370.14198 1279.62743,4370.14198 C1276.98283,4374.8369 1270.04559,4379.49525 1261.48319,4374.23804 C1252.91851,4368.97854 1242.5618,4368.91225 1242.5618,4368.91225 L1240.20062,4371.02885 C1234.91826,4373.70089 1235.3937,4369.61169 1235.3937,4369.61169 C1237.24515,4368.63796 1233.24281,4365.33277 1232.49538,4367.08823 C1231.75708,4368.84596 1231.18793,4368.2791 1231.18793,4368.2791 C1225.77986,4367.87452 1221.68152,4362.92817 1218.5089,4361.41958 C1215.33172,4359.89499 1214.758,4359.01269 1214.758,4359.01269 C1214.31228,4355.95208 1225.33185,4353.66176 1225.33185,4353.66176 C1225.33185,4353.66176 1227.75703,4353.58405 1230.58449,4351.88802 Z M1230.55249,4165.30953 C1224.77642,4163.51751 1220.65293,4152.04307 1220.13635,4149.51503 C1219.52834,4146.58014 1221.73637,4147.69558 1221.73637,4147.69558 C1220.55922,4143.48981 1222.22324,4143.78924 1222.22324,4143.78924 C1222.22324,4143.78924 1225.77529,4147.80987 1230.31477,4147.68644 C1230.38335,4147.68644 1230.46563,4147.68644 1230.55249,4147.68644 L1230.55249,4165.30953 Z M1477.47693,4321.76876 C1477.5295,4321.5379 1477.58436,4321.28647 1477.62322,4321.06475 L1477.95237,4318.74472 L1477.99122,4318.51158 L1478.0118,4318.28529 L1478.02551,4318.171 L1478.08951,4317.1607 C1478.1238,4316.49784 1478.18094,4315.8464 1478.2038,4315.18125 C1478.21523,4314.37895 1478.2038,4313.5698 1478.16266,4312.76521 C1480.94212,4311.33891 1492.94228,4303.49423 1482.06442,4277.45274 C1482.06442,4277.45274 1508.82592,4304.4291 1477.47693,4321.76876 Z M1362.88112,4016.1624 C1362.93826,4016.20354 1362.99312,4016.23783 1363.04569,4016.28126 C1363.42284,4016.5464 1363.7657,4016.89841 1364.14742,4017.20012 C1364.52685,4017.53156 1364.88343,4017.90642 1365.25601,4018.27442 C1365.59658,4018.67672 1365.99659,4019.02186 1366.30973,4019.45615 C1366.65031,4019.86759 1367.0046,4020.26302 1367.31089,4020.70646 C1367.61489,4021.13846 1367.98061,4021.52247 1368.24576,4021.96362 C1368.52005,4022.40019 1368.83777,4022.78877 1369.09149,4023.18649 C1369.33377,4023.59792 1369.60578,4023.97507 1369.83892,4024.32251 C1370.31893,4025.01737 1370.66865,4025.64595 1370.9818,4026.0551 C1371.27209,4026.48025 1371.45723,4026.71568 1371.45723,4026.71568 C1371.45723,4026.71568 1371.45495,4026.41625 1371.39552,4025.90424 C1371.3178,4025.39909 1371.26523,4024.6448 1371.00694,4023.80593 C1370.78065,4022.94649 1370.43322,4021.96362 1369.93264,4020.96703 C1369.69492,4020.45731 1369.39092,4019.95445 1369.06863,4019.46073 C1368.7852,4018.94643 1368.37833,4018.48928 1368.00118,4018.01614 C1367.63318,4017.53384 1367.17146,4017.12927 1366.73717,4016.71326 C1366.2983,4016.31326 1365.80458,4015.97497 1365.33601,4015.64353 C1365.12115,4015.50867 1364.90629,4015.38753 1364.68685,4015.26638 C1368.03547,4013.87437 1376.22758,4012.26977 1389.84605,4020.51903 C1389.84605,4020.51903 1396.12956,4023.00363 1399.39132,4031.1386 C1399.39132,4031.1386 1399.57875,4031.21403 1399.89418,4031.35346 C1403.80509,4031.34431 1408.51144,4031.49746 1413.84637,4032.2929 C1416.61441,4032.71347 1419.54244,4033.31234 1422.56191,4034.24035 C1425.5791,4035.17522 1428.68542,4036.45981 1431.67975,4038.33641 C1434.64436,4040.21986 1437.46497,4042.80732 1439.44442,4046.15594 C1441.45817,4049.49084 1442.49589,4053.50232 1442.64447,4057.58238 C1442.77704,4061.67386 1442.08217,4065.80649 1440.96444,4069.8614 C1440.36787,4071.87971 1439.71643,4073.90488 1438.92785,4075.88205 C1438.16441,4077.82265 1437.3964,4079.79067 1436.61924,4081.77013 C1435.10837,4085.71533 1433.70721,4089.76109 1432.55976,4093.91201 C1431.4146,4098.05835 1430.50259,4102.32355 1430.25573,4106.57503 C1430.16201,4108.19334 1430.19402,4109.8185 1430.3563,4111.39567 C1432.91177,4111.47338 1434.96436,4113.56027 1434.96436,4116.13173 C1434.96436,4117.40718 1434.44321,4118.56834 1433.62035,4119.41863 C1433.94035,4119.60835 1434.26264,4119.80492 1434.60779,4119.99235 C1436.66267,4121.1238 1439.29585,4122.23467 1442.47532,4122.93182 C1444.06391,4123.30668 1445.77822,4123.53069 1447.62739,4123.84155 C1449.49942,4124.1707 1451.41716,4124.63699 1453.40118,4125.27014 C1457.34181,4126.55701 1461.49043,4128.51133 1465.28934,4131.48508 C1468.53281,4134.03368 1471.55457,4137.40059 1473.50431,4141.5355 C1474.71575,4143.32295 1475.73519,4145.22698 1476.47806,4147.26358 C1478.20837,4151.83049 1478.61295,4156.85456 1477.78779,4161.50148 C1476.92835,4166.1484 1475.01976,4170.41589 1472.59001,4174.06393 C1470.16483,4177.73941 1467.28251,4180.87774 1464.24247,4183.60235 C1462.73616,4184.97379 1461.18186,4186.22867 1459.61841,4187.41725 C1458.85954,4187.98869 1458.11439,4188.55327 1457.37152,4189.11785 C1456.69037,4189.66643 1456.03893,4190.18301 1455.38749,4190.77501 C1452.80917,4193.0379 1450.63543,4195.54994 1449.29827,4198.25169 C1447.95425,4200.94201 1447.4491,4203.7969 1447.82396,4206.5078 C1448.17368,4209.24155 1449.32113,4211.76729 1450.66286,4213.98218 C1452.04574,4216.21307 1453.65261,4218.14909 1455.25949,4219.81997 C1456.87551,4221.51142 1458.47096,4222.97659 1459.97727,4224.23375 C1462.98531,4226.74807 1465.5842,4228.4578 1467.34423,4229.63039 C1468.38424,4230.3024 1469.14082,4230.76641 1469.60711,4231.03612 C1470.02083,4231.26241 1470.27226,4231.38584 1470.27226,4231.38584 L1470.11226,4231.7927 C1470.11226,4231.7927 1470.03455,4231.7767 1469.91797,4231.73328 L1469.86997,4231.83385 L1469.63683,4231.73785 L1469.61168,4231.79042 C1469.61168,4231.79042 1468.99453,4231.5687 1467.83566,4231.16412 C1466.68365,4230.7184 1465.01277,4230.03954 1462.9236,4229.08638 C1462.86645,4229.05895 1462.79559,4229.03381 1462.74759,4228.99952 C1460.60356,4228.08066 1458.07782,4226.91035 1455.29149,4225.35376 C1452.34745,4223.72631 1449.13141,4221.68514 1445.86508,4219.02682 C1444.24449,4217.67594 1442.61932,4216.17878 1441.09702,4214.42562 C1439.55871,4212.68388 1438.13241,4210.66785 1437.04668,4208.33411 C1435.95409,4206.00493 1435.20208,4203.31232 1435.24094,4200.48486 C1435.25694,4197.65739 1436.05009,4194.80478 1437.35754,4192.30646 C1438.65356,4189.767 1440.42272,4187.55211 1442.38846,4185.59552 C1444.36563,4183.6092 1446.49823,4181.88347 1448.78855,4180.26059 C1449.97028,4179.41943 1450.98972,4178.784 1452.23317,4177.9977 C1453.3509,4177.32112 1454.4572,4176.60568 1455.54064,4175.85367 C1457.70981,4174.37251 1459.78755,4172.7542 1461.74415,4171.01704 C1465.63906,4167.52442 1469.02882,4163.43293 1470.99913,4158.79973 C1471.51342,4157.59971 1471.918,4156.36998 1472.20829,4155.12197 C1472.24258,4154.47739 1472.25172,4153.83509 1472.23801,4153.19737 C1472.03915,4151.83735 1471.72371,4150.49562 1471.24828,4149.17674 C1469.93626,4145.52641 1467.62766,4142.13208 1464.59905,4139.4349 C1461.57501,4136.71486 1457.85153,4134.67369 1453.84233,4133.54454 C1451.96116,4133.00739 1449.51084,4132.63024 1447.26853,4132.0268 C1444.99878,4131.44165 1442.72447,4130.73764 1440.49358,4129.8302 C1438.26498,4128.91133 1436.06609,4127.76846 1434.05692,4126.24387 C1432.10718,4124.7627 1430.37459,4122.87925 1429.10371,4120.71922 C1427.03054,4120.21407 1425.47852,4118.36033 1425.47852,4116.13173 C1425.47852,4114.98657 1425.90367,4113.9557 1426.56425,4113.13512 C1426.25339,4110.83566 1426.25339,4108.54306 1426.42025,4106.31903 C1426.79283,4101.64468 1427.87856,4097.20805 1429.14714,4092.92914 C1430.44316,4088.65708 1431.97918,4084.55417 1433.59063,4080.57697 C1435.24094,4076.5472 1436.98268,4072.86258 1438.13241,4069.03167 C1439.28671,4065.21219 1439.99757,4061.36757 1439.99757,4057.63724 C1439.98386,4053.91376 1439.16099,4050.32742 1437.46497,4047.29881 C1435.78952,4044.25877 1433.30949,4041.81988 1430.59859,4039.97757 C1427.86256,4038.13526 1424.9368,4036.80724 1422.04991,4035.82209 C1419.15844,4034.82779 1416.31954,4034.15349 1413.61779,4033.66206 C1409.23602,4032.86662 1405.2474,4032.5329 1401.79135,4032.37747 C1404.66225,4034.14892 1409.18573,4037.97526 1410.23489,4044.96735 C1410.67604,4047.96168 1410.70347,4052.46688 1407.15142,4055.05892 C1405.41426,4056.3275 1404.00167,4057.36066 1402.82679,4058.21324 C1402.56165,4057.72181 1402.2805,4057.21666 1401.96278,4056.71608 C1401.48735,4055.95493 1401.01648,4055.12063 1400.47476,4054.31376 C1399.89875,4053.51604 1399.30903,4052.69546 1398.70788,4051.85202 C1398.04044,4051.04286 1397.36158,4050.21542 1396.67128,4049.3697 C1395.94442,4048.54683 1395.16498,4047.7491 1394.38782,4046.91252 C1393.57181,4046.12165 1392.73066,4045.32621 1391.8575,4044.53535 C1390.95921,4043.78562 1390.06777,4042.99704 1389.11004,4042.27475 C1387.20601,4040.82101 1385.20827,4039.43585 1383.1191,4038.20383 C1378.9499,4035.71237 1374.50641,4033.7352 1370.22293,4032.31576 C1368.09261,4031.56832 1365.97373,4031.04031 1363.97827,4030.53973 C1361.9691,4030.06658 1360.06279,4029.69629 1358.2822,4029.44029 C1357.20104,4029.26886 1356.17703,4029.15 1355.20787,4029.05171 C1355.13016,4028.974 1355.06844,4028.90771 1354.98844,4028.83914 C1354.98615,4028.82314 1354.97015,4028.81857 1354.97015,4028.81857 L1354.78272,4028.81399 C1354.097,4028.08941 1353.30385,4027.47683 1352.56098,4026.8094 C1352.17469,4026.47339 1351.75411,4026.1831 1351.35411,4025.86538 C1350.95181,4025.55681 1350.54495,4025.23452 1350.1038,4024.95794 C1349.6718,4024.67222 1349.25351,4024.37279 1348.79636,4024.11907 L1347.38377,4023.36706 C1346.89233,4023.15906 1346.40547,4022.92134 1345.8866,4022.73163 C1345.34945,4022.55334 1344.8283,4022.35905 1344.24772,4022.24248 C1343.71057,4022.11448 1343.13,4022.0459 1342.51742,4022.0299 C1342.22255,4022.0299 1341.91855,4022.03905 1341.60083,4022.09162 C1341.4294,4022.10762 1341.22368,4022.16248 1341.03168,4022.20591 C1340.94482,4022.22419 1340.83511,4022.26076 1340.71853,4022.30419 C1340.60653,4022.34534 1340.51053,4022.37048 1340.27739,4022.49848 L1340.50596,4022.38877 C1339.04766,4022.9602 1337.62592,4023.65735 1336.26133,4024.47794 L1336.17905,4024.43222 C1335.54589,4024.81166 1334.92646,4025.20937 1334.32531,4025.64138 L1327.57322,4024.42308 C1327.57322,4024.42308 1327.80636,4022.28591 1331.08412,4021.17504 C1329.39953,4018.57843 1326.22234,4012.33606 1335.32646,4010.11889 C1348.83521,4006.83427 1361.9211,4015.50867 1362.88112,4016.1624 Z M1247.32072,4216.68165 C1250.4979,4212.22216 1256.45912,4200.08257 1256.45912,4200.08257 C1260.87518,4188.84813 1268.21242,4188.85499 1268.21242,4188.85499 C1282.80919,4187.25268 1303.08832,4173.23421 1314.75247,4160.17118 C1324.19717,4149.60875 1330.3664,4150.31047 1332.37328,4150.96877 C1339.05451,4129.19248 1316.7045,4118.81062 1316.7045,4118.81062 C1290.71101,4109.24021 1269.98388,4086.82391 1269.98388,4086.82391 C1262.51635,4084.68674 1263.93351,4076.60435 1264.63752,4075.30376 C1265.34153,4073.9986 1264.12094,4068.07395 1264.12094,4068.07395 C1264.12094,4068.07395 1261.92663,4058.88525 1265.66153,4058.58582 C1269.40787,4058.29096 1268.78386,4062.16987 1270.39074,4061.14128 C1272.00219,4060.11041 1273.39421,4060.65899 1273.39421,4060.65899 C1273.39421,4060.65899 1280.28116,4063.1116 1292.52818,4053.30346 C1300.894,4046.60852 1315.55477,4040.77758 1324.01431,4037.74897 C1307.65752,4038.98099 1308.08724,4035.55237 1308.08724,4035.55237 L1323.66231,4029.25743 L1329.52067,4030.19458 C1327.73322,4032.02775 1326.20177,4034.13292 1325.04518,4036.40267 C1324.85775,4036.78439 1324.69089,4037.17982 1324.52632,4037.56611 C1323.70345,4039.40614 1323.05887,4041.29873 1322.60401,4043.22562 C1322.57429,4043.31476 1322.56744,4043.40162 1322.53315,4043.48162 C1322.40972,4044.03934 1322.28629,4044.59478 1322.17886,4045.15707 C1321.62571,4048.14682 1321.41999,4051.18229 1321.47256,4054.16976 C1321.52056,4057.15266 1321.71485,4060.08298 1322.07143,4063.02474 C1322.47829,4065.98706 1322.9263,4068.8991 1324.09888,4071.97114 C1324.42117,4072.7643 1324.73661,4073.50031 1325.40633,4074.40546 L1325.57548,4074.61803 L1325.76519,4074.83518 L1325.89091,4074.98375 C1326.0852,4075.18261 1326.32063,4075.40204 1326.6292,4075.62376 C1326.93321,4075.83405 1327.36064,4076.08777 1327.97094,4076.20663 C1328.57894,4076.33234 1329.31953,4076.21577 1329.80639,4075.98034 C1330.7824,4075.49119 1331.09555,4074.99061 1331.42698,4074.61346 C1331.7287,4074.20889 1331.94127,4073.86602 1332.15613,4073.53459 L1333.26015,4071.70142 C1334.6636,4069.42711 1336.3299,4067.71509 1338.51736,4066.83964 C1338.78022,4066.7345 1339.08194,4066.6225 1339.32423,4066.55393 C1339.43166,4066.51735 1339.63052,4066.46478 1339.80652,4066.41907 L1340.25224,4066.32535 C1340.89682,4066.19506 1341.52083,4066.04192 1342.19284,4065.96878 C1342.84656,4065.85677 1343.51629,4065.77677 1344.21115,4065.73334 C1344.88316,4065.65563 1345.56889,4065.62591 1346.26604,4065.60763 C1348.23406,4065.52763 1350.23409,4065.54363 1352.2364,4065.62591 L1352.24555,4065.60991 C1353.06384,4065.64191 1353.87985,4065.67849 1354.68901,4065.7242 C1357.02275,4065.8682 1359.36336,4066.05335 1361.7131,4066.23164 C1362.22739,4066.27049 1362.73026,4066.31392 1363.24226,4066.34821 C1364.67771,4066.45793 1366.13145,4066.56078 1367.59661,4066.64079 C1368.35319,4066.67279 1369.12806,4066.7185 1369.83892,4066.70479 L1370.3715,4066.70936 L1370.94522,4066.69793 L1372.0241,4066.67279 C1373.44811,4066.64079 1374.86985,4066.62707 1376.19329,4066.69793 C1377.5076,4066.75507 1378.78304,4067.05222 1379.16248,4067.55508 C1379.62191,4068.02823 1379.6402,4069.39739 1379.37962,4070.69112 C1379.18762,4071.93457 1378.68704,4072.86258 1377.70874,4073.39288 C1376.73273,4073.93231 1375.36128,4074.01688 1374.02412,4073.88202 C1372.65953,4073.74259 1371.28809,4073.4203 1369.93492,4073.01344 C1369.04806,4072.73687 1368.16576,4072.41686 1367.28575,4072.07629 C1367.09603,4072.00771 1366.89946,4071.93457 1366.71431,4071.85457 C1365.12115,4071.21913 1363.5577,4070.51055 1362.02168,4069.72197 C1364.36914,4071.40199 1366.85603,4072.90373 1369.55092,4074.0786 C1370.89037,4074.66604 1372.28467,4075.17576 1373.77726,4075.46833 C1375.25842,4075.74719 1376.90416,4075.90262 1378.56361,4075.22376 C1379.38419,4074.89918 1380.14763,4074.29574 1380.68707,4073.56202 C1381.21736,4072.82601 1381.54194,4071.96657 1381.72023,4071.19856 C1381.90308,4070.47855 1382.06537,4069.64425 1382.08366,4068.79167 C1382.10194,4067.94137 1381.95794,4066.89679 1381.31565,4065.96878 C1380.66421,4065.05676 1379.70191,4064.54247 1378.87447,4064.27275 C1378.04246,4063.98246 1377.24931,4063.85903 1376.48587,4063.76075 C1374.94985,4063.5596 1373.4824,4063.53446 1372.03095,4063.49103 L1370.95208,4063.46589 L1370.44693,4063.44989 L1369.91435,4063.42246 C1369.16691,4063.3996 1368.52233,4063.32874 1367.84347,4063.27388 C1366.43774,4063.13217 1365.02057,4062.96302 1363.60113,4062.79159 C1362.84912,4062.70245 1362.09253,4062.61559 1361.34052,4062.52644 C1360.4468,4062.41673 1359.55536,4062.32301 1358.65249,4062.22244 C1357.42962,4062.09215 1356.20217,4061.96187 1354.97015,4061.86358 C1352.06726,4061.619 1349.13236,4061.43843 1346.14946,4061.47957 C1345.41345,4061.48643 1344.65459,4061.507 1343.90486,4061.56643 C1343.146,4061.59615 1342.39627,4061.66243 1341.62826,4061.76758 C1340.86939,4061.83615 1340.08538,4061.98929 1339.31737,4062.14473 C1339.11623,4062.19044 1338.9608,4062.21787 1338.71165,4062.27273 L1338.14479,4062.42816 C1337.68992,4062.55387 1337.32878,4062.69559 1336.91963,4062.84645 C1335.33332,4063.47503 1333.85901,4064.43504 1332.63614,4065.58706 C1331.40641,4066.7345 1330.41897,4068.06252 1329.5961,4069.35168 L1328.53323,4071.08884 C1328.48523,4071.00427 1328.43723,4070.91741 1328.39608,4070.8237 C1328.36637,4070.75284 1328.34123,4070.69112 1328.30923,4070.62255 C1328.27037,4070.51969 1328.22237,4070.41912 1328.19037,4070.32083 C1327.3035,4068.01223 1326.83035,4065.19619 1326.48292,4062.46244 C1326.14005,4059.69441 1325.94119,4056.87837 1325.87262,4054.09433 C1325.86348,4053.40404 1325.85891,4052.72288 1325.86805,4052.04402 L1325.86805,4052.03945 C1325.86805,4052.00059 1325.87262,4051.96859 1325.87262,4051.9343 C1325.88634,4051.36515 1325.91148,4050.79372 1325.95034,4050.22685 C1325.95948,4050.00971 1325.98005,4049.79027 1325.99377,4049.57313 C1326.0212,4049.18227 1326.06005,4048.78226 1326.10805,4048.38911 C1326.13548,4048.15597 1326.15377,4047.91368 1326.18805,4047.68053 C1326.2452,4047.23481 1326.31606,4046.78452 1326.38234,4046.34337 C1326.40977,4046.20623 1326.4212,4046.0668 1326.44406,4045.92965 C1326.91264,4043.26219 1327.69208,4040.67701 1328.86009,4038.31126 C1329.2761,4037.48154 1329.74239,4036.6861 1330.24068,4035.91809 C1330.29325,4035.83123 1330.3504,4035.75809 1330.40525,4035.67123 C1330.64754,4035.30322 1330.90126,4034.94208 1331.16412,4034.59007 C1331.31269,4034.39807 1331.46584,4034.21521 1331.61441,4034.02778 C1331.82242,4033.77863 1332.0167,4033.52034 1332.23156,4033.28034 C1332.627,4032.83691 1333.04072,4032.40719 1333.48187,4032.00261 C1334.98817,4030.5923 1336.7322,4029.43115 1338.60422,4028.48485 L1338.46708,4028.46199 C1338.95623,4028.21513 1339.4408,4027.97741 1339.95281,4027.76027 L1340.10367,4027.68712 C1340.16538,4027.66884 1340.18596,4027.64369 1340.26367,4027.63684 C1340.39167,4027.60484 1340.54253,4027.58426 1340.71396,4027.57512 C1340.90139,4027.55683 1341.09797,4027.55226 1341.30369,4027.55683 C1341.5254,4027.55455 1341.75855,4027.55683 1341.99855,4027.59798 C1342.39627,4027.62312 1342.80999,4027.73055 1343.22371,4027.81512 C1343.642,4027.9157 1344.06258,4028.07341 1344.48544,4028.19456 L1345.74032,4028.70428 L1346.99748,4029.30314 C1347.42262,4029.48143 1347.83634,4029.72143 1348.25235,4029.94772 C1348.61121,4030.15573 1348.98836,4030.35459 1349.34494,4030.57402 C1349.34494,4030.57402 1349.35865,4030.57402 1349.37008,4030.57859 C1349.39979,4030.6083 1349.44322,4030.62659 1349.48437,4030.65173 C1350.28209,4031.18203 1351.11639,4031.64832 1351.90954,4032.21061 C1352.19297,4032.40719 1352.49012,4032.59919 1352.77812,4032.79576 L1352.78498,4032.80033 C1353.2947,4033.15234 1353.809,4033.49749 1354.30043,4033.88835 C1355.0753,4034.47578 1355.90274,4035.01065 1356.6616,4035.63466 C1357.42962,4036.22666 1358.19991,4036.81867 1358.99306,4037.39925 C1359.00449,4037.40382 1359.00678,4037.41525 1359.02735,4037.42897 C1358.79878,4037.12039 1358.55877,4036.8301 1358.3302,4036.5261 C1357.96219,4036.03923 1357.58733,4035.5478 1357.21476,4035.06551 C1357.02961,4034.83236 1356.83761,4034.61979 1356.6456,4034.3935 C1356.36217,4034.05749 1356.07874,4033.72149 1355.77931,4033.39006 L1356.60903,4033.96835 C1358.07191,4034.4415 1359.60107,4034.97865 1361.22167,4035.52951 C1363.08683,4036.21295 1365.03886,4036.96953 1367.02517,4037.81069 C1369.02063,4038.63355 1371.02523,4039.57985 1373.05268,4040.56044 C1375.04585,4041.59588 1377.08931,4042.64046 1379.02305,4043.83362 C1381.00022,4044.97192 1382.88138,4046.26566 1384.70998,4047.54567 C1385.62656,4048.19482 1386.48829,4048.89198 1387.36601,4049.54113 C1388.21631,4050.24057 1389.05518,4050.93086 1389.87805,4051.60973 C1390.66892,4052.32288 1391.45064,4053.03146 1392.21179,4053.7149 C1392.9478,4054.44176 1393.66781,4055.15035 1394.36954,4055.83607 C1395.69298,4057.27837 1396.97071,4058.64754 1398.05873,4059.99155 C1398.32159,4060.29327 1398.56159,4060.59956 1398.79702,4060.90814 C1398.91588,4061.05214 1399.0256,4061.19614 1399.14217,4061.34929 C1399.14217,4061.35386 1399.14446,4061.363 1399.14446,4061.363 C1399.29532,4061.55729 1399.44389,4061.75843 1399.59475,4061.94587 C1400.0679,4062.57673 1400.55933,4063.15731 1400.96162,4063.74246 C1401.73192,4064.92419 1402.49993,4065.9162 1403.04851,4066.78479 C1404.1251,4068.52881 1404.80168,4069.52311 1404.80168,4069.52311 C1404.80168,4069.52311 1404.78339,4069.45682 1404.75139,4069.34711 C1408.86802,4076.5472 1410.35604,4081.9987 1410.35604,4081.9987 C1410.35604,4081.9987 1414.78352,4092.49484 1420.3676,4113.20369 C1429.49229,4147.04186 1431.18603,4154.44081 1428.40885,4173.07192 C1426.46368,4186.16467 1420.13902,4198.22883 1425.95396,4216.49421 C1443.51991,4271.66067 1429.86715,4303.53538 1413.47151,4321.24304 C1414.57324,4325.94025 1419.05787,4334.18493 1437.01239,4334.97808 C1445.95194,4335.36666 1451.96116,4332.65805 1455.83779,4328.56657 L1456.77951,4327.81913 L1457.66867,4326.94598 C1458.8344,4325.73682 1459.87898,4324.3608 1460.66757,4322.84535 C1461.43558,4321.33219 1462.07787,4319.74131 1462.40473,4318.12071 C1462.75674,4316.51384 1462.9236,4314.9001 1462.90759,4313.36865 C1462.88017,4310.27375 1462.23787,4307.47829 1461.34872,4305.25197 C1461.32815,4305.20168 1461.303,4305.16054 1461.28472,4305.11483 C1460.70185,4302.55936 1459.78755,4300.52734 1458.72011,4299.40732 C1456.07322,4296.62557 1447.60453,4293.28381 1445.13364,4301.62907 C1445.13364,4301.62907 1443.19076,4310.14347 1458.89154,4313.65666 C1458.7544,4314.79267 1458.52354,4315.94011 1458.21953,4317.06927 C1457.86296,4318.35843 1457.35324,4319.59273 1456.73608,4320.76761 C1456.48008,4321.28647 1456.17379,4321.77791 1455.85607,4322.2602 C1448.95769,4320.56418 1429.46715,4313.95152 1437.23182,4294.39468 C1444.98964,4274.84014 1477.60722,4288.84947 1474.28375,4317.98814 C1470.67456,4349.70056 1425.63853,4371.44486 1397.31129,4334.50265 C1392.24837,4337.62269 1387.94659,4339.47186 1385.4757,4340.41816 C1392.13865,4347.38968 1387.07801,4351.3783 1385.34999,4356.10065 C1383.4071,4361.38301 1392.66437,4365.43106 1402.17536,4372.4323 C1411.68405,4379.43125 1410.63261,4383.0633 1404.5251,4395.46118 C1398.40845,4407.85677 1402.55707,4415.84773 1402.55707,4415.84773 C1402.74222,4422.00096 1401.91935,4431.86852 1400.61648,4437.31545 C1399.32046,4442.74638 1398.77645,4443.10753 1397.20157,4445.09384 C1395.61527,4447.07787 1395.07812,4445.20584 1394.6644,4443.65611 C1394.24839,4442.11323 1391.98093,4441.55093 1391.70893,4442.89952 C1391.44378,4444.2664 1391.2655,4445.17155 1391.2655,4445.17155 C1390.67577,4451.24935 1377.7636,4450.77163 1375.38871,4450.32362 C1373.02297,4449.88933 1374.5247,4448.57731 1374.5247,4448.57731 C1371.03208,4448.19788 1371.75666,4447.04129 1371.75666,4447.04129 C1371.75666,4447.04129 1375.82986,4445.60585 1377.11216,4442.17494 C1378.4059,4438.75547 1378.62533,4435.62171 1380.62535,4431.69709 C1386.50429,4420.09008 1388.23688,4407.21219 1388.74432,4400.99268 C1386.89744,4393.84287 1380.26421,4387.01763 1364.24799,4380.21526 C1362.90855,4379.64382 1361.60796,4379.0541 1360.33708,4378.43695 C1359.37021,4377.82437 1358.03762,4376.93521 1356.32789,4375.90663 C1355.42959,4375.33519 1354.50158,4374.60833 1353.44556,4373.86546 C1352.42155,4373.09516 1351.2581,4372.36144 1350.0878,4371.46314 C1347.79291,4369.61169 1345.15517,4367.6368 1342.52427,4365.2002 C1341.86141,4364.58762 1341.13911,4364.03904 1340.48539,4363.37846 C1339.82252,4362.72245 1339.15051,4362.05502 1338.46708,4361.38301 C1337.05906,4360.07327 1335.72418,4358.60583 1334.35502,4357.11552 C1332.92414,4355.65493 1331.65556,4353.98634 1330.25668,4352.38403 C1329.59381,4351.56573 1328.96066,4350.69029 1328.28637,4349.85371 C1327.95265,4349.4217 1327.61893,4348.99427 1327.27607,4348.56684 C1326.96521,4348.12112 1326.64978,4347.67311 1326.33206,4347.22282 C1325.0429,4345.43537 1323.81774,4343.57477 1322.60401,4341.67989 C1321.44742,4339.75529 1320.28169,4337.79641 1319.24168,4335.79181 C1319.01082,4335.34837 1318.78224,4334.8958 1318.55595,4334.44779 C1318.33652,4333.99064 1318.14223,4333.56549 1317.95709,4333.15177 C1317.90452,4333.03977 1317.84051,4332.91634 1317.80394,4332.81805 C1317.32165,4331.72318 1316.90793,4330.63288 1316.45078,4329.54715 C1316.0142,4328.45914 1315.53877,4327.36884 1315.12734,4326.26711 L1313.93875,4322.94364 C1312.37301,4318.52529 1311.06328,4314.03609 1310.20841,4309.57431 C1310.16727,4309.36174 1310.13755,4309.15145 1310.0987,4308.93431 C1309.89527,4307.86458 1309.71926,4306.79713 1309.56383,4305.72969 C1309.44726,4304.93882 1309.34669,4304.14567 1309.25983,4303.36166 C1309.20726,4302.91823 1309.17297,4302.48165 1309.13868,4302.04507 C1309.07926,4301.46678 1309.03583,4300.89077 1308.99697,4300.31248 C1308.96954,4299.95819 1308.95354,4299.61304 1308.93754,4299.25875 C1308.88954,4298.31702 1308.8644,4297.37301 1308.87125,4296.45643 C1308.88268,4295.51927 1308.93525,4294.59811 1308.99697,4293.67696 C1309.02211,4293.36153 1309.04954,4293.05524 1309.07697,4292.73066 C1309.12726,4292.13408 1309.19126,4291.52836 1309.2644,4290.93407 C1309.30554,4290.57749 1309.35126,4290.23234 1309.40155,4289.88948 C1309.52726,4289.0849 1309.65983,4288.28489 1309.81526,4287.49173 C1310.03012,4286.44943 1310.27699,4285.42542 1310.56499,4284.42198 C1311.61643,4280.68479 1313.1936,4277.32931 1315.01305,4274.40356 C1315.39248,4273.79327 1315.79706,4273.19897 1316.19935,4272.62068 C1316.35707,4272.38753 1316.51707,4272.1681 1316.68621,4271.93953 C1316.89422,4271.66067 1317.09308,4271.3818 1317.31251,4271.11666 C1317.7948,4270.49265 1318.27481,4269.88464 1318.77081,4269.30635 C1319.48625,4268.47434 1320.20169,4267.67661 1320.91256,4266.94746 C1322.94458,4264.91543 1324.89889,4263.2697 1326.5972,4262.01711 C1328.30923,4260.79195 1329.71953,4259.86394 1330.71612,4259.2925 C1331.70813,4258.70964 1332.26585,4258.43992 1332.26585,4258.43992 C1332.26585,4258.43992 1331.6487,4258.52678 1330.51954,4258.82164 C1329.4041,4259.14621 1327.74236,4259.61022 1325.72633,4260.49709 C1323.71945,4261.37024 1321.29885,4262.56112 1318.73196,4264.32571 C1316.16506,4266.07659 1313.42674,4268.38519 1310.88271,4271.36123 C1308.74782,4273.85041 1306.75922,4276.82873 1305.16149,4280.21392 C1304.85291,4280.86536 1304.55119,4281.52137 1304.27462,4282.20709 C1302.54888,4286.41515 1301.4243,4291.14664 1301.01972,4296.06099 C1300.94886,4296.861 1300.91,4297.67244 1300.88486,4298.47931 C1300.87343,4298.68046 1300.86886,4298.87017 1300.86886,4299.07132 C1300.85057,4299.83476 1300.83229,4300.62105 1300.85057,4301.40963 L1300.85057,4301.48964 C1300.86886,4302.35365 1300.90315,4303.22452 1300.94886,4304.09767 C1300.96258,4304.1891 1300.96715,4304.2691 1300.97172,4304.35367 C1301.01972,4305.13768 1301.08829,4305.91712 1301.16601,4306.69199 C1300.61971,4305.46912 1300.06199,4304.2851 1299.5477,4302.97994 C1298.96255,4301.50106 1298.37283,4300.01762 1297.78768,4298.52731 C1297.29395,4297.18329 1296.77966,4295.61756 1296.28137,4294.18211 C1295.74422,4292.71695 1295.3305,4291.21293 1294.91449,4289.72948 C1293.2139,4283.76597 1291.9636,4277.70189 1291.41502,4271.69038 C1290.8413,4265.6903 1290.8573,4259.76565 1291.41502,4254.113 C1292.49846,4242.78714 1295.78765,4232.63614 1299.6437,4224.52404 C1301.20029,4221.24628 1302.82089,4218.31824 1304.43005,4215.70335 C1304.88034,4215.77649 1305.3192,4215.86335 1305.76721,4215.91592 C1306.46436,4215.98449 1307.17752,4216.03707 1307.87695,4216.05307 C1308.58553,4216.06907 1309.29869,4216.05764 1310.00041,4215.99821 C1310.71585,4215.95706 1311.413,4215.85192 1312.1193,4215.75592 C1313.5136,4215.5182 1314.89876,4215.16163 1316.23592,4214.71362 C1316.91479,4214.51247 1317.55023,4214.21076 1318.20395,4213.95704 C1318.85539,4213.68275 1319.47254,4213.36732 1320.11026,4213.06331 L1320.33883,4212.93302 C1320.78455,4212.67702 1321.46571,4212.30902 1322.06229,4212.01644 C1322.67487,4211.71472 1323.31945,4211.43129 1323.96631,4211.16157 C1325.24861,4210.60614 1326.56292,4210.15813 1327.88636,4209.76955 C1328.54466,4209.57755 1329.21438,4209.39012 1329.88639,4209.25526 C1330.55383,4209.10669 1331.21669,4208.98097 1331.8887,4208.86897 L1334.0853,4208.60154 C1335.1116,4208.47354 1335.95047,4208.27696 1336.82591,4208.02553 C1340.27739,4206.9718 1343.27857,4204.99463 1345.54374,4202.42546 C1346.66376,4201.12944 1347.60548,4199.68028 1348.22492,4198.09168 C1348.81464,4196.50995 1349.11408,4194.74992 1348.6935,4193.18647 C1348.34835,4194.37278 1347.78149,4195.3785 1347.07976,4196.26537 C1346.88319,4196.52366 1346.66376,4196.77509 1346.4329,4197.01281 C1345.46146,4198.08025 1344.32544,4198.95112 1343.14371,4199.71228 C1340.76654,4201.20715 1338.13564,4202.17631 1335.57104,4202.52374 C1334.94246,4202.6106 1334.25216,4202.6586 1333.72873,4202.6586 L1333.16186,4202.64717 L1332.60871,4202.6586 L1331.31269,4202.67917 C1330.45097,4202.74775 1329.58239,4202.78432 1328.73209,4202.93746 C1327.88636,4203.06546 1327.0475,4203.23918 1326.21548,4203.42661 C1324.54918,4203.82433 1322.94458,4204.37977 1321.37885,4205.01978 C1320.60169,4205.36264 1319.83368,4205.71007 1319.07939,4206.11236 C1318.33652,4206.4918 1317.68737,4206.84837 1316.88736,4207.36952 C1316.42792,4207.61638 1315.97306,4207.88381 1315.50448,4208.10782 C1314.99933,4208.33411 1314.49647,4208.61068 1313.99132,4208.81411 C1313.48389,4209.0404 1312.96502,4209.25526 1312.44159,4209.43126 C1311.92501,4209.62555 1311.38786,4209.76727 1310.86899,4209.94556 C1310.36613,4210.09184 1309.86098,4210.2107 1309.34669,4210.31585 C1308.96268,4210.41185 1308.56496,4210.46213 1308.17639,4210.53299 C1308.0781,4210.54671 1307.96838,4210.56956 1307.86781,4210.57871 C1306.67922,4210.75928 1305.47006,4210.853 1304.24262,4210.84614 C1303.68261,4210.83471 1303.09975,4210.82328 1302.52831,4210.77985 C1301.9523,4210.74328 1301.38087,4210.66557 1300.80486,4210.57871 C1300.21742,4210.50328 1299.63456,4210.4027 1299.05398,4210.27699 C1298.48026,4210.14899 1297.88825,4210.02099 1297.31224,4209.85413 C1296.73166,4209.68955 1296.1488,4209.51812 1295.56365,4209.32612 C1294.98992,4209.11583 1294.39563,4208.93297 1293.81734,4208.69982 C1292.66532,4208.22668 1291.51559,4207.71695 1290.37043,4207.10666 C1288.49155,4206.06665 1285.25951,4205.24835 1280.66059,4207.45638 C1276.45253,4209.46326 1275.69367,4213.11131 1273.24335,4217.54566 C1271.72561,4221.23714 1269.8993,4224.54232 1267.92442,4228.28866 C1264.67409,4234.42588 1263.90837,4234.69331 1261.39633,4236.5882 C1258.87973,4238.48994 1258.81116,4236.0579 1258.79516,4234.06702 C1258.77458,4232.08071 1256.21912,4230.70698 1255.47854,4232.25671 C1254.72882,4233.79959 1254.23738,4234.84875 1254.23738,4234.84875 C1251.6362,4241.9597 1236.26685,4237.39049 1233.54682,4236.13105 C1230.82678,4234.86017 1233.0371,4233.75616 1233.0371,4233.75616 C1228.95476,4232.20871 1230.18906,4231.03612 1230.18906,4231.03612 C1230.18906,4231.03612 1235.53313,4230.58355 1238.14574,4226.85778 C1240.74463,4223.13659 1244.1321,4221.13885 1247.32072,4216.68165 Z M1262.74264,4146.46585 C1274.39079,4143.33667 1278.74742,4149.2316 1278.74742,4149.2316 C1284.63779,4155.58597 1295.17507,4160.95747 1306.40493,4164.61924 C1305.8335,4165.0421 1305.23463,4165.46953 1304.62434,4165.91983 C1303.45632,4166.81584 1302.15573,4167.67528 1300.87343,4168.64672 C1299.5477,4169.55416 1298.21511,4170.52789 1296.81852,4171.46733 C1295.43793,4172.4182 1294.03448,4173.3805 1292.59675,4174.29251 C1291.20016,4175.26852 1289.72357,4176.11882 1288.32241,4177.0354 C1286.88239,4177.87427 1285.50637,4178.77943 1284.10064,4179.54744 C1282.7429,4180.36573 1281.38289,4181.06746 1280.0983,4181.77604 C1279.46057,4182.1509 1278.81371,4182.41605 1278.20113,4182.74976 C1277.89255,4182.90519 1277.58169,4183.0652 1277.27769,4183.22748 C1277.09026,4181.52003 1277.2114,4180.45259 1277.2114,4180.45259 C1277.2114,4180.45259 1278.89371,4174.36794 1271.21361,4170.29245 C1267.10612,4168.11185 1263.72094,4169.67988 1258.69001,4170.34503 C1254.83396,4171.32561 1251.0922,4171.8239 1246.89785,4172.4662 C1242.24408,4173.17935 1240.43377,4173.19307 1238.81317,4172.85706 L1238.81317,4193.18647 C1238.57546,4197.03338 1232.91595,4197.03338 1232.66681,4193.18647 L1232.66681,4165.53811 C1232.62566,4165.54039 1232.59138,4165.53125 1232.55252,4165.53811 L1232.55252,4144.18925 C1232.57309,4128.78561 1232.66681,4066.71393 1232.66681,4039.34213 C1232.91595,4035.49751 1238.57546,4035.49751 1238.81317,4039.34213 L1238.81317,4148.65559 C1240.38348,4148.87274 1242.05665,4149.03503 1243.9561,4149.00303 C1249.43046,4148.90931 1262.74264,4146.46585 1262.74264,4146.46585 Z M1136.55581,4042.18332 L1228.60732,4042.18332 L1228.60732,4123.51926 L1136.55581,4123.51926 L1165.94134,4082.85586 L1136.55581,4042.18332 Z" id="Fill-10" fill="#000000"></path>
            <path d="M1224.09755,3843.48809 C1224.3787,3843.48809 1224.65298,3843.43095 1224.92499,3843.4058 L1235.81656,3895.70136 L1316.97422,3895.70136 L1336.2499,3857.04256 L1355.5233,3895.70136 L1436.38381,3895.70136 L1447.28681,3843.36009 C1450.86401,3842.75665 1453.58633,3839.66633 1453.58633,3835.92228 C1453.58633,3831.74622 1450.20343,3828.35417 1446.0228,3828.35417 C1441.84674,3828.35417 1438.45927,3831.74622 1438.45927,3835.92228 C1438.45927,3838.85031 1440.14843,3841.36921 1442.58504,3842.62408 L1406.71027,3867.22326 L1394.31925,3837.28229 C1397.56729,3836.43428 1399.98104,3833.50853 1399.98104,3829.9862 C1399.98104,3825.81014 1396.59585,3822.42038 1392.42208,3822.42038 C1388.24374,3822.42038 1384.85627,3825.81014 1384.85627,3829.9862 C1384.85627,3833.51996 1387.29287,3836.46857 1390.56377,3837.29601 L1377.62874,3867.81527 C1377.62874,3867.81527 1340.2111,3836.04342 1339.10023,3809.11963 C1342.70256,3807.86933 1345.2946,3804.48871 1345.2946,3800.46809 C1345.2946,3795.38459 1341.18026,3791.27025 1336.09219,3791.27025 C1331.02241,3791.27025 1326.89892,3795.38459 1326.89892,3800.46809 C1326.89892,3804.48871 1329.49781,3807.86933 1333.09329,3809.11963 C1331.98242,3836.04799 1294.56249,3867.81527 1294.56249,3867.81527 L1281.68918,3837.42858 C1285.28237,3836.84572 1288.03669,3833.74853 1288.03669,3829.9862 C1288.03669,3825.81014 1284.64921,3822.42038 1280.46859,3822.42038 C1276.2971,3822.42038 1272.90277,3825.81014 1272.90277,3829.9862 C1272.90277,3833.27995 1275.02394,3836.04799 1277.95884,3837.09258 L1265.48553,3867.22326 L1228.63018,3841.9475 C1230.45649,3840.56691 1231.66336,3838.39317 1231.66336,3835.92228 C1231.66336,3831.74622 1228.27589,3828.35417 1224.09755,3828.35417 C1219.91235,3828.35417 1216.53173,3831.74622 1216.53173,3835.92228 C1216.53173,3840.09605 1219.91235,3843.48809 1224.09755,3843.48809" id="Fill-1" fill="#FFFFFF"></path>
            <polyline id="Fill-2" fill="#FFFFFF" points="1235.96514 3902.82374 1235.96514 3918.84224 1336.24305 3918.84224 1320.22912 3902.82374 1235.96514 3902.82374"></polyline>
            <path d="M1446.44795,4127.03016 C1446.91195,4127.09874 1447.37824,4127.18559 1447.85597,4127.27931 C1448.93027,4127.48731 1450.03199,4127.76389 1451.13144,4128.06332 C1451.28915,4128.09761 1451.44687,4128.13189 1451.6023,4128.15475 C1452.6446,4128.33989 1453.87433,4128.55704 1455.08806,4128.87476 C1457.01037,4129.36848 1458.88468,4130.03592 1460.69499,4130.86564 C1458.13953,4129.16962 1455.45607,4127.86217 1452.83889,4126.89073 C1450.96915,4126.19815 1449.11998,4125.67014 1447.35082,4125.277 C1445.55651,4124.91585 1443.78734,4124.57527 1442.17589,4124.11584 C1439.00328,4123.25868 1436.37924,4122.0061 1434.35179,4120.77865 C1436.39296,4122.94554 1439.14499,4124.5387 1442.14617,4125.67014 C1443.53819,4126.19815 1444.97593,4126.64159 1446.44795,4127.03016" id="Fill-7" fill="#FFFFFF"></path>
            <path d="M1449.91085,4187.86069 C1448.96227,4188.59899 1448.05711,4189.37385 1447.21139,4190.18986 C1445.51079,4191.78988 1444.02277,4193.52705 1442.96219,4195.37393 C1442.41589,4196.29509 1441.9976,4197.2551 1441.69588,4198.21283 C1441.39645,4199.17741 1441.1793,4200.15571 1441.13588,4201.12944 C1441.04216,4203.08375 1441.40788,4205.04492 1442.16675,4206.89637 C1443.26162,4209.53869 1444.92793,4211.90901 1446.75424,4214.01647 C1445.53136,4212.0393 1444.51421,4209.76041 1443.98849,4207.16609 C1443.64562,4205.45864 1443.53819,4203.63233 1443.74848,4201.79459 C1443.95877,4199.95457 1444.47763,4198.10768 1445.23879,4196.36823 C1446.76567,4192.86876 1449.19998,4189.79443 1452.00002,4187.09039 C1452.68117,4186.42067 1453.46518,4185.75552 1454.21262,4185.10408 C1454.9372,4184.51664 1455.67093,4183.91778 1456.40922,4183.31663 C1456.8298,4182.97834 1457.23666,4182.62862 1457.63895,4182.28347 C1456.06636,4183.47892 1454.47777,4184.62407 1452.8846,4185.68466 C1451.79659,4186.42753 1450.85486,4187.11554 1449.91085,4187.86069" id="Fill-8" fill="#FFFFFF"></path>
            <path d="M1320.70227,4061.93444 C1320.60855,4061.47957 1320.41655,4060.91271 1320.10569,4060.29327 C1319.46568,4059.06354 1318.27023,4057.75609 1316.55364,4057.02694 C1316.12163,4056.84408 1315.65763,4056.69551 1315.16391,4056.60179 C1314.87819,4056.56751 1314.59704,4056.52636 1314.31818,4056.49436 C1314.09418,4056.48751 1313.8656,4056.48751 1313.64389,4056.48522 C1313.00159,4056.47836 1312.56502,4056.59494 1312.09872,4056.75265 C1311.65072,4056.91037 1311.27357,4057.12066 1310.96271,4057.36066 C1310.33641,4057.83838 1309.99127,4058.35267 1309.80612,4058.73211 C1309.61641,4059.13211 1309.57298,4059.36983 1309.57298,4059.36983 C1309.57298,4059.36983 1309.80841,4059.31269 1310.20613,4059.2944 C1310.39127,4059.28069 1310.61985,4059.26469 1310.86671,4059.28069 C1311.10442,4059.28069 1311.36729,4059.28069 1311.62786,4059.33554 C1311.89072,4059.38126 1312.15587,4059.44983 1312.39359,4059.52755 C1312.61987,4059.62583 1312.91931,4059.72412 1313.01759,4059.84527 L1313.07245,4059.87498 L1313.20274,4059.9367 L1313.4656,4060.07155 L1313.50217,4060.08298 L1313.5136,4060.09441 C1313.48389,4060.08298 1313.41531,4060.06698 1313.41531,4060.06698 L1313.42674,4060.07384 L1313.4336,4060.0807 L1313.48389,4060.11498 L1313.56846,4060.19041 L1313.74217,4060.33213 C1313.99132,4060.5287 1314.26104,4060.71613 1314.54219,4060.91271 C1315.68277,4061.67843 1317.10908,4062.26587 1318.38681,4062.51502 C1319.03139,4062.63159 1319.62111,4062.69102 1320.0714,4062.69559 C1320.28398,4062.7093 1320.48741,4062.69102 1320.60855,4062.68188 C1320.74113,4062.6773 1320.8097,4062.6773 1320.8097,4062.6773 C1320.8097,4062.6773 1320.80284,4062.60416 1320.78227,4062.47387 C1320.77084,4062.34587 1320.75941,4062.14701 1320.70227,4061.93444" id="Fill-9" fill="#FFFFFF"></path>
            <path d="M1274.85023,4069.52311 L1274.68565,4069.33796 L1274.54394,4069.18482 L1274.51422,4069.14596 L1274.44336,4069.07967 L1274.17822,4068.82596 C1273.85364,4068.46481 1273.55421,4068.10366 1273.35992,4067.69908 C1273.14049,4067.30594 1273.00792,4066.87622 1272.9142,4066.44878 C1272.73134,4065.5802 1272.76563,4064.73905 1272.84106,4064.14247 C1272.84106,4064.11275 1272.84106,4064.09218 1272.84563,4064.06246 L1272.98049,4063.1756 C1272.98049,4063.1756 1272.65591,4063.37217 1272.23305,4063.87275 C1272.02505,4064.12189 1271.77361,4064.43961 1271.55875,4064.86019 C1271.34161,4065.26934 1271.10846,4065.77677 1270.99418,4066.38021 C1270.87532,4066.97908 1270.82503,4067.67623 1270.96217,4068.40995 C1271.08103,4069.14596 1271.38732,4069.8934 1271.81019,4070.58141 L1271.84447,4070.63398 L1269.99988,4082.73014 C1269.99988,4082.73014 1270.08673,4082.71186 1270.26045,4082.68671 C1270.4136,4082.63186 1270.69703,4082.61128 1270.98503,4082.46042 C1271.28675,4082.33471 1271.66847,4082.17471 1272.03647,4081.90042 C1272.43648,4081.65584 1272.82963,4081.31984 1273.24335,4080.93126 C1273.43992,4080.72097 1273.64335,4080.5084 1273.85364,4080.28668 C1274.04107,4080.04211 1274.23765,4079.79067 1274.43194,4079.52781 C1274.80223,4078.99295 1275.15652,4078.39408 1275.45138,4077.73579 C1275.73938,4077.07978 1275.98853,4076.35977 1276.14396,4075.59862 C1276.22624,4075.21461 1276.26967,4074.81004 1276.32225,4074.40775 C1276.33825,4073.99631 1276.33825,4073.57802 1276.32225,4073.15516 C1276.20567,4072.27743 1276.09139,4071.48885 1275.56338,4070.54712 C1275.44223,4070.32541 1275.29823,4070.06026 1275.17709,4069.90483 L1274.85023,4069.52311 Z" id="Fill-11" fill="#FFFFFF"></path>
            <polyline id="Fill-12" fill="#FFFFFF" points="1336.33676 3918.83995 1436.02266 3918.83995 1436.02266 3902.82374 1352.35983 3902.82374 1336.33676 3918.83995"></polyline>
        </g>
    </g>
</svg>