<?xml version="1.0" encoding="UTF-8"?>
<svg width="848px" height="848px" viewBox="0 0 848 848" version="1.1" xmlns="http://www.w3.org/2000/svg" xmlns:xlink="http://www.w3.org/1999/xlink">
    <!-- Generator: Sketch 53.2 (72643) - https://sketchapp.com -->
    <title>Logo/Responsiv/L</title>
    <desc>Created with Sketch.</desc>
    <g id="Logo/Responsiv/L" stroke="none" stroke-width="1" fill="none" fill-rule="evenodd">
        <rect fill="#000000" x="0" y="0" width="848" height="848"></rect>
        <g id="Group-2" transform="translate(45.000000, 35.000000)" fill="#FFFFFF">
            <path d="M276.917009,48.122855 C277.175194,48.122855 277.427082,48.0703784 277.67687,48.0472887 L287.678916,96.0718027 L362.208327,96.0718027 L379.909745,60.570312 L397.609063,96.0718027 L471.865596,96.0718027 L481.878137,48.0053074 C485.163174,47.4511541 487.663161,44.6132179 487.663161,41.174949 C487.663161,37.3399568 484.556544,34.2249439 480.717354,34.2249439 C476.882362,34.2249439 473.771547,37.3399568 473.771547,41.174949 C473.771547,43.8638516 475.322756,46.1770215 477.56036,47.3294083 L444.61553,69.9195487 L433.236498,42.4238928 C436.219269,41.6451396 438.435882,38.9583361 438.435882,35.7236765 C438.435882,31.8886843 435.327167,28.7757705 431.494273,28.7757705 C427.657182,28.7757705 424.546367,31.8886843 424.546367,35.7236765 C424.546367,38.9688314 426.783971,41.6766256 429.787733,42.4364872 L417.909123,70.4632066 C417.909123,70.4632066 383.547425,41.2861995 382.527279,16.5613098 C385.835406,15.4131211 388.215746,12.3086035 388.215746,8.61634775 C388.215746,3.94802661 384.437428,0.169709141 379.764909,0.169709141 C375.109182,0.169709141 371.322469,3.94802661 371.322469,8.61634775 C371.322469,12.3086035 373.709106,15.4131211 377.010936,16.5613098 C375.99079,41.2903976 341.626992,70.4632066 341.626992,70.4632066 L329.805057,42.558233 C333.104788,42.0229714 335.634161,39.1787379 335.634161,35.7236765 C335.634161,31.8886843 332.523346,28.7757705 328.684156,28.7757705 C324.853362,28.7757705 321.73625,31.8886843 321.73625,35.7236765 C321.73625,38.7484296 323.684183,41.2903976 326.379382,42.2496704 L314.924783,69.9195487 L281.079455,46.708085 C282.756608,45.4402496 283.864915,43.4440385 283.864915,41.174949 C283.864915,37.3399568 280.7541,34.2249439 276.917009,34.2249439 C273.07362,34.2249439 269.969103,37.3399568 269.969103,41.174949 C269.969103,45.0078422 273.07362,48.122855 276.917009,48.122855" id="Fill-1"></path>
            <polyline id="Fill-2" points="287.815355 102.61249 287.815355 117.322739 379.903448 117.322739 365.197396 102.61249 287.815355 102.61249"></polyline>
            <path d="M360.302376,727.183061 C360.881718,728.274575 361.610094,729.124696 362.474909,729.733425 C363.312436,730.331659 364.372464,730.631825 365.636101,730.631825 C367.72677,730.631825 369.345149,729.636868 370.577301,727.596577 C371.851433,725.495413 372.493747,722.521037 372.493747,718.770007 C372.493747,717.443398 372.359407,716.018133 372.094925,714.54249 C371.830443,713.089937 371.437917,711.840993 370.91525,710.841838 C370.37579,709.796503 369.666306,708.95058 368.793095,708.318762 C367.942974,707.710033 366.880847,707.40147 365.636101,707.40147 C364.359869,707.40147 363.255761,707.718429 362.363658,708.339752 C361.442169,708.975769 360.690703,709.867872 360.115559,710.978277 C359.563505,712.034107 359.166782,713.253664 358.940083,714.605462 C358.711285,715.984548 358.591638,717.342643 358.591638,718.637766 C358.591638,720.342207 358.732275,721.933299 359.007253,723.369059 C359.280131,724.794325 359.716737,726.078953 360.302376,727.183061" id="Fill-3"></path>
            <path d="M450.595767,710.356954 C451.731362,709.563507 452.581483,708.541262 453.097853,707.302814 C453.6667,705.930025 453.956371,704.273863 453.956371,702.378407 C453.956371,700.315026 453.345543,698.616882 452.130184,697.344848 C450.910627,696.056022 449.380409,695.430501 447.470259,695.430501 C445.551714,695.430501 444.027792,696.032933 442.816631,697.267183 C441.599174,698.511929 441.003039,700.008562 441.003039,701.862037 C441.003039,703.623153 441.678938,705.075706 443.064321,706.307857 C444.4602,707.556801 446.99587,708.921193 450.595767,710.356954" id="Fill-4"></path>
            <path d="M447.470259,730.631825 C449.817014,730.631825 451.691479,729.953827 453.051674,728.606227 C454.434958,727.248132 455.10456,725.564682 455.10456,723.463517 C455.10456,722.420282 454.87996,721.496693 454.437057,720.71794 C453.983659,719.922394 453.316156,719.185622 452.449242,718.520219 C451.599121,717.861112 450.383762,717.151628 448.824156,716.423253 C447.340117,715.70957 445.696549,714.972798 443.924938,714.225531 C442.401017,715.10294 441.259125,716.200752 440.530749,717.497974 C439.760392,718.87706 439.372065,720.47025 439.372065,722.235564 C439.372065,724.752343 440.113035,726.805229 441.578183,728.333349 C443.055925,729.884558 444.987065,730.631825 447.470259,730.631825" id="Fill-5"></path>
            <polyline id="Fill-6" points="246.789125 716.064312 256.828954 716.064312 251.774405 703.119377 246.789125 716.064312"></polyline>
            <path d="M481.10778,308.507702 C481.53389,308.570674 481.9621,308.650439 482.400804,308.736501 C483.387365,308.927515 484.399114,309.181502 485.408765,309.45648 C485.5536,309.487966 485.698436,309.519452 485.841172,309.540442 C486.798346,309.710467 487.927643,309.909878 489.042247,310.201648 C490.807561,310.655046 492.528794,311.267973 494.191254,312.029934 C491.844499,310.472427 489.380196,309.271762 486.976766,308.379659 C485.259731,307.743643 483.561587,307.258759 481.936911,306.897719 C480.289145,306.566067 478.664468,306.253306 477.184627,305.831394 C474.271124,305.044245 471.861397,303.893957 469.999527,302.766759 C471.873992,304.756673 474.401266,306.219721 477.157339,307.258759 C478.43567,307.743643 479.755982,308.150861 481.10778,308.507702" id="Fill-7"></path>
            <path d="M484.287864,364.370126 C483.416752,365.048124 482.585522,365.759707 481.808868,366.509074 C480.247163,367.978419 478.880672,369.573709 477.906705,371.269754 C477.405029,372.115677 477.0209,372.997284 476.743823,373.876793 C476.468846,374.762598 476.269435,375.660998 476.229552,376.5552 C476.143491,378.349901 476.479341,380.150899 477.176231,381.851142 C478.181683,384.277661 479.711902,386.454392 481.389055,388.38973 C480.266055,386.574038 479.331971,384.48127 478.849186,382.098831 C478.534326,380.53083 478.43567,378.853676 478.628784,377.166028 C478.821898,375.47628 479.298386,373.780236 479.997374,372.182847 C481.39955,368.969178 483.635055,366.145935 486.206409,363.662741 C486.831931,363.047715 487.55191,362.436887 488.238305,361.838653 C488.903708,361.299194 489.577508,360.749239 490.255506,360.197184 C490.641734,359.886523 491.015368,359.565366 491.384803,359.248407 C489.940647,360.346218 488.481796,361.39785 487.018748,362.371816 C486.019593,363.054012 485.154778,363.685831 484.287864,364.370126" id="Fill-8"></path>
            <path d="M365.631903,248.728423 C365.545841,248.310709 365.36952,247.790141 365.084047,247.221294 C364.496308,246.091997 363.398497,244.891332 361.822099,244.22173 C361.425376,244.053805 360.999266,243.917365 360.545868,243.831304 C360.283485,243.799818 360.025299,243.762034 359.769214,243.732648 C359.563505,243.72635 359.353599,243.72635 359.149989,243.724251 C358.560152,243.717954 358.15923,243.825006 357.731021,243.969842 C357.319604,244.114677 356.973259,244.307791 356.687786,244.528193 C356.112642,244.966898 355.795683,245.439188 355.625659,245.787632 C355.451436,246.154969 355.411554,246.373272 355.411554,246.373272 C355.411554,246.373272 355.627758,246.320795 355.992995,246.304002 C356.163019,246.291408 356.372926,246.276715 356.599625,246.291408 C356.817928,246.291408 357.05932,246.291408 357.298614,246.341786 C357.540006,246.383767 357.783498,246.446739 358.001801,246.518107 C358.209608,246.608367 358.484586,246.698627 358.574845,246.809877 L358.625223,246.837165 L358.74487,246.89384 L358.986262,247.017685 L359.019847,247.02818 L359.030343,247.038675 C359.003055,247.02818 358.940083,247.013487 358.940083,247.013487 L358.950578,247.019784 L358.956875,247.026081 L359.003055,247.057567 L359.08072,247.126836 L359.240249,247.256978 C359.469047,247.437498 359.716737,247.609621 359.974922,247.790141 C361.022355,248.493328 362.332172,249.032787 363.50555,249.261585 C364.097486,249.368638 364.639045,249.423213 365.052561,249.427412 C365.247774,249.440006 365.434591,249.423213 365.545841,249.414817 C365.667587,249.410619 365.730559,249.410619 365.730559,249.410619 C365.730559,249.410619 365.724262,249.343449 365.70537,249.223802 C365.694875,249.106255 365.684379,248.923636 365.631903,248.728423" id="Fill-9"></path>
            <path d="M509.957333,640.340533 L488.643424,640.340533 C502.610604,630.487521 516.479129,619.685731 529.379984,607.704266 C549.069216,589.421408 564.369303,570.368193 574.88562,551.075684 C587.064396,528.726936 593.241945,505.25099 593.241945,481.323745 L593.241945,144.29153 L164.400814,144.29153 L164.400814,481.317448 C164.400814,505.25099 170.574164,528.724837 182.750842,551.075684 C193.262961,570.368193 208.571444,589.421408 228.254379,607.697969 C241.153135,619.681533 255.030055,630.487521 268.990938,640.340533 L247.679129,640.340533 C197.534559,602.051484 151.51885,549.919099 151.51885,480.996291 L151.51885,131.084211 L606.123909,131.084211 L606.123909,480.996291 C606.123909,549.919099 560.099804,602.051484 509.957333,640.340533 L509.957333,640.340533 Z M490.198832,732.984877 L471.267362,732.984877 L471.267362,729.99161 L471.779534,729.953827 C472.318994,729.911846 473.160719,729.83628 474.306809,729.725029 C475.438205,729.601184 476.208562,729.483637 476.580096,729.374485 C477.033494,729.231749 477.375642,728.996653 477.600242,728.685992 C477.82904,728.379528 477.94239,727.865257 477.94239,727.168368 L477.94239,708.574848 L471.156112,708.574848 L471.156112,705.184857 L473.204799,705.184857 C475.079265,705.184857 476.779507,704.834313 478.248853,704.147919 C479.720298,703.459425 480.776128,702.722654 481.397451,701.954396 L481.561178,701.744489 L484.659398,701.744489 L484.638408,702.321732 C484.585931,703.505605 484.531355,704.882592 484.474681,706.461089 C484.418006,708.083666 484.392817,709.475347 484.392817,710.697002 L484.392817,726.868201 C484.392817,727.418156 484.506167,727.884149 484.743361,728.299764 C484.97006,728.706982 485.282821,728.994554 485.694238,729.175074 C486.11615,729.351395 486.855021,729.527717 487.881464,729.685147 C488.933095,729.842577 489.718146,729.932837 490.215624,729.953827 L490.746688,729.968521 L490.746688,732.984877 L490.198832,732.984877 Z M436.336817,708.732277 C435.129854,707.101304 434.51063,705.224739 434.51063,703.169754 C434.51063,700.046345 435.849834,697.393127 438.494656,695.296161 C441.097497,693.224383 444.25659,692.172752 447.877478,692.172752 C451.502564,692.172752 454.493732,693.174006 456.760722,695.149226 C459.048703,697.134942 460.207387,699.670613 460.207387,702.680672 C460.207387,704.628605 459.569271,706.492575 458.301436,708.224304 C457.243507,709.676857 455.753171,710.917404 453.857715,711.929154 C456.401782,713.134017 458.301436,714.458527 459.512597,715.879595 C460.937862,717.537856 461.655742,719.657912 461.655742,722.183088 C461.655742,725.390459 460.257765,728.184315 457.497494,730.480693 C454.777105,732.756079 451.160416,733.910565 446.758676,733.910565 C442.629815,733.910565 439.260815,732.846339 436.752432,730.753571 C434.216761,728.639812 432.930034,725.873244 432.930034,722.535731 C432.930034,720.058834 433.694094,717.953471 435.20752,716.291011 C436.50894,714.85735 438.362415,713.612604 440.73226,712.577765 C438.834705,711.402288 437.361161,710.113462 436.336817,708.732277 L436.336817,708.732277 Z M419.059411,728.306061 C419.28611,728.706982 419.60097,728.994554 420.008188,729.175074 C420.438497,729.351395 421.168971,729.527717 422.199612,729.685147 C423.247046,729.842577 424.040493,729.932837 424.537971,729.953827 L425.064837,729.968521 L425.064837,732.984877 L405.58761,732.984877 L405.58761,729.99161 L406.093485,729.953827 C406.637143,729.911846 407.480967,729.83628 408.629156,729.725029 C409.756354,729.601184 410.524612,729.483637 410.900344,729.374485 C411.35794,729.231749 411.689593,729.002951 411.92049,728.685992 C412.151387,728.379528 412.266836,727.869455 412.266836,727.168368 L412.266836,708.574848 L405.472161,708.574848 L405.472161,705.184857 L407.522948,705.184857 C409.399513,705.184857 411.097656,704.834313 412.569101,704.147919 C414.038447,703.459425 415.098475,702.722654 415.7156,701.954396 L415.877228,701.744489 L418.983845,701.744489 L418.954458,702.321732 C418.899882,703.505605 418.843207,704.882592 418.79283,706.461089 C418.736155,708.018595 418.710966,709.448059 418.710966,710.697002 L418.710966,726.868201 C418.710966,727.418156 418.824316,727.884149 419.059411,728.306061 L419.059411,728.306061 Z M351.847341,719.099561 C351.847341,714.777585 353.131969,711.188184 355.665541,708.419517 C358.209608,705.636156 361.580707,704.233981 365.692776,704.233981 C369.597037,704.233981 372.865282,705.564788 375.411448,708.201214 C377.953416,710.835541 379.238044,714.370367 379.238044,718.717531 C379.238044,720.659166 378.923184,722.592405 378.310257,724.46897 C377.691033,726.349732 376.790534,727.982805 375.640246,729.303117 C374.332528,730.816543 372.791814,731.958435 371.070581,732.695206 C369.351446,733.42778 367.403514,733.805612 365.285557,733.805612 C363.503451,733.805612 361.786415,733.465563 360.184828,732.793862 C358.579044,732.122162 357.128589,731.133502 355.879646,729.842577 C354.653791,728.574741 353.660934,727.015136 352.938855,725.205742 C352.218876,723.398446 351.847341,721.337164 351.847341,719.099561 L351.847341,719.099561 Z M325.690889,707.418263 C326.360491,706.792741 327.0133,706.274272 327.615732,705.871251 C328.329414,705.415754 329.183734,705.023229 330.153502,704.720964 C331.127468,704.408203 332.242072,704.259169 333.453232,704.259169 C336.205107,704.259169 338.281082,705.140777 339.626583,706.883001 C340.942697,708.589541 341.6102,710.852333 341.6102,713.641991 L341.6102,727.636459 C341.6102,728.178018 341.696262,728.602029 341.870484,728.908493 C342.027914,729.191866 342.30709,729.410169 342.720605,729.580194 C343.123626,729.750218 343.472071,729.871964 343.772237,729.937035 C344.047215,730.006304 344.460731,730.056681 344.995992,730.088167 L345.514461,730.121752 L345.514461,732.984877 L331.268105,732.984877 L331.268105,730.130149 L331.767683,730.088167 C332.116128,730.05878 332.487662,730.031493 332.890683,730.000007 L333.157264,729.976917 C333.604365,729.94753 333.9759,729.884558 334.26767,729.783803 C334.6476,729.662057 334.922578,729.464745 335.0968,729.164579 C335.287815,728.843422 335.386471,728.404717 335.386471,727.856861 L335.386471,714.02612 C335.386471,712.262905 334.981352,710.894315 334.169014,709.966528 C333.371369,709.047137 332.422591,708.600036 331.289096,708.600036 C330.394894,708.600036 329.565763,708.742773 328.828992,709.015651 C328.075427,709.299025 327.401627,709.645371 326.818087,710.058887 C326.268132,710.436718 325.829427,710.848135 325.514568,711.282642 C325.220698,711.683563 324.996098,712.015215 324.838669,712.262905 L324.838669,727.581883 C324.838669,728.089857 324.937325,728.503373 325.136736,728.816134 C325.32985,729.118399 325.623719,729.351395 326.051928,729.538212 C326.396175,729.701939 326.771908,729.827883 327.168631,729.907648 C327.59684,729.993709 328.035545,730.056681 328.480547,730.088167 L328.986421,730.12805 L328.986421,732.984877 L314.70858,732.984877 L314.70858,730.130149 L315.214454,730.088167 L315.873561,730.03779 L316.517974,729.976917 C316.916796,729.94753 317.256845,729.884558 317.548615,729.7901 C317.934843,729.662057 318.205622,729.464745 318.381944,729.164579 C318.572959,728.849719 318.667417,728.411014 318.667417,727.856861 L318.667417,711.265849 C318.667417,710.736885 318.558265,710.252001 318.331566,709.815395 C318.106966,709.37669 317.804701,709.026147 317.42477,708.763763 C317.135099,708.581145 316.780357,708.442606 316.377336,708.356545 C315.934434,708.266285 315.443252,708.199115 314.924783,708.161332 L314.412611,708.127747 L314.412611,705.304504 L314.924783,705.270919 L323.870999,704.666388 L324.120788,704.653794 L324.292912,704.832214 L324.67914,705.210046 L324.838669,705.369575 L324.838669,708.224304 C325.101052,707.968218 325.378128,707.705834 325.690889,707.418263 L325.690889,707.418263 Z M288.493354,707.418263 C289.17555,706.792741 289.822062,706.274272 290.424494,705.871251 C291.138176,705.415754 291.992495,705.023229 292.960164,704.720964 C293.938329,704.408203 295.044536,704.259169 296.261994,704.259169 C299.007571,704.259169 301.085646,705.140777 302.437444,706.883001 C303.753558,708.589541 304.421061,710.852333 304.421061,713.641991 L304.421061,727.636459 C304.421061,728.178018 304.509221,728.602029 304.681345,728.908493 C304.836676,729.191866 305.109554,729.410169 305.529367,729.580194 C305.92819,729.750218 306.282932,729.871964 306.574702,729.937035 C306.851778,730.006304 307.265294,730.056681 307.806853,730.088167 L308.319025,730.121752 L308.319025,732.984877 L294.074768,732.984877 L294.074768,730.130149 L294.578544,730.088167 C294.92279,730.05878 295.296424,730.031493 295.695246,730.000007 L295.963927,729.976917 C296.417325,729.94753 296.780463,729.884558 297.07853,729.783803 C297.456362,729.662057 297.727142,729.464745 297.903463,729.164579 C298.094478,728.843422 298.197332,728.404717 298.197332,727.856861 L298.197332,714.02612 C298.197332,712.262905 297.781717,710.894315 296.979874,709.966528 C296.178031,709.047137 295.235551,708.600036 294.095759,708.600036 C293.203656,708.600036 292.376624,708.742773 291.637753,709.015651 C290.886288,709.299025 290.206191,709.645371 289.628948,710.058887 C289.078993,710.436718 288.633991,710.848135 288.319131,711.282642 C288.027361,711.683563 287.800662,712.015215 287.64743,712.262905 L287.64743,727.581883 C287.64743,728.089857 287.746086,728.503373 287.943398,728.816134 C288.140711,729.118399 288.430382,729.351395 288.86069,729.538212 C289.200739,729.701939 289.580669,729.827883 289.975294,729.907648 C290.405602,729.993709 290.850604,730.056681 291.289308,730.088167 L291.790985,730.12805 L291.790985,732.984877 L277.523639,732.984877 L277.523639,730.130149 L278.021117,730.088167 L278.676025,730.03779 L279.322537,729.976917 C279.723459,729.94753 280.065607,729.884558 280.355278,729.7901 C280.739406,729.662057 281.012285,729.464745 281.186507,729.164579 C281.38172,728.849719 281.474079,728.411014 281.474079,727.856861 L281.474079,711.265849 C281.474079,710.736885 281.362829,710.252001 281.142427,709.815395 C280.926223,709.382988 280.611364,709.019849 280.229334,708.763763 C279.94596,708.581145 279.595416,708.442606 279.186098,708.356545 C278.741096,708.266285 278.249915,708.199115 277.735644,708.161332 L277.225571,708.127747 L277.225571,705.304504 L277.735644,705.270919 L286.68186,704.666388 L286.931649,704.653794 L287.11007,704.832214 L287.485802,705.210046 L287.64743,705.369575 L287.64743,708.224304 C287.905615,707.968218 288.197385,707.705834 288.493354,707.418263 L288.493354,707.418263 Z M233.327819,739.374432 L490.746688,739.374432 L490.746688,743.108669 L232.779963,743.108669 L232.779963,739.374432 L233.327819,739.374432 Z M261.453195,728.429906 C261.425907,728.228396 261.379728,728.058371 261.320954,727.909338 L258.243724,719.588643 L245.412138,719.588643 C244.95874,720.745228 244.601899,721.714996 244.318525,722.548325 C243.997368,723.488706 243.718192,724.364016 243.462107,725.146968 C243.235407,725.898433 243.07168,726.523955 242.985619,726.996244 C242.903755,727.458039 242.861774,727.829573 242.861774,728.100353 C242.861774,728.564246 243.317271,728.956771 244.213572,729.271631 C245.298789,729.653661 246.549832,729.884558 247.931016,729.953827 L248.449486,729.976917 L248.449486,732.984877 L232.779963,732.984877 L232.779963,729.993709 L233.28164,729.953827 C233.737137,729.920242 234.301786,729.815289 234.967189,729.649463 C235.615801,729.49833 236.146864,729.288423 236.535191,729.034437 C237.21109,728.581039 237.737956,728.104551 238.094797,727.621766 C238.464232,727.120089 238.837866,726.412704 239.198905,725.524799 C241.167828,720.615086 243.331964,715.107139 245.630441,709.164685 C247.979295,703.108882 250.065766,697.716383 251.906646,692.991387 L252.045184,692.640843 L254.977579,692.640843 L255.10982,692.991387 L268.010675,726.372822 C268.264662,727.034027 268.552234,727.560893 268.858697,727.945022 C269.16726,728.337547 269.614361,728.732171 270.162217,729.099508 C270.529553,729.328306 271.03123,729.527717 271.644157,729.67885 C272.278074,729.842577 272.815435,729.932837 273.23105,729.953827 L273.753717,729.972719 L273.753717,732.984877 L256.562373,732.984877 L256.562373,729.983214 L257.080842,729.953827 C258.441036,729.867766 259.591324,729.691444 260.493922,729.426962 C261.369232,729.170876 261.495176,728.942078 261.495176,728.942078 C261.499374,728.80144 261.484681,728.629317 261.453195,728.429906 L261.453195,728.429906 Z M504.482971,738.089804 C504.781038,738.329098 505.154672,738.553698 505.614367,738.753109 C506.155926,739.011294 506.735268,739.2212 507.350294,739.374432 C507.940131,739.527664 508.800748,739.605329 509.917451,739.605329 C510.935497,739.605329 511.93885,739.433206 512.885529,739.091058 C513.809118,738.759406 514.636149,738.217847 515.345633,737.487372 C516.090802,736.704421 516.682738,735.772436 517.10465,734.727102 C517.518166,733.681767 517.73437,732.269096 517.73437,730.526872 C517.73437,729.596986 517.631515,728.656605 517.427906,727.726719 C517.241089,726.851409 516.886347,726.081052 516.369977,725.43454 C515.872499,724.813216 515.171411,724.315738 514.289804,723.958897 C513.380908,723.593659 512.201234,723.408942 510.782266,723.408942 L506.659701,723.408942 L506.659701,719.179325 L509.583699,719.179325 C511.915761,719.179325 513.605508,718.549606 514.596267,717.30486 C515.624809,716.030727 516.145377,714.047111 516.145377,711.408586 C516.145377,709.290629 515.656295,707.686943 514.682329,706.641608 C513.704164,705.594175 512.341871,705.086201 510.521981,705.086201 C509.638275,705.086201 508.914097,705.191154 508.372539,705.390566 C507.793197,705.608868 507.316709,705.818775 506.959868,706.024483 C506.552649,706.257479 506.223096,706.50307 505.971208,706.761255 C505.792787,706.954369 505.639556,707.1097 505.513612,707.241941 L505.914533,709.093317 C506.10135,709.977023 506.200006,710.829244 506.200006,711.624789 C506.200006,712.45392 505.851561,713.196989 505.169365,713.841402 C504.487169,714.471122 503.517401,714.792279 502.264259,714.792279 C501.107674,714.792279 500.244958,714.359871 499.695003,713.499255 C499.193326,712.728898 498.935141,711.820002 498.935141,710.801956 C498.935141,709.773414 499.226911,708.711287 499.793659,707.659655 C500.35201,706.614321 501.185339,705.634057 502.276853,704.737756 C503.355773,703.845653 504.684481,703.119377 506.229393,702.567323 C507.774305,702.025764 509.573204,701.744489 511.569415,701.744489 C513.865792,701.744489 515.811626,702.097132 517.348142,702.796121 C518.872063,703.488812 520.095818,704.343132 520.983723,705.344386 C521.848538,706.32255 522.455167,707.372083 522.791018,708.469894 C523.112175,709.53412 523.275902,710.468204 523.275902,711.238561 C523.275902,712.204131 523.139463,713.180197 522.868683,714.131073 C522.595805,715.107139 522.148704,716.02443 521.527381,716.864056 C520.853581,717.766654 519.95728,718.597884 518.869964,719.319963 C518.099607,719.838432 517.178117,720.29183 516.126486,720.669662 C516.749908,720.795605 517.390123,720.955134 518.051329,721.165041 C519.26039,721.551269 520.370796,722.122215 521.344762,722.867383 C522.369106,723.667127 523.219227,724.689372 523.86364,725.919424 C524.520648,727.166269 524.854399,728.753162 524.854399,730.631825 C524.854399,734.284199 523.372459,737.292159 520.444263,739.571744 C517.555949,741.80515 513.914071,742.940744 509.608888,742.940744 C507.856169,742.940744 506.225195,742.711946 504.755849,742.27534 C503.276008,741.828239 501.99138,741.217411 500.941848,740.461748 C499.860829,739.69349 499.017005,738.792991 498.425068,737.781242 C497.824736,736.758997 497.520371,735.682176 497.520371,734.590662 C497.520371,733.602003 497.763863,732.688909 498.255044,731.893363 C498.784009,731.018053 499.671913,730.552061 500.822201,730.552061 C502.054352,730.552061 503.017823,730.873218 503.695821,731.500838 C504.37172,732.143152 504.724363,732.898816 504.724363,733.740541 C504.724363,734.359765 504.625707,735.142717 504.432593,736.072602 C504.277262,736.775789 504.151318,737.321546 504.050563,737.716171 C504.142922,737.80643 504.28146,737.928176 504.482971,738.089804 L504.482971,738.089804 Z M278.050504,516.630023 C278.050504,516.630023 280.277612,516.558655 282.874156,515.001148 C285.458105,513.454137 288.363212,511.680427 290.640697,513.214844 C292.901391,514.74926 299.05585,516.781156 299.05585,516.781156 C299.05585,516.781156 296.90011,516.359244 308.468059,518.823546 C320.031809,521.292047 320.623745,512.910479 320.623745,512.910479 L320.77068,512.784535 C320.45582,510.844999 319.217372,508.149799 315.934434,504.579289 C305.264885,492.963062 307.227511,446.884382 330.428479,443.020002 C331.452823,448.838611 333.104788,454.59005 335.157673,460.144177 C335.684539,461.575739 336.196711,463.0115 336.828529,464.394784 C337.443555,465.813752 337.985114,467.140361 338.663112,468.620202 C339.299129,469.932118 339.945641,471.25243 340.592153,472.558049 C341.215576,473.878361 341.99223,475.232258 342.68912,476.556768 C345.294059,481.277566 348.138293,485.708693 351.261702,489.810266 C351.402339,490.246872 351.545076,490.685576 351.710902,491.117984 L352.922063,494.40512 C353.343975,495.494535 353.814165,496.541968 354.259167,497.610393 C354.714664,498.67252 355.149171,499.761934 355.634055,500.775783 C356.209199,501.94916 356.736064,502.944117 357.319604,503.987353 C359.605486,508.076332 362.258705,511.779083 365.073551,515.156479 C365.421996,515.567896 365.77254,515.998204 366.118886,516.403324 C366.479925,516.814741 366.847262,517.211464 367.204103,517.610286 C367.932478,518.412129 368.633566,519.213972 369.378734,519.950744 C370.134398,520.693813 370.879566,521.417991 371.616338,522.135871 C371.660418,522.182051 371.7003,522.226131 371.748579,522.266013 C365.942564,522.150565 357.336397,520.666525 346.452744,515.026337 C337.443555,510.351719 327.9117,531.764283 327.9117,531.764283 C325.483082,536.075763 319.112419,540.353658 311.24932,535.525808 C303.384123,530.695859 293.873258,530.634986 293.873258,530.634986 L291.704923,532.578721 C286.853984,535.032528 287.290589,531.2773 287.290589,531.2773 C288.990832,530.383099 285.315369,527.34785 284.628974,528.959932 C283.950976,530.574113 283.428309,530.053545 283.428309,530.053545 C278.461921,529.682011 274.698297,525.139633 271.784794,523.75425 C268.867093,522.354174 268.340228,521.543935 268.340228,521.543935 C267.93091,518.733286 278.050504,516.630023 278.050504,516.630023 L278.050504,516.630023 Z M282.844769,343.660748 C277.540431,342.015081 273.753717,331.477774 273.279329,329.156207 C272.720977,326.461008 274.748674,327.485351 274.748674,327.485351 C273.667656,323.623071 275.195775,323.898049 275.195775,323.898049 C275.195775,323.898049 278.457723,327.590305 282.626466,327.476955 C282.689438,327.476955 282.765004,327.476955 282.844769,327.476955 L282.844769,343.660748 Z M513.815415,446.645088 C513.815415,446.645088 538.391271,471.418256 509.602591,487.341765 C509.650869,487.12976 509.701247,486.898863 509.736931,486.695253 L510.039196,484.564702 L510.074881,484.350597 L510.093772,484.14279 L510.106367,484.037837 L510.16514,483.11005 C510.196626,482.501321 510.249103,481.903087 510.270094,481.292259 C510.280589,480.555487 510.270094,479.812418 510.23231,479.073547 C512.784774,477.763731 523.804866,470.559739 513.815415,446.645088 L513.815415,446.645088 Z M379.061722,201.144712 C391.467198,198.128356 403.484347,206.094308 404.365954,206.694641 C404.418431,206.732424 404.468808,206.76391 404.517087,206.803792 C404.863433,207.047284 405.178292,207.37054 405.528836,207.647617 C405.877281,207.951981 406.204735,208.296228 406.546883,208.634177 C406.859644,209.003613 407.22698,209.320572 407.514552,209.719394 C407.827313,210.097226 408.152668,210.460364 408.433943,210.867583 C408.713118,211.264306 409.048969,211.616949 409.29246,212.022069 C409.544348,212.42299 409.836118,212.779831 410.069114,213.145069 C410.291615,213.5229 410.541404,213.869246 410.755509,214.188304 C411.196312,214.82642 411.517469,215.403663 411.805041,215.779395 C412.071623,216.169822 412.241647,216.386025 412.241647,216.386025 C412.241647,216.386025 412.239548,216.111048 412.184972,215.640857 C412.113604,215.176964 412.065325,214.484272 411.828131,213.713915 C411.620324,212.924667 411.301266,212.022069 410.84157,211.106876 C410.623268,210.638785 410.344092,210.17699 410.048124,209.723592 C409.78784,209.251303 409.414206,208.831489 409.06786,208.396983 C408.729911,207.95408 408.3059,207.582546 407.907077,207.200516 C407.504057,206.833179 407.050659,206.522518 406.62035,206.218153 C406.423038,206.094308 406.225726,205.983058 406.024216,205.871807 C409.099346,204.593477 416.622396,203.119933 429.128627,210.695459 C429.128627,210.695459 434.898957,212.977143 437.894323,220.447717 C437.894323,220.447717 438.066447,220.516986 438.356118,220.645029 C441.947618,220.636632 446.269594,220.77727 451.168812,221.507745 C453.71078,221.893973 456.399683,222.443928 459.172548,223.296148 C461.943314,224.154666 464.795944,225.334341 467.545719,227.057673 C470.268207,228.787303 472.858453,231.163445 474.676244,234.238575 C476.52552,237.301112 477.478496,240.984971 477.614935,244.731803 C477.736681,248.489129 477.098565,252.284239 476.072122,256.007981 C475.524266,257.861456 474.926033,259.721228 474.201855,261.536919 C473.500767,263.319025 472.795482,265.126321 472.081799,266.944111 C470.694317,270.567098 469.40759,274.282443 468.353859,278.094346 C467.302228,281.90205 466.464701,285.818906 466.238002,289.723167 C466.15194,291.209306 466.181327,292.701741 466.330361,294.150096 C468.677115,294.221464 470.562076,296.137911 470.562076,298.499359 C470.562076,299.670638 470.083489,300.736963 469.327826,301.517815 C469.621695,301.692037 469.917663,301.872557 470.234622,302.04468 C472.121682,303.083718 474.539805,304.103863 477.459605,304.744078 C478.918455,305.088325 480.492754,305.294033 482.190898,305.579506 C483.910032,305.881772 485.671148,306.309981 487.493136,306.891422 C491.111925,308.073196 494.921728,309.867897 498.410375,312.598781 C501.388948,314.939238 504.163913,318.031161 505.954415,321.828371 C507.06692,323.46984 508.003103,325.218361 508.685299,327.088628 C510.274292,331.28256 510.645826,335.896306 509.888064,340.163706 C509.098815,344.431105 507.346096,348.35006 505.114789,351.700168 C502.887681,355.075465 500.24076,357.957482 497.449003,360.459568 C496.065719,361.719007 494.638355,362.871394 493.202594,363.962907 C492.505704,364.487674 491.821409,365.006143 491.139213,365.524612 C490.513691,366.028388 489.915458,366.502776 489.317224,367.046434 C486.949479,369.124509 484.953268,371.431382 483.725314,373.912477 C482.491064,376.383077 482.027171,379.004809 482.371417,381.494301 C482.692574,384.004783 483.746305,386.32425 484.978456,388.358244 C486.248391,390.406932 487.724034,392.18484 489.199677,393.719257 C490.683716,395.272565 492.148863,396.618066 493.532147,397.772552 C496.294517,400.081523 498.681154,401.651624 500.297435,402.728445 C501.252509,403.34557 501.9473,403.77168 502.375509,404.01937 C502.75544,404.227177 502.986337,404.340527 502.986337,404.340527 L502.839403,404.71416 C502.839403,404.71416 502.768034,404.699467 502.660982,404.659585 L502.616902,404.751944 L502.402797,404.663783 L502.379707,404.712061 C502.379707,404.712061 501.81296,404.508452 500.748734,404.136918 C499.690805,403.7276 498.156388,403.104177 496.237842,402.228867 C496.185366,402.203678 496.120295,402.180589 496.076214,402.149103 C494.107291,401.305278 491.787824,400.230557 489.229063,398.801094 C486.525467,397.306559 483.572083,395.432094 480.572518,392.990881 C479.084281,391.750333 477.591846,390.375446 476.193868,388.765463 C474.781197,387.165975 473.471381,385.314599 472.474325,383.171454 C471.470971,381.032506 470.780379,378.559807 470.816063,375.963264 C470.830756,373.36672 471.559132,370.747086 472.759797,368.452808 C473.949967,366.120747 475.574644,364.086752 477.37984,362.289952 C479.195531,360.465865 481.153959,358.881071 483.257223,357.390734 C484.34244,356.618278 485.278623,356.034738 486.420514,355.31266 C487.446957,354.691336 488.462905,354.034329 489.457862,353.343736 C491.449874,351.983542 493.357925,350.497404 495.154725,348.902114 C498.731532,345.694743 501.844446,341.937416 503.65384,337.68261 C504.12613,336.580601 504.497664,335.451304 504.764245,334.305214 C504.795731,333.713278 504.804128,333.123441 504.791533,332.537801 C504.608915,331.288858 504.319244,330.056706 503.882638,328.845546 C502.677775,325.493338 500.557719,322.376227 497.776457,319.89933 C494.999394,317.401442 491.580017,315.526977 487.898256,314.490038 C486.170725,313.996758 483.920527,313.650412 481.861344,313.096259 C479.776973,312.558898 477.688403,311.912386 475.639715,311.079057 C473.593126,310.235233 471.573826,309.1857 469.728747,307.785624 C467.938245,306.42543 466.347153,304.6958 465.180073,302.712183 C463.276221,302.24829 461.850955,300.545948 461.850955,298.499359 C461.850955,297.447728 462.241381,296.501049 462.848011,295.747485 C462.562538,293.635825 462.562538,291.530463 462.71577,289.488072 C463.057918,285.195484 464.054974,281.121198 465.219955,277.191748 C466.410125,273.268595 467.820697,269.500773 469.300538,265.848399 C470.816063,262.147747 472.415551,258.764054 473.471381,255.24602 C474.531408,251.738482 475.184218,248.207855 475.184218,244.78218 C475.171623,241.362803 474.41596,238.069369 472.858453,235.288108 C471.319839,232.496351 469.042353,230.256649 466.552861,228.564802 C464.04028,226.872955 461.353477,225.653398 458.702357,224.748701 C456.04704,223.835608 453.440001,223.216384 450.958906,222.765085 C446.934998,222.03461 443.272129,221.728146 440.098342,221.58541 C442.734768,223.212186 446.888818,226.726021 447.852289,233.147061 C448.257409,235.896837 448.282597,240.034095 445.02065,242.414435 C443.42536,243.579416 442.128138,244.528193 441.049219,245.311145 C440.805727,244.859846 440.547542,244.395952 440.255772,243.936257 C439.819166,243.237268 439.386759,242.471109 438.88928,241.730139 C438.360316,240.997565 437.818757,240.244001 437.266703,239.469446 C436.653776,238.726377 436.030353,237.966515 435.396436,237.189861 C434.728933,236.434198 434.013152,235.701624 433.29947,234.933366 C432.550103,234.207089 431.777647,233.476615 430.975804,232.750338 C430.150872,232.061845 429.332236,231.337667 428.452728,230.674363 C426.704207,229.339357 424.869624,228.067323 422.951078,226.935927 C419.122383,224.647946 415.0418,222.832255 411.108152,221.528735 C409.151823,220.842341 407.205989,220.357457 405.373505,219.897762 C403.528427,219.463255 401.777807,219.123206 400.142635,218.888111 C399.149777,218.730681 398.209396,218.62153 397.319392,218.53127 C397.248024,218.459902 397.191349,218.399029 397.117882,218.336057 C397.115783,218.321363 397.101089,218.317165 397.101089,218.317165 L396.928966,218.312967 C396.299246,217.647564 395.570871,217.085014 394.888674,216.472087 C394.533932,216.163524 394.147704,215.896943 393.780368,215.605173 C393.410932,215.321799 393.037299,215.025831 392.632179,214.771844 C392.235456,214.509461 391.851327,214.234483 391.431514,214.001487 L390.134292,213.310895 C389.682993,213.11988 389.235892,212.901577 388.759404,212.727355 C388.266123,212.563627 387.787537,212.385207 387.254374,212.278155 C386.761094,212.160607 386.227931,212.097635 385.665382,212.082942 C385.394602,212.082942 385.115427,212.091338 384.823656,212.139616 C384.666227,212.15431 384.477311,212.204687 384.300989,212.24457 C384.221225,212.261362 384.12047,212.294947 384.013417,212.334829 C383.910563,212.372613 383.822402,212.395702 383.608298,212.51325 L383.818204,212.412495 C382.479001,212.937261 381.173382,213.577476 379.92024,214.33104 L379.844674,214.289059 C379.263233,214.637504 378.694386,215.002741 378.142332,215.399465 L371.941693,214.280663 C371.941693,214.280663 372.155798,212.318037 375.165857,211.297891 C373.618846,208.913353 370.701145,203.180806 379.061722,201.144712 L379.061722,201.144712 Z M289.817864,400.182279 C292.204501,396.765 295.315316,394.930417 298.243512,390.83724 C301.161212,386.741964 306.635575,375.593828 306.635575,375.593828 C310.690969,365.276922 317.428968,365.28322 317.428968,365.28322 C330.833599,363.811775 349.456506,350.938208 360.168036,338.94205 C368.841374,329.242269 374.506751,329.886682 376.34973,330.491213 C382.485298,310.493418 361.960638,300.959464 361.960638,300.959464 L361.960638,300.953167 C338.090068,292.170677 319.055744,271.585144 319.055744,271.585144 C312.198098,269.622518 313.499518,262.200224 314.14603,261.005856 C314.792542,259.807289 313.671641,254.366512 313.671641,254.366512 C313.671641,254.366512 311.656539,245.92827 315.086411,245.653292 C318.526779,245.382513 317.953734,248.944627 319.429377,248.000047 C320.909218,247.053369 322.187549,247.557144 322.187549,247.557144 C322.187549,247.557144 328.512033,249.809441 339.758824,240.802352 C347.441403,234.65419 360.904808,229.299475 368.673448,226.518213 C353.652537,227.64961 354.047162,224.501012 354.047162,224.501012 L368.350192,218.720186 L373.730097,219.580803 C372.088628,221.264253 370.682254,223.197492 369.620127,225.281864 C369.448003,225.632408 369.294772,225.995546 369.143639,226.350288 C368.387975,228.040036 367.796039,229.778062 367.378325,231.547574 C367.351037,231.629437 367.34474,231.709202 367.313254,231.782669 C367.199905,232.294841 367.086555,232.804914 366.987899,233.321284 C366.479925,236.066861 366.291009,238.85442 366.339288,241.597898 L366.339288,241.61679 C366.383368,244.337178 366.561789,247.02818 366.889243,249.729677 C367.262877,252.450066 367.674293,255.124275 368.751114,257.945418 C369.047082,258.673794 369.336753,259.349693 369.951779,260.180923 L370.10711,260.376136 L370.281332,260.575547 L370.396781,260.711986 C370.575201,260.894605 370.791405,261.096115 371.074779,261.299725 C371.353955,261.492839 371.74648,261.725835 372.30693,261.834986 C372.865282,261.950435 373.545379,261.843383 373.99248,261.627179 C374.888781,261.177979 375.176353,260.718284 375.480717,260.371938 C375.757794,260.000403 375.953007,259.685544 376.150319,259.381179 L377.164167,257.697729 C378.452993,255.609159 379.983212,254.036959 381.992017,253.233017 C382.23341,253.13646 382.510487,253.033606 382.732987,252.970634 C382.831644,252.937049 383.014262,252.88877 383.17589,252.846789 L383.585208,252.760727 C384.177144,252.64108 384.750189,252.500443 385.367314,252.433273 C385.967647,252.330419 386.582673,252.256952 387.220789,252.217069 C387.837914,252.145701 388.467634,252.118413 389.107849,252.101621 C390.915144,252.028153 392.751826,252.042847 394.590607,252.118413 L394.599003,252.10372 C395.350469,252.133107 396.099835,252.166692 396.842904,252.208673 C398.98605,252.340914 401.135493,252.510938 403.293332,252.674666 C403.765621,252.71035 404.227416,252.750232 404.697606,252.781718 C406.015819,252.882473 407.350825,252.976931 408.696326,253.050398 C409.391116,253.079785 410.102699,253.121766 410.755509,253.109172 L411.244591,253.11337 L411.771456,253.102875 L412.762215,253.079785 C414.069933,253.050398 415.375551,253.037804 416.59091,253.102875 C417.797873,253.155351 418.969151,253.42823 419.317596,253.890024 C419.739508,254.324531 419.756301,255.581871 419.517007,256.769942 C419.340686,257.911833 418.88099,258.764054 417.98259,259.251037 C417.08629,259.746416 415.82685,259.824082 414.598897,259.700237 C413.345755,259.572194 412.086316,259.276226 410.843669,258.902592 C410.029232,258.648605 409.218993,258.354736 408.410853,258.041975 C408.23663,257.979003 408.056111,257.911833 407.886086,257.838366 C406.423038,257.254826 404.987277,256.604116 403.576706,255.879938 C405.732446,257.422751 408.016229,258.801837 410.491026,259.880757 C411.721079,260.420216 413.001509,260.888308 414.372198,261.156988 C415.732392,261.413074 417.243719,261.555811 418.767641,260.932388 C419.521205,260.634321 420.222293,260.080168 420.717672,259.406368 C421.204656,258.730469 421.502723,257.94122 421.66645,257.235934 C421.834375,256.574729 421.983409,255.80857 422.000201,255.025619 C422.016994,254.244766 421.884753,253.285494 421.294915,252.433273 C420.696682,251.595746 419.812975,251.123456 419.053114,250.875767 C418.289054,250.609185 417.560678,250.495836 416.85959,250.405576 C415.449019,250.220858 414.101419,250.197769 412.768512,250.157886 L411.777753,250.134797 L411.31386,250.120103 L410.824778,250.094914 C410.138384,250.073924 409.546447,250.008853 408.923025,249.958475 C407.6321,249.828333 406.330679,249.673002 405.02716,249.515572 C404.336567,249.433709 403.641777,249.353944 402.951184,249.272081 C402.13045,249.171326 401.311814,249.085264 400.482683,248.992905 C399.359683,248.873258 398.232485,248.753612 397.101089,248.663352 C394.435276,248.438752 391.740077,248.272926 389.000796,248.310709 C388.324897,248.317006 387.628008,248.335898 386.939514,248.390473 C386.242625,248.417761 385.554131,248.478634 384.848845,248.575191 C384.151956,248.638163 383.431976,248.7788 382.72669,248.921537 C382.541973,248.963518 382.399236,248.988707 382.170438,249.039085 L381.64987,249.181821 C381.232156,249.29727 380.900504,249.427412 380.524771,249.56595 C379.06802,250.143193 377.714122,251.0248 376.591123,252.082729 C375.461825,253.13646 374.555029,254.356017 373.799366,255.53989 L372.8233,257.135179 C372.77922,257.057514 372.73514,256.977749 372.697356,256.891688 C372.670069,256.826617 372.646979,256.769942 372.617592,256.70697 C372.581908,256.612512 372.537828,256.520153 372.508441,256.429893 C371.694003,254.309837 371.259497,251.723789 370.940439,249.213307 C370.625579,246.671339 370.44296,244.08529 370.379988,241.528629 C370.371592,240.894711 370.367394,240.26919 370.37579,239.645767 L370.37579,239.641569 C370.37579,239.605885 370.379988,239.576498 370.379988,239.545012 C370.392583,239.022345 370.415673,238.497579 370.451357,237.977011 C370.459753,237.777599 370.478644,237.576089 370.491239,237.376678 C370.516428,237.017738 370.552112,236.650401 370.596192,236.289362 C370.621381,236.075257 370.638173,235.852757 370.669659,235.638652 C370.722136,235.229334 370.787207,234.815818 370.84808,234.410699 C370.873269,234.284755 370.883764,234.156712 370.904755,234.030768 C371.335063,231.581159 372.050844,229.207116 373.123467,227.034583 C373.505497,226.272623 373.933706,225.542148 374.391302,224.836862 C374.439581,224.757098 374.492057,224.689927 374.542435,224.610163 C374.764936,224.272214 374.997932,223.940561 375.239324,223.617305 C375.375764,223.440984 375.516401,223.273058 375.65284,223.100935 C375.843855,222.872137 376.022276,222.634943 376.219588,222.414541 C376.582726,222.007322 376.962657,221.612698 377.367777,221.241163 C378.751061,219.94604 380.352647,218.879715 382.071782,218.010702 L381.945838,217.989711 C382.395038,217.763012 382.84004,217.544709 383.31023,217.345298 L383.448769,217.278128 L383.448769,217.271831 L383.459264,217.271831 C383.505443,217.261336 383.524335,217.238246 383.595703,217.231949 C383.713251,217.202562 383.851789,217.18367 384.009219,217.175274 C384.181343,217.158481 384.361862,217.154283 384.550778,217.158481 C384.754387,217.156382 384.968492,217.158481 385.188894,217.196265 C385.554131,217.219354 385.934062,217.31801 386.313993,217.395676 C386.698122,217.488035 387.08435,217.63287 387.472677,217.744121 L388.625064,218.212212 L389.77955,218.762167 C390.169976,218.925894 390.549907,219.146296 390.931936,219.354104 C391.26149,219.545119 391.607835,219.727737 391.93529,219.929247 C391.93529,219.929247 391.947884,219.929247 391.958379,219.933446 C391.985667,219.960733 392.025549,219.977526 392.063333,220.000616 C392.795906,220.487599 393.562065,220.915808 394.290441,221.432178 C394.550725,221.612698 394.823603,221.789019 395.088086,221.969539 L395.094383,221.973737 C395.562474,222.296993 396.034764,222.613952 396.486063,222.972892 C397.197646,223.512352 397.957508,224.003533 398.654397,224.576578 C399.359683,225.120236 400.067068,225.663894 400.795444,226.197056 L400.795444,226.192858 C400.805939,226.201254 400.808038,226.21175 400.82693,226.224344 C400.617023,225.94097 400.396622,225.674389 400.186715,225.395213 C399.848766,224.948113 399.504519,224.496813 399.162371,224.053911 C398.992347,223.839806 398.816025,223.644593 398.639704,223.436786 C398.37942,223.128223 398.119136,222.81966 397.844158,222.515296 L398.606119,223.046359 C399.949521,223.480866 401.353795,223.974146 402.842033,224.480021 C404.55487,225.107641 406.347472,225.802432 408.171559,226.574888 C410.004043,227.330552 411.844924,228.199565 413.706794,229.100064 C415.537179,230.05094 417.413744,231.010213 419.189553,232.105925 C421.005244,233.15126 422.732775,234.33933 424.412027,235.514807 C425.253752,236.110942 426.0451,236.751156 426.851141,237.347291 C427.631993,237.989605 428.40235,238.623523 429.158014,239.246945 C429.88429,239.901853 430.602171,240.552564 431.301159,241.180184 C431.977058,241.847687 432.638264,242.498397 433.282677,243.128117 C434.498036,244.452627 435.671413,245.709967 436.670568,246.944217 C436.911961,247.221294 437.132363,247.502569 437.348566,247.785943 C437.457718,247.918184 437.558473,248.050425 437.665525,248.191062 C437.665525,248.19526 437.667624,248.203657 437.667624,248.203657 C437.806163,248.382077 437.942602,248.566795 438.08114,248.738918 C438.515647,249.31826 438.966946,249.851423 439.336381,250.388783 C440.043766,251.474 440.749052,252.384995 441.252828,253.182639 C442.241488,254.784226 442.862811,255.69732 442.862811,255.69732 C442.862811,255.69732 442.846018,255.636447 442.816631,255.535691 C446.597048,262.147747 447.963539,267.154018 447.963539,267.154018 C447.963539,267.154018 452.029429,276.792925 457.157445,295.810457 C465.536914,326.885019 467.092321,333.679693 464.541957,350.789174 C462.755652,362.81262 456.947539,373.891486 462.287561,390.665117 C478.418877,441.326057 465.881161,470.597522 450.824565,486.85898 C451.836315,491.172559 455.954681,498.743888 472.442839,499.472263 C480.652283,499.829105 486.170725,497.341712 489.73074,493.584385 L490.595555,492.897991 L491.412091,492.096148 C492.482615,490.985743 493.441887,489.722105 494.166065,488.330425 C494.871351,486.940844 495.461188,485.479894 495.761355,483.991657 C496.084611,482.516014 496.237842,481.034074 496.223149,479.627701 C496.19796,476.785566 495.608123,474.218409 494.791586,472.17392 C494.772695,472.12774 494.749605,472.089957 494.732813,472.047976 C494.197551,469.701221 493.357925,467.835152 492.377661,466.80661 C489.946944,464.252047 482.169907,461.183214 479.900817,468.846901 C479.900817,468.846901 478.116612,476.665919 492.535091,479.892183 C492.409147,480.935418 492.197142,481.989149 491.917966,483.026087 C491.590512,484.20996 491.12242,485.343455 490.555673,486.422375 C490.320577,486.898863 490.039303,487.350162 489.747533,487.793064 C483.412554,486.235558 465.513824,480.162962 472.644349,462.20336 C479.768576,444.245856 509.722238,457.111027 506.670197,483.869911 C503.355773,512.992343 461.99789,532.960751 435.984174,499.035658 C431.334745,501.900882 427.384304,503.599026 425.115214,504.468039 C431.233989,510.870188 426.586659,514.533057 424.999766,518.869726 C423.21556,523.720665 431.716774,527.43811 440.450985,533.867547 C449.183096,540.294885 448.217526,543.630299 442.608824,555.015629 C436.991725,566.39886 440.801529,573.737192 440.801529,573.737192 C440.971553,579.387876 440.21589,588.449541 439.019422,593.451613 C437.829252,598.438992 437.329675,598.770645 435.883419,600.594732 C434.426668,602.416721 433.933387,600.697587 433.553456,599.27442 C433.171427,597.857551 431.089154,597.341181 430.839365,598.57963 C430.595874,599.834871 430.432146,600.666101 430.432146,600.666101 C429.890588,606.247515 418.032968,605.808811 415.852039,605.397394 C413.679507,604.998571 415.058592,603.793708 415.058592,603.793708 C411.851221,603.445263 412.516624,602.383136 412.516624,602.383136 C412.516624,602.383136 416.257159,601.064923 417.434734,597.914226 C418.622805,594.774024 418.824316,591.896206 420.660998,588.292111 C426.059794,577.633058 427.650885,565.806924 428.116877,560.095367 C426.420833,553.529491 420.329345,547.261682 405.621195,541.014864 C404.391143,540.490098 403.196775,539.948539 402.029694,539.381791 C401.14179,538.819242 399.918035,538.002705 398.347934,537.058126 C397.523001,536.53336 396.670781,535.865857 395.701013,535.183661 C394.760631,534.476276 393.692207,533.802476 392.617486,532.977543 C390.510024,531.2773 388.087703,529.463708 385.671679,527.226104 C385.06295,526.663555 384.399645,526.159779 383.799313,525.553149 C383.190584,524.950718 382.573459,524.337791 381.945838,523.720665 C380.652814,522.517901 379.42696,521.170301 378.16962,519.801711 C376.855605,518.460408 375.690624,516.92809 374.405996,515.456645 C373.797267,514.70518 373.215826,513.901238 372.596601,513.13298 C372.290138,512.736257 371.983674,512.343732 371.668814,511.951206 C371.383342,511.541889 371.093671,511.130472 370.801901,510.716956 C369.618028,509.075487 368.492929,507.366848 367.378325,505.626723 C366.316198,503.85931 365.245675,502.060411 364.2906,500.219531 C364.078595,499.812312 363.868688,499.396697 363.660881,498.98528 C363.45937,498.565467 363.28095,498.175041 363.110925,497.79511 C363.062647,497.692256 363.003873,497.578907 362.970288,497.488647 C362.527385,496.483195 362.147454,495.48194 361.727641,494.484884 C361.32672,493.485729 360.890114,492.484475 360.512283,491.472726 L359.420769,488.420685 C357.982909,484.363192 356.780145,480.240628 355.995094,476.143252 C355.957311,475.948039 355.930023,475.754925 355.894339,475.555514 C355.707522,474.573151 355.545894,473.592888 355.403158,472.612624 C355.296105,471.886348 355.203747,471.157972 355.123982,470.437993 C355.075704,470.030774 355.044218,469.629853 355.012732,469.228931 C354.958156,468.697868 354.918274,468.168903 354.88259,467.63784 C354.857401,467.312485 354.842707,466.995526 354.828014,466.670171 C354.783934,465.805356 354.760844,464.938442 354.767141,464.096717 C354.777636,463.2361 354.825915,462.390177 354.88259,461.544253 C354.905679,461.254582 354.930868,460.973308 354.956057,460.67524 C355.002236,460.127384 355.06101,459.571132 355.12818,459.025375 C355.165963,458.697921 355.207945,458.380962 355.254124,458.066102 C355.369573,457.327231 355.491319,456.592558 355.634055,455.864183 C355.831367,454.907009 356.058066,453.966628 356.322548,453.045138 C357.288118,449.613166 358.736473,446.531739 360.407329,443.844935 C360.755774,443.284485 361.127309,442.738728 361.496744,442.207664 C361.64158,441.993559 361.788514,441.792049 361.943845,441.582143 C362.13486,441.326057 362.317479,441.069971 362.518989,440.826479 C362.961892,440.253434 363.402695,439.695083 363.858193,439.16402 L363.86449,439.16402 C364.5152,438.39996 365.172208,437.667386 365.825017,436.997784 C367.691086,435.131715 369.485787,433.620388 371.045392,432.4701 C372.617592,431.345001 373.912715,430.492781 374.827908,429.968015 C375.738902,429.432753 376.251074,429.185063 376.251074,429.185063 C376.251074,429.185063 375.684326,429.264828 374.647388,429.535607 C373.623044,429.833674 372.097024,430.259785 370.245648,431.074222 C368.402669,431.876065 366.179759,432.969678 363.822509,434.590156 C361.465258,436.19804 358.950578,438.318096 356.614318,441.051079 C354.653791,443.336961 352.827605,446.072043 351.360358,449.180759 C351.076984,449.778993 350.799908,450.381424 350.545921,451.011144 C348.961127,454.875523 347.928386,459.220588 347.556852,463.733578 C347.491781,464.468251 347.456097,465.213419 347.433007,465.954389 C347.422512,466.139107 347.418314,466.31333 347.418314,466.498047 C347.401521,467.199135 347.384728,467.921214 347.401521,468.645391 L347.401521,468.718858 C347.418314,469.512305 347.4498,470.312049 347.491781,471.113892 C347.504375,471.197854 347.508573,471.271322 347.512771,471.348987 C347.556852,472.068967 347.619824,472.784748 347.691192,473.496331 C347.189515,472.373331 346.677344,471.286015 346.205054,470.087449 C345.667693,468.729354 345.126134,467.36706 344.588774,465.99847 C344.135375,464.764219 343.663086,463.32636 343.20549,462.008147 C342.712209,460.662646 342.332278,459.281461 341.950249,457.919168 C340.388544,452.442706 339.240355,446.873886 338.73658,441.353345 C338.209714,435.843298 338.224408,430.402521 338.73658,425.211533 C339.731537,414.810664 342.752091,405.488716 346.293215,398.039133 C347.722678,395.029073 349.210915,392.340171 350.688657,389.93884 C351.102173,390.00601 351.505194,390.085775 351.91661,390.134053 C352.556825,390.197025 353.211734,390.245304 353.854048,390.259997 C354.504758,390.274691 355.159666,390.264195 355.804079,390.20962 C356.461087,390.171836 357.101302,390.075279 357.749913,389.987119 C359.030343,389.768816 360.302376,389.441362 361.530329,389.029945 C362.153752,388.845227 362.737292,388.56815 363.337624,388.335154 C363.935858,388.083266 364.502606,387.793595 365.088245,387.51442 L365.298151,387.394773 C365.707469,387.159678 366.332991,386.821728 366.880847,386.553048 C367.443396,386.275971 368.035333,386.015687 368.629368,385.767997 C369.806944,385.257925 371.013906,384.846508 372.229265,384.489667 C372.833796,384.313345 373.448822,384.141222 374.065947,384.017377 C374.678874,383.880938 375.287603,383.765489 375.904728,383.662635 L377.92193,383.417044 C378.86441,383.299497 379.634767,383.118977 380.438709,382.88808 C383.608298,381.920411 386.36437,380.104719 388.444544,377.74537 C389.473086,376.5552 390.337901,375.224393 390.906748,373.765542 C391.448306,372.312989 391.723284,370.696709 391.337056,369.260948 C391.020097,370.350363 390.499529,371.273952 389.855116,372.088389 C389.674596,372.325583 389.473086,372.556481 389.26108,372.774783 C388.368978,373.755047 387.325742,374.554791 386.240526,375.25378 C384.057498,376.626568 381.641474,377.516572 379.286322,377.83563 C378.709079,377.915394 378.075162,377.959475 377.594476,377.959475 L377.073908,377.948979 L376.565934,377.959475 L375.375764,377.978366 C374.584416,378.041338 373.786771,378.074923 373.005919,378.215561 C372.229265,378.333108 371.458908,378.492637 370.694848,378.664761 C369.16463,379.029998 367.691086,379.540071 366.253226,380.127809 C365.539544,380.442669 364.834258,380.761727 364.141566,381.131162 C363.45937,381.479607 362.863236,381.807061 362.128563,382.285648 C361.706651,382.512347 361.288937,382.757938 360.858628,382.963646 C360.394735,383.171454 359.932941,383.425441 359.469047,383.612257 C359.003055,383.820065 358.526567,384.017377 358.045881,384.179005 C357.571492,384.357426 357.078212,384.487568 356.601724,384.651295 C356.13993,384.785635 355.676036,384.894786 355.203747,384.991343 C354.851104,385.079504 354.485866,385.125683 354.129025,385.190754 C354.038765,385.203349 353.93801,385.22434 353.845651,385.232736 C352.754137,385.398562 351.643732,385.484624 350.516534,385.478326 C350.002263,385.467831 349.467001,385.457336 348.942235,385.417454 C348.41327,385.383868 347.888504,385.3125 347.35954,385.232736 C346.82008,385.163467 346.284818,385.071108 345.751656,384.955659 C345.22479,384.838112 344.681132,384.720564 344.152168,384.567332 C343.619005,384.416199 343.083744,384.258769 342.546383,384.082448 C342.019518,383.889334 341.473761,383.721409 340.942697,383.507304 C339.884768,383.072798 338.828938,382.604706 337.777307,382.044256 L337.781505,382.046355 C336.051875,381.089181 333.083797,380.337716 328.860478,382.365413 C324.996098,384.208392 324.299209,387.5585 322.049011,391.630687 C320.655231,395.020677 318.978078,398.055925 317.164486,401.496293 C314.179615,407.132284 313.476428,407.377874 311.169556,409.117999 C308.858485,410.864422 308.795513,408.631016 308.780819,406.80273 C308.761928,404.978643 306.415173,403.717104 305.735076,405.140271 C305.046582,406.55714 304.595283,407.520611 304.595283,407.520611 C302.206547,414.050803 288.092432,409.854771 285.594544,408.698186 C283.096657,407.531106 285.126453,406.517258 285.126453,406.517258 C281.377522,405.09619 282.511018,404.01937 282.511018,404.01937 C282.511018,404.01937 287.418632,403.603755 289.817864,400.182279 L289.817864,400.182279 Z M295.153688,328.686017 C300.180949,328.599955 312.405905,326.356054 312.405905,326.356054 C323.102742,323.482434 327.10356,328.895923 327.10356,328.895923 C332.512851,334.731325 342.189542,339.664128 352.50225,343.026831 C351.977483,343.415158 351.427528,343.807683 350.867078,344.221199 C349.794455,345.044032 348.600087,345.833281 347.422512,346.725384 C346.205054,347.558712 344.981299,348.452914 343.69877,349.31563 C342.430934,350.188841 341.142108,351.072548 339.821796,351.910075 C338.539267,352.806376 337.183271,353.587228 335.896544,354.428953 C334.574133,355.19931 333.310496,356.03054 332.019571,356.735826 C330.772726,357.487291 329.523782,358.131704 328.344108,358.782414 C327.758468,359.126661 327.164433,359.370153 326.601883,359.676616 C326.31851,359.819353 326.033037,359.966287 325.753861,360.115321 C325.581738,358.547319 325.692988,357.567056 325.692988,357.567056 C325.692988,357.567056 327.2379,351.979344 320.185041,348.236711 C316.413021,346.234202 313.304305,347.674161 308.684262,348.284989 L308.684262,348.278692 C305.143139,349.185488 301.706969,349.643084 297.855185,350.232922 C293.581488,350.88783 291.919028,350.900424 290.430791,350.591862 L290.430791,369.260948 C290.212488,372.793675 285.015202,372.793675 284.786404,369.260948 L284.786404,343.870655 C284.748621,343.872754 284.717135,343.864358 284.681451,343.870655 L284.681451,324.265385 C284.700343,310.119785 284.786404,253.117568 284.786404,227.981262 C285.015202,224.450634 290.212488,224.450634 290.430791,227.981262 L290.430791,328.366959 C291.872849,328.56637 293.409364,328.715404 295.153688,328.686017 L295.153688,328.686017 Z M196.524908,230.5904 L281.058464,230.5904 L281.058464,305.283538 L196.524908,305.283538 L223.510491,267.941167 L196.524908,230.5904 Z M757.514792,585.393302 L573.347005,585.393302 C595.79021,555.880444 610.953858,521.28575 610.953858,480.996291 L610.953858,126.250064 L146.686802,126.250064 L146.686802,480.996291 C146.686802,521.28575 161.842053,555.880444 184.287358,585.393302 L0.117470929,585.393302 L51.5634614,655.287977 L0.117470929,725.174256 L92.8268863,725.174256 L92.8268863,636.740636 L190.450213,593.130456 C205.00933,610.718524 222.047443,626.409037 239.763554,640.340533 L97.1236729,640.340533 L97.1236729,777.275154 L660.51069,777.275154 L660.51069,640.340533 L517.864512,640.340533 C535.584821,626.409037 552.620834,610.718524 567.184149,593.130456 L664.807476,636.740636 L664.807476,725.174256 L757.514792,725.174256 L706.068802,655.287977 L757.514792,585.393302 L757.514792,585.393302 Z" id="Fill-10"></path>
            <path d="M323.82482,256.047863 L323.524654,255.69732 L323.373521,255.527295 L323.243379,255.386658 L323.216091,255.350974 L323.15102,255.290101 L322.907528,255.057105 C322.609461,254.725452 322.334484,254.3938 322.156063,254.022265 C321.954553,253.661226 321.832807,253.266602 321.746745,252.874077 C321.57882,252.076432 321.610306,251.303976 321.679575,250.75612 C321.679575,250.728832 321.679575,250.70994 321.683773,250.682653 L321.807618,249.868215 C321.807618,249.868215 321.509551,250.048735 321.121224,250.50843 C320.930209,250.737228 320.699312,251.028998 320.502,251.415226 C320.302589,251.790959 320.088484,252.256952 319.983531,252.811105 C319.874379,253.36106 319.8282,254.001275 319.954144,254.675075 C320.063295,255.350974 320.34457,256.037368 320.732897,256.669187 L320.764383,256.717465 L319.070437,267.825719 C319.070437,267.825719 319.150202,267.808926 319.309731,267.785836 C319.450368,267.735459 319.710652,267.716567 319.975134,267.578029 C320.252211,267.46258 320.602755,267.315646 320.940704,267.063758 C321.308041,266.839158 321.66908,266.530595 322.049011,266.173754 C322.22953,265.98064 322.416347,265.785427 322.609461,265.581818 C322.781585,265.357218 322.962104,265.126321 323.140525,264.884928 C323.480573,264.393747 323.805928,263.843792 324.076708,263.239261 C324.34119,262.636829 324.569988,261.975624 324.712725,261.276635 C324.788291,260.923992 324.828173,260.552457 324.876452,260.183022 C324.891145,259.80519 324.891145,259.421061 324.876452,259.032734 C324.769399,258.226693 324.664446,257.502516 324.179562,256.637701 C324.068312,256.434091 323.93607,256.1906 323.82482,256.047863" id="Fill-11"></path>
            <polyline id="Fill-12" points="379.989509 117.32064 471.533943 117.32064 471.533943 102.61249 394.703957 102.61249 379.989509 117.32064"></polyline>
        </g>
    </g>
</svg>