<?xml version="1.0" encoding="UTF-8"?>
<svg width="848px" height="848px" viewBox="0 0 848 848" version="1.1" xmlns="http://www.w3.org/2000/svg" xmlns:xlink="http://www.w3.org/1999/xlink">
    <!-- Generator: Sketch 53.2 (72643) - https://sketchapp.com -->
    <title>logo-s</title>
    <desc>Created with Sketch.</desc>
    <g id="logo-s" stroke="none" stroke-width="1" fill="none" fill-rule="evenodd">
        <path d="M326.033974,566.107348 C329.313708,564.143771 333.001076,561.892451 335.891824,563.840043 C338.761258,565.787634 346.572938,568.366661 346.572938,568.366661 C346.572938,568.366661 343.836718,567.83114 358.519586,570.959009 C373.197125,574.092207 373.948453,563.453722 373.948453,563.453722 L374.134953,563.293865 C373.735311,560.832066 372.163383,557.411126 367.996443,552.879179 C354.453889,538.135033 356.944994,479.648676 386.393323,474.74373 C387.693493,482.129125 389.790284,489.429262 392.395954,496.478957 C393.064689,498.295998 393.714774,500.118368 394.516724,501.874131 C395.297359,503.675187 395.984744,505.359015 396.845308,507.237335 C397.652586,508.902512 398.473185,510.578346 399.293784,512.235531 C400.085077,513.911365 401.070862,515.629828 401.955404,517.310991 C405.26178,523.302966 408.871885,528.927269 412.836339,534.133279 C413.014846,534.68745 413.196017,535.244285 413.406495,535.793128 L414.943787,539.965396 C415.479308,541.348159 416.076108,542.677637 416.640936,544.033757 C417.219086,545.381885 417.770592,546.764648 418.386042,548.051497 C419.116056,549.540832 419.784791,550.803702 420.525462,552.127851 C423.426867,557.317876 426.794521,562.017673 430.367326,566.304505 C430.809597,566.826705 431.254532,567.372883 431.694139,567.88709 C432.152396,568.409289 432.618646,568.912839 433.071574,569.419053 C433.99608,570.436809 434.885951,571.454566 435.831772,572.389729 C436.790914,573.332886 437.736735,574.252064 438.671898,575.163249 C438.727848,575.221863 438.77847,575.277813 438.839748,575.328434 C431.470339,575.181899 420.546776,573.29825 406.732465,566.13932 C395.297359,560.20596 383.198846,587.384318 383.198846,587.384318 C380.11627,592.856757 372.030169,598.286567 362.049762,592.158715 C352.066691,586.028198 339.994821,585.950934 339.994821,585.950934 L337.242616,588.41806 C331.085456,591.532608 331.639627,586.766204 331.639627,586.766204 C333.797697,585.631219 329.132536,581.778665 328.261316,583.824835 C327.400752,585.873669 326.737345,585.212927 326.737345,585.212927 C320.43365,584.741349 315.656589,578.975839 311.958563,577.217411 C308.255209,575.440334 307.586474,574.411921 307.586474,574.411921 C307.066938,570.844445 319.91145,568.174832 319.91145,568.174832 C319.91145,568.174832 322.738255,568.084247 326.033974,566.107348 Z M325.996674,348.629859 C319.264029,346.541061 314.457662,333.166356 313.855533,330.219658 C313.146834,326.798718 315.720532,328.098888 315.720532,328.098888 C314.348426,323.196606 316.288024,323.545628 316.288024,323.545628 C316.288024,323.545628 320.428321,328.232103 325.719589,328.088231 C325.799517,328.088231 325.895432,328.088231 325.996674,328.088231 L325.996674,348.629859 Z M613.813919,531.000081 C613.875197,530.730989 613.93914,530.437917 613.984433,530.179482 L614.36809,527.475234 L614.413383,527.203477 L614.437361,526.939713 L614.453347,526.806499 L614.527947,525.628885 C614.567911,524.856243 614.634518,524.096922 614.661161,523.321616 C614.674482,522.386452 614.661161,521.443295 614.613204,520.505468 C617.852973,518.842955 631.840463,509.699133 619.161136,479.344948 C619.161136,479.344948 650.35457,510.788825 613.813919,531.000081 Z M480.240053,174.78268 C480.30666,174.830637 480.370603,174.870602 480.431882,174.921223 C480.871488,175.23028 481.271131,175.64058 481.716066,175.992265 C482.158338,176.378586 482.573966,176.815529 483.008244,177.244479 C483.405222,177.713392 483.871472,178.115699 484.236479,178.621913 C484.633457,179.101484 485.046421,179.562405 485.403435,180.079276 C485.757785,180.582826 486.18407,181.030426 486.493127,181.544633 C486.812841,182.053511 487.183177,182.506439 487.478912,182.970024 C487.761326,183.449595 488.078376,183.889202 488.350133,184.294173 C488.909633,185.104116 489.317268,185.836794 489.682275,186.3137 C490.020639,186.809257 490.236446,187.083678 490.236446,187.083678 C490.236446,187.083678 490.233782,186.734657 490.16451,186.137858 C490.073925,185.549051 490.012646,184.669837 489.711582,183.692045 C489.447818,182.690275 489.042847,181.544633 488.459369,180.383005 C488.182283,179.78887 487.827933,179.202727 487.452269,178.627242 C487.121898,178.027778 486.647656,177.494921 486.208049,176.943414 C485.779099,176.381251 485.240914,175.909672 484.7347,175.424773 C484.223157,174.958523 483.647672,174.564209 483.101494,174.177888 C482.851051,174.020695 482.600609,173.879488 482.344837,173.738281 C486.248013,172.115732 495.796806,170.245405 511.670609,179.860805 C511.670609,179.860805 518.994725,182.756882 522.796657,192.239067 C522.796657,192.239067 523.015129,192.326989 523.3828,192.48951 C527.941389,192.478853 533.42715,192.65736 539.645588,193.584531 C542.872035,194.074759 546.284983,194.772801 549.804502,195.8545 C553.321356,196.944193 556.942118,198.44152 560.43233,200.628897 C563.887906,202.824267 567.175632,205.840236 569.482902,209.743412 C571.830136,213.630602 573.03972,218.30642 573.212899,223.062166 C573.367427,227.831234 572.557485,232.648259 571.25465,237.374698 C570.559272,239.727261 569.799951,242.087816 568.880773,244.392422 C567.990903,246.654399 567.095703,248.948347 566.189847,251.255617 C564.428755,255.85417 562.795549,260.569953 561.458079,265.408292 C560.123273,270.241303 559.060224,275.212856 558.772481,280.168424 C558.663245,282.054737 558.700545,283.949043 558.889709,285.787398 C561.868379,285.877984 564.260905,288.310475 564.260905,291.307794 C564.260905,292.794465 563.653449,294.147921 562.694307,295.139034 C563.067306,295.36017 563.44297,295.589298 563.845277,295.807769 C566.240468,297.12659 569.309723,298.421432 573.015742,299.234038 C574.867419,299.670981 576.865632,299.932081 579.021037,300.294423 C581.203086,300.67808 583.43842,301.221594 585.751018,301.959601 C590.344243,303.459592 595.179918,305.737555 599.607958,309.203788 C603.388576,312.174464 606.91076,316.098954 609.183394,320.918644 C610.595464,323.002114 611.783735,325.221462 612.649627,327.595339 C614.66649,332.918578 615.138068,338.774673 614.176261,344.191162 C613.174491,349.607651 610.949814,354.581869 608.11768,358.834066 C605.290875,363.118234 601.931213,366.776296 598.387716,369.952122 C596.631953,371.550692 594.82024,373.013384 592.99787,374.398811 C592.113328,375.064882 591.244771,375.72296 590.378879,376.381038 C589.584922,377.020467 588.825602,377.622595 588.066281,378.312644 C585.060969,380.950285 582.527235,383.878333 580.968629,387.027516 C579.40203,390.163378 578.813223,393.491069 579.250166,396.650909 C579.657801,399.837393 580.995272,402.781426 582.559206,405.363117 C584.171098,407.963458 586.044089,410.220106 587.917081,412.167698 C589.800729,414.139268 591.660399,415.847074 593.416162,417.31243 C596.92236,420.243142 599.95165,422.236026 602.003149,423.602804 C603.215398,424.386103 604.097276,424.926953 604.64079,425.241338 C605.123025,425.505102 605.416096,425.648973 605.416096,425.648973 L605.229597,426.123216 C605.229597,426.123216 605.139011,426.104566 605.003132,426.053945 L604.947182,426.171173 L604.675426,426.059273 L604.646118,426.120552 C604.646118,426.120552 603.926762,425.862116 602.57597,425.390538 C601.233171,424.871003 599.285579,424.07971 596.850424,422.968704 C596.783817,422.936733 596.701224,422.907425 596.645274,422.867461 C594.146176,421.796419 591.202143,420.432306 587.954381,418.617929 C584.522783,416.720959 580.774136,414.341753 576.966875,411.243191 C575.077897,409.6686 573.183592,407.923494 571.409179,405.879988 C569.616116,403.849804 567.953603,401.499906 566.688068,398.779672 C565.41454,396.064767 564.537991,392.926241 564.583284,389.630522 C564.601934,386.334803 565.52644,383.009776 567.05041,380.097714 C568.561059,377.137695 570.623215,374.556004 572.914499,372.275377 C575.219104,369.960115 577.704881,367.94858 580.374493,366.056939 C581.751928,365.076483 582.940199,364.335812 584.389569,363.419298 C585.692404,362.63067 586.981917,361.796749 588.244788,360.9202 C590.773193,359.193744 593.195027,357.307431 595.475654,355.282575 C600.015593,351.21155 603.966726,346.442482 606.263339,341.041979 C606.862802,339.64323 607.334381,338.209845 607.672745,336.755146 C607.712709,336.003818 607.723366,335.255155 607.70738,334.511819 C607.475588,332.926571 607.107917,331.362636 606.553746,329.825344 C605.024447,325.570483 602.33352,321.614022 598.803344,318.470167 C595.278497,315.299669 590.938379,312.920464 586.265225,311.604308 C584.072519,310.978201 581.216407,310.538594 578.602745,309.835223 C575.957111,309.153167 573.306149,308.332567 570.705808,307.274847 C568.108131,306.203805 565.54509,304.871663 563.203185,303.094585 C560.930551,301.36813 558.911024,299.17276 557.429682,296.655012 C555.013177,296.066205 553.204128,293.905471 553.204128,291.307794 C553.204128,289.972988 553.699685,288.771396 554.469663,287.814918 C554.10732,285.134649 554.10732,282.462372 554.301813,279.870024 C554.736091,274.421564 556.001626,269.250189 557.480303,264.26265 C558.990952,259.283104 560.781351,254.500714 562.659671,249.864861 C564.583284,245.167728 566.613468,240.872903 567.953603,236.407563 C569.299066,231.955545 570.127658,227.47422 570.127658,223.126109 C570.111672,218.785991 569.15253,214.605729 567.175632,211.075554 C565.222712,207.532056 562.331964,204.689265 559.172123,202.541853 C555.982976,200.39444 552.572693,198.846491 549.207702,197.698185 C545.837383,196.539221 542.528343,195.753258 539.379159,195.180437 C534.271728,194.253266 529.622552,193.864281 525.594155,193.683109 C528.940496,195.747929 534.213113,200.20794 535.43602,208.357984 C535.950226,211.848196 535.982198,217.099499 531.841901,220.120797 C529.817045,221.599474 528.170518,222.803731 526.801076,223.797508 C526.492019,223.224687 526.164312,222.635881 525.793977,222.052403 C525.239806,221.165196 524.690963,220.192732 524.059528,219.25224 C523.388128,218.322405 522.700743,217.365927 522.000037,216.382807 C521.222066,215.43965 520.430774,214.47518 519.62616,213.489395 C518.778918,212.530252 517.870397,211.600417 516.96454,210.62529 C516.013391,209.703447 515.032935,208.776277 514.015178,207.854434 C512.968115,206.980549 511.929044,206.061372 510.812709,205.219458 C508.593361,203.524973 506.264777,201.910417 503.829621,200.474369 C498.969968,197.570299 493.7906,195.265694 488.797733,193.611174 C486.31462,192.739953 483.844829,192.124503 481.518909,191.541025 C479.177004,190.989518 476.954991,190.557904 474.879514,190.259505 C473.619308,190.059683 472.425709,189.921141 471.296053,189.806576 C471.205467,189.715991 471.133531,189.638727 471.040281,189.558798 C471.037617,189.540148 471.018967,189.534819 471.018967,189.534819 L470.800496,189.529491 C470.001211,188.684913 469.076704,187.970885 468.210812,187.192914 C467.760548,186.801264 467.27032,186.4629 466.80407,186.092565 C466.335156,185.732887 465.860914,185.357223 465.346707,185.034844 C464.843157,184.701809 464.355594,184.352788 463.822737,184.057052 L462.176209,183.180503 C461.603388,182.938053 461.035896,182.660967 460.431104,182.439832 C459.804997,182.232018 459.19754,182.005554 458.520812,181.869675 C457.894705,181.720475 457.217977,181.640547 456.503949,181.621897 C456.160257,181.621897 455.805907,181.632554 455.435572,181.693832 C455.23575,181.712482 454.995965,181.776425 454.772165,181.827047 C454.670922,181.848361 454.543037,181.890989 454.407158,181.941611 C454.276608,181.989568 454.164708,182.018875 453.892951,182.168075 L454.15938,182.040189 C452.459567,182.70626 450.802382,183.518867 449.211805,184.475345 L449.115891,184.422059 C448.377884,184.86433 447.655863,185.327915 446.955156,185.831465 L439.084862,184.411402 C439.084862,184.411402 439.356619,181.920297 443.177202,180.625455 C441.213625,177.598828 437.510271,170.322669 448.122113,167.738314 C463.86803,163.909738 479.121054,174.020695 480.240053,174.78268 Z M345.54186,408.509636 C349.245214,403.311619 356.193666,389.161608 356.193666,389.161608 C361.341063,376.066653 369.893413,376.074646 369.893413,376.074646 C386.907529,374.206983 410.545055,357.866931 424.140895,342.640549 C435.149715,330.328894 442.340617,331.146829 444.679858,331.914143 C452.467559,306.531512 426.416193,294.430335 426.416193,294.430335 C396.117958,283.274979 371.958233,257.146348 371.958233,257.146348 C363.254018,254.655243 364.905874,245.234335 365.726474,243.718358 C366.547073,242.197052 365.124345,235.291228 365.124345,235.291228 C365.124345,235.291228 362.566633,224.580808 366.920073,224.231787 C371.286834,223.888094 370.559484,228.409384 372.432476,227.210456 C374.310796,226.008864 375.933345,226.648292 375.933345,226.648292 C375.933345,226.648292 383.960832,229.507068 398.236064,218.074627 C407.987342,210.27094 425.076058,203.474352 434.936572,199.944176 C415.870958,201.380225 416.371843,197.383799 416.371843,197.383799 L434.526273,190.046362 L441.354832,191.138718 C439.271362,193.275474 437.486292,195.729279 436.138164,198.374913 C435.919693,198.819848 435.7252,199.280769 435.533372,199.731033 C434.57423,201.875782 433.822902,204.081809 433.292709,206.3278 C433.258074,206.431707 433.250081,206.53295 433.210117,206.6262 C433.066245,207.276285 432.922374,207.923706 432.797153,208.57912 C432.152396,212.064003 431.91261,215.602172 431.973889,219.08439 C432.029839,222.561281 432.256303,225.976893 432.671931,229.405826 C433.146174,232.858737 433.668373,236.253035 435.035151,239.833832 C435.410815,240.758339 435.778486,241.616238 436.559121,242.671294 L436.756278,242.919073 L436.977414,243.17218 L437.123949,243.345358 C437.350414,243.577151 437.624835,243.832922 437.984513,244.091358 C438.338863,244.336472 438.837084,244.632207 439.548448,244.77075 C440.257147,244.917286 441.120375,244.781407 441.687867,244.506986 C442.825517,243.936829 443.190523,243.353351 443.576845,242.913744 C443.92853,242.442166 444.176308,242.042523 444.426751,241.656202 L445.7136,239.519447 C447.34947,236.868484 449.291733,234.872936 451.841453,233.852515 C452.147845,233.729958 452.499531,233.599408 452.781945,233.51948 C452.907166,233.476851 453.138959,233.415573 453.344109,233.362287 L453.863644,233.253051 C454.614972,233.101187 455.342322,232.92268 456.125621,232.837423 C456.887606,232.706873 457.668241,232.613623 458.478184,232.563002 C459.261483,232.472416 460.060768,232.437781 460.873375,232.416466 C463.167323,232.323216 465.498571,232.341866 467.832484,232.437781 L467.843141,232.419131 C468.796955,232.456431 469.748104,232.499059 470.69126,232.552345 C473.411494,232.720195 476.139721,232.936002 478.878604,233.143816 C479.478068,233.189109 480.06421,233.23973 480.66101,233.279694 C482.33418,233.40758 484.028665,233.527473 485.736471,233.620723 C486.618349,233.658023 487.521541,233.711308 488.350133,233.695323 L488.970911,233.700651 L489.639646,233.68733 L490.897188,233.658023 C492.557037,233.620723 494.214221,233.604737 495.756842,233.68733 C497.288805,233.753937 498.775475,234.100294 499.217746,234.686436 C499.753267,235.237943 499.774582,236.833849 499.470853,238.341833 C499.247053,239.791204 498.663575,240.872903 497.523262,241.491017 C496.385613,242.119788 494.787042,242.218366 493.228436,242.061173 C491.637859,241.898652 490.039289,241.522988 488.462033,241.048746 C487.428291,240.726367 486.399877,240.353368 485.374128,239.956389 C485.152992,239.876461 484.923864,239.791204 484.708057,239.697954 C482.851051,238.957283 481.028681,238.131355 479.238283,237.212177 C481.974502,239.170426 484.873243,240.92086 488.014433,242.290302 C489.575703,242.975023 491.200917,243.569158 492.940694,243.910186 C494.66715,244.235229 496.585434,244.4164 498.519704,243.625108 C499.476182,243.24678 500.366053,242.543409 500.994824,241.688174 C501.612937,240.830274 501.991266,239.828504 502.19908,238.933304 C502.412223,238.094055 502.601387,237.121591 502.622701,236.127814 C502.644015,235.1367 502.476165,233.919122 501.727502,232.837423 C500.968181,231.774374 499.846517,231.17491 498.882047,230.860525 C497.912247,230.522161 496.987741,230.378289 496.09787,230.263725 C494.307471,230.029268 492.597001,229.999961 490.905181,229.94934 L489.647639,229.920032 L489.058832,229.901382 L488.438054,229.869411 C487.566834,229.842768 486.815506,229.760175 486.024213,229.696233 C484.385679,229.531047 482.733823,229.33389 481.079303,229.134069 C480.202753,229.030162 479.320875,228.928919 478.444326,228.825012 C477.402591,228.697126 476.36352,228.587891 475.311128,228.470662 C473.885736,228.318798 472.455016,228.166934 471.018967,228.05237 C467.635327,227.767291 464.214386,227.556813 460.737496,227.60477 C459.879597,227.612763 458.995055,227.636741 458.12117,227.706013 C457.236627,227.740648 456.362742,227.817913 455.467543,227.94047 C454.583001,228.020398 453.669151,228.198905 452.773952,228.380076 C452.539495,228.433362 452.358324,228.465334 452.067917,228.529276 L451.407175,228.710448 C450.876982,228.856983 450.456025,229.022169 449.979118,229.198012 C448.130106,229.93069 446.411643,231.049689 444.986251,232.392488 C443.552866,233.729958 442.401895,235.277907 441.442753,236.780563 L440.203861,238.805419 C440.147911,238.70684 440.091961,238.605597 440.044004,238.496362 C440.009369,238.413769 439.980062,238.341833 439.942762,238.261905 C439.897469,238.142012 439.841519,238.024784 439.804219,237.910219 C438.770477,235.219293 438.21897,231.936895 437.813999,228.750412 C437.414356,225.523964 437.182564,222.241567 437.102635,218.996469 C437.091978,218.191855 437.086649,217.397899 437.097307,216.606607 L437.097307,216.601278 C437.097307,216.555985 437.102635,216.518685 437.102635,216.478721 C437.118621,215.815314 437.147928,215.149243 437.193221,214.488501 C437.203878,214.235394 437.227856,213.979623 437.243842,213.726516 C437.275814,213.270923 437.321106,212.804674 437.377056,212.346417 C437.409028,212.07466 437.430342,211.792246 437.470306,211.520489 C437.536913,211.000954 437.619506,210.47609 437.69677,209.961883 C437.728742,209.802026 437.742063,209.639505 437.768706,209.479648 C438.314884,206.370428 439.223405,203.357124 440.584854,200.59959 C441.069754,199.632455 441.613267,198.705284 442.194081,197.810085 C442.25536,197.708842 442.321967,197.623585 442.38591,197.522342 C442.668324,197.093392 442.964059,196.672436 443.270452,196.262136 C443.44363,196.038336 443.622137,195.825193 443.795316,195.606722 C444.037766,195.316315 444.26423,195.015251 444.514672,194.735501 C444.975594,194.21863 445.457829,193.717745 445.972036,193.246167 C447.727799,191.602304 449.760647,190.248847 451.942696,189.145834 L451.782839,189.119191 C452.352995,188.831449 452.917823,188.554363 453.514623,188.301256 L453.690466,188.215999 C453.762401,188.194685 453.78638,188.165378 453.876966,188.157385 C454.026165,188.120085 454.202008,188.096106 454.401829,188.085449 C454.620301,188.064135 454.849429,188.058806 455.089215,188.064135 C455.34765,188.061471 455.619407,188.064135 455.899157,188.112092 C456.362742,188.141399 456.844978,188.26662 457.327213,188.365199 C457.814777,188.482427 458.305005,188.666263 458.797898,188.80747 L460.260589,189.401605 L461.725945,190.099648 C462.221502,190.307462 462.703738,190.587212 463.188637,190.850976 C463.60693,191.093425 464.046537,191.325218 464.462165,191.580989 C464.462165,191.580989 464.478151,191.580989 464.491472,191.586318 C464.526108,191.620954 464.576729,191.642268 464.624686,191.671575 C465.554521,192.289689 466.526985,192.833203 467.451491,193.488617 C467.781862,193.717745 468.128219,193.941545 468.463919,194.170673 L468.471912,194.176002 C469.066047,194.586301 469.665511,194.988608 470.238332,195.444201 C471.141524,196.128922 472.105995,196.752364 472.990537,197.479714 C473.885736,198.169763 474.7836,198.859813 475.708107,199.536541 C475.721428,199.541869 475.724092,199.555191 475.748071,199.571176 C475.481642,199.211498 475.201893,198.873134 474.935464,198.518784 C474.506515,197.951292 474.069572,197.378471 473.635294,196.816307 C473.419487,196.54455 473.195687,196.296772 472.971887,196.033008 C472.641516,195.641358 472.311145,195.249708 471.962124,194.863387 L472.929259,195.537451 C474.6344,196.088957 476.416806,196.715064 478.305783,197.357157 C480.479839,198.153777 482.755137,199.035655 485.0704,200.016112 C487.396319,200.975254 489.732896,202.078267 492.096116,203.221245 C494.419371,204.428166 496.801241,205.645743 499.055225,207.036499 C501.35983,208.363313 503.552536,209.871297 505.683963,211.363296 C506.752341,212.119953 507.756776,212.932559 508.779861,213.689216 C509.770974,214.504487 510.748766,215.3091 511.707909,216.100393 C512.629751,216.931649 513.540936,217.757577 514.428142,218.554198 C515.286042,219.40144 516.125291,220.227368 516.943226,221.026653 C518.485846,222.707816 519.975181,224.303722 521.24338,225.870321 C521.549773,226.222007 521.829522,226.579021 522.103944,226.938699 C522.242486,227.106549 522.370372,227.274399 522.506251,227.452906 C522.506251,227.458234 522.508915,227.468891 522.508915,227.468891 C522.684758,227.695356 522.857936,227.929812 523.033779,228.148284 C523.585285,228.883626 524.158106,229.560354 524.62702,230.242411 C525.524884,231.619845 526.420083,232.776145 527.059511,233.788572 C528.314389,235.821421 529.103017,236.980384 529.103017,236.980384 C529.103017,236.980384 529.081703,236.90312 529.044403,236.775235 C533.842778,245.167728 535.577227,251.522045 535.577227,251.522045 C535.577227,251.522045 540.737944,263.756436 547.246789,287.894847 C557.88261,327.336903 559.856844,335.96119 556.61974,357.677767 C554.352434,372.938784 546.980361,387.000873 553.758299,408.291165 C574.233319,472.593653 558.319553,509.74709 539.208645,530.387296 C540.49283,535.862399 545.720155,545.472471 566.648104,546.396977 C577.068117,546.849905 584.072519,543.692729 588.591145,538.923661 L589.688829,538.05244 L590.725236,537.034684 C592.084021,535.625278 593.301598,534.021379 594.220776,532.254959 C595.115975,530.491203 595.864639,528.636862 596.245632,526.747884 C596.655931,524.874893 596.850424,522.993909 596.831774,521.208839 C596.799803,517.601398 596.051139,514.342979 595.014733,511.747967 C594.990754,511.689353 594.961447,511.641396 594.940133,511.58811 C594.26074,508.609441 593.195027,506.240892 591.950806,504.935393 C588.865566,501.69296 578.994394,497.797777 576.114304,507.525077 C576.114304,507.525077 573.849663,517.449534 592.150628,521.544538 C591.990771,522.868687 591.721678,524.206158 591.367328,525.522314 C590.9517,527.02497 590.357565,528.463683 589.638208,529.833125 C589.339808,530.437917 588.982794,531.010738 588.612459,531.572902 C580.57165,529.596004 557.853303,521.888231 566.903875,499.092619 C575.946454,476.299672 613.965783,492.629067 610.091914,526.593356 C605.88501,563.557629 553.390628,588.90296 520.372159,545.842806 C514.470771,549.479553 509.456589,551.634959 506.576498,552.737972 C514.342885,560.864038 508.444161,565.513213 506.429962,571.017623 C504.165321,577.174783 514.95567,581.893229 526.041755,590.05393 C537.125175,598.211967 535.899605,602.445514 528.780639,616.896589 C521.651015,631.345 526.48669,640.659336 526.48669,640.659336 C526.702497,647.831588 525.743355,659.333301 524.224714,665.682289 C522.714065,672.012627 522.079965,672.433584 520.244274,674.748846 C518.395261,677.061445 517.769154,674.879396 517.286919,673.073012 C516.802019,671.27462 514.15905,670.619207 513.842,672.191134 C513.532943,673.784376 513.325129,674.839432 513.325129,674.839432 C512.637744,681.923763 497.587205,681.366927 494.819014,680.844728 C492.06148,680.338514 493.811915,678.809215 493.811915,678.809215 C489.740889,678.366944 490.585467,677.018816 490.585467,677.018816 C490.585467,677.018816 495.333221,675.345646 496.827884,671.346556 C498.335868,667.360788 498.59164,663.708055 500.922888,659.133479 C507.775426,645.604247 509.794953,630.593672 510.386424,623.344156 C508.233683,615.010276 500.501931,607.054725 481.833295,599.125817 C480.272025,598.459746 478.756047,597.77236 477.274705,597.053004 C476.147713,596.338976 474.594436,595.302569 472.601552,594.103642 C471.554488,593.437571 470.472789,592.590329 469.24189,591.724436 C468.048291,590.826573 466.69217,589.971338 465.328057,588.924274 C462.653116,586.766204 459.578533,584.464263 456.511942,581.624137 C455.7393,580.910109 454.897386,580.270681 454.135401,579.500703 C453.362759,578.736053 452.579459,577.958082 451.782839,577.174783 C450.14164,575.648148 448.585698,573.937678 446.989792,572.200565 C445.32195,570.498088 443.843273,568.553161 442.212731,566.685498 C441.440089,565.731684 440.702082,564.711263 439.916119,563.736136 C439.527133,563.232586 439.138148,562.734365 438.738505,562.236144 C438.376163,561.716609 438.008492,561.194409 437.638156,560.669545 C436.1355,558.586075 434.707444,556.417348 433.292709,554.208657 C431.944582,551.96533 430.585797,549.682039 429.373548,547.345462 C429.104455,546.828591 428.838027,546.301063 428.574263,545.778863 C428.318492,545.246006 428.092027,544.75045 427.876221,544.268214 C427.814942,544.137664 427.740342,543.993793 427.697713,543.879229 C427.13555,542.603037 426.653314,541.332174 426.120458,540.066639 C425.611579,538.79844 425.057408,537.527576 424.577837,536.243392 L423.19241,532.369523 C421.367375,527.219463 419.840741,521.986809 418.844299,516.786128 C418.796342,516.538349 418.761706,516.293235 418.716413,516.040128 C418.479292,514.793243 418.274142,513.549023 418.092971,512.304802 C417.957092,511.38296 417.839864,510.458454 417.738621,509.544604 C417.677342,509.027733 417.637378,508.518855 417.597414,508.009977 C417.528142,507.335913 417.477521,506.664514 417.432228,505.99045 C417.400257,505.577486 417.381607,505.175179 417.362957,504.762215 C417.307007,503.66453 417.2777,502.564181 417.285693,501.495803 C417.299014,500.403447 417.360293,499.32974 417.432228,498.256034 C417.461535,497.888363 417.493507,497.531349 417.525478,497.153021 C417.584092,496.457643 417.658692,495.751607 417.743949,495.058894 C417.791907,494.643265 417.845192,494.240958 417.903806,493.841316 C418.050342,492.903488 418.204871,491.970989 418.386042,491.046482 C418.636484,489.831569 418.924227,488.63797 419.259927,487.468349 C420.485497,483.112245 422.323853,479.201077 424.444623,475.790794 C424.886894,475.07943 425.358472,474.386716 425.827386,473.712652 C426.011222,473.440895 426.197722,473.185124 426.394879,472.918696 C426.637329,472.593653 426.869121,472.26861 427.124892,471.959554 C427.687056,471.232204 428.246556,470.523505 428.824706,469.849441 L428.832698,469.849441 C429.658626,468.879641 430.492547,467.949806 431.321139,467.0999 C433.689688,464.731352 435.96765,462.813067 437.947213,461.35304 C439.942762,459.924984 441.586625,458.843285 442.748252,458.177214 C443.904552,457.497821 444.554637,457.183436 444.554637,457.183436 C444.554637,457.183436 443.83528,457.284679 442.519124,457.628371 C441.218953,458.0067 439.282019,458.547549 436.932121,459.581291 C434.59288,460.599048 431.771403,461.987139 428.779413,464.043966 C425.787422,466.084808 422.59561,468.775734 419.630262,472.244632 C417.141821,475.146037 414.823894,478.617599 412.96156,482.563403 C412.601882,483.322724 412.250196,484.087373 411.927818,484.886658 C409.916284,489.791605 408.605456,495.306672 408.133878,501.034882 C408.051285,501.967381 408.005992,502.913202 407.976685,503.853694 C407.963364,504.088151 407.958035,504.309287 407.958035,504.543744 C407.936721,505.433614 407.915407,506.350128 407.936721,507.269306 L407.936721,507.362556 C407.958035,508.369655 407.997999,509.384747 408.051285,510.402504 C408.067271,510.509075 408.072599,510.602325 408.077928,510.700903 C408.133878,511.614753 408.213806,512.523274 408.304392,513.426466 C407.667628,512.001074 407.017543,510.620975 406.418079,509.099669 C405.736023,507.375877 405.048637,505.646757 404.366581,503.909644 C403.791095,502.343045 403.191632,500.518011 402.610818,498.844841 C401.984711,497.137035 401.502476,495.383936 401.017576,493.654816 C399.035349,486.7037 397.577986,479.635355 396.938558,472.628289 C396.269822,465.634544 396.288472,458.72872 396.938558,452.139947 C398.201428,438.938421 402.035332,427.106337 406.529979,417.650794 C408.344356,413.830211 410.233334,410.417263 412.108989,407.369323 C412.633853,407.45458 413.145396,407.555823 413.667595,407.617101 C414.480202,407.69703 415.311458,407.758308 416.126729,407.776958 C416.952657,407.795608 417.783914,407.782287 418.601849,407.713015 C419.43577,407.665058 420.248376,407.542501 421.07164,407.430601 C422.696853,407.153516 424.311409,406.737887 425.870015,406.215688 C426.661307,405.981231 427.401978,405.629545 428.163963,405.33381 C428.923284,405.014096 429.642641,404.646425 430.385976,404.292075 L430.652404,404.140211 C431.171939,403.841811 431.965896,403.412861 432.661274,403.071833 C433.375302,402.720148 434.12663,402.389776 434.880622,402.075391 C436.375286,401.42797 437.907249,400.90577 439.449869,400.452842 C440.217183,400.229042 440.997818,400.010571 441.781117,399.853378 C442.559088,399.6802 443.331731,399.533664 444.11503,399.403114 L446.675407,399.091393 C447.87167,398.942193 448.849462,398.713065 449.869883,398.419994 C453.892951,397.191759 457.391156,394.887153 460.031461,391.892498 C461.33696,390.38185 462.434645,388.692694 463.156666,386.841016 C463.844051,384.997332 464.193072,382.945834 463.702844,381.123464 C463.300537,382.506227 462.639795,383.678512 461.82186,384.712254 C461.592731,385.013318 461.33696,385.306389 461.067867,385.583475 C459.935547,386.827695 458.611398,387.842787 457.233963,388.729994 C454.463108,390.472435 451.396517,391.602091 448.407191,392.007063 C447.674513,392.108305 446.869899,392.164255 446.259778,392.164255 L445.599036,392.150934 L444.954279,392.164255 L443.44363,392.188234 C442.439195,392.268162 441.426768,392.310791 440.435654,392.489298 C439.449869,392.638498 438.472077,392.840983 437.502278,393.059455 C435.560015,393.52304 433.689688,394.170461 431.864653,394.91646 C430.958797,395.316103 430.063597,395.721074 429.184384,396.189988 C428.318492,396.632259 427.561835,397.047887 426.629336,397.655344 C426.093815,397.943087 425.563622,398.254808 425.017444,398.515908 C424.428637,398.779672 423.842495,399.10205 423.253688,399.339171 C422.662217,399.602936 422.057425,399.853378 421.447304,400.058528 C420.845176,400.284992 420.219069,400.450178 419.614277,400.657992 C419.028134,400.828506 418.439327,400.967049 417.839864,401.089606 C417.392264,401.201506 416.928679,401.26012 416.47575,401.342713 C416.361186,401.358699 416.233301,401.385341 416.116072,401.395999 C414.730645,401.606477 413.321238,401.715713 411.890518,401.70772 C411.237769,401.694398 410.558376,401.681077 409.892305,401.630455 C409.220906,401.587827 408.554835,401.497241 407.883435,401.395999 C407.198714,401.308077 406.519322,401.190849 405.842594,401.044313 C405.173859,400.895113 404.483809,400.745913 403.81241,400.551421 C403.135682,400.359592 402.456289,400.159771 401.774233,399.935971 C401.105497,399.690857 400.412784,399.477714 399.73872,399.205957 C398.395921,398.654451 397.055786,398.060315 395.72098,397.348952 C393.530939,396.136702 389.763642,395.182889 384.403103,397.756587 C379.498156,400.095828 378.613614,404.348025 375.757502,409.516735 C373.988417,413.819554 371.859655,417.672108 369.557714,422.038869 C365.769102,429.192471 364.876567,429.504192 361.948519,431.712883 C359.015143,433.929567 358.935214,431.094769 358.916564,428.774178 C358.892586,426.458916 355.913917,424.857681 355.050689,426.664066 C354.176804,428.462457 353.603983,429.685363 353.603983,429.685363 C350.572028,437.97395 332.657384,432.648047 329.486886,431.180027 C326.316388,429.698685 328.892751,428.411836 328.892751,428.411836 C324.13434,426.608116 325.573053,425.241338 325.573053,425.241338 C325.573053,425.241338 331.802149,424.71381 334.847425,420.371027 C337.876716,416.033573 341.825184,413.704989 345.54186,408.509636 Z M363.517782,326.665504 C377.094972,323.018099 382.173097,329.889287 382.173097,329.889287 C389.038956,337.295996 401.321304,343.557063 414.41093,347.825245 C413.74486,348.318138 413.046817,348.816359 412.335453,349.341223 C410.974004,350.385622 409.458027,351.387393 407.963364,352.519713 C406.418079,353.577434 404.864802,354.712419 403.236924,355.807439 C401.627697,356.915781 399.991827,358.037445 398.315992,359.100494 C396.688115,360.238143 394.966988,361.229257 393.333782,362.297635 C391.655283,363.275427 390.051384,364.330483 388.41285,365.225682 C386.830265,366.179496 385.245016,366.997431 383.747689,367.823359 C383.004354,368.260302 382.250361,368.569359 381.536333,368.958344 C381.176655,369.139515 380.814312,369.326015 380.459963,369.515179 C380.241491,367.524959 380.382698,366.280739 380.382698,366.280739 C380.382698,366.280739 382.343611,359.188415 373.391618,354.437998 C368.6039,351.896271 364.658096,353.723969 358.794007,354.499276 C354.299361,355.642254 349.937928,356.223068 345.048967,356.971731 C339.624486,357.802988 337.514373,357.818974 335.625396,357.427324 L335.625396,381.123464 C335.34831,385.607453 328.751544,385.607453 328.461137,381.123464 L328.461137,348.896287 C328.41318,348.898952 328.373215,348.888294 328.327923,348.896287 L328.327923,324.011877 C328.351901,306.057269 328.461137,233.70598 328.461137,201.801182 C328.751544,197.319857 335.34831,197.319857 335.625396,201.801182 L335.625396,329.217888 C337.455759,329.470995 339.406014,329.660159 341.620034,329.622859 C348.000994,329.513623 363.517782,326.665504 363.517782,326.665504 Z M216.433334,205.112887 L323.729369,205.112887 L323.729369,299.918759 L216.433334,299.918759 L250.685366,252.521151 L216.433334,205.112887 Z M430.380647,226.222007 C429.634648,224.788622 428.241227,223.264652 426.24035,222.414745 C425.736801,222.201602 425.195951,222.028424 424.620466,221.919188 C424.28743,221.879224 423.959723,221.831267 423.634681,221.793967 C423.373581,221.785974 423.107153,221.785974 422.848717,221.78331 C422.100053,221.775317 421.591175,221.911196 421.047661,222.095031 C420.525462,222.278867 420.085855,222.523981 419.723512,222.803731 C418.993499,223.360566 418.591192,223.96003 418.375385,224.402301 C418.154249,224.86855 418.103628,225.145636 418.103628,225.145636 C418.103628,225.145636 418.378049,225.079029 418.841634,225.057715 C419.057441,225.041729 419.32387,225.023079 419.611612,225.041729 C419.888698,225.041729 420.19509,225.041729 420.498819,225.105672 C420.805211,225.158957 421.114268,225.238886 421.391354,225.329472 C421.655118,225.444036 422.004139,225.5586 422.118703,225.699807 L422.182646,225.734443 L422.33451,225.806378 L422.640903,225.963571 L422.683531,225.976893 L422.696853,225.990214 C422.662217,225.976893 422.582289,225.958243 422.582289,225.958243 L422.603603,225.974228 L422.662217,226.014192 L422.760796,226.102114 L422.963281,226.267299 C423.253688,226.496428 423.568074,226.714899 423.895781,226.944028 C425.225258,227.836563 426.887771,228.521283 428.377106,228.81169 C429.128434,228.947569 429.815819,229.01684 430.340683,229.022169 C430.588461,229.038155 430.825583,229.01684 430.96679,229.006183 C431.121318,229.000855 431.201247,229.000855 431.201247,229.000855 C431.201247,229.000855 431.193254,228.915597 431.169275,228.763733 C431.155954,228.614533 431.142632,228.382741 431.076025,228.134962 C430.96679,227.60477 430.74299,226.944028 430.380647,226.222007 Z M378.011486,237.42532 L377.630493,236.980384 L377.438665,236.764577 L377.273479,236.58607 L377.238844,236.540778 L377.156251,236.463513 L376.847194,236.167778 C376.468866,235.746821 376.119844,235.325864 375.89338,234.854286 C375.637609,234.396029 375.483081,233.895144 375.373845,233.396923 C375.160702,232.384495 375.200667,231.404038 375.288588,230.70866 C375.288588,230.674025 375.288588,230.650046 375.293917,230.615411 L375.451109,229.581668 C375.451109,229.581668 375.072781,229.810797 374.579888,230.394275 C374.337439,230.684682 374.044367,231.055017 373.793925,231.545246 C373.540818,232.022152 373.269061,232.613623 373.135847,233.316994 C372.997304,234.015037 372.93869,234.827643 373.098547,235.682878 C373.237089,236.540778 373.594103,237.411998 374.086996,238.213948 L374.12696,238.275226 L371.976883,252.374616 C371.976883,252.374616 372.078126,252.353302 372.280612,252.323994 C372.459119,252.260052 372.78949,252.236073 373.12519,252.06023 C373.476875,251.913695 373.92181,251.727195 374.35076,251.407481 C374.81701,251.122402 375.275267,250.730753 375.757502,250.277825 C375.98663,250.03271 376.223752,249.784932 376.468866,249.526497 C376.687337,249.241418 376.916465,248.948347 377.142929,248.641954 C377.574543,248.018512 377.987507,247.32047 378.3312,246.553156 C378.6669,245.788506 378.957307,244.949257 379.138478,244.062051 C379.234392,243.614451 379.285014,243.142873 379.346292,242.673959 C379.364942,242.194388 379.364942,241.706824 379.346292,241.213931 C379.210414,240.190846 379.077199,239.271668 378.46175,238.173983 C378.320543,237.915548 378.152693,237.606491 378.011486,237.42532 Z" id="grisen" fill="#FFFFFF"></path>
    </g>
</svg>