<?xml version="1.0" encoding="UTF-8"?>
<svg width="848px" height="848px" viewBox="0 0 848 848" version="1.1" xmlns="http://www.w3.org/2000/svg" xmlns:xlink="http://www.w3.org/1999/xlink">
    <!-- Generator: Sketch 53.2 (72643) - https://sketchapp.com -->
    <title>Logo/Responsiv/XXL</title>
    <desc>Created with Sketch.</desc>
    <g id="Logo/Responsiv/XXL" stroke="none" stroke-width="1" fill="none" fill-rule="evenodd">
        <rect fill="#000000" x="0" y="0" width="848" height="848"></rect>
        <g id="Group" transform="translate(11.585327, 127.953436)" fill="#FFFFFF">
            <path d="M367.041679,24.3344854 C367.171851,24.3344854 367.29729,24.3084509 367.422137,24.2966171 L372.436136,48.3707952 L409.797353,48.3707952 L418.669776,30.5744707 L427.5422,48.3707952 L464.766736,48.3707952 L469.785469,24.2759078 C471.432148,23.9978125 472.685943,22.5753846 472.685943,20.8511937 C472.685943,18.9293777 471.12861,17.3679021 469.203244,17.3679021 C467.281427,17.3679021 465.721727,18.9293777 465.721727,20.8511937 C465.721727,22.1996601 466.499802,23.358785 467.62165,23.9362766 L451.106339,35.2600807 L445.401836,21.4777957 C446.897633,21.0878706 448.008831,19.7399959 448.008831,18.1187594 C448.008831,16.1969434 446.450906,14.6366512 444.528498,14.6366512 C442.605498,14.6366512 441.04639,16.1969434 441.04639,18.1187594 C441.04639,19.7459128 442.167646,21.1026629 443.673503,21.4843043 L437.719305,35.5334425 C437.719305,35.5334425 420.493371,20.9074045 419.982741,8.51322921 C421.640663,7.93751276 422.834106,6.38136243 422.834106,4.53054941 C422.834106,2.190407 420.940099,0.296400456 418.598182,0.296400456 C416.263956,0.296400456 414.365808,2.190407 414.365808,4.53054941 C414.365808,6.38136243 415.562209,7.93751276 417.21658,8.51322921 C416.706542,20.9091796 399.479425,35.5334425 399.479425,35.5334425 L393.553037,21.5452486 C395.208,21.2766204 396.475996,19.8506423 396.475996,18.1187594 C396.475996,16.1969434 394.916887,14.6366512 392.991521,14.6366512 C391.07148,14.6366512 389.508821,16.1969434 389.508821,18.1187594 C389.508821,19.6346747 390.485113,20.9091796 391.835946,21.3902253 L386.094165,35.2600807 L369.128577,23.6256382 C369.96878,22.9895691 370.524378,21.9896094 370.524378,20.8511937 C370.524378,18.9293777 368.964678,17.3679021 367.041679,17.3679021 C365.115129,17.3679021 363.558979,18.9293777 363.558979,20.8511937 C363.558979,22.7730098 365.115129,24.3344854 367.041679,24.3344854" id="Fill-1"></path>
            <polyline id="Fill-2" points="372.504772 51.6493613 372.504772 59.0230288 418.66741 59.0230288 411.294925 51.6493613 372.504772 51.6493613"></polyline>
            <path d="M408.841178,364.737341 C409.132291,365.284064 409.497365,365.710674 409.930483,366.015987 C410.350585,366.315975 410.881924,366.465673 411.515627,366.465673 C412.563513,366.465673 413.374723,365.96806 413.991858,364.945025 C414.630886,363.891221 414.953358,362.400157 414.953358,360.519759 C414.953358,359.854697 414.885313,359.140525 414.752774,358.400318 C414.620827,357.673128 414.423793,357.045935 414.162266,356.545363 C413.891271,356.021715 413.535072,355.597472 413.09722,355.280917 C412.671793,354.976195 412.13927,354.82058 411.515627,354.82058 C410.875416,354.82058 410.322184,354.979746 409.874273,355.292159 C409.413344,355.609898 409.035845,356.057809 408.748282,356.613999 C408.470779,357.143564 408.272562,357.754782 408.158365,358.431678 C408.044169,359.123366 407.983816,359.804403 407.983816,360.45349 C407.983816,361.307893 408.054228,362.106086 408.192092,362.825583 C408.328773,363.539756 408.548291,364.183517 408.841178,364.737341" id="Fill-3"></path>
            <path d="M454.104444,356.302769 C454.67306,355.905152 455.09967,355.392747 455.358239,354.77147 C455.643435,354.08274 455.788991,353.253188 455.788991,352.30293 C455.788991,351.268652 455.482495,350.417799 454.873643,349.779955 C454.262425,349.133827 453.495592,348.82023 452.537051,348.82023 C451.575551,348.82023 450.812268,349.121402 450.204009,349.740903 C449.593974,350.365139 449.29517,351.115404 449.29517,352.044361 C449.29517,352.926574 449.634801,353.654947 450.328264,354.273265 C451.028236,354.898684 452.299782,355.58268 454.104444,356.302769" id="Fill-4"></path>
            <path d="M452.537051,366.465673 C453.713927,366.465673 454.654126,366.12545 455.335755,365.450921 C456.028626,364.769884 456.364707,363.926131 456.364707,362.872327 C456.364707,362.349863 456.251103,361.886568 456.02981,361.496643 C455.8026,361.097251 455.467702,360.728035 455.0334,360.39432 C454.60679,360.064156 453.997939,359.709141 453.216905,359.342883 C452.472557,358.986093 451.648329,358.616285 450.760791,358.241744 C449.996325,358.681372 449.424159,359.232237 449.059085,359.882507 C448.67271,360.573603 448.478043,361.372387 448.478043,362.256967 C448.478043,363.518455 448.849626,364.547407 449.583916,365.31424 C450.325306,366.091132 451.292131,366.465673 452.537051,366.465673" id="Fill-5"></path>
            <polyline id="Fill-6" points="351.939328 359.164192 356.97167 359.164192 354.438044 352.674513 351.939328 359.164192"></polyline>
            <path d="M469.399094,154.861772 C469.612695,154.89254 469.82807,154.932775 470.046997,154.975968 C470.542243,155.071822 471.049323,155.199036 471.55522,155.337492 C471.627998,155.353468 471.700776,155.36826 471.772371,155.379502 C472.252825,155.464706 472.817891,155.564702 473.376448,155.710258 C474.26162,155.937468 475.124898,156.245148 475.958001,156.626789 C474.781125,155.846347 473.546856,155.244596 472.34217,154.796685 C471.481258,154.478355 470.629222,154.235761 469.815645,154.054704 C468.989643,153.887846 468.174291,153.73164 467.433492,153.519814 C465.972604,153.125747 464.764961,152.549439 463.831271,151.983189 C464.770286,152.980782 466.037691,153.714481 467.4187,154.235761 C468.060094,154.478355 468.721606,154.681897 469.399094,154.861772" id="Fill-7"></path>
            <path d="M470.993112,182.864194 C470.556443,183.204417 470.139892,183.561207 469.750559,183.936932 C468.968342,184.672997 468.283162,185.473556 467.795016,186.323226 C467.542955,186.746878 467.350655,187.189463 467.211608,187.629682 C467.074335,188.073451 466.974339,188.524913 466.954222,188.973415 C466.910437,189.872787 467.07966,190.775118 467.428759,191.627746 C467.932881,192.843673 468.699714,193.934754 469.539916,194.905721 C468.977217,193.995698 468.509189,192.945445 468.267187,191.752001 C468.109796,190.965643 468.060094,190.124256 468.15654,189.27932 C468.254169,188.432017 468.492621,187.581755 468.842903,186.781196 C469.545833,185.17061 470.666498,183.754691 471.955795,182.510362 C472.269392,182.200907 472.629733,181.895002 472.973506,181.595606 C473.30722,181.324611 473.645076,181.050066 473.985299,180.772562 C474.179374,180.616355 474.366349,180.456007 474.550957,180.296842 C473.827318,180.847115 473.095394,181.374313 472.362288,181.862459 C471.861716,182.204457 471.428598,182.521604 470.993112,182.864194" id="Fill-8"></path>
            <path d="M411.51326,124.895523 C411.469475,124.685472 411.381312,124.424536 411.238123,124.139341 C410.94346,123.573091 410.393778,122.971932 409.603869,122.635851 C409.404469,122.551831 409.190276,122.483786 408.963067,122.440592 C408.832303,122.424617 408.702722,122.405683 408.573733,122.39089 C408.470779,122.387932 408.365458,122.38734 408.263687,122.386157 C407.967841,122.383198 407.767849,122.436451 407.553064,122.509229 C407.346564,122.582007 407.172015,122.679636 407.030008,122.789099 C406.741263,123.009209 406.582098,123.245885 406.496894,123.420435 C406.409915,123.604451 406.389798,123.714506 406.389798,123.714506 C406.389798,123.714506 406.498077,123.688471 406.68091,123.680187 C406.767297,123.673087 406.872027,123.665395 406.98504,123.673087 C407.095095,123.673087 407.2158,123.673087 407.335913,123.69853 C407.456619,123.719239 407.578507,123.751191 407.688562,123.787284 C407.792108,123.831661 407.929972,123.877221 407.976124,123.933432 L408.000384,123.946449 L408.061328,123.97485 L408.182033,124.036978 L408.1986,124.042895 L408.204517,124.047628 C408.189725,124.042895 408.158365,124.035794 408.158365,124.035794 L408.164282,124.038753 L408.167241,124.041711 L408.189725,124.057687 L408.228777,124.092597 L408.309839,124.157683 C408.424035,124.248212 408.548291,124.334599 408.677871,124.424536 C409.202702,124.776593 409.858889,125.047588 410.447622,125.162376 C410.74406,125.21622 411.015055,125.242846 411.222147,125.245805 C411.32096,125.25113 411.413856,125.242846 411.469475,125.239296 C411.531011,125.236929 411.56237,125.236929 411.56237,125.236929 C411.56237,125.236929 411.559412,125.203795 411.550536,125.144034 C411.54462,125.084273 411.539294,124.993152 411.51326,124.895523" id="Fill-9"></path>
            <path d="M483.861233,321.204183 L473.177048,321.204183 C480.177949,316.265329 487.130924,310.850162 493.598119,304.844487 C503.468135,295.678584 511.137057,286.128081 516.406076,276.456873 C522.512339,265.253774 525.612805,253.486201 525.612805,241.49201 L525.612805,72.5426025 L310.639217,72.5426025 L310.639217,241.488459 C310.639217,253.486201 313.733175,265.252591 319.837663,276.456873 C325.106681,286.128081 332.78152,295.678584 342.647987,304.841529 C349.113998,310.848387 356.069931,316.265329 363.069058,321.204183 L352.384873,321.204183 C327.248015,302.010282 304.181489,275.877607 304.181489,241.326927 L304.181489,65.9221592 L532.068167,65.9221592 L532.068167,241.326927 C532.068167,275.877607 508.996907,302.010282 483.861233,321.204183 L483.861233,321.204183 Z M473.956307,367.646099 L464.466748,367.646099 L464.466748,366.144976 L464.723542,366.12545 C464.993946,366.105333 465.416414,366.067465 465.990355,366.011254 C466.557196,365.949718 466.94298,365.890549 467.129954,365.835521 C467.357164,365.763927 467.528755,365.646771 467.641768,365.491156 C467.755965,365.336725 467.812767,365.078747 467.812767,364.729649 L467.812767,355.409314 L464.411129,355.409314 L464.411129,353.709974 L465.437715,353.709974 C466.377914,353.709974 467.22995,353.534242 467.966607,353.189285 C468.703855,352.84492 469.23342,352.475113 469.54465,352.090513 L469.626303,351.985192 L471.180087,351.985192 L471.168845,352.275121 C471.143402,352.868588 471.115001,353.557909 471.087191,354.349002 C471.059382,355.16317 471.045773,355.860775 471.045773,356.472585 L471.045773,364.579951 C471.045773,364.855087 471.103167,365.088806 471.221505,365.297081 C471.335702,365.501215 471.4925,365.645588 471.698409,365.736117 C471.910235,365.824279 472.280634,365.913033 472.795407,365.991136 C473.322604,366.071015 473.715488,366.115392 473.965182,366.12545 L474.232035,366.133734 L474.232035,367.646099 L473.956307,367.646099 Z M446.956802,355.488009 C446.35091,354.670882 446.040863,353.730092 446.040863,352.699364 C446.040863,351.134338 446.712434,349.804214 448.038416,348.753369 C449.343689,347.714358 450.926465,347.18716 452.741777,347.18716 C454.558863,347.18716 456.057619,347.688915 457.194852,348.679408 C458.341551,349.674634 458.922593,350.944997 458.922593,352.454404 C458.922593,353.431287 458.602487,354.364977 457.967601,355.233581 C457.436854,355.961363 456.688955,356.583823 455.739881,357.090903 C457.014977,357.694429 457.967601,358.358899 458.574086,359.071297 C459.288258,359.902624 459.649191,360.965303 459.649191,362.231524 C459.649191,363.83856 458.948035,365.239096 457.564659,366.389937 C456.199625,367.530719 454.387864,368.109394 452.180852,368.109394 C450.111113,368.109394 448.422424,367.57628 447.165078,366.527801 C445.893532,365.467489 445.248587,364.080562 445.248587,362.407849 C445.248587,361.165295 445.631412,360.1109 446.390553,359.277206 C447.04319,358.5583 447.972146,357.934656 449.159672,357.41515 C448.208231,356.826417 447.469208,356.180881 446.956802,355.488009 L446.956802,355.488009 Z M438.295613,365.300632 C438.408626,365.501215 438.566608,365.645588 438.771333,365.736117 C438.986709,365.824279 439.353558,365.913033 439.869514,365.991136 C440.394937,366.071015 440.791962,366.115392 441.041656,366.12545 L441.306143,366.133734 L441.306143,367.646099 L431.542039,367.646099 L431.542039,366.144976 L431.796466,366.12545 C432.068053,366.105333 432.491705,366.067465 433.066829,366.011254 C433.632487,365.949718 434.017087,365.890549 434.205245,365.835521 C434.434822,365.763927 434.601679,365.64973 434.717059,365.491156 C434.832439,365.336725 434.890425,365.081114 434.890425,364.729649 L434.890425,355.409314 L431.484053,355.409314 L431.484053,353.709974 L432.513006,353.709974 C433.453204,353.709974 434.304649,353.534242 435.041306,353.189285 C435.777963,352.84492 436.309894,352.475113 436.618757,352.090513 L436.700411,351.985192 L438.257745,351.985192 L438.242952,352.275121 C438.215143,352.868588 438.187333,353.557909 438.161299,354.349002 C438.133489,355.130627 438.121064,355.847166 438.121064,356.472585 L438.121064,364.579951 C438.121064,364.855087 438.178458,365.088806 438.295613,365.300632 L438.295613,365.300632 Z M404.602887,360.685433 C404.602887,358.518065 405.246648,356.71932 406.517603,355.331211 C407.792108,353.936001 409.482572,353.23307 411.543436,353.23307 C413.500162,353.23307 415.139149,353.900499 416.415429,355.222339 C417.689342,356.542405 418.334287,358.314522 418.334287,360.493725 C418.334287,361.466467 418.176305,362.43625 417.868625,363.376449 C417.557987,364.320198 417.107117,365.138508 416.530809,365.80002 C415.874623,366.559161 415.102464,367.130735 414.239186,367.500543 C413.37709,367.867392 412.400798,368.056734 411.339894,368.056734 C410.446439,368.056734 409.585527,367.886326 408.783192,367.549653 C407.977899,367.212389 407.25071,366.717734 406.624699,366.071015 C406.009931,365.434946 405.512318,364.652729 405.150203,363.745665 C404.788679,362.840376 404.602887,361.806689 404.602887,360.685433 L404.602887,360.685433 Z M391.490989,354.829456 C391.827071,354.515859 392.153685,354.256106 392.456039,354.053747 C392.814605,353.825354 393.241807,353.628321 393.727586,353.477439 C394.216915,353.320641 394.775473,353.245496 395.382549,353.245496 C396.761783,353.245496 397.80257,353.68749 398.47769,354.560828 C399.136835,355.416414 399.471733,356.55128 399.471733,357.949448 L399.471733,364.96455 C399.471733,365.235545 399.514335,365.448555 399.601314,365.601803 C399.681192,365.743809 399.820831,365.853864 400.027924,365.938476 C400.230874,366.023679 400.405423,366.085215 400.555121,366.117758 C400.692986,366.152668 400.900078,366.177519 401.168706,366.194087 L401.428459,366.210654 L401.428459,367.646099 L394.287327,367.646099 L394.287327,366.214204 L394.537021,366.194087 C394.712162,366.178111 394.898545,366.165094 395.100312,366.149118 L395.234626,366.137876 C395.458285,366.123675 395.644668,366.091132 395.790816,366.040838 C395.981341,365.979894 396.119205,365.88049 396.206184,365.730792 C396.30263,365.56926 396.35174,365.349742 396.35174,365.074605 L396.35174,358.141748 C396.35174,357.25776 396.148198,356.571397 395.741706,356.106919 C395.34113,355.645399 394.866001,355.42174 394.297977,355.42174 C393.850066,355.42174 393.433515,355.493334 393.064299,355.630015 C392.686799,355.772021 392.348943,355.945387 392.056647,356.152479 C391.780919,356.343004 391.560809,356.548913 391.402827,356.766064 C391.256088,356.967831 391.143075,357.133505 391.063788,357.25776 L391.063788,364.936741 C391.063788,365.192352 391.114082,365.399444 391.213486,365.556243 C391.309932,365.707124 391.457855,365.824279 391.672639,365.917175 C391.844821,366.000603 392.032979,366.062731 392.23238,366.103558 C392.447164,366.145568 392.666682,366.177519 392.889158,366.194087 L393.143586,366.213021 L393.143586,367.646099 L385.985886,367.646099 L385.985886,366.214204 L386.240313,366.194087 L386.570478,366.168052 L386.892358,366.137876 C387.092942,366.123675 387.263349,366.091132 387.410089,366.043797 C387.603572,365.979894 387.73907,365.88049 387.827232,365.730792 C387.923678,365.57281 387.970421,365.353292 387.970421,365.074605 L387.970421,356.758372 C387.970421,356.493294 387.915986,356.250109 387.802972,356.030591 C387.689367,355.811073 387.538486,355.63534 387.347369,355.503393 C387.202997,355.412864 387.024897,355.343636 386.821947,355.299851 C386.600654,355.254882 386.35451,355.221156 386.094165,355.202222 L385.837963,355.185654 L385.837963,353.769143 L386.094165,353.752576 L390.5786,353.450221 L390.704039,353.443713 L390.790426,353.533058 L390.983909,353.7224 L391.063788,353.801687 L391.063788,355.233581 C391.195735,355.105184 391.334783,354.973829 391.490989,354.829456 L391.490989,354.829456 Z M372.844995,354.829456 C373.186401,354.515859 373.51124,354.256106 373.813003,354.053747 C374.170385,353.825354 374.599362,353.628321 375.083958,353.477439 C375.573879,353.320641 376.129478,353.245496 376.739513,353.245496 C378.115197,353.245496 379.157167,353.68749 379.834654,354.560828 C380.493799,355.416414 380.828697,356.55128 380.828697,357.949448 L380.828697,364.96455 C380.828697,365.235545 380.873666,365.448555 380.959461,365.601803 C381.036973,365.743809 381.174837,365.853864 381.384888,365.938476 C381.584288,366.023679 381.762387,366.085215 381.909127,366.117758 C382.047583,366.152668 382.254675,366.177519 382.526854,366.194087 L382.783056,366.210654 L382.783056,367.646099 L375.642516,367.646099 L375.642516,366.214204 L375.895168,366.194087 C376.067942,366.178111 376.254917,366.165094 376.454909,366.149118 L376.589223,366.137876 C376.816433,366.123675 376.999266,366.091132 377.14778,366.040838 C377.338305,365.979894 377.473803,365.88049 377.561965,365.730792 C377.657227,365.56926 377.708704,365.349742 377.708704,365.074605 L377.708704,358.141748 C377.708704,357.25776 377.500429,356.571397 377.09867,356.106919 C376.696911,355.645399 376.224741,355.42174 375.653758,355.42174 C375.205847,355.42174 374.791662,355.493334 374.421263,355.630015 C374.043763,355.772021 373.70354,355.945387 373.413611,356.152479 C373.138474,356.343004 372.915406,356.548913 372.757425,356.766064 C372.610685,356.967831 372.497672,357.133505 372.420752,357.25776 L372.420752,364.936741 C372.420752,365.192352 372.469862,365.399444 372.569267,365.556243 C372.668079,365.707124 372.813635,365.824279 373.02842,365.917175 C373.20001,366.000603 373.389944,366.062731 373.58816,366.103558 C373.802945,366.145568 374.026013,366.177519 374.246714,366.194087 L374.498183,366.213021 L374.498183,367.646099 L367.3464,367.646099 L367.3464,366.214204 L367.594911,366.194087 L367.923892,366.168052 L368.247547,366.137876 C368.448722,366.123675 368.620313,366.091132 368.765869,366.043797 C368.958169,365.979894 369.09485,365.88049 369.181829,365.730792 C369.279458,365.57281 369.326794,365.353292 369.326794,365.074605 L369.326794,356.758372 C369.326794,356.493294 369.270583,356.250109 369.159936,356.030591 C369.051065,355.814623 368.893083,355.632382 368.701967,355.503393 C368.559961,355.412864 368.384228,355.343636 368.178911,355.299851 C367.956435,355.254882 367.710291,355.221156 367.452313,355.202222 L367.19611,355.185654 L367.19611,353.769143 L367.452313,353.752576 L371.936748,353.450221 L372.062186,353.443713 L372.15094,353.533058 L372.340282,353.7224 L372.420752,353.801687 L372.420752,355.233581 C372.550332,355.105184 372.695889,354.973829 372.844995,354.829456 L372.844995,354.829456 Z M345.191671,370.848337 L474.232035,370.848337 L474.232035,372.720451 L344.916534,372.720451 L344.916534,370.848337 L345.191671,370.848337 Z M359.28992,365.362168 C359.276311,365.26158 359.252643,365.176376 359.22365,365.101231 L357.681109,360.930393 L351.248824,360.930393 C351.021614,361.510252 350.842331,361.996031 350.700325,362.413766 C350.538793,362.884753 350.399154,363.323788 350.271348,363.716672 C350.157152,364.092988 350.075498,364.407176 350.031713,364.643853 C349.991478,364.875205 349.970177,365.060996 349.970177,365.196494 C349.970177,365.42962 350.199162,365.626654 350.647664,365.784044 C351.192021,365.975752 351.818623,366.091132 352.511495,366.12545 L352.771247,366.137876 L352.771247,367.646099 L344.916534,367.646099 L344.916534,366.145568 L345.168003,366.12545 C345.396397,366.108883 345.679817,366.056222 346.013532,365.973386 C346.337779,365.897057 346.60404,365.792328 346.799299,365.665706 C347.137155,365.438496 347.401641,365.198861 347.580332,364.956858 C347.766124,364.705389 347.953098,364.351557 348.134748,363.906013 C349.120507,361.444574 350.20567,358.683738 351.358287,355.70516 C352.536346,352.669188 353.581866,349.965746 354.504314,347.596611 L354.573542,347.422062 L356.043305,347.422062 L362.577361,364.33144 C362.703983,364.662787 362.848356,364.926682 363.001605,365.119574 C363.15722,365.316607 363.381471,365.513641 363.655424,365.698249 C363.840032,365.812445 364.09091,365.913033 364.39859,365.988178 C364.71692,366.071015 364.985548,366.115392 365.193824,366.12545 L365.455352,366.135509 L365.455352,367.646099 L356.837948,367.646099 L356.837948,366.141426 L357.0977,366.12545 C357.77933,366.08344 358.35623,365.994686 358.809466,365.861556 C359.248501,365.73375 359.311221,365.61837 359.311221,365.61837 C359.312996,365.547959 359.305304,365.461572 359.28992,365.362168 L359.28992,365.362168 Z M481.117556,370.204576 C481.266071,370.32469 481.454229,370.436519 481.683806,370.537107 C481.955984,370.666096 482.245913,370.771417 482.554777,370.848337 C482.850031,370.925849 483.281375,370.963717 483.841115,370.963717 C484.351154,370.963717 484.855276,370.877922 485.329813,370.706331 C485.791924,370.540657 486.206109,370.268479 486.562308,369.902813 C486.936257,369.509929 487.232695,369.043084 487.444521,368.518845 C487.651613,367.995198 487.759892,367.28635 487.759892,366.413604 C487.759892,365.947943 487.708415,365.476364 487.606644,365.009519 C487.512565,364.571075 487.334466,364.1847 487.075896,363.861045 C486.826202,363.548631 486.474737,363.30012 486.032743,363.120838 C485.57714,362.937413 484.98604,362.845701 484.275417,362.845701 L482.208637,362.845701 L482.208637,360.725668 L483.674258,360.725668 C484.84285,360.725668 485.690153,360.409704 486.187175,359.785469 C486.701947,359.147033 486.962883,358.151807 486.962883,356.829967 C486.962883,355.767879 486.717923,354.96377 486.229777,354.440122 C485.739264,353.9147 485.056451,353.660864 484.144062,353.660864 C483.700884,353.660864 483.338177,353.713524 483.067182,353.812929 C482.77607,353.922983 482.538209,354.027713 482.358927,354.131259 C482.154793,354.247231 481.989711,354.370303 481.863089,354.500475 C481.773151,354.596921 481.697415,354.675024 481.633512,354.741294 L481.834687,355.669067 C481.928766,356.112244 481.978469,356.538854 481.978469,356.938838 C481.978469,357.353614 481.803328,357.72638 481.460738,358.048853 C481.119332,358.364816 480.632369,358.525757 480.004584,358.525757 C479.424725,358.525757 478.99279,358.308606 478.717061,357.877854 C478.465592,357.491479 478.33542,357.035876 478.33542,356.525245 C478.33542,356.010473 478.48216,355.47795 478.766764,354.950161 C479.046634,354.426513 479.463777,353.935409 480.011092,353.486315 C480.551899,353.038404 481.218144,352.674513 481.992669,352.398193 C482.767194,352.126014 483.668341,351.985192 484.669484,351.985192 C485.820917,351.985192 486.796026,352.162108 487.566409,352.512389 C488.329692,352.859121 488.943277,353.288098 489.388821,353.789853 C489.82194,354.279774 490.126661,354.805788 490.294702,355.356653 C490.455642,355.889768 490.537295,356.358388 490.537295,356.744763 C490.537295,357.228176 490.469251,357.717505 490.333753,358.194409 C490.197072,358.683738 489.973413,359.143483 489.660999,359.564768 C489.323735,360.016821 488.874049,360.433372 488.328509,360.796079 C487.942725,361.055832 487.481205,361.283042 486.954008,361.472383 C487.266421,361.535103 487.58771,361.615573 487.919058,361.720894 C488.524359,361.914377 489.081141,362.199573 489.569879,362.573522 C490.082876,362.97469 490.509486,363.487095 490.833141,364.10423 C491.162122,364.728465 491.328979,365.524291 491.328979,366.465673 C491.328979,368.297552 490.586406,369.805184 489.117826,370.94715 C487.670547,372.066631 485.844585,372.636431 483.686684,372.636431 C482.807429,372.636431 481.990302,372.522234 481.254237,372.302716 C480.511664,372.079057 479.867903,371.771969 479.341888,371.393877 C478.799898,371.008686 478.376839,370.557225 478.080401,370.050144 C477.779229,369.537739 477.627165,368.998116 477.627165,368.450801 C477.627165,367.954963 477.749053,367.496993 477.995197,367.098784 C478.260275,366.659748 478.704636,366.425438 479.282719,366.425438 C479.899262,366.425438 480.383267,366.58697 480.722306,366.901751 C481.061346,367.223631 481.238262,367.602314 481.238262,368.02419 C481.238262,368.334237 481.189151,368.727121 481.091522,369.192782 C481.014602,369.545431 480.950699,369.819976 480.900405,370.01701 C480.947149,370.06257 481.016377,370.122923 481.117556,370.204576 L481.117556,370.204576 Z M367.610295,259.190113 C367.610295,259.190113 368.726226,259.15402 370.02854,258.373578 C371.323755,257.59787 372.779909,256.709148 373.920691,257.478348 C375.054374,258.247548 378.140048,259.26585 378.140048,259.26585 C378.140048,259.26585 377.058435,259.054616 382.858201,260.288886 C388.654417,261.527297 388.951447,257.326283 388.951447,257.326283 L389.024817,257.26238 C388.867427,256.290822 388.24615,254.939397 386.600654,253.149528 C381.251757,247.326094 382.235741,224.227616 393.866633,222.289825 C394.379631,225.207459 395.208,228.090183 396.23636,230.875278 C396.500847,231.592408 396.758233,232.312498 397.074788,233.005369 C397.38306,233.715991 397.653463,234.382237 397.994278,235.123035 C398.3132,235.781589 398.636855,236.443101 398.961103,237.098104 C399.273516,237.759616 399.66285,238.437695 400.01254,239.101573 C401.317813,241.468342 402.743791,243.688963 404.31,245.745684 C404.380411,245.965202 404.452006,246.184128 404.534843,246.401279 L405.141327,248.049142 C405.353153,248.595865 405.589238,249.120696 405.812306,249.655586 C406.040699,250.188701 406.259034,250.734833 406.501627,251.243096 C406.78919,251.830646 407.053676,252.330035 407.346564,252.852499 C408.49208,254.902712 409.822204,256.75885 411.233389,258.45109 C411.407939,258.658182 411.583671,258.872966 411.757629,259.0771 C411.938686,259.283009 412.122703,259.481817 412.301394,259.681218 C412.666468,260.082977 413.017933,260.485327 413.391882,260.854543 C413.769974,261.227309 414.143923,261.590017 414.513731,261.950357 C414.535032,261.972841 414.554557,261.995326 414.579409,262.015443 C411.668875,261.956866 407.354847,261.2137 401.898854,258.386004 C397.38306,256.042903 392.605146,266.776198 392.605146,266.776198 C391.386852,268.938241 388.193489,271.082534 384.251636,268.662513 C380.309191,266.241308 375.541336,266.211132 375.541336,266.211132 L374.454398,267.185057 C372.023135,268.415185 372.241469,266.532421 372.241469,266.532421 C373.094689,266.08451 371.25216,264.56327 370.907203,265.371521 C370.568164,266.179772 370.306044,265.918836 370.306044,265.918836 C367.816204,265.733045 365.929297,263.456214 364.469593,262.760975 C363.006338,262.059228 362.741852,261.653919 362.741852,261.653919 C362.537126,260.244509 367.610295,259.190113 367.610295,259.190113 L367.610295,259.190113 Z M370.012565,172.483547 C367.354092,171.657545 365.455352,166.375509 365.218083,165.212242 C364.938213,163.860817 365.95474,164.374406 365.95474,164.374406 C365.41275,162.438981 366.1784,162.576254 366.1784,162.576254 C366.1784,162.576254 367.813837,164.427067 369.904285,164.370856 C369.935645,164.370856 369.973513,164.370856 370.012565,164.370856 L370.012565,172.483547 Z M485.795475,224.108095 C485.795475,224.108095 498.114505,236.525937 483.683134,244.508456 C483.707985,244.402543 483.733427,244.28598 483.751178,244.184209 L483.902651,243.116205 L483.920402,243.008517 L483.929278,242.904379 L483.935786,242.851718 L483.965371,242.38724 C483.980755,242.081335 484.007973,241.781939 484.018031,241.476034 C484.023357,241.106818 484.018031,240.734052 483.998506,240.363061 C485.278336,239.707466 490.802373,236.096369 485.795475,224.108095 L485.795475,224.108095 Z M418.245533,101.042638 C424.464217,99.5302728 430.487643,103.523011 430.929637,103.824183 C430.956855,103.842525 430.981115,103.858501 431.005966,103.87921 C431.179332,104.000507 431.337313,104.162631 431.513046,104.301678 C431.687595,104.453743 431.851494,104.627701 432.023676,104.795741 C432.180475,104.981532 432.363899,105.140698 432.508272,105.34069 C432.66507,105.530031 432.828378,105.712272 432.969792,105.915814 C433.109431,106.115215 433.277472,106.292131 433.39936,106.495081 C433.525983,106.695665 433.672722,106.874356 433.788694,107.057188 C433.901115,107.247713 434.025371,107.421079 434.132467,107.580836 C434.354352,107.90035 434.515292,108.190279 434.658481,108.377845 C434.792795,108.573695 434.877999,108.681975 434.877999,108.681975 C434.877999,108.681975 434.876816,108.544703 434.849006,108.308617 C434.813505,108.076674 434.789837,107.728759 434.670907,107.342384 C434.566769,106.947134 434.407012,106.495081 434.176252,106.03652 C434.066789,105.801026 433.926558,105.569674 433.778635,105.342465 C433.647871,105.105196 433.460896,104.895737 433.287531,104.677403 C433.117123,104.454926 432.904706,104.269135 432.705306,104.078019 C432.502947,103.893411 432.275737,103.737796 432.060361,103.585139 C431.960957,103.523011 431.862736,103.467392 431.761557,103.411773 C433.302915,102.770971 437.07436,102.031947 443.343339,105.830019 C443.343339,105.830019 446.236121,106.973168 447.737244,110.718579 C447.737244,110.718579 447.82304,110.752898 447.968596,110.817392 C449.769115,110.81325 451.935892,110.88307 454.392006,111.249919 C455.665919,111.443402 457.013794,111.719131 458.40427,112.146924 C459.79238,112.576493 461.2225,113.167593 462.600551,114.032055 C463.965585,114.898884 465.263757,116.090552 466.174963,117.63191 C467.102145,119.167352 467.580232,121.013431 467.648277,122.891462 C467.709813,124.77541 467.389707,126.6777 466.874935,128.544489 C466.60039,129.474037 466.300402,130.40536 465.937695,131.315383 C465.586229,132.20943 465.232398,133.114719 464.874424,134.025925 C464.179186,135.843011 463.534241,137.705066 463.00586,139.61564 C462.478662,141.524439 462.059153,143.487674 461.946139,145.444399 C461.902354,146.189932 461.917147,146.93783 461.9917,147.664428 C463.168575,147.700522 464.112916,148.660246 464.112916,149.844222 C464.112916,150.431773 463.873872,150.966071 463.494006,151.357771 C463.641929,151.445341 463.789852,151.534687 463.948426,151.621665 C464.894541,152.142946 466.106919,152.654168 467.570765,152.974274 C468.302096,153.147639 469.091414,153.251186 469.942267,153.393192 C470.803771,153.544665 471.687167,153.759449 472.60074,154.051153 C474.414276,154.643437 476.324258,155.542809 478.0733,156.912577 C479.565548,158.085902 480.957208,159.634952 481.854805,161.539609 C482.412771,162.361469 482.881391,163.237766 483.223981,164.176189 C484.019806,166.278471 484.206781,168.590804 483.826323,170.730363 C483.431073,172.86933 482.55241,174.83434 481.434112,176.51297 C480.316997,178.20521 478.990423,179.64953 477.591071,180.904509 C476.8982,181.535253 476.181661,182.113337 475.462163,182.66006 C475.112473,182.923363 474.769883,183.183116 474.427885,183.44346 C474.114288,183.696113 473.8143,183.933973 473.515496,184.206152 C472.327378,185.24753 471.326827,186.404288 470.710875,187.648025 C470.093149,188.886436 469.860022,190.200585 470.032796,191.448463 C470.193736,192.706993 470.722117,193.870259 471.340436,194.889745 C471.975913,195.916331 472.71612,196.807419 473.455735,197.576619 C474.199492,198.355877 474.934965,199.029223 475.627837,199.60849 C477.012396,200.76584 478.208798,201.55279 479.019416,202.093597 C479.497503,202.40246 479.845418,202.616061 480.060794,202.740316 C480.250728,202.844454 480.367291,202.900665 480.367291,202.900665 L480.293329,203.088231 C480.293329,203.088231 480.257828,203.080539 480.203984,203.060422 L480.1815,203.107757 L480.073812,203.062788 L480.062569,203.08764 C480.062569,203.08764 479.778557,202.985868 479.245443,202.798894 C478.715286,202.593577 477.946087,202.281163 476.984587,201.842719 C476.957369,201.830294 476.924826,201.817868 476.902933,201.802484 C475.916583,201.379424 474.753316,200.840984 473.470527,200.124445 C472.114961,199.375363 470.635139,198.435164 469.131649,197.211545 C468.384933,196.590268 467.637034,195.900947 466.936471,195.093879 C466.227624,194.292136 465.572029,193.363771 465.071457,192.289258 C464.568519,191.217703 464.222971,189.977517 464.240722,188.676386 C464.24723,187.374663 464.612304,186.061106 465.214647,184.910857 C465.811664,183.742265 466.626424,182.722188 467.53053,181.822224 C468.441144,180.907468 469.422761,180.112825 470.477157,179.36611 C471.020922,178.978552 471.490134,178.686256 472.0623,178.324732 C472.577072,178.012318 473.086519,177.683337 473.585907,177.336606 C474.584092,176.654977 475.540266,175.910036 476.441414,175.11066 C478.233649,173.503032 479.793941,171.619085 480.702189,169.486035 C480.938274,168.933986 481.124065,168.368328 481.258379,167.793203 C481.273763,167.496174 481.278497,167.201511 481.271988,166.90744 C481.180276,166.282022 481.035311,165.663112 480.816385,165.057219 C480.211676,163.37563 479.149588,161.814154 477.755562,160.571601 C476.36331,159.31958 474.649178,158.379381 472.803099,157.860467 C471.938045,157.61314 470.809688,157.439774 469.777185,157.161679 C468.731665,156.892459 467.684962,156.56762 466.658967,156.151069 C465.632381,155.727417 464.619996,155.201403 463.695773,154.499656 C462.798176,153.818027 461.999983,152.951198 461.415392,151.955971 C460.4604,151.723436 459.746228,150.870808 459.746228,149.844222 C459.746228,149.317025 459.942078,148.842487 460.2468,148.46558 C460.10361,147.406451 460.10361,146.350872 460.179347,145.327836 C460.352121,143.175852 460.850917,141.132739 461.435509,139.163587 C462.031935,137.196803 462.738415,135.308121 463.480989,133.476834 C464.240722,131.621879 465.042464,129.925498 465.572029,128.161664 C466.102185,126.403746 466.430574,124.634587 466.430574,122.917496 C466.423474,121.202772 466.045383,119.551951 465.263757,118.157925 C464.492782,116.757389 463.350817,115.635541 462.10353,114.787055 C460.843225,113.93916 459.496534,113.327942 458.167593,112.874706 C456.836878,112.416736 455.530422,112.105506 454.286685,111.879479 C452.269606,111.514405 450.432402,111.359974 448.841934,111.288971 C450.163774,112.104322 452.245938,113.86579 452.728759,117.084003 C452.932301,118.462646 452.944727,120.536527 451.30929,121.729378 C450.509914,122.31397 449.859644,122.789099 449.318837,123.182574 C449.196949,122.955365 449.066777,122.72283 448.92122,122.493253 C448.701703,122.141788 448.485735,121.758371 448.236041,121.386789 C447.970963,121.019348 447.698784,120.641848 447.422464,120.25429 C447.115968,119.881524 446.802371,119.499882 446.485224,119.110549 C446.150918,118.731866 445.791169,118.364425 445.434379,117.979234 C445.058062,117.615935 444.671096,117.249086 444.268745,116.885787 C443.855744,116.540238 443.44511,116.177531 443.004299,115.845592 C442.127411,115.175205 441.208513,114.537952 440.247014,113.970519 C438.326973,112.823228 436.282085,111.913206 434.309383,111.259978 C433.328949,110.916205 432.35384,110.673019 431.434943,110.442851 C430.510128,110.224517 429.632648,110.054109 428.813155,109.936954 C428.31495,109.857667 427.843371,109.80264 427.397827,109.757671 C427.362326,109.721578 427.333333,109.691994 427.296056,109.659451 C427.294873,109.651759 427.288364,109.650575 427.288364,109.650575 L427.201977,109.648208 C426.886605,109.314494 426.521531,109.032257 426.178941,108.725169 C426.000842,108.570737 425.807359,108.437015 425.623934,108.290867 C425.438143,108.14886 425.251168,108.000346 425.048218,107.873132 C424.849409,107.741776 424.656517,107.60332 424.445875,107.487349 L423.795605,107.140617 C423.569579,107.044763 423.345919,106.9353 423.106284,106.847729 C422.858957,106.766668 422.619321,106.677322 422.351876,106.622886 C422.105141,106.564309 421.837696,106.532358 421.556051,106.524666 C421.420553,106.524666 421.280322,106.529399 421.133582,106.553658 C421.054296,106.56135 420.960217,106.58561 420.872054,106.606911 C420.831228,106.615194 420.780934,106.63117 420.727682,106.651288 C420.676204,106.66963 420.632419,106.681464 420.524731,106.741225 L420.630052,106.689748 C419.958482,106.953642 419.303479,107.274339 418.675693,107.652431 L418.637233,107.63113 C418.346121,107.806271 418.060925,107.988512 417.784605,108.187912 L414.675854,107.626988 C414.675854,107.626988 414.782951,106.643596 416.292357,106.131782 C415.516649,104.935972 414.054578,102.062715 418.245533,101.042638 L418.245533,101.042638 Z M373.508874,200.816133 C374.705275,199.103185 376.264976,198.184287 377.732372,196.132298 C379.195627,194.079718 381.939303,188.490594 381.939303,188.490594 C383.971766,183.319205 387.349145,183.321572 387.349145,183.321572 C394.068992,182.584323 403.404119,176.131329 408.774317,170.117962 C413.122071,165.255436 415.962193,165.577908 416.885233,165.880854 C419.96144,155.856998 409.673097,151.0779 409.673097,151.0779 L409.673097,151.07435 C397.706124,146.672161 388.165088,136.352458 388.165088,136.352458 C384.727357,135.369066 385.380585,131.648506 385.703649,131.049121 C386.028488,130.447962 385.46638,127.721445 385.46638,127.721445 C385.46638,127.721445 384.45577,123.490846 386.175227,123.353573 C387.90001,123.217484 387.612448,125.003211 388.352063,124.530449 C389.094636,124.055912 389.734847,124.307381 389.734847,124.307381 C389.734847,124.307381 392.905134,125.436921 398.54396,120.921719 C402.394692,117.839594 409.143533,115.155087 413.03805,113.76106 C405.507585,114.329085 405.705801,112.749859 405.705801,112.749859 L412.875927,109.852342 L415.572268,110.283686 C414.749816,111.127439 414.044519,112.09663 413.512588,113.141559 C413.426792,113.317883 413.349281,113.498941 413.272952,113.67704 C412.894861,114.523752 412.597832,115.395906 412.388964,116.282261 C412.375355,116.323679 412.371805,116.363322 412.356421,116.400599 C412.299027,116.656802 412.242225,116.912413 412.193114,117.171574 C411.938686,118.54785 411.843424,119.945427 411.868275,121.320519 L411.868275,121.329986 C411.889576,122.693245 411.978922,124.042895 412.143412,125.397278 C412.330387,126.759945 412.536296,128.100719 413.077102,129.514864 C413.225025,129.879938 413.370581,130.219569 413.678261,130.635529 L413.756956,130.734341 L413.843935,130.833745 L413.902513,130.902973 C413.990675,130.994094 414.099546,131.095273 414.241552,131.197044 C414.381192,131.294082 414.578225,131.410645 414.859279,131.464489 C415.139149,131.523658 415.479372,131.469223 415.704807,131.360943 C416.15331,131.1361 416.297682,130.90534 416.449747,130.731974 C416.588795,130.545 416.687608,130.387018 416.785829,130.234953 L417.294092,129.3912 C417.94022,128.344497 418.707053,127.556363 419.714113,127.152829 C419.83541,127.10431 419.973866,127.053424 420.085696,127.020881 C420.135398,127.004906 420.22711,126.980646 420.30758,126.959937 L420.512306,126.916152 C420.809335,126.855799 421.096897,126.785388 421.405761,126.752253 C421.706932,126.700184 422.015795,126.664091 422.334717,126.643382 C422.644764,126.60788 422.960728,126.594863 423.280833,126.585988 C424.187305,126.549303 425.107978,126.556403 426.030427,126.594863 L426.033385,126.586579 C426.410885,126.601372 426.786017,126.617939 427.158192,126.63924 C428.233296,126.706101 429.310176,126.791305 430.392381,126.872958 C430.629058,126.891301 430.860409,126.911418 431.096495,126.926802 C431.757415,126.977688 432.426619,127.024431 433.100556,127.061708 C433.448471,127.075909 433.805853,127.09721 434.132467,127.091293 L434.378019,127.093068 L434.641914,127.087743 L435.138935,127.075909 C435.795122,127.061708 436.44835,127.055199 437.057793,127.087743 C437.663094,127.113777 438.250053,127.250458 438.424602,127.482993 C438.635836,127.700736 438.645303,128.330296 438.525189,128.92613 C438.437027,129.498888 438.206267,129.925498 437.75599,130.169867 C437.306304,130.417786 436.674968,130.457429 436.059017,130.395302 C435.431231,130.331399 434.799896,130.182292 434.177436,129.995318 C433.768576,129.868104 433.362676,129.720181 432.957366,129.563382 C432.869796,129.532614 432.78045,129.498888 432.694063,129.461611 C431.960957,129.169315 431.240868,128.843293 430.534979,128.479994 C431.614817,129.253336 432.760333,129.944432 434.00052,130.48583 C434.617063,130.755642 435.259049,130.990544 435.946003,131.124858 C436.627633,131.253847 437.38559,131.32485 438.148873,131.013028 C438.527556,130.862738 438.879021,130.585826 439.126349,130.24797 C439.371309,129.908931 439.520416,129.51368 439.602069,129.159257 C439.687273,128.828501 439.761234,128.443901 439.77011,128.052201 C439.777802,127.660501 439.711532,127.179455 439.416278,126.752253 C439.11629,126.332152 438.673112,126.096066 438.292654,125.971811 C437.90983,125.838089 437.544756,125.780695 437.19329,125.735726 C436.485627,125.64283 435.810506,125.63218 435.142485,125.611471 L434.645464,125.60082 L434.412337,125.591945 L434.167377,125.579519 C433.823604,125.56946 433.527166,125.536917 433.214752,125.512066 C432.567441,125.445797 431.914805,125.368285 431.260985,125.28959 C430.915437,125.248763 430.56693,125.207937 430.221382,125.167702 C429.809564,125.117408 429.398338,125.074214 428.98297,125.028062 C428.420271,124.96771 427.854613,124.907949 427.288364,124.86298 C425.951731,124.750559 424.600898,124.66713 423.228173,124.685472 C422.889133,124.688431 422.539443,124.69849 422.193895,124.725116 C421.844796,124.739908 421.49984,124.770084 421.146008,124.818011 C420.79691,124.849371 420.436569,124.919783 420.082737,124.991377 C419.989841,125.012678 419.918247,125.025695 419.80405,125.050546 L419.543114,125.122733 C419.333655,125.180127 419.166798,125.245805 418.97864,125.314441 C418.249083,125.603779 417.569229,126.046364 417.00653,126.575929 C416.440872,127.10431 415.986452,127.71612 415.607178,128.309587 L415.117848,129.108963 C415.095364,129.070503 415.074063,129.030268 415.055129,128.987666 C415.04152,128.955123 415.029686,128.92613 415.014894,128.894179 C414.997143,128.847435 414.974659,128.800691 414.959867,128.755723 C414.551599,127.693044 414.334448,126.397238 414.174099,125.137525 C414.016118,123.864204 413.924405,122.567806 413.893046,121.285609 C413.888904,120.968462 413.886537,120.654274 413.891271,120.34186 L413.891271,120.340085 C413.891271,120.321743 413.893046,120.307542 413.893046,120.291567 C413.900146,120.029447 413.911388,119.766144 413.929139,119.505208 C413.933281,119.405803 413.942748,119.304032 413.949256,119.204628 C413.961682,119.024162 413.979433,118.840146 414.001917,118.65968 C414.014343,118.552583 414.023218,118.440754 414.038602,118.333066 C414.064636,118.12834 414.097179,117.920656 414.128539,117.717706 C414.140965,117.654395 414.14629,117.590492 414.156349,117.527181 C414.372316,116.29942 414.73029,115.109527 415.269322,114.020222 C415.460438,113.63858 415.674039,113.271731 415.903616,112.918491 C415.928467,112.878256 415.953909,112.844529 415.979944,112.804886 C416.091774,112.635662 416.208337,112.469396 416.329042,112.306681 C416.397678,112.218519 416.46809,112.134499 416.536134,112.048112 C416.63258,111.933323 416.721926,111.814985 416.820738,111.703747 C417.00298,111.500205 417.193504,111.30258 417.395863,111.115605 C418.089918,110.46711 418.892844,109.932221 419.75494,109.496143 L419.691037,109.486085 C419.91588,109.37248 420.13954,109.263017 420.375033,109.163612 L420.444261,109.129294 L420.444261,109.125744 L420.449586,109.125744 C420.473254,109.121011 420.482129,109.109177 420.518223,109.10681 C420.577392,109.091426 420.64662,109.082551 420.725315,109.078409 C420.81111,109.070125 420.902231,109.067758 420.996901,109.070125 C421.099264,109.06835 421.20636,109.070125 421.317007,109.088468 C421.49984,109.100301 421.689773,109.149412 421.880298,109.188464 C422.073189,109.235207 422.266673,109.307985 422.46134,109.363013 L423.038831,109.598506 L423.617506,109.873643 C423.813948,109.955297 424.003881,110.065943 424.195589,110.170673 C424.361263,110.265935 424.534629,110.357056 424.699119,110.458235 C424.699119,110.458235 424.704444,110.458235 424.710361,110.460602 C424.72397,110.474211 424.744088,110.483086 424.763022,110.494328 C425.129871,110.738105 425.513879,110.953481 425.878953,111.211459 C426.010309,111.30258 426.146398,111.390742 426.278937,111.481862 L426.281896,111.483637 C426.517389,111.645169 426.753474,111.804926 426.979501,111.984209 C427.336291,112.254021 427.717341,112.500164 428.066439,112.787727 C428.420271,113.060497 428.774695,113.332675 429.139769,113.60012 L429.139769,113.597753 C429.145686,113.602487 429.146869,113.60722 429.155744,113.613729 C429.050423,113.471723 428.940368,113.338001 428.835639,113.198361 C428.665232,112.974702 428.493049,112.747492 428.321458,112.526199 C428.236847,112.419103 428.148093,112.321473 428.059931,112.216744 C427.928575,112.062312 427.798994,111.907289 427.66113,111.754632 L428.042771,112.021486 C428.715525,112.239228 429.419639,112.485964 430.166355,112.7398 C431.0249,113.053988 431.923089,113.402495 432.837253,113.789462 C433.756151,114.168736 434.678599,114.604222 435.612289,115.055683 C436.530595,115.532587 437.470794,116.012449 438.360699,116.562131 C439.270722,117.086962 440.136959,117.681613 440.978937,118.27153 C441.400813,118.569742 441.797247,118.891031 442.201373,119.189244 C442.593073,119.511125 442.979448,119.830047 443.357539,120.14246 C443.72143,120.470258 444.08177,120.79628 444.432644,121.111652 C444.7705,121.445958 445.103031,121.77198 445.425503,122.087352 C446.034354,122.751823 446.623088,123.382566 447.12366,124.000885 C447.244365,124.139932 447.355603,124.280755 447.463883,124.422761 C447.51891,124.488439 447.569204,124.554708 447.623048,124.625712 C447.623048,124.627487 447.624231,124.631628 447.624231,124.631628 C447.693459,124.721566 447.761504,124.814461 447.830732,124.900257 C448.048474,125.190778 448.275684,125.458222 448.460292,125.727442 C448.815307,126.271207 449.168548,126.728585 449.420609,127.127978 C449.916447,127.930904 450.227677,128.388282 450.227677,128.388282 C450.227677,128.388282 450.219985,128.358106 450.204009,128.30722 C452.099791,131.621879 452.784378,134.131837 452.784378,134.131837 C452.784378,134.131837 454.822758,138.963004 457.393068,148.496348 C461.594674,164.074418 462.373341,167.479606 461.095286,176.056776 C460.199464,182.083752 457.287747,187.637374 459.965746,196.046503 C468.051219,221.44193 461.766857,236.115303 454.21864,244.267046 C454.72572,246.428497 456.790726,250.224202 465.055482,250.589276 C469.1707,250.768559 471.938045,249.521272 473.722588,247.637324 L474.155707,247.293551 L474.565158,246.891792 C475.101823,246.335601 475.582868,245.701899 475.945575,245.003702 C476.299407,244.307281 476.594662,243.574766 476.744952,242.829234 C476.907075,242.089619 476.984587,241.346453 476.976303,240.641156 C476.964469,239.216953 476.668623,237.929431 476.259172,236.905212 C476.250297,236.882136 476.237871,236.863202 476.229588,236.841901 C475.961551,235.665025 475.540266,234.730744 475.049162,234.214196 C473.830868,232.933774 469.932208,231.395375 468.794384,235.237232 C468.794384,235.237232 467.900337,239.156601 475.128449,240.774287 C475.064546,241.296751 474.958041,241.825132 474.818402,242.344638 C474.655095,242.938105 474.419601,243.506721 474.135589,244.047528 C474.017843,244.28598 473.87702,244.51319 473.73028,244.734483 C470.554668,243.953449 461.582249,240.909785 465.156661,231.907189 C468.728706,222.904593 483.743486,229.353445 482.21337,242.767698 C480.551899,257.366518 459.82019,267.376174 446.779887,250.369758 C444.449211,251.806387 442.468818,252.657832 441.331585,253.093317 C444.398917,256.303247 442.069425,258.138676 441.273599,260.312553 C440.378961,262.743816 444.640919,264.608238 449.01885,267.830594 C453.395596,271.052357 452.912184,272.725071 450.099871,278.431942 C447.2846,284.138812 449.194582,287.817362 449.194582,287.817362 C449.279786,290.649201 448.901103,295.191622 448.301127,297.699213 C447.704701,300.200295 447.453824,300.365969 446.729593,301.280725 C445.998261,302.193706 445.750934,301.332203 445.561001,300.619214 C445.369292,299.908 444.326139,299.64943 444.2007,300.270707 C444.078812,300.899676 443.997158,301.316227 443.997158,301.316227 C443.72498,304.113747 437.780841,303.89423 436.687985,303.688321 C435.599272,303.487737 436.289777,302.883619 436.289777,302.883619 C434.682149,302.70907 435.015863,302.177139 435.015863,302.177139 C435.015863,302.177139 436.890936,301.515627 437.480853,299.936992 C438.076687,298.361908 438.178458,296.920546 439.098539,295.113518 C441.804939,289.770538 442.601948,283.841783 442.836258,280.978585 C441.985405,277.687593 438.932865,274.545116 431.559198,271.413881 C430.942063,271.15117 430.344454,270.878991 429.75927,270.595571 C429.313135,270.313925 428.700141,269.903883 427.913191,269.430529 C427.50019,269.167226 427.072396,268.83292 426.586617,268.491514 C426.115038,268.136498 425.578965,267.79805 425.040526,267.385049 C423.983763,266.532421 422.770203,265.623582 421.559009,264.501734 C421.253696,264.219496 420.921165,263.967436 420.619994,263.663306 C420.315272,263.360951 420.005225,263.054455 419.691037,262.743816 C419.042542,262.142065 418.427774,261.465761 417.797622,260.779398 C417.13966,260.107828 416.555069,259.339811 415.911308,258.601971 C415.605994,258.225063 415.314882,257.822121 415.004835,257.436929 C414.850404,257.238713 414.697155,257.041679 414.539173,256.844646 C414.395984,256.63992 414.251611,256.432828 414.104871,256.225736 C413.511404,255.402692 412.947522,254.546513 412.388964,253.674359 C411.85585,252.788004 411.319777,251.886857 410.840506,250.963226 C410.734001,250.759684 410.629272,250.551408 410.525134,250.345499 C410.423955,250.134857 410.334609,249.939007 410.249405,249.748482 C410.225146,249.697005 410.195561,249.640202 410.178994,249.595233 C409.95711,249.09052 409.765993,248.588765 409.555351,248.088785 C409.355359,247.588214 409.135841,247.086459 408.946499,246.579379 L408.399184,245.049263 C407.679095,243.015025 407.07616,240.948836 406.682094,238.894481 C406.663751,238.797444 406.64955,238.699814 406.6318,238.60041 C406.538904,238.107531 406.456659,237.616426 406.385064,237.12473 C406.331812,236.760839 406.28566,236.396357 406.245425,236.034833 C406.221757,235.830699 406.206373,235.629524 406.189214,235.42894 C406.162588,235.162679 406.14247,234.897009 406.124128,234.630748 C406.112294,234.468624 406.104602,234.309459 406.097502,234.146152 C406.075017,233.713033 406.063775,233.277548 406.067325,232.856263 C406.072059,232.424328 406.096318,232.000084 406.124128,231.577024 C406.136553,231.431468 406.148979,231.290645 406.161404,231.140356 C406.185072,230.866402 406.214065,230.587123 406.247791,230.314353 C406.266726,230.149863 406.288027,229.990698 406.311103,229.832716 C406.368497,229.462317 406.430033,229.094284 406.501627,228.72921 C406.60044,228.248756 406.714637,227.777769 406.846584,227.316249 C407.329996,225.595609 408.056594,224.051292 408.893839,222.704009 C409.068388,222.423547 409.255363,222.149002 409.439971,221.883924 C409.512749,221.776236 409.58671,221.674465 409.664222,221.569144 C409.760076,221.44193 409.85238,221.312941 409.952968,221.191052 C410.174261,220.90349 410.396145,220.623028 410.624538,220.35795 L410.626905,220.35795 C410.953519,219.973942 411.2825,219.607092 411.609706,219.272195 C412.545763,218.336138 413.445726,217.578772 414.22676,217.001872 C415.014894,216.437989 415.66398,216.011379 416.123133,215.748076 C416.57992,215.479448 416.836122,215.355193 416.836122,215.355193 C416.836122,215.355193 416.55211,215.395428 416.032604,215.530925 C415.518424,215.680032 414.753958,215.893633 413.826184,216.302492 C412.902553,216.704251 411.787805,217.252749 410.606787,218.064551 C409.424587,218.870436 408.164282,219.933706 406.993324,221.304065 C406.009931,222.44899 405.094583,223.820532 404.35911,225.378458 C404.217104,225.678445 404.078056,225.9808 403.950843,226.296764 C403.156792,228.233372 402.638469,230.411391 402.452678,232.674022 C402.420135,233.042054 402.402384,233.416004 402.389959,233.786403 C402.385817,233.87989 402.38345,233.966869 402.38345,234.059765 C402.374575,234.41123 402.366291,234.772754 402.374575,235.135461 L402.374575,235.172738 C402.38345,235.570946 402.398834,235.972114 402.420135,236.373873 C402.426052,236.415291 402.427827,236.451976 402.430194,236.491028 C402.452678,236.852552 402.484038,237.211117 402.520131,237.567907 C402.26807,237.005208 402.011867,236.459668 401.774599,235.858509 C401.505379,235.178063 401.233792,234.49525 400.965164,233.808887 C400.737954,233.189977 400.500686,232.47048 400.271109,231.808376 C400.023782,231.134439 399.833257,230.441567 399.64214,229.758754 C398.859332,227.013895 398.284207,224.222291 398.030963,221.454947 C397.766476,218.69352 397.77476,215.965227 398.030963,213.363557 C398.530351,208.149566 400.043899,203.476973 401.818976,199.742804 C402.535515,198.233397 403.281047,196.885522 404.022437,195.681429 C404.228938,195.715155 404.431888,195.755391 404.637797,195.77965 C404.959086,195.81101 405.286883,195.835861 405.609356,195.842369 C405.935378,195.850653 406.263175,195.844736 406.586831,195.81811 C406.915812,195.799176 407.237101,195.749474 407.56194,195.705688 C408.204517,195.596225 408.841178,195.432918 409.45713,195.225826 C409.769543,195.134114 410.062431,194.995066 410.362419,194.877911 C410.662407,194.751289 410.94701,194.606916 411.24049,194.466685 L411.345219,194.406332 C411.551128,194.288586 411.864725,194.119953 412.13927,193.984456 C412.421507,193.845408 412.717945,193.715828 413.015566,193.591572 C413.605483,193.334778 414.211376,193.128869 414.820227,192.949586 C415.123765,192.861424 415.431445,192.775037 415.741492,192.713501 C416.047988,192.645457 416.353893,192.587471 416.662757,192.535994 L417.673367,192.41233 C418.146129,192.353161 418.532504,192.262632 418.935446,192.147252 C420.524731,191.662656 421.906332,190.752633 422.948302,189.569841 C423.464258,188.973415 423.897376,188.305395 424.183164,187.574655 C424.455342,186.846282 424.592615,186.036255 424.399131,185.316166 C424.239966,185.86289 423.979622,186.325001 423.655966,186.733269 C423.565437,186.852199 423.464258,186.968171 423.358345,187.078225 C422.911617,187.56933 422.387378,187.969905 421.843613,188.320187 C420.749574,189.008325 419.53838,189.455053 418.357363,189.614218 C418.068617,189.655045 417.750878,189.676345 417.51006,189.676345 L417.249123,189.671612 L416.994104,189.676345 L416.397678,189.685813 C416.001245,189.718356 415.601261,189.734923 415.209561,189.804743 C414.820227,189.863912 414.433852,189.94379 414.051027,190.030177 C413.284194,190.21301 412.545763,190.469213 411.82449,190.763284 C411.466516,190.921266 411.113868,191.081614 410.765361,191.266814 C410.423955,191.440771 410.12515,191.605262 409.757118,191.844897 C409.545292,191.959094 409.335833,192.082166 409.119865,192.18512 C408.888514,192.289258 408.65657,192.417063 408.424035,192.509959 C408.189725,192.614097 407.951273,192.713501 407.710454,192.794563 C407.472003,192.883909 407.224675,192.948995 406.986223,193.031832 C406.754872,193.098693 406.522928,193.15372 406.28566,193.201647 C406.108744,193.245432 405.926503,193.2691 405.74722,193.301643 C405.701068,193.308152 405.650774,193.318211 405.605214,193.322944 C405.057899,193.405781 404.501116,193.448975 403.93605,193.446016 C403.678664,193.440099 403.410036,193.435957 403.146733,193.41584 C402.881655,193.398681 402.618352,193.363179 402.353274,193.322944 C402.083462,193.288034 401.814834,193.241882 401.547389,193.183896 C401.282903,193.124727 401.010724,193.06615 400.745646,192.98923 C400.478201,192.912901 400.210757,192.834798 399.940945,192.746044 C399.676459,192.649007 399.403688,192.564986 399.136835,192.457299 C398.606087,192.240148 398.077115,192.005246 397.549917,191.724192 L397.551692,191.725375 C396.685455,191.244921 395.197941,190.868605 393.079683,191.885132 C391.143075,192.808764 390.793976,194.487986 389.665619,196.529916 C388.966831,198.229255 388.126036,199.750496 387.217197,201.475278 C385.720808,204.3012 385.368159,204.424272 384.211401,205.295835 C383.052868,206.171539 383.021508,205.052057 383.015,204.135526 C383.004941,203.22077 381.828065,202.588251 381.487842,203.302424 C381.142294,204.011863 380.915676,204.495867 380.915676,204.495867 C379.719274,207.769108 372.643228,205.665642 371.391799,205.085784 C370.139187,204.500009 371.156897,203.991745 371.156897,203.991745 C369.277091,203.279939 369.845708,202.740316 369.845708,202.740316 C369.845708,202.740316 372.306555,202.532041 373.508874,200.816133 L373.508874,200.816133 Z M376.18273,164.976749 C378.703931,164.934147 384.831494,163.808157 384.831494,163.808157 C390.194,162.367386 392.199837,165.08207 392.199837,165.08207 C394.91097,168.006804 399.761662,170.479486 404.931276,172.165217 C404.667973,172.359883 404.392837,172.557508 404.111783,172.764009 C403.574526,173.17701 402.975734,173.572852 402.385817,174.01958 C401.774599,174.436723 401.161014,174.885225 400.518436,175.317752 C399.882367,175.755604 399.23624,176.198782 398.574728,176.618292 C397.932742,177.067978 397.251704,177.458494 396.60676,177.880963 C395.944656,178.267338 395.310954,178.684481 394.663643,179.037129 C394.038816,179.414037 393.412214,179.737101 392.821113,180.063715 C392.527634,180.236489 392.230013,180.358378 391.947776,180.511626 C391.80577,180.583221 391.66258,180.65659 391.522941,180.731144 C391.436554,179.945968 391.492173,179.454864 391.492173,179.454864 C391.492173,179.454864 392.26729,176.653201 388.731929,174.776946 C386.840289,173.773436 385.281772,174.4953 382.965889,174.801797 L382.965889,174.798247 C381.191404,175.252666 379.468397,175.481651 377.537705,175.777497 C375.395188,176.106478 374.562086,176.112395 373.81537,175.957963 L373.81537,185.316166 C373.707091,187.087692 371.100687,187.087692 370.98649,185.316166 L370.98649,172.587685 C370.967556,172.58946 370.952172,172.585318 370.933829,172.587685 L370.933829,162.76027 C370.942705,155.670023 370.98649,127.095435 370.98649,114.494759 C371.100687,112.725007 373.707091,112.725007 373.81537,114.494759 L373.81537,164.8164 C374.538418,164.916396 375.308801,164.990949 376.18273,164.976749 L376.18273,164.976749 Z M326.742119,115.802398 L369.117335,115.802398 L369.117335,153.244677 L326.742119,153.244677 L340.269384,134.525904 L326.742119,115.802398 Z M607.958601,293.660322 L515.636876,293.660322 C526.890861,278.866244 534.488188,261.523747 534.488188,241.326927 L534.488188,63.4979965 L301.75851,63.4979965 L301.75851,241.326927 C301.75851,261.523747 309.356428,278.866244 320.608046,293.660322 L228.286321,293.660322 L254.075815,328.697372 L228.286321,363.730281 L274.760189,363.730281 L274.760189,319.399522 L323.697271,297.538273 C330.995202,306.355077 339.536278,314.221032 348.416985,321.204183 L276.913948,321.204183 L276.913948,389.847572 L559.333341,389.847572 L559.333341,321.204183 L487.824979,321.204183 C496.707461,314.221032 505.247945,306.355077 512.548835,297.538273 L561.4871,319.399522 L561.4871,363.730281 L607.958601,363.730281 L582.16674,328.697372 L607.958601,293.660322 L607.958601,293.660322 Z" id="Fill-10"></path>
            <path d="M390.555524,128.563423 L390.405234,128.388282 L390.329498,128.303078 L390.264412,128.232667 L390.250803,128.214324 L390.21826,128.184148 L390.096371,128.067585 C389.946673,127.901319 389.808809,127.735054 389.719463,127.548671 C389.618284,127.367613 389.556748,127.169396 389.514146,126.973546 C389.430126,126.574154 389.446101,126.186595 389.481011,125.911459 C389.481011,125.898441 389.481011,125.888383 389.482786,125.874182 L389.544322,125.465914 C389.544322,125.465914 389.395808,125.557035 389.201141,125.786611 C389.104695,125.901991 388.989315,126.048139 388.889911,126.241623 C388.789915,126.429781 388.682819,126.663499 388.630158,126.942186 C388.575131,127.217323 388.552646,127.53802 388.615366,127.875876 C388.670393,128.214324 388.811216,128.559281 389.005883,128.875244 L389.021858,128.900096 L388.172188,134.46851 C388.172188,134.46851 388.212423,134.460227 388.292893,134.448393 C388.363305,134.42295 388.493477,134.414075 388.626608,134.344255 C388.765655,134.286861 388.941388,134.212308 389.11002,134.085685 C389.294037,133.973856 389.475094,133.819424 389.665619,133.640141 C389.756148,133.543695 389.850227,133.445475 389.946673,133.343112 C390.032468,133.231282 390.123589,133.114719 390.212934,132.994013 C390.38275,132.747278 390.546649,132.472141 390.682146,132.168603 C390.815277,131.86684 390.929474,131.535492 391.001068,131.184619 C391.038937,131.008295 391.059054,130.821912 391.082722,130.636712 C391.090414,130.44737 391.090414,130.255071 391.082722,130.060996 C391.028878,129.656278 390.976217,129.293571 390.733624,128.85986 C390.677413,128.757498 390.611143,128.636201 390.555524,128.563423" id="Fill-11"></path>
            <polyline id="Fill-12" points="418.710011 59.0224371 464.599879 59.0224371 464.599879 51.6493613 426.086046 51.6493613 418.710011 59.0224371"></polyline>
            <path d="M166.281127,540.381153 C164.329726,538.653412 161.925681,538.623827 159.464833,538.623827 L159.464833,552.315583 L160.284327,552.315583 C162.151707,552.315583 163.707858,552.232746 165.37643,551.297873 C167.412442,550.167741 168.51654,547.818723 168.51654,545.528874 C168.51654,543.629542 167.724264,541.653291 166.281127,540.381153 Z M167.384633,554.581764 C165.37643,555.682311 162.688964,555.936739 160.426333,555.936739 L155.58925,555.936739 L155.58925,535.002671 L160.34113,535.002671 C163.254622,535.002671 166.649159,535.428689 168.940191,537.440443 C171.175013,539.416694 172.39094,542.55858 172.39094,545.528874 C172.39094,549.090861 170.580954,552.824438 167.384633,554.581764 L167.384633,554.581764 Z" id="Fill-13"></path>
            <polyline id="Fill-14" points="178.017932 555.936739 178.017932 535.002671 189.276059 535.002671 189.276059 538.623827 181.893516 538.623827 181.893516 543.747881 188.964829 543.747881 188.964829 547.369037 181.893516 547.369037 181.893516 552.315583 189.276059 552.315583 189.276059 555.936739 178.017932 555.936739"></polyline>
            <polyline id="Fill-15" points="202.551263 538.623827 202.551263 555.936739 198.67568 555.936739 198.67568 538.623827 194.800688 538.623827 194.800688 535.002671 206.454656 535.002671 206.454656 538.623827 202.551263 538.623827"></polyline>
            <polyline id="Fill-16" points="237.001947 555.936739 228.260879 540.718417 228.204668 540.718417 228.204668 555.936739 224.329676 555.936739 224.329676 535.002671 228.741924 535.002671 237.397789 550.220993 237.453999 550.220993 237.453999 535.002671 241.329583 535.002671 241.329583 555.936739 237.001947 555.936739"></polyline>
            <path d="M258.439545,538.203726 C254.423138,538.203726 251.368232,541.570454 251.368232,545.49929 C251.368232,549.404458 254.479941,552.741601 258.439545,552.741601 C262.400332,552.741601 265.511449,549.404458 265.511449,545.49929 C265.511449,541.570454 262.456543,538.203726 258.439545,538.203726 Z M258.439545,556.362757 C252.442745,556.362757 247.492648,551.5523 247.492648,545.528874 C247.492648,539.446279 252.386534,534.58257 258.439545,534.58257 C264.493147,534.58257 269.386441,539.446279 269.386441,545.528874 C269.386441,551.5523 264.436344,556.362757 258.439545,556.362757 L258.439545,556.362757 Z" id="Fill-17"></path>
            <path d="M281.857536,538.623827 L279.368879,538.623827 L279.368879,545.020019 L281.857536,545.020019 C283.923133,545.020019 285.591705,544.002309 285.591705,541.795297 C285.591705,539.641537 283.83793,538.623827 281.857536,538.623827 Z M284.969245,555.936739 L279.42509,547.931144 L279.368879,547.931144 L279.368879,555.936739 L275.493295,555.936739 L275.493295,535.002671 L281.914339,535.002671 C283.752726,535.002671 285.534903,535.233431 287.005849,536.416815 C288.561408,537.665286 289.467289,539.505448 289.467289,541.4817 C289.467289,543.262693 288.731815,545.244862 287.458494,546.487416 C286.383981,547.505126 285.39408,547.877892 283.979344,548.215157 L289.665506,555.936739 L284.969245,555.936739 L284.969245,555.936739 Z" id="Fill-18"></path>
            <path d="M301.214745,556.362757 C297.508977,556.362757 294.567675,553.64689 294.397859,549.942898 L298.471068,549.942898 C298.612482,551.522716 299.574574,552.741601 301.243146,552.741601 C302.742494,552.741601 304.128237,551.694306 304.128237,550.108571 C304.128237,547.735886 301.978619,547.280283 300.140232,546.576169 C299.48937,546.321742 298.86691,546.090982 298.245042,545.783302 C296.123825,544.676838 295.161734,542.955013 295.161734,540.546826 C295.161734,537.097261 297.877601,534.58257 301.299948,534.58257 C304.693894,534.58257 307.324558,537.15643 307.494373,540.546826 L303.534178,540.546826 C303.421165,539.132682 302.657882,538.203726 301.186343,538.203726 C299.970416,538.203726 299.036726,539.07943 299.036726,540.321983 C299.036726,542.333737 300.960317,542.73017 302.515876,543.239026 C305.684387,544.280404 308.00382,546.008145 308.00382,549.68847 C308.00382,553.64689 305.118729,556.362757 301.214745,556.362757" id="Fill-19"></path>
            <polyline id="Fill-20" points="325.419687 555.936739 318.88563 546.741843 318.82942 546.741843 318.82942 555.936739 314.954428 555.936739 314.954428 535.002671 318.82942 535.002671 318.82942 544.055561 318.88563 544.055561 325.419687 535.002671 329.974533 535.002671 322.082543 545.304031 329.974533 555.936739 325.419687 555.936739"></polyline>
            <polyline id="Fill-21" points="335.434076 555.936739 335.434076 535.002671 346.692202 535.002671 346.692202 538.623827 339.30966 538.623827 339.30966 543.747881 346.380972 543.747881 346.380972 547.369037 339.30966 547.369037 339.30966 552.315583 346.692202 552.315583 346.692202 555.936739 335.434076 555.936739"></polyline>
            <path d="M371.410733,556.362757 C367.704965,556.362757 364.763664,553.64689 364.593256,549.942898 L368.667057,549.942898 C368.80788,551.522716 369.769971,552.741601 371.439135,552.741601 C372.938482,552.741601 374.324225,551.694306 374.324225,550.108571 C374.324225,547.735886 372.174608,547.280283 370.335629,546.576169 C369.685359,546.321742 369.062899,546.090982 368.440439,545.783302 C366.319222,544.676838 365.357131,542.955013 365.357131,540.546826 C365.357131,537.097261 368.072998,534.58257 371.495345,534.58257 C374.889883,534.58257 377.520546,537.15643 377.690362,540.546826 L373.730167,540.546826 C373.616562,539.132682 372.853279,538.203726 371.382332,538.203726 C370.165813,538.203726 369.232715,539.07943 369.232715,540.321983 C369.232715,542.333737 371.156306,542.73017 372.711864,543.239026 C375.880376,544.280404 378.199809,546.008145 378.199809,549.68847 C378.199809,553.64689 375.314718,556.362757 371.410733,556.362757" id="Fill-22"></path>
            <polyline id="Fill-23" points="390.618244 538.623827 390.618244 555.936739 386.74266 555.936739 386.74266 538.623827 382.867668 538.623827 382.867668 535.002671 394.521045 535.002671 394.521045 538.623827 390.618244 538.623827"></polyline>
            <path d="M413.675895,553.250457 C412.261159,555.256293 409.828712,556.362757 407.424075,556.362757 C405.076241,556.362757 402.615393,555.285878 401.201249,553.362878 C400.154546,551.978319 399.899527,549.99615 399.899527,548.297993 L399.899527,535.002671 L403.77511,535.002671 L403.77511,548.297993 C403.77511,550.729848 404.567386,552.741601 407.395674,552.741601 C410.224554,552.741601 411.016238,550.729848 411.016238,548.297993 L411.016238,535.002671 L414.891822,535.002671 L414.891822,548.297993 C414.891822,549.99615 414.665204,551.806728 413.675895,553.250457" id="Fill-24"></path>
            <path d="M433.009435,540.381153 C431.058035,538.653412 428.653989,538.623827 426.193142,538.623827 L426.193142,552.315583 L427.013227,552.315583 C428.880016,552.315583 430.436166,552.232746 432.104738,551.297873 C434.140751,550.167741 435.244848,547.818723 435.244848,545.528874 C435.244848,543.629542 434.452572,541.653291 433.009435,540.381153 Z M434.113533,554.581764 C432.104738,555.682311 429.417272,555.936739 427.154642,555.936739 L422.317558,555.936739 L422.317558,535.002671 L427.069438,535.002671 C429.98293,535.002671 433.377468,535.428689 435.6685,537.440443 C437.903321,539.416694 439.11984,542.55858 439.11984,545.528874 C439.11984,549.090861 437.309262,552.824438 434.113533,554.581764 L434.113533,554.581764 Z" id="Fill-25"></path>
            <polyline id="Fill-26" points="445.81247 555.936739 445.81247 535.002671 457.070005 535.002671 457.070005 538.623827 449.688053 538.623827 449.688053 543.747881 456.759366 543.747881 456.759366 547.369037 449.688053 547.369037 449.688053 552.315583 457.070005 552.315583 457.070005 555.936739 445.81247 555.936739"></polyline>
            <polyline id="Fill-27" points="477.126593 555.936739 468.385525 540.718417 468.329314 540.718417 468.329314 555.936739 464.454322 555.936739 464.454322 535.002671 468.866571 535.002671 477.522435 550.220993 477.579237 550.220993 477.579237 535.002671 481.454229 535.002671 481.454229 555.936739 477.126593 555.936739"></polyline>
            <polyline id="Fill-28" points="494.850731 538.623827 494.850731 555.936739 490.975148 555.936739 490.975148 538.623827 487.100156 538.623827 487.100156 535.002671 498.754124 535.002671 498.754124 538.623827 494.850731 538.623827"></polyline>
            <polyline id="Fill-29" points="504.211892 555.936739 504.211892 535.002671 515.471202 535.002671 515.471202 538.623827 508.087476 538.623827 508.087476 543.747881 515.158789 543.747881 515.158789 547.369037 508.087476 547.369037 508.087476 552.315583 515.471202 552.315583 515.471202 555.936739 504.211892 555.936739"></polyline>
            <path d="M528.648186,538.623827 L526.163079,538.623827 L526.163079,545.020019 L528.648186,545.020019 C530.713192,545.020019 532.381764,544.002309 532.381764,541.795297 C532.381764,539.641537 530.630355,538.623827 528.648186,538.623827 Z M531.760487,555.936739 L526.216331,547.931144 L526.163079,547.931144 L526.163079,555.936739 L522.287496,555.936739 L522.287496,535.002671 L528.707355,535.002671 C530.541601,535.002671 532.328511,535.233431 533.795908,536.416815 C535.352058,537.665286 536.257347,539.505448 536.257347,541.4817 C536.257347,543.262693 535.523649,545.244862 534.251511,546.487416 C533.174631,547.505126 532.186505,547.877892 530.772361,548.215157 L536.458522,555.936739 L531.760487,555.936739 L531.760487,555.936739 Z" id="Fill-30"></path>
            <path d="M548.008353,556.362757 C544.298443,556.362757 541.357733,553.64689 541.186143,549.942898 L545.262901,549.942898 C545.404908,551.522716 546.363449,552.741601 548.032021,552.741601 C549.534919,552.741601 550.919478,551.694306 550.919478,550.108571 C550.919478,547.735886 548.771636,547.280283 546.931473,546.576169 C546.280612,546.321742 545.659335,546.090982 545.038058,545.783302 C542.913884,544.676838 541.955342,542.955013 541.955342,540.546826 C541.955342,537.097261 544.671209,534.58257 548.09119,534.58257 C551.487503,534.58257 554.114616,537.15643 554.286207,540.546826 L550.327786,540.546826 C550.209448,539.132682 549.446165,538.203726 547.978768,538.203726 C546.759883,538.203726 545.830926,539.07943 545.830926,540.321983 C545.830926,542.333737 547.753925,542.73017 549.310076,543.239026 C552.475629,544.280404 554.795062,546.008145 554.795062,549.68847 C554.795062,553.64689 551.907604,556.362757 548.008353,556.362757" id="Fill-31"></path>
            <path d="M568.143637,540.46399 L568.090384,540.46399 L565.711782,546.883849 L570.522239,546.883849 L568.143637,540.46399 Z M574.143395,555.936739 L571.906799,550.53459 L564.410059,550.53459 L562.173463,555.936739 L557.907363,555.936739 L566.617071,535.002671 L569.640618,535.002671 L578.409495,555.936739 L574.143395,555.936739 L574.143395,555.936739 Z" id="Fill-32"></path>
            <polyline id="Fill-33" points="600.98255 555.936739 600.98255 540.239146 600.893797 540.239146 595.550817 555.936739 592.266925 555.936739 586.89436 540.239146 586.841108 540.239146 586.841108 555.936739 582.965525 555.936739 582.965525 535.002671 588.338089 535.002671 593.911829 550.848187 593.965082 550.848187 599.479652 535.002671 604.858134 535.002671 604.858134 555.936739 600.98255 555.936739"></polyline>
            <polyline id="Fill-34" points="616.307377 538.623827 616.307377 543.747881 622.786406 543.747881 622.786406 547.369037 616.307377 547.369037 616.307377 555.936739 612.431793 555.936739 612.431793 535.002671 623.094086 535.002671 623.094086 538.623827 616.307377 538.623827"></polyline>
            <path d="M643.040028,553.250457 C641.625883,555.256293 639.194029,556.362757 636.791759,556.362757 C634.442741,556.362757 631.981302,555.285878 630.567157,553.362878 C629.519862,551.978319 629.265435,549.99615 629.265435,548.297993 L629.265435,535.002671 L633.141018,535.002671 L633.141018,548.297993 C633.141018,550.729848 633.933886,552.741601 636.762174,552.741601 C639.590463,552.741601 640.38333,550.729848 640.38333,548.297993 L640.38333,535.002671 L644.258914,535.002671 L644.258914,548.297993 C644.258914,549.99615 644.034071,551.806728 643.040028,553.250457" id="Fill-35"></path>
            <polyline id="Fill-36" points="663.944511 555.936739 655.199301 540.718417 655.146049 540.718417 655.146049 555.936739 651.270465 555.936739 651.270465 535.002671 655.684489 535.002671 664.340945 550.220993 664.394197 550.220993 664.394197 535.002671 668.269781 535.002671 668.269781 555.936739 663.944511 555.936739"></polyline>
            <path d="M686.115216,540.381153 C684.162631,538.653412 681.760361,538.623827 679.298922,538.623827 L679.298922,552.315583 L680.121374,552.315583 C681.985204,552.315583 683.541355,552.232746 685.209927,551.297873 C687.245348,550.167741 688.351812,547.818723 688.351812,545.528874 C688.351812,543.629542 687.558944,541.653291 686.115216,540.381153 Z M687.22168,554.581764 C685.209927,555.682311 682.523644,555.936739 680.26338,555.936739 L675.423339,555.936739 L675.423339,535.002671 L680.174626,535.002671 C683.091669,535.002671 686.482065,535.428689 688.77783,537.440443 C691.00851,539.416694 692.227395,542.55858 692.227395,545.528874 C692.227395,549.090861 690.416817,552.824438 687.22168,554.581764 L687.22168,554.581764 Z" id="Fill-37"></path>
            <path d="M41.0382432,515.617061 C17.6894796,515.617061 0.231603016,499.337244 0.231603016,475.559504 C0.231603016,451.246873 18.2255527,435.71673 41.359532,435.71673 C51.9632469,435.71673 63.4231403,439.572788 69.743004,446.855334 L57.3186524,459.279686 C53.8909799,454.566858 47.7864921,452.317836 42.0027014,452.317836 C29.257061,452.317836 20.152694,462.171877 20.152694,475.559504 C20.152694,489.376698 29.0428684,498.801171 41.6808209,498.801171 C48.8574548,498.801171 54.5341492,495.588874 57.7470375,491.090239 L70.492678,503.085614 C63.8521171,510.797729 53.7838836,515.617061 41.0382432,515.617061" id="Fill-38"></path>
            <polyline id="Fill-39" points="128.928194 513.582232 128.928194 481.879367 99.3672544 481.879367 99.3672544 513.582232 81.0520159 513.582232 81.0520159 437.752151 99.3672544 437.752151 99.3672544 466.455728 128.928194 466.455728 128.928194 437.752151 147.242841 437.752151 147.242841 513.582232 128.928194 513.582232"></polyline>
            <path d="M195.439124,457.993939 L185.799867,484.021293 L204.864188,484.021293 L195.439124,457.993939 Z M215.789192,513.582232 L209.898305,498.694666 L180.550966,498.694666 L174.98196,513.582232 L155.060277,513.582232 L186.87083,437.752151 L204.649995,437.752151 L236.139259,513.582232 L215.789192,513.582232 L215.789192,513.582232 Z" id="Fill-40"></path>
            <polyline id="Fill-41" points="268.590023 453.388799 268.590023 513.582232 250.275376 513.582232 250.275376 453.388799 228.854346 453.388799 228.854346 437.752151 290.011646 437.752151 290.011646 453.388799 268.590023 453.388799"></polyline>
            <polyline id="Fill-42" points="300.817127 513.582232 300.817127 437.752151 351.799097 437.752151 351.799097 453.282294 318.489788 453.282294 318.489788 467.526691 349.978461 467.526691 349.978461 482.200656 318.489788 482.200656 318.489788 497.944992 353.727422 497.944992 353.727422 513.582232 300.817127 513.582232"></polyline>
            <path d="M402.459187,457.993939 L392.81993,484.021293 L411.884251,484.021293 L402.459187,457.993939 Z M422.809254,513.582232 L416.918368,498.694666 L387.571621,498.694666 L382.002023,513.582232 L362.08034,513.582232 L393.890893,437.752151 L411.670058,437.752151 L443.159322,513.582232 L422.809254,513.582232 L422.809254,513.582232 Z" id="Fill-43"></path>
            <path d="M478.609374,515.617061 C458.687691,515.617061 446.263931,503.19271 446.263931,484.985159 L446.263931,437.752151 L464.471482,437.752151 L464.471482,483.48522 C464.471482,491.625129 468.434044,499.12246 478.71647,499.12246 C489.1054,499.12246 492.961458,491.625129 492.961458,483.48522 L492.961458,437.752151 L511.276697,437.752151 L511.276697,484.985159 C511.276697,503.19271 498.42396,515.617061 478.609374,515.617061" id="Fill-44"></path>
            <polyline id="Fill-45" points="601.029886 513.582232 570.504488 463.992514 570.184974 463.992514 570.610993 513.582232 552.830644 513.582232 552.830644 437.752151 573.717377 437.752151 604.136269 487.234181 604.455783 487.234181 604.029765 437.752151 621.810114 437.752151 621.810114 513.582232 601.029886 513.582232"></polyline>
            <polyline id="Fill-46" points="638.407078 513.582232 638.407078 437.752151 689.387273 437.752151 689.387273 453.282294 656.080922 453.282294 656.080922 467.526691 687.570778 467.526691 687.570778 482.200656 656.080922 482.200656 656.080922 497.944992 691.316189 497.944992 691.316189 513.582232 638.407078 513.582232"></polyline>
            <path d="M735.657598,515.617061 C715.735324,515.617061 703.309789,503.19271 703.309789,484.985159 L703.309789,437.752151 L721.522073,437.752151 L721.522073,483.48522 C721.522073,491.625129 725.480494,499.12246 735.764103,499.12246 C746.154217,499.12246 750.01205,491.625129 750.01205,483.48522 L750.01205,437.752151 L768.324922,437.752151 L768.324922,484.985159 C768.324922,503.19271 755.473368,515.617061 735.657598,515.617061" id="Fill-47"></path>
            <polyline id="Fill-48" points="800.240796 453.388799 800.240796 469.026039 829.588726 469.026039 829.588726 484.127797 800.240796 484.127797 800.240796 513.582232 782.140933 513.582232 782.140933 437.752151 832.050165 437.752151 832.050165 453.388799 800.240796 453.388799"></polyline>
        </g>
    </g>
</svg>