<?xml version="1.0" encoding="UTF-8"?>
<svg width="1144px" height="742px" viewBox="0 0 1144 742" version="1.1" xmlns="http://www.w3.org/2000/svg" xmlns:xlink="http://www.w3.org/1999/xlink">
    <!-- Generator: Sketch 56.3 (81716) - https://sketch.com -->
    <title>logo-xs</title>
    <desc>Created with Sketch.</desc>
    <g id="logo-xs" stroke="none" stroke-width="1" fill="none" fill-rule="evenodd">
        <path d="M553.187775,92.0807633 C553.466441,92.2814027 553.73396,92.4486022 553.990333,92.6603882 C555.829527,93.9533975 557.501522,95.6699789 559.36301,97.1413343 C561.213351,98.757596 562.952225,100.585644 564.769126,102.380251 C566.429974,104.342059 568.380635,106.0252 569.907724,108.14306 C571.568572,110.149454 573.2963,112.077822 574.789949,114.240268 C576.272451,116.346982 578.055912,118.219616 579.348921,120.370916 C580.686517,122.499923 582.235899,124.39485 583.473175,126.334364 C584.654718,128.340758 585.981167,130.179952 587.118124,131.87424 C589.458917,135.262817 591.164351,138.328141 592.69144,140.323388 C594.107062,142.396661 595.00994,143.544764 595.00994,143.544764 C595.00994,143.544764 594.998793,142.084556 594.708981,139.58771 C594.329995,137.124304 594.073622,133.445916 592.814053,129.355102 C591.710536,125.163968 590.016248,120.370916 587.575136,115.510984 C586.415886,113.025285 584.933384,110.573026 583.361709,108.165354 C581.979526,105.657361 579.995426,103.428035 578.156232,101.120682 C576.361624,98.7687426 574.110004,96.7957887 571.992144,94.7671017 C569.851991,92.816441 567.444318,91.1667394 565.159258,89.5504778 C564.111475,88.8928265 563.063692,88.302055 561.993615,87.7112834 C578.323431,80.9229844 618.272961,73.0980486 684.684596,113.326244 C684.684596,113.326244 715.326688,125.442634 731.232932,165.113498 C731.232932,165.113498 732.146956,165.481337 733.685191,166.161281 C752.757079,166.116695 775.707995,166.863519 801.724235,170.742547 C815.222806,172.793527 829.501642,175.713945 844.226343,180.239478 C858.939898,184.79845 874.088171,191.062858 888.69026,200.214243 C903.147442,209.399068 916.902386,222.017055 926.555369,238.346872 C936.375552,254.609808 941.436123,274.172148 942.160654,294.068886 C942.807159,314.021358 939.418583,334.174469 933.96788,353.948595 C931.058609,363.791071 927.881819,373.666987 924.03623,383.308824 C920.313255,392.772315 916.567987,402.369565 912.778132,412.022549 C905.410208,431.261636 898.577322,450.991175 892.981713,471.233459 C887.39725,491.45345 882.949744,512.253066 881.745908,532.985802 C881.288896,540.877618 881.444949,548.802873 882.236359,556.494049 C894.698294,556.873035 904.70797,567.04991 904.70797,579.589871 C904.70797,585.809692 902.166538,591.472181 898.15375,595.618729 C899.714279,596.543899 901.285954,597.502509 902.969095,598.416533 C912.989918,603.934116 925.830838,609.35138 941.335804,612.751102 C949.082713,614.57915 957.442687,615.67152 966.460313,617.187462 C975.589405,618.792577 984.941429,621.06649 994.616706,624.154107 C1013.8335,630.429661 1034.06464,639.960032 1052.59034,654.4618 C1068.40741,666.890295 1083.14326,683.309285 1092.65134,703.473542 C1098.55905,712.190209 1103.53045,721.475353 1107.15311,731.407003 C1115.59111,753.677974 1117.56406,778.178272 1113.54013,800.839375 C1109.34899,823.500478 1100.04155,844.311241 1088.19268,862.101266 C1076.36611,880.025051 1062.3102,895.329377 1047.48518,908.616162 C1040.13955,915.304142 1032.55984,921.423643 1024.93555,927.219891 C1021.23486,930.00655 1017.60106,932.759768 1013.97841,935.512986 C1010.65671,938.188178 1007.47992,940.707316 1004.30313,943.594294 C991.729728,954.62946 910.00262,963.245807 916.378494,951.062538 C922.698635,938.678629 931.326128,927.877543 940.912232,918.336026 C950.554069,908.649602 960.953876,900.233895 972.122802,892.319786 C977.885611,888.217825 982.857009,885.119061 988.920777,881.28462 C994.37148,877.985217 999.76645,874.496321 1005.04995,870.829079 C1015.62811,863.606061 1025.7604,855.714246 1035.30191,847.242805 C1054.29577,830.210751 1070.82623,810.258279 1080.43463,787.664056 C1082.94262,781.812074 1084.91557,775.815186 1086.3312,769.729124 C1086.4984,766.585774 1086.54298,763.45357 1086.4761,760.34366 C1085.50635,753.711414 1083.96811,747.168341 1081.64961,740.736734 C1075.25144,722.935562 1063.99334,706.382813 1049.22406,693.229787 C1034.47706,679.965295 1016.3192,670.011352 996.768006,664.504916 C987.594327,661.885457 975.645138,660.046263 964.710291,657.103552 C953.641686,654.250014 942.550787,650.816852 931.671673,646.391639 C920.803707,641.910692 910.080647,636.337376 900.282757,628.902573 C890.77468,621.679555 882.325532,612.49473 876.128005,601.961162 C866.01801,599.497757 858.449446,590.457838 858.449446,579.589871 C858.449446,574.005409 860.52272,568.978278 863.744097,564.976637 C862.228155,553.763125 862.228155,542.583052 863.041859,531.737379 C864.85876,508.942516 870.15341,487.306903 876.339791,466.440407 C882.659931,445.607352 890.150468,425.599147 898.008844,406.204007 C906.056713,386.552494 914.550446,368.584123 920.157202,349.902367 C925.786252,331.276345 929.252854,312.527709 929.252854,294.336405 C929.185974,276.178542 925.173187,258.689476 916.902386,243.920188 C908.731904,229.095167 896.637808,217.20171 883.417902,208.217525 C870.075384,199.233339 855.807694,192.757146 841.729498,187.952947 C827.629008,183.104162 813.784891,179.815906 800.609571,177.41938 C779.241477,173.540352 759.790604,171.912943 742.936896,171.154972 C756.937066,179.793612 778.996252,198.453075 784.112556,232.550623 C786.263856,247.152711 786.397615,269.122723 769.075749,281.763004 C760.604308,287.949385 753.71569,292.987663 747.986321,297.145357 C746.693311,294.748831 745.322275,292.285425 743.772894,289.844313 C741.454394,286.132484 739.158188,282.063963 736.516436,278.129202 C733.707485,274.239028 730.831654,270.237387 727.900089,266.124279 C724.645273,262.178371 721.334723,258.143291 717.96844,254.019037 C714.423811,250.006249 710.622809,246.116074 706.832954,242.036407 C702.853607,238.179672 698.751646,234.300644 694.493632,230.443909 C690.113006,226.787814 685.765819,222.942226 681.09538,219.41989 C671.810236,212.330632 662.068079,205.575773 651.880057,199.567738 C631.5486,187.417909 609.879547,177.776072 588.990758,170.854013 C578.602097,167.209065 568.269169,164.634193 558.538159,162.19308 C548.740269,159.885727 539.443978,158.079973 530.760751,156.83155 C525.488394,155.995553 520.494703,155.415928 515.768531,154.936623 C515.389545,154.557637 515.088586,154.234385 514.698454,153.899986 C514.687308,153.821959 514.609281,153.799666 514.609281,153.799666 L513.695257,153.777373 C510.351268,150.24389 506.483386,147.256593 502.860731,144.001776 C500.97695,142.363221 498.92597,140.947599 496.975309,139.398217 C495.013502,137.893422 493.029401,136.321747 490.878101,134.973004 C488.771388,133.579675 486.731554,132.119466 484.502227,130.88219 L477.613609,127.214948 C475.217083,126.200605 472.84285,125.041355 470.312565,124.116184 C467.693106,123.246747 465.151674,122.299283 462.320429,121.730805 C459.700971,121.106594 456.869726,120.772195 453.882429,120.694168 C452.444513,120.694168 450.962011,120.738755 449.412629,120.995127 C448.576632,121.073154 447.573435,121.340673 446.637118,121.552459 C446.213546,121.641632 445.678507,121.819978 445.110029,122.031764 C444.563844,122.232404 444.095686,122.355016 442.958729,122.979228 L444.073392,122.44419 C436.961841,125.230848 430.028636,128.63057 423.374096,132.632211 L422.972817,132.409279 C419.8852,134.25962 416.864463,136.199134 413.932899,138.305847 L381.005747,132.364692 C381.005747,132.364692 382.142703,121.942591 398.126974,116.525328 C389.911906,103.862754 374.418087,73.4213009 418.815124,62.6090676 C484.69172,46.5913571 548.50619,88.8928265 553.187775,92.0807633 Z M318.484287,794.352035 C364.542171,742.843447 394.626932,746.265463 404.413675,749.475694 C436.995281,643.281728 328.003511,592.653724 328.003511,592.653724 C201.244009,545.982775 100.166347,436.667753 100.166347,436.667753 C63.7502998,426.245652 70.6612118,386.83116 74.0943746,380.488726 C77.5275373,374.123999 71.5752357,345.231928 71.5752357,345.231928 C71.5752357,345.231928 60.8744687,300.422467 79.0880658,298.962258 C97.3573961,297.524342 94.3143655,316.440177 102.150448,311.424193 C110.008824,306.397062 116.797123,309.072253 116.797123,309.072253 C116.797123,309.072253 150.381926,321.03259 210.105581,273.202391 C250.902255,240.553905 322.396755,212.118846 363.650441,197.349558 C283.88514,203.357593 285.980707,186.637645 285.980707,186.637645 L361.933859,155.939819 L390.502678,160.509939 C381.786011,169.449538 374.317768,179.715586 368.677572,190.784192 C367.763548,192.645679 366.949844,194.574047 366.147286,196.457828 C362.134499,205.430867 358.991148,214.660278 356.772968,224.056889 C356.628062,224.491608 356.594622,224.91518 356.427423,225.305312 C355.825505,228.02509 355.223587,230.733722 354.699695,233.475793 C352.00221,248.055588 350.999013,262.858316 351.255385,277.426964 C351.489465,291.973319 352.436929,306.263302 354.175803,320.609018 C356.159904,335.055053 358.344644,349.255863 364.062866,364.236936 C365.634541,368.104818 367.172776,371.694033 370.43874,376.1081 L371.26359,377.144736 L372.188761,378.203667 L372.801826,378.928198 C373.749289,379.897955 374.897393,380.968031 376.402188,382.049255 C377.88469,383.074745 379.96911,384.312021 382.945261,384.891646 C385.910265,385.504711 389.521774,384.936232 391.896007,383.788129 C396.655619,381.40275 398.182707,378.961638 399.798969,377.122443 C401.270324,375.149489 402.306961,373.477494 403.354745,371.861233 L408.738568,362.921634 C415.5826,351.830735 423.708495,343.481907 434.375822,339.212747 C435.657685,338.700002 437.12904,338.153817 438.310583,337.819418 C438.834475,337.641072 439.804232,337.384699 440.662523,337.161767 L442.836116,336.704755 C445.979466,336.069397 449.022497,335.322572 452.299607,334.96588 C455.487544,334.419695 458.753507,334.029563 462.142083,333.817777 C465.419193,333.438791 468.763183,333.293885 472.162906,333.204712 C481.760156,332.81458 491.513459,332.892606 501.277909,333.293885 L501.322496,333.215859 C505.31299,333.371912 509.292338,333.550258 513.238245,333.77319 C524.618957,334.475428 536.033108,335.378305 547.491846,336.247743 C549.999839,336.437236 552.452098,336.649022 554.948943,336.816221 C561.949028,337.351259 569.038286,337.852858 576.183278,338.24299 C579.872813,338.399043 583.651521,338.621975 587.118124,338.555096 L589.715289,338.577389 L592.513094,338.521656 L597.774304,338.399043 C604.718656,338.24299 611.651862,338.17611 618.105762,338.521656 C624.515075,338.800322 630.734896,340.249384 632.585237,342.701643 C634.82571,345.008996 634.914883,351.685828 633.644167,357.994822 C632.70785,364.05859 630.266737,368.584123 625.495979,371.170142 C620.736367,373.800747 614.048387,374.213172 607.527608,373.555521 C600.873068,372.875576 594.185089,371.303901 587.586282,369.319801 C583.261389,367.971058 578.958789,366.41053 574.667336,364.749681 C573.742165,364.415282 572.783555,364.05859 571.880678,363.668458 C564.111475,360.569694 556.487179,357.114238 548.996642,353.26865 C560.444233,361.461425 572.571769,368.784762 585.713648,374.514131 C592.245575,377.378816 599.04502,379.864515 606.323771,381.291284 C613.546789,382.651173 621.572364,383.409144 629.664819,380.098594 C633.66646,378.515772 637.389435,375.573061 640.020041,371.994992 C642.606059,368.405777 644.188881,364.214643 645.058318,360.469375 C645.950049,356.958185 646.74146,352.889665 646.830633,348.731971 C646.919806,344.585424 646.217568,339.491413 643.085364,334.96588 C639.908574,330.518374 635.215842,328.010382 631.180761,326.695079 C627.123387,325.279457 623.255506,324.677538 619.532531,324.198233 C612.041994,323.21733 604.885856,323.094717 597.807744,322.882931 L592.546534,322.760318 L590.083128,322.682291 L587.485963,322.548532 C583.841014,322.437065 580.697664,322.09152 577.387114,321.824001 C570.531935,321.132909 563.621023,320.308059 556.698965,319.472061 C553.031723,319.037343 549.342187,318.613771 545.674945,318.179052 C541.316612,317.644014 536.969425,317.187002 532.566506,316.69655 C526.603057,316.061192 520.617316,315.425834 514.609281,314.946529 C500.453058,313.753839 486.140782,312.873255 471.594427,313.073894 C468.005212,313.107334 464.30453,313.207654 460.648434,313.497466 C456.947753,313.642373 453.291657,313.965625 449.546389,314.47837 C445.845707,314.812769 442.022412,315.559593 438.277143,316.317564 C437.29624,316.540497 436.538269,316.674257 435.323286,316.941776 L432.558921,317.699747 C430.340741,318.312811 428.579573,319.003903 426.584326,319.73958 C418.848563,322.804904 411.658986,327.48649 405.695537,333.104392 C399.698649,338.700002 394.883304,345.176195 390.870517,351.462896 L385.687333,359.934336 C385.453253,359.521911 385.219174,359.098339 385.018535,358.641327 C384.873628,358.295781 384.751015,357.994822 384.594963,357.660423 C384.40547,357.158825 384.171391,356.668373 384.015338,356.189068 C379.690444,344.930969 377.383091,331.198318 375.688803,317.866946 C374.016809,304.368375 373.047052,290.635724 372.712653,277.059126 C372.668066,273.692843 372.645773,270.371146 372.690359,267.060596 C372.690359,266.84881 372.712653,266.692758 372.712653,266.525558 C372.779532,263.750047 372.902145,260.963389 373.091638,258.199024 C373.136225,257.140094 373.236544,256.070017 373.303424,255.011087 C373.437184,253.105013 373.626676,251.154352 373.860756,249.237131 C373.994515,248.100175 374.083688,246.918632 374.250888,245.781675 C374.529554,243.608082 374.875099,241.412196 375.198352,239.260896 C375.332111,238.592098 375.387844,237.912153 375.499311,237.243355 C377.78437,224.235235 381.585372,211.628394 387.281301,200.09163 C389.309988,196.045402 391.583901,192.166374 394.013867,188.421106 C394.270239,187.997534 394.548905,187.640842 394.816424,187.21727 C395.997967,185.422662 397.235244,183.661494 398.517106,181.944913 C399.241637,181.008595 399.988462,180.116865 400.712993,179.202841 C401.727336,177.987858 402.6748,176.728289 403.722584,175.557892 C405.650951,173.395446 407.668491,171.299879 409.819791,169.326925 C417.165422,162.449453 425.670302,156.786964 434.799394,152.172258 L434.130596,152.060791 C436.515976,150.856955 438.879062,149.697705 441.375907,148.638775 L442.111585,148.282083 C442.412544,148.19291 442.512864,148.070297 442.891849,148.036857 C443.516061,147.880804 444.251738,147.780485 445.087736,147.735898 C446.00176,147.646725 446.96037,147.624432 447.963567,147.646725 C449.04479,147.633981 450.181747,147.646725 451.352143,147.847364 C453.291657,147.969977 455.309198,148.493869 457.326738,148.906295 C459.366572,149.396746 461.417552,150.165864 463.479679,150.756635 L469.59918,153.242334 L475.729828,156.162752 C477.803101,157.032189 479.820642,158.202586 481.849329,159.306102 C483.59935,160.320446 485.438545,161.290203 487.177419,162.36028 C487.177419,162.36028 487.244299,162.36028 487.300032,162.382573 C487.444938,162.527479 487.656724,162.616652 487.857364,162.739265 C491.747538,165.325284 495.816059,167.599197 499.683941,170.341268 C501.066123,171.299879 502.515185,172.236196 503.919661,173.194806 C506.4388,174.933681 508.946792,176.616822 511.343318,178.522896 C515.122026,181.387581 519.157107,183.995893 522.857789,187.038923 C526.603057,189.925901 530.359473,192.812879 534.227354,195.644124 C534.283087,195.666417 534.294234,195.72215 534.394553,195.78903 C533.27989,194.284234 532.109494,192.868612 530.994831,191.38611 C529.200223,189.011877 527.372175,186.615351 525.555274,184.263412 C524.652397,183.126456 523.71608,182.089819 522.779763,180.986302 C521.39758,179.347747 520.015398,177.709192 518.555189,176.092931 L522.601416,178.913029 C529.735261,181.220381 537.192358,183.83984 545.09532,186.526178 C554.190972,189.859021 563.710196,193.548557 573.39662,197.650517 C583.12763,201.663305 592.903226,206.278011 602.790289,211.059916 C612.510152,216.10934 622.475241,221.203351 631.905292,227.021893 C641.547129,232.572916 650.720808,238.88191 659.638113,245.124024 C664.107913,248.289668 668.310193,251.68939 672.5905,254.855034 C676.737047,258.265904 680.827861,261.632186 684.840649,264.942736 C688.697384,268.420486 692.509532,271.875942 696.22136,275.208785 C699.810576,278.753414 703.321765,282.20887 706.743781,285.552859 C713.197681,292.586384 719.428649,299.263217 724.734446,305.817437 C726.016308,307.288792 727.186705,308.782441 728.334808,310.287236 C728.914433,310.989474 729.449471,311.691712 730.017949,312.438536 C730.017949,312.46083 730.029096,312.505416 730.029096,312.505416 C730.764774,313.45288 731.489305,314.433783 732.224983,315.347807 C734.532335,318.424278 736.928861,321.255522 738.890669,324.10906 C742.647084,329.871869 746.392352,334.709508 749.067544,338.945228 C754.317608,347.450108 757.617011,352.298893 757.617011,352.298893 C757.617011,352.298893 757.527838,351.975641 757.371785,351.440603 C777.44687,386.552494 784.703327,413.137212 784.703327,413.137212 C784.703327,413.137212 806.294354,464.322547 833.525576,565.311036 C878.022932,730.325779 886.282587,766.407428 872.739429,857.263627 C863.253645,921.111537 486.051609,962.978288 484.000629,955.353991 C482.317488,961.139093 261.603022,858.055038 318.484287,794.352035 Z M344.589699,307.288792 C341.468642,301.291904 335.638954,294.91603 327.267833,291.360255 C325.161119,290.468524 322.898353,289.743993 320.49068,289.286981 C319.097351,289.119782 317.726316,288.919142 316.366427,288.763089 C315.274057,288.729649 314.159393,288.729649 313.07817,288.718503 C309.945966,288.685063 307.81696,289.253541 305.543047,290.022659 C303.358307,290.791776 301.519112,291.817267 300.00317,292.987663 C296.948993,295.317309 295.265852,297.825301 294.362974,299.675642 C293.437804,301.626303 293.226018,302.785553 293.226018,302.785553 C293.226018,302.785553 294.374121,302.506887 296.313635,302.417714 C297.216512,302.350834 298.331176,302.272808 299.535012,302.350834 C300.694262,302.350834 301.976124,302.350834 303.24684,302.618353 C304.528703,302.841286 305.821712,303.175685 306.980962,303.55467 C308.084479,304.033976 309.544688,304.513281 310.023993,305.104052 L310.291512,305.248958 L310.92687,305.549918 L312.208733,306.207569 L312.387079,306.263302 L312.442812,306.319035 C312.297906,306.263302 311.963507,306.185276 311.963507,306.185276 L312.05268,306.252155 L312.297906,306.419355 L312.710331,306.787194 L313.557475,307.478285 C314.772458,308.436895 316.087761,309.350919 317.458797,310.30953 C323.020966,314.043651 329.976465,316.908336 336.207432,318.123319 C339.350782,318.691797 342.226613,318.981609 344.4225,319.003903 C345.459137,319.070782 346.451187,318.981609 347.041959,318.937023 C347.688463,318.91473 348.022862,318.91473 348.022862,318.91473 C348.022862,318.91473 347.989422,318.558037 347.889103,317.922679 C347.833369,317.298468 347.777636,316.328711 347.49897,315.292074 C347.041959,313.073894 346.105641,310.30953 344.589699,307.288792 Z M123.897527,352.298893 L123.09497,351.396016 L122.403879,350.649192 L122.258973,350.459699 L121.913427,350.136447 L120.620418,348.89917 C119.037596,347.138002 117.577387,345.376835 116.629923,343.403881 C115.559847,341.48666 114.913342,339.391093 114.45633,337.306673 C113.564599,333.070953 113.731799,328.968992 114.099638,326.059721 C114.099638,325.914815 114.099638,325.814495 114.121931,325.669589 L114.779582,321.344695 C114.779582,321.344695 113.196761,322.303306 111.134634,324.744418 C110.12029,325.959401 108.89416,327.508783 107.846377,329.559763 C106.787447,331.555011 105.65049,334.029563 105.093159,336.972274 C104.513534,339.892692 104.268308,343.292414 104.937106,346.870483 C105.516731,350.459699 107.01038,354.104648 109.072507,357.459784 L109.239706,357.716156 L100.244374,416.704134 C100.244374,416.704134 100.667946,416.614961 101.51509,416.492348 C102.261914,416.224829 103.644097,416.124509 105.048572,415.388832 C106.519928,414.775767 108.381415,413.995503 110.176023,412.657907 C112.126684,411.465217 114.043905,409.826662 116.061445,407.931735 C117.020055,406.906245 118.012106,405.869608 119.037596,404.788384 C119.95162,403.595695 120.91023,402.369565 121.857694,401.087703 C123.663448,398.479391 125.391176,395.558973 126.829092,392.348743 C128.233567,389.149659 129.44855,385.63847 130.206521,381.926642 C130.6078,380.054008 130.819586,378.081054 131.075959,376.119246 C131.153985,374.112853 131.153985,372.073019 131.075959,370.010892 C130.50748,365.730585 129.950149,361.884997 127.375277,357.292584 C126.784505,356.211361 126.082267,354.918352 125.491496,354.160381 L123.897527,352.298893 Z" id="grisen" fill="#FFFFFF"></path>
    </g>
</svg>