
<svg width="1805px" height="371px" viewBox="0 0 1805 371" version="1.1" xmlns="http://www.w3.org/2000/svg" xmlns:xlink="http://www.w3.org/1999/xlink">
    <g id="Logoer" stroke="none" stroke-width="1" fill="none" fill-rule="evenodd">
        <g id="Logo/Horisontal" fill="#FFFFFF">
            <g id="Group" transform="translate(0.000000, 0.000000)">
                <path d="M131.868,22.845 C131.991,22.845 132.111,22.82 132.23,22.809 L136.995,45.688 L172.501,45.688 L180.934,28.775 L189.366,45.688 L224.742,45.688 L229.512,22.789 C231.077,22.525 232.268,21.173 232.268,19.535 C232.268,17.708 230.788,16.224 228.959,16.224 C227.132,16.224 225.65,17.708 225.65,19.535 C225.65,20.816 226.389,21.918 227.455,22.467 L211.76,33.229 L206.339,20.13 C207.76,19.759 208.816,18.479 208.816,16.938 C208.816,15.111 207.335,13.628 205.509,13.628 C203.681,13.628 202.199,15.111 202.199,16.938 C202.199,18.484 203.265,19.774 204.696,20.136 L199.037,33.488 C199.037,33.488 182.667,19.588 182.181,7.809 C183.757,7.262 184.891,5.783 184.891,4.024 C184.891,1.8 183.091,5.68434189e-14 180.865,5.68434189e-14 C178.647,5.68434189e-14 176.843,1.8 176.843,4.024 C176.843,5.783 177.98,7.262 179.553,7.809 C179.067,19.59 162.696,33.488 162.696,33.488 L157.064,20.194 C158.636,19.939 159.841,18.584 159.841,16.938 C159.841,15.111 158.359,13.628 156.53,13.628 C154.705,13.628 153.22,15.111 153.22,16.938 C153.22,18.379 154.148,19.59 155.432,20.047 L149.975,33.229 L133.851,22.171 C134.65,21.567 135.178,20.616 135.178,19.535 C135.178,17.708 133.696,16.224 131.868,16.224 C130.037,16.224 128.558,17.708 128.558,19.535 C128.558,21.361 130.037,22.845 131.868,22.845" id="Fill-1"></path>
                <polyline id="Fill-2" points="137.06 48.804 137.06 55.812 180.931 55.812 173.925 48.804 137.06 48.804"></polyline>
                <path d="M171.593,346.351 C171.869,346.871 172.216,347.276 172.628,347.566 C173.027,347.851 173.532,347.994 174.134,347.994 C175.13,347.994 175.901,347.52 176.488,346.548 C177.095,345.547 177.401,344.13 177.401,342.343 C177.401,341.711 177.337,341.032 177.211,340.329 C177.085,339.637 176.898,339.042 176.649,338.566 C176.392,338.068 176.054,337.665 175.638,337.364 C175.233,337.074 174.727,336.927 174.134,336.927 C173.526,336.927 173,337.078 172.575,337.374 C172.136,337.677 171.778,338.102 171.504,338.631 C171.241,339.134 171.052,339.715 170.944,340.359 C170.835,341.016 170.778,341.663 170.778,342.28 C170.778,343.092 170.845,343.85 170.976,344.534 C171.106,345.213 171.314,345.825 171.593,346.351" id="Fill-3"></path>
                <path d="M214.609,338.335 C215.15,337.957 215.555,337.47 215.801,336.88 C216.072,336.226 216.21,335.437 216.21,334.534 C216.21,333.551 215.919,332.742 215.34,332.136 C214.759,331.522 214.03,331.224 213.12,331.224 C212.206,331.224 211.48,331.511 210.903,332.099 C210.323,332.692 210.039,333.405 210.039,334.288 C210.039,335.127 210.361,335.819 211.021,336.406 C211.686,337.001 212.894,337.651 214.609,338.335" id="Fill-4"></path>
                <path d="M213.12,347.994 C214.238,347.994 215.131,347.671 215.779,347.029 C216.438,346.382 216.757,345.58 216.757,344.579 C216.757,344.082 216.65,343.642 216.439,343.271 C216.223,342.892 215.905,342.541 215.492,342.224 C215.087,341.91 214.508,341.572 213.765,341.225 C213.058,340.885 212.275,340.534 211.431,340.178 C210.705,340.596 210.161,341.119 209.814,341.737 C209.447,342.394 209.262,343.153 209.262,343.994 C209.262,345.193 209.615,346.171 210.313,346.899 C211.017,347.638 211.937,347.994 213.12,347.994" id="Fill-5"></path>
                <polyline id="Fill-6" points="117.515 341.054 122.298 341.054 119.89 334.887 117.515 341.054"></polyline>
                <path d="M229.145,146.893 C229.348,146.923 229.552,146.961 229.761,147.002 C230.231,147.093 230.713,147.214 231.194,147.345 C231.263,147.36 231.332,147.375 231.4,147.385 C231.856,147.466 232.394,147.561 232.925,147.7 C233.766,147.916 234.586,148.208 235.378,148.571 C234.26,147.829 233.086,147.257 231.941,146.832 C231.123,146.529 230.314,146.298 229.54,146.126 C228.755,145.968 227.981,145.819 227.276,145.618 C225.888,145.243 224.74,144.695 223.853,144.158 C224.746,145.106 225.95,145.803 227.263,146.298 C227.872,146.529 228.501,146.723 229.145,146.893" id="Fill-7"></path>
                <path d="M230.66,173.506 C230.245,173.829 229.849,174.168 229.479,174.525 C228.735,175.225 228.084,175.985 227.62,176.793 C227.381,177.196 227.198,177.616 227.066,178.035 C226.935,178.457 226.84,178.885 226.821,179.311 C226.78,180.166 226.94,181.024 227.272,181.834 C227.751,182.99 228.48,184.027 229.279,184.949 C228.744,184.084 228.299,183.087 228.069,181.952 C227.919,181.205 227.872,180.406 227.964,179.602 C228.056,178.797 228.283,177.989 228.616,177.228 C229.284,175.697 230.349,174.352 231.574,173.169 C231.872,172.876 232.215,172.585 232.542,172.3 C232.859,172.043 233.18,171.781 233.503,171.518 C233.687,171.37 233.865,171.217 234.041,171.066 C233.353,171.589 232.658,172.09 231.961,172.554 C231.485,172.879 231.073,173.18 230.66,173.506" id="Fill-8"></path>
                <path d="M174.132,118.414 C174.091,118.215 174.007,117.967 173.871,117.696 C173.591,117.158 173.068,116.586 172.317,116.267 C172.128,116.187 171.925,116.122 171.709,116.081 C171.584,116.066 171.461,116.048 171.339,116.034 C171.241,116.031 171.141,116.031 171.044,116.03 C170.763,116.027 170.572,116.078 170.368,116.147 C170.172,116.216 170.007,116.308 169.871,116.413 C169.597,116.622 169.446,116.847 169.365,117.013 C169.282,117.188 169.263,117.292 169.263,117.292 C169.263,117.292 169.366,117.267 169.54,117.259 C169.621,117.253 169.721,117.246 169.829,117.253 C169.933,117.253 170.048,117.253 170.162,117.277 C170.277,117.297 170.393,117.327 170.497,117.361 C170.596,117.404 170.727,117.447 170.77,117.5 L170.794,117.513 L170.851,117.54 L170.966,117.599 L170.982,117.604 L170.987,117.609 C170.974,117.604 170.944,117.597 170.944,117.597 L170.949,117.6 L170.952,117.603 L170.974,117.618 L171.011,117.651 L171.087,117.713 C171.196,117.799 171.314,117.881 171.437,117.967 C171.936,118.302 172.56,118.559 173.119,118.668 C173.401,118.719 173.659,118.745 173.856,118.747 C173.949,118.753 174.038,118.745 174.091,118.741 C174.149,118.739 174.179,118.739 174.179,118.739 C174.179,118.739 174.176,118.707 174.167,118.65 C174.162,118.594 174.157,118.507 174.132,118.414" id="Fill-9"></path>
                <path d="M242.889,304.979 L232.735,304.979 C239.389,300.285 245.996,295.139 252.142,289.431 C261.522,280.721 268.811,271.644 273.821,262.453 C279.623,251.806 282.566,240.622 282.566,229.223 L282.566,68.66 L78.265,68.66 L78.265,229.22 C78.265,240.622 81.206,251.805 87.007,262.453 C92.015,271.644 99.308,280.721 108.685,289.428 C114.83,295.137 121.441,300.285 128.092,304.979 L117.939,304.979 C94.05,286.738 72.128,261.902 72.128,229.067 L72.128,62.368 L288.703,62.368 L288.703,229.067 C288.703,261.902 266.777,286.738 242.889,304.979 L242.889,304.979 Z M233.476,349.115 L224.457,349.115 L224.457,347.689 L224.701,347.671 C224.958,347.651 225.359,347.615 225.905,347.562 C226.444,347.503 226.811,347.447 226.988,347.395 C227.204,347.327 227.367,347.215 227.474,347.067 C227.583,346.921 227.637,346.676 227.637,346.344 L227.637,337.486 L224.404,337.486 L224.404,335.871 L225.38,335.871 C226.273,335.871 227.083,335.704 227.783,335.377 C228.484,335.049 228.987,334.698 229.283,334.332 L229.361,334.232 L230.837,334.232 L230.827,334.507 C230.802,335.071 230.776,335.727 230.749,336.479 C230.722,337.252 230.71,337.915 230.71,338.497 L230.71,346.201 C230.71,346.463 230.764,346.685 230.877,346.883 C230.985,347.077 231.134,347.214 231.33,347.3 C231.531,347.384 231.883,347.468 232.372,347.543 C232.873,347.618 233.247,347.661 233.484,347.671 L233.737,347.678 L233.737,349.115 L233.476,349.115 Z M207.816,337.561 C207.241,336.784 206.946,335.89 206.946,334.911 C206.946,333.423 207.584,332.159 208.844,331.16 C210.084,330.173 211.589,329.672 213.314,329.672 C215.041,329.672 216.466,330.149 217.546,331.09 C218.636,332.036 219.188,333.244 219.188,334.678 C219.188,335.606 218.884,336.494 218.28,337.319 C217.776,338.011 217.066,338.602 216.163,339.084 C217.375,339.658 218.28,340.289 218.857,340.966 C219.536,341.756 219.878,342.766 219.878,343.969 C219.878,345.497 219.212,346.828 217.897,347.922 C216.601,349.006 214.878,349.556 212.781,349.556 C210.814,349.556 209.209,349.049 208.014,348.052 C206.806,347.045 206.193,345.727 206.193,344.137 C206.193,342.957 206.557,341.954 207.278,341.162 C207.898,340.479 208.781,339.886 209.91,339.393 C209.006,338.833 208.304,338.219 207.816,337.561 L207.816,337.561 Z M199.585,346.886 C199.693,347.077 199.843,347.214 200.037,347.3 C200.242,347.384 200.59,347.468 201.081,347.543 C201.58,347.618 201.958,347.661 202.195,347.671 L202.446,347.678 L202.446,349.115 L193.167,349.115 L193.167,347.689 L193.408,347.671 C193.667,347.651 194.069,347.615 194.616,347.562 C195.153,347.503 195.519,347.447 195.698,347.395 C195.916,347.327 196.074,347.218 196.184,347.067 C196.294,346.921 196.349,346.678 196.349,346.344 L196.349,337.486 L193.112,337.486 L193.112,335.871 L194.089,335.871 C194.983,335.871 195.792,335.704 196.493,335.377 C197.193,335.049 197.698,334.698 197.992,334.332 L198.069,334.232 L199.549,334.232 L199.535,334.507 C199.509,335.071 199.482,335.727 199.458,336.479 C199.431,337.221 199.419,337.902 199.419,338.497 L199.419,346.201 C199.419,346.463 199.473,346.685 199.585,346.886 L199.585,346.886 Z M167.565,342.5 C167.565,340.441 168.177,338.731 169.384,337.412 C170.596,336.086 172.202,335.418 174.161,335.418 C176.021,335.418 177.578,336.052 178.791,337.308 C180.002,338.563 180.614,340.247 180.614,342.318 C180.614,343.243 180.464,344.164 180.172,345.058 C179.877,345.954 179.448,346.732 178.9,347.361 C178.277,348.082 177.543,348.626 176.723,348.977 C175.904,349.326 174.976,349.506 173.967,349.506 C173.118,349.506 172.3,349.344 171.537,349.024 C170.772,348.704 170.081,348.233 169.486,347.618 C168.902,347.014 168.429,346.271 168.085,345.409 C167.742,344.548 167.565,343.566 167.565,342.5 L167.565,342.5 Z M155.104,336.935 C155.423,336.637 155.734,336.39 156.021,336.198 C156.361,335.981 156.768,335.794 157.23,335.65 C157.694,335.501 158.225,335.43 158.802,335.43 C160.113,335.43 161.102,335.85 161.743,336.68 C162.37,337.493 162.688,338.571 162.688,339.9 L162.688,346.567 C162.688,346.825 162.729,347.027 162.812,347.173 C162.887,347.308 163.02,347.412 163.217,347.493 C163.409,347.574 163.575,347.632 163.718,347.663 C163.849,347.696 164.046,347.72 164.301,347.735 L164.548,347.751 L164.548,349.115 L157.761,349.115 L157.761,347.755 L157.999,347.735 C158.165,347.721 158.342,347.708 158.534,347.693 L158.661,347.682 C158.874,347.668 159.051,347.638 159.19,347.59 C159.371,347.532 159.502,347.438 159.585,347.295 C159.676,347.142 159.723,346.933 159.723,346.672 L159.723,340.083 C159.723,339.243 159.53,338.591 159.143,338.149 C158.763,337.711 158.311,337.498 157.771,337.498 C157.345,337.498 156.95,337.566 156.599,337.696 C156.24,337.831 155.919,337.996 155.641,338.193 C155.379,338.373 155.17,338.569 155.02,338.776 C154.88,338.967 154.773,339.125 154.698,339.243 L154.698,346.541 C154.698,346.783 154.745,346.98 154.84,347.129 C154.932,347.273 155.072,347.384 155.276,347.473 C155.44,347.551 155.619,347.611 155.808,347.649 C156.012,347.69 156.221,347.72 156.433,347.735 L156.674,347.754 L156.674,349.115 L149.872,349.115 L149.872,347.755 L150.113,347.735 L150.427,347.711 L150.734,347.682 C150.924,347.668 151.086,347.638 151.225,347.593 C151.409,347.532 151.538,347.438 151.622,347.295 C151.713,347.145 151.758,346.936 151.758,346.672 L151.758,338.768 C151.758,338.516 151.706,338.285 151.598,338.077 C151.491,337.868 151.347,337.701 151.166,337.576 C151.028,337.489 150.859,337.423 150.667,337.382 C150.456,337.339 150.222,337.307 149.975,337.289 L149.731,337.273 L149.731,335.928 L149.975,335.912 L154.237,335.624 L154.356,335.618 L154.438,335.703 L154.622,335.883 L154.698,335.959 L154.698,337.319 C154.823,337.197 154.955,337.072 155.104,336.935 L155.104,336.935 Z M137.383,336.935 C137.708,336.637 138.016,336.39 138.303,336.198 C138.643,335.981 139.05,335.794 139.511,335.65 C139.977,335.501 140.504,335.43 141.084,335.43 C142.392,335.43 143.382,335.85 144.026,336.68 C144.653,337.493 144.971,338.571 144.971,339.9 L144.971,346.567 C144.971,346.825 145.013,347.027 145.095,347.173 C145.169,347.308 145.299,347.412 145.499,347.493 C145.689,347.574 145.858,347.632 145.997,347.663 C146.129,347.696 146.326,347.72 146.584,347.735 L146.828,347.751 L146.828,349.115 L140.042,349.115 L140.042,347.755 L140.282,347.735 C140.446,347.721 140.624,347.708 140.814,347.693 L140.942,347.682 C141.158,347.668 141.331,347.638 141.473,347.59 C141.653,347.532 141.782,347.438 141.866,347.295 C141.957,347.142 142.006,346.933 142.006,346.672 L142.006,340.083 C142.006,339.243 141.808,338.591 141.426,338.149 C141.044,337.711 140.595,337.498 140.052,337.498 C139.627,337.498 139.233,337.566 138.881,337.696 C138.523,337.831 138.199,337.996 137.924,338.193 C137.662,338.373 137.45,338.569 137.3,338.776 C137.161,338.967 137.053,339.125 136.98,339.243 L136.98,346.541 C136.98,346.783 137.027,346.98 137.121,347.129 C137.215,347.273 137.353,347.384 137.558,347.473 C137.72,347.551 137.901,347.611 138.089,347.649 C138.294,347.69 138.506,347.72 138.715,347.735 L138.954,347.754 L138.954,349.115 L132.157,349.115 L132.157,347.755 L132.394,347.735 L132.706,347.711 L133.014,347.682 C133.205,347.668 133.368,347.638 133.506,347.593 C133.689,347.532 133.819,347.438 133.902,347.295 C133.995,347.145 134.039,346.936 134.039,346.672 L134.039,338.768 C134.039,338.516 133.986,338.285 133.881,338.077 C133.778,337.871 133.628,337.698 133.446,337.576 C133.311,337.489 133.144,337.423 132.949,337.382 C132.737,337.339 132.503,337.307 132.258,337.289 L132.015,337.273 L132.015,335.928 L132.258,335.912 L136.52,335.624 L136.639,335.618 L136.724,335.703 L136.903,335.883 L136.98,335.959 L136.98,337.319 C137.103,337.197 137.242,337.072 137.383,336.935 L137.383,336.935 Z M111.102,352.159 L233.737,352.159 L233.737,353.938 L110.841,353.938 L110.841,352.159 L111.102,352.159 Z M124.501,346.945 C124.488,346.849 124.466,346.768 124.438,346.697 L122.972,342.733 L116.859,342.733 C116.643,343.284 116.473,343.746 116.338,344.143 C116.185,344.591 116.052,345.008 115.93,345.381 C115.822,345.739 115.744,346.037 115.703,346.262 C115.664,346.482 115.644,346.659 115.644,346.788 C115.644,347.009 115.861,347.196 116.288,347.346 C116.805,347.528 117.401,347.638 118.059,347.671 L118.306,347.682 L118.306,349.115 L110.841,349.115 L110.841,347.69 L111.08,347.671 C111.297,347.655 111.566,347.605 111.883,347.526 C112.192,347.454 112.445,347.354 112.63,347.233 C112.952,347.017 113.203,346.79 113.373,346.56 C113.549,346.321 113.727,345.984 113.899,345.561 C114.837,343.222 115.868,340.598 116.963,337.767 C118.082,334.882 119.076,332.313 119.953,330.062 L120.019,329.895 L121.416,329.895 L121.479,330.062 L127.625,345.965 C127.746,346.28 127.883,346.531 128.029,346.714 C128.176,346.901 128.389,347.089 128.65,347.264 C128.825,347.373 129.064,347.468 129.356,347.54 C129.658,347.618 129.914,347.661 130.112,347.671 L130.361,347.68 L130.361,349.115 L122.171,349.115 L122.171,347.685 L122.418,347.671 C123.066,347.63 123.614,347.546 124.044,347.42 C124.461,347.298 124.521,347.189 124.521,347.189 C124.523,347.122 124.516,347.04 124.501,346.945 L124.501,346.945 Z M240.281,351.547 C240.423,351.661 240.601,351.768 240.82,351.863 C241.078,351.986 241.354,352.086 241.647,352.159 C241.928,352.232 242.338,352.269 242.87,352.269 C243.355,352.269 243.833,352.187 244.284,352.024 C244.724,351.866 245.118,351.608 245.456,351.26 C245.811,350.887 246.093,350.443 246.294,349.945 C246.491,349.447 246.594,348.774 246.594,347.944 C246.594,347.501 246.545,347.053 246.448,346.61 C246.359,346.193 246.19,345.826 245.944,345.518 C245.707,345.222 245.373,344.985 244.953,344.815 C244.52,344.641 243.958,344.553 243.282,344.553 L241.318,344.553 L241.318,342.538 L242.711,342.538 C243.822,342.538 244.627,342.238 245.099,341.645 C245.589,341.038 245.837,340.093 245.837,338.836 C245.837,337.827 245.604,337.063 245.14,336.565 C244.674,336.066 244.025,335.824 243.158,335.824 C242.737,335.824 242.392,335.874 242.134,335.969 C241.858,336.073 241.631,336.173 241.461,336.271 C241.267,336.382 241.11,336.499 240.99,336.622 C240.905,336.714 240.832,336.788 240.772,336.851 L240.963,337.733 C241.052,338.154 241.099,338.56 241.099,338.939 C241.099,339.334 240.933,339.688 240.608,339.995 C240.283,340.295 239.821,340.448 239.224,340.448 C238.673,340.448 238.262,340.242 238,339.832 C237.761,339.465 237.638,339.032 237.638,338.547 C237.638,338.057 237.777,337.551 238.047,337.05 C238.313,336.552 238.71,336.085 239.23,335.658 C239.744,335.233 240.377,334.887 241.113,334.624 C241.849,334.366 242.706,334.232 243.657,334.232 C244.751,334.232 245.678,334.4 246.41,334.733 C247.136,335.063 247.719,335.47 248.142,335.947 C248.554,336.413 248.843,336.913 249.003,337.436 C249.156,337.943 249.234,338.388 249.234,338.755 C249.234,339.215 249.169,339.68 249.04,340.133 C248.91,340.598 248.697,341.035 248.401,341.435 C248.08,341.865 247.653,342.261 247.135,342.605 C246.768,342.852 246.329,343.068 245.828,343.248 C246.125,343.308 246.43,343.384 246.745,343.484 C247.321,343.668 247.85,343.94 248.314,344.295 C248.802,344.676 249.207,345.163 249.514,345.749 C249.827,346.343 249.986,347.099 249.986,347.994 C249.986,349.734 249.28,351.167 247.885,352.253 C246.509,353.317 244.774,353.858 242.723,353.858 C241.888,353.858 241.111,353.749 240.411,353.541 C239.706,353.328 239.094,353.037 238.594,352.677 C238.079,352.311 237.677,351.882 237.395,351.4 C237.109,350.913 236.964,350.4 236.964,349.88 C236.964,349.409 237.08,348.974 237.314,348.595 C237.566,348.178 237.989,347.956 238.537,347.956 C239.124,347.956 239.583,348.109 239.906,348.408 C240.228,348.714 240.396,349.074 240.396,349.475 C240.396,349.77 240.349,350.143 240.257,350.586 C240.183,350.921 240.123,351.181 240.075,351.369 C240.119,351.412 240.185,351.47 240.281,351.547 L240.281,351.547 Z M132.408,246.043 C132.408,246.043 133.469,246.009 134.706,245.267 C135.937,244.53 137.321,243.685 138.406,244.416 C139.483,245.147 142.415,246.115 142.415,246.115 C142.415,246.115 141.388,245.914 146.899,247.088 C152.408,248.264 152.69,244.271 152.69,244.271 L152.76,244.211 C152.61,243.287 152.02,242.003 150.456,240.302 C145.373,234.768 146.308,212.816 157.361,210.975 C157.849,213.747 158.636,216.487 159.614,219.133 C159.865,219.815 160.109,220.499 160.41,221.158 C160.703,221.834 160.961,222.466 161.284,223.171 C161.587,223.796 161.895,224.425 162.203,225.047 C162.5,225.676 162.87,226.321 163.202,226.952 C164.443,229.201 165.798,231.312 167.286,233.266 C167.353,233.474 167.421,233.683 167.5,233.889 L168.077,235.455 C168.278,235.974 168.502,236.473 168.714,236.982 C168.931,237.488 169.138,238.007 169.369,238.49 C169.643,239.049 169.894,239.523 170.172,240.02 C171.261,241.968 172.525,243.732 173.866,245.341 C174.032,245.537 174.199,245.742 174.364,245.935 C174.536,246.131 174.711,246.32 174.881,246.51 C175.228,246.892 175.562,247.274 175.917,247.625 C176.277,247.979 176.632,248.324 176.983,248.666 C177.004,248.688 177.023,248.709 177.046,248.728 C174.28,248.673 170.18,247.966 164.995,245.279 C160.703,243.052 156.162,253.253 156.162,253.253 C155.005,255.307 151.97,257.345 148.224,255.045 C144.477,252.744 139.946,252.715 139.946,252.715 L138.913,253.641 C136.602,254.81 136.81,253.021 136.81,253.021 C137.62,252.595 135.869,251.149 135.542,251.917 C135.219,252.686 134.97,252.438 134.97,252.438 C132.604,252.261 130.811,250.097 129.423,249.437 C128.033,248.77 127.782,248.384 127.782,248.384 C127.587,247.045 132.408,246.043 132.408,246.043 L132.408,246.043 Z M134.692,163.64 C132.165,162.856 130.361,157.836 130.135,156.73 C129.869,155.446 130.835,155.934 130.835,155.934 C130.32,154.094 131.048,154.225 131.048,154.225 C131.048,154.225 132.602,155.984 134.588,155.93 C134.618,155.93 134.654,155.93 134.692,155.93 L134.692,163.64 Z M244.727,212.702 C244.727,212.702 256.435,224.504 242.72,232.09 C242.743,231.989 242.767,231.879 242.784,231.782 L242.928,230.767 L242.945,230.665 L242.954,230.566 L242.96,230.516 L242.988,230.074 C243.003,229.784 243.028,229.499 243.038,229.208 C243.043,228.857 243.038,228.503 243.02,228.151 C244.236,227.527 249.486,224.095 244.727,212.702 L244.727,212.702 Z M180.53,95.745 C186.44,94.308 192.165,98.103 192.585,98.389 C192.61,98.407 192.634,98.422 192.657,98.441 C192.822,98.557 192.972,98.711 193.139,98.843 C193.305,98.988 193.461,99.152 193.624,99.313 C193.773,99.489 193.948,99.64 194.085,99.83 C194.234,100.01 194.389,100.183 194.523,100.377 C194.656,100.566 194.816,100.734 194.932,100.927 C195.052,101.118 195.191,101.288 195.302,101.462 C195.408,101.642 195.527,101.807 195.629,101.959 C195.839,102.263 195.992,102.538 196.129,102.717 C196.256,102.903 196.337,103.006 196.337,103.006 C196.337,103.006 196.336,102.875 196.31,102.651 C196.276,102.43 196.253,102.1 196.14,101.733 C196.041,101.357 195.889,100.927 195.67,100.491 C195.566,100.268 195.433,100.048 195.292,99.832 C195.168,99.607 194.99,99.407 194.825,99.2 C194.664,98.989 194.462,98.812 194.272,98.63 C194.08,98.455 193.864,98.307 193.659,98.162 C193.565,98.103 193.471,98.05 193.375,97.997 C194.84,97.388 198.424,96.686 204.382,100.295 C204.382,100.295 207.131,101.382 208.558,104.941 C208.558,104.941 208.64,104.974 208.778,105.035 C210.489,105.031 212.548,105.098 214.882,105.446 C216.093,105.63 217.374,105.892 218.695,106.298 C220.015,106.707 221.374,107.269 222.684,108.09 C223.981,108.914 225.215,110.046 226.081,111.511 C226.962,112.97 227.416,114.725 227.481,116.51 C227.539,118.3 227.235,120.108 226.746,121.882 C226.485,122.765 226.2,123.651 225.855,124.516 C225.521,125.365 225.185,126.226 224.845,127.092 C224.184,128.818 223.571,130.588 223.069,132.404 C222.568,134.218 222.169,136.084 222.061,137.944 C222.02,138.652 222.034,139.363 222.105,140.053 C223.223,140.087 224.121,141 224.121,142.125 C224.121,142.683 223.893,143.191 223.533,143.563 C223.673,143.646 223.814,143.732 223.965,143.814 C224.864,144.309 226.016,144.795 227.407,145.1 C228.102,145.264 228.852,145.362 229.661,145.498 C230.48,145.642 231.319,145.846 232.187,146.123 C233.911,146.686 235.726,147.541 237.388,148.842 C238.807,149.957 240.129,151.43 240.982,153.239 C241.512,154.021 241.958,154.854 242.283,155.745 C243.04,157.743 243.217,159.941 242.856,161.974 C242.48,164.007 241.645,165.874 240.582,167.47 C239.521,169.078 238.26,170.451 236.93,171.643 C236.271,172.243 235.591,172.792 234.907,173.312 C234.575,173.562 234.249,173.809 233.924,174.056 C233.626,174.296 233.341,174.522 233.056,174.781 C231.928,175.771 230.977,176.87 230.392,178.052 C229.804,179.229 229.583,180.478 229.747,181.664 C229.9,182.86 230.402,183.965 230.989,184.934 C231.594,185.91 232.297,186.757 233,187.488 C233.707,188.228 234.405,188.869 235.064,189.419 C236.38,190.519 237.517,191.267 238.287,191.78 C238.742,192.074 239.073,192.277 239.277,192.395 C239.458,192.494 239.568,192.548 239.568,192.548 L239.498,192.726 C239.498,192.726 239.464,192.719 239.413,192.7 L239.392,192.744 L239.29,192.702 L239.279,192.725 C239.279,192.725 239.009,192.628 238.502,192.451 C237.998,192.256 237.267,191.959 236.353,191.542 C236.328,191.53 236.297,191.519 236.276,191.504 C235.338,191.102 234.233,190.59 233.014,189.909 C231.726,189.197 230.319,188.304 228.89,187.141 C228.181,186.55 227.47,185.895 226.804,185.128 C226.131,184.366 225.507,183.484 225.032,182.463 C224.554,181.444 224.225,180.266 224.242,179.029 C224.249,177.792 224.596,176.544 225.168,175.451 C225.735,174.34 226.509,173.371 227.369,172.515 C228.234,171.646 229.167,170.891 230.169,170.181 C230.686,169.813 231.132,169.535 231.676,169.191 C232.165,168.895 232.649,168.582 233.123,168.253 C234.072,167.605 234.981,166.897 235.837,166.137 C237.541,164.609 239.024,162.819 239.886,160.792 C240.111,160.267 240.288,159.729 240.415,159.183 C240.43,158.901 240.434,158.62 240.428,158.341 C240.341,157.746 240.203,157.159 239.995,156.582 C239.421,154.985 238.411,153.5 237.086,152.32 C235.763,151.13 234.134,150.237 232.38,149.743 C231.557,149.508 230.485,149.343 229.504,149.079 C228.511,148.823 227.516,148.515 226.54,148.118 C225.565,147.716 224.603,147.216 223.724,146.549 C222.871,145.901 222.113,145.077 221.557,144.132 C220.65,143.911 219.971,143.1 219.971,142.125 C219.971,141.624 220.157,141.173 220.446,140.814 C220.31,139.808 220.31,138.805 220.383,137.832 C220.546,135.787 221.021,133.846 221.576,131.974 C222.143,130.105 222.815,128.31 223.52,126.57 C224.242,124.807 225.004,123.195 225.507,121.519 C226.012,119.848 226.323,118.166 226.323,116.534 C226.317,114.905 225.957,113.336 225.215,112.011 C224.482,110.681 223.397,109.614 222.211,108.808 C221.014,108.002 219.734,107.421 218.471,106.99 C217.206,106.555 215.964,106.26 214.782,106.045 C212.865,105.697 211.12,105.551 209.608,105.483 C210.864,106.258 212.843,107.932 213.302,110.991 C213.495,112.301 213.507,114.272 211.953,115.406 C211.193,115.961 210.575,116.413 210.061,116.786 C209.945,116.571 209.822,116.35 209.683,116.131 C209.475,115.798 209.269,115.433 209.032,115.08 C208.78,114.731 208.522,114.372 208.259,114.003 C207.967,113.649 207.67,113.287 207.368,112.917 C207.05,112.557 206.709,112.208 206.369,111.842 C206.012,111.496 205.644,111.148 205.262,110.802 C204.869,110.474 204.479,110.129 204.06,109.813 C203.227,109.177 202.353,108.571 201.439,108.032 C199.615,106.942 197.671,106.077 195.797,105.456 C194.865,105.129 193.938,104.898 193.065,104.679 C192.186,104.472 191.352,104.31 190.573,104.198 C190.1,104.123 189.652,104.071 189.228,104.028 C189.194,103.994 189.167,103.965 189.132,103.935 C189.131,103.928 189.124,103.926 189.124,103.926 L189.042,103.924 C188.742,103.607 188.395,103.339 188.07,103.047 C187.901,102.9 187.717,102.773 187.542,102.634 C187.366,102.499 187.188,102.358 186.995,102.237 C186.806,102.112 186.623,101.981 186.423,101.87 L185.805,101.541 C185.59,101.45 185.377,101.346 185.15,101.263 C184.915,101.185 184.687,101.1 184.433,101.049 C184.198,100.993 183.944,100.963 183.676,100.956 C183.547,100.956 183.414,100.96 183.275,100.983 C183.2,100.99 183.11,101.014 183.026,101.033 C182.988,101.041 182.94,101.057 182.889,101.076 C182.84,101.094 182.798,101.105 182.696,101.161 L182.796,101.113 C182.158,101.363 181.536,101.668 180.939,102.027 L180.903,102.007 C180.626,102.173 180.355,102.347 180.092,102.536 L177.138,102.003 C177.138,102.003 177.24,101.068 178.674,100.582 C177.937,99.446 176.547,96.715 180.53,95.745 L180.53,95.745 Z M138.014,190.567 C139.151,188.939 140.633,188.065 142.028,186.115 C143.418,184.164 146.026,178.853 146.026,178.853 C147.958,173.938 151.168,173.941 151.168,173.941 C157.554,173.24 166.426,167.107 171.529,161.392 C175.661,156.771 178.36,157.078 179.238,157.366 C182.161,147.839 172.383,143.297 172.383,143.297 L172.383,143.294 C161.011,139.11 151.943,129.303 151.943,129.303 C148.676,128.368 149.296,124.832 149.604,124.263 C149.912,123.692 149.378,121.1 149.378,121.1 C149.378,121.1 148.418,117.08 150.052,116.949 C151.691,116.82 151.418,118.517 152.121,118.067 C152.826,117.616 153.435,117.856 153.435,117.856 C153.435,117.856 156.448,118.929 161.806,114.638 C165.466,111.709 171.88,109.158 175.581,107.833 C168.425,108.372 168.613,106.872 168.613,106.872 L175.427,104.118 L177.99,104.528 C177.208,105.33 176.538,106.251 176.032,107.244 C175.95,107.411 175.877,107.584 175.805,107.753 C175.445,108.558 175.163,109.386 174.964,110.229 C174.951,110.268 174.948,110.306 174.933,110.341 C174.879,110.585 174.825,110.828 174.778,111.074 C174.536,112.382 174.446,113.71 174.469,115.017 L174.469,115.026 C174.49,116.322 174.575,117.604 174.731,118.891 C174.909,120.187 175.105,121.461 175.618,122.805 C175.759,123.152 175.897,123.474 176.19,123.87 L176.264,123.963 L176.347,124.058 L176.402,124.123 C176.487,124.21 176.59,124.306 176.725,124.403 C176.858,124.495 177.045,124.606 177.312,124.658 C177.578,124.713 177.902,124.662 178.115,124.559 C178.542,124.345 178.679,124.126 178.824,123.961 C178.956,123.784 179.049,123.634 179.143,123.489 L179.626,122.687 C180.24,121.692 180.969,120.943 181.926,120.56 C182.041,120.514 182.173,120.465 182.279,120.435 C182.326,120.419 182.413,120.396 182.49,120.376 L182.685,120.335 C182.967,120.278 183.24,120.211 183.534,120.179 C183.82,120.13 184.113,120.095 184.417,120.076 C184.711,120.042 185.011,120.029 185.316,120.021 C186.177,119.986 187.052,119.993 187.928,120.029 L187.932,120.022 C188.29,120.036 188.647,120.052 189.001,120.072 C190.022,120.135 191.046,120.216 192.074,120.294 C192.299,120.311 192.519,120.33 192.743,120.345 C193.371,120.393 194.007,120.438 194.648,120.473 C194.979,120.487 195.318,120.507 195.629,120.501 L195.862,120.503 L196.113,120.498 L196.585,120.487 C197.208,120.473 197.83,120.467 198.409,120.498 C198.984,120.523 199.542,120.653 199.708,120.873 C199.909,121.08 199.917,121.679 199.803,122.245 C199.719,122.789 199.5,123.195 199.072,123.427 C198.645,123.663 198.045,123.7 197.46,123.641 C196.863,123.58 196.263,123.439 195.671,123.261 C195.283,123.14 194.897,123 194.512,122.851 C194.429,122.821 194.343,122.789 194.262,122.754 C193.565,122.476 192.881,122.166 192.209,121.821 C193.236,122.556 194.324,123.213 195.503,123.727 C196.089,123.984 196.699,124.207 197.352,124.335 C198,124.457 198.72,124.525 199.446,124.228 C199.805,124.086 200.139,123.822 200.375,123.501 C200.607,123.179 200.749,122.803 200.827,122.467 C200.907,122.152 200.978,121.787 200.986,121.414 C200.994,121.042 200.931,120.585 200.65,120.179 C200.365,119.78 199.944,119.555 199.582,119.437 C199.218,119.31 198.871,119.256 198.537,119.213 C197.865,119.125 197.223,119.114 196.588,119.095 L196.116,119.084 L195.895,119.077 L195.662,119.065 C195.335,119.055 195.053,119.024 194.756,119 C194.141,118.938 193.521,118.864 192.9,118.789 C192.571,118.75 192.24,118.712 191.911,118.673 C191.52,118.625 191.13,118.584 190.735,118.54 C190.2,118.483 189.663,118.426 189.124,118.383 C187.854,118.276 186.57,118.197 185.265,118.215 C184.943,118.218 184.611,118.227 184.283,118.253 C183.951,118.266 183.623,118.295 183.287,118.341 C182.955,118.371 182.612,118.438 182.276,118.506 C182.188,118.526 182.12,118.538 182.011,118.562 L181.763,118.63 C181.564,118.685 181.406,118.747 181.227,118.813 C180.533,119.088 179.888,119.508 179.353,120.012 C178.815,120.514 178.383,121.095 178.023,121.659 L177.558,122.419 C177.537,122.382 177.516,122.344 177.498,122.303 C177.485,122.272 177.474,122.245 177.46,122.215 C177.443,122.17 177.422,122.126 177.408,122.083 C177.02,121.073 176.813,119.841 176.661,118.645 C176.511,117.434 176.424,116.202 176.394,114.984 C176.39,114.682 176.388,114.384 176.392,114.087 L176.392,114.085 C176.392,114.068 176.394,114.054 176.394,114.039 C176.4,113.79 176.411,113.54 176.428,113.292 C176.432,113.197 176.441,113.101 176.447,113.006 C176.459,112.835 176.476,112.66 176.497,112.488 C176.509,112.386 176.517,112.28 176.532,112.178 C176.557,111.983 176.588,111.786 176.617,111.593 C176.629,111.533 176.634,111.472 176.644,111.412 C176.849,110.245 177.19,109.114 177.701,108.079 C177.883,107.716 178.087,107.368 178.305,107.032 C178.328,106.994 178.353,106.962 178.377,106.924 C178.483,106.763 178.594,106.605 178.709,106.451 C178.774,106.367 178.841,106.287 178.906,106.205 C178.997,106.096 179.082,105.983 179.176,105.878 C179.349,105.684 179.53,105.496 179.723,105.319 C180.382,104.702 181.145,104.194 181.964,103.78 L181.904,103.77 C182.118,103.662 182.33,103.558 182.554,103.463 L182.62,103.431 L182.62,103.428 L182.625,103.428 C182.647,103.423 182.656,103.412 182.69,103.409 C182.746,103.395 182.812,103.386 182.887,103.382 C182.969,103.374 183.055,103.372 183.145,103.374 C183.242,103.373 183.344,103.374 183.449,103.392 C183.623,103.403 183.804,103.45 183.985,103.487 C184.168,103.531 184.352,103.6 184.537,103.653 L185.086,103.876 L185.636,104.138 C185.822,104.216 186.003,104.321 186.185,104.42 C186.342,104.511 186.507,104.598 186.663,104.694 C186.663,104.694 186.669,104.694 186.674,104.696 C186.687,104.709 186.706,104.717 186.724,104.728 C187.073,104.96 187.438,105.164 187.785,105.41 C187.909,105.496 188.039,105.58 188.165,105.666 L188.168,105.668 C188.391,105.822 188.616,105.973 188.831,106.144 C189.17,106.401 189.532,106.635 189.864,106.908 C190.2,107.167 190.537,107.426 190.884,107.68 L190.884,107.678 C190.889,107.682 190.89,107.687 190.899,107.693 C190.799,107.558 190.694,107.431 190.594,107.298 C190.433,107.085 190.269,106.87 190.106,106.659 C190.025,106.557 189.941,106.464 189.857,106.365 C189.733,106.218 189.609,106.071 189.478,105.926 L189.841,106.179 C190.481,106.386 191.15,106.621 191.859,106.862 C192.675,107.161 193.529,107.492 194.398,107.86 C195.271,108.22 196.148,108.634 197.035,109.063 C197.907,109.516 198.801,109.973 199.647,110.495 C200.512,110.993 201.335,111.559 202.135,112.119 C202.536,112.403 202.913,112.708 203.297,112.992 C203.669,113.298 204.036,113.6 204.396,113.897 C204.742,114.209 205.084,114.519 205.417,114.818 C205.739,115.136 206.054,115.446 206.361,115.746 C206.94,116.377 207.499,116.976 207.975,117.564 C208.09,117.696 208.195,117.83 208.298,117.965 C208.35,118.028 208.398,118.091 208.449,118.158 C208.449,118.16 208.45,118.164 208.45,118.164 C208.516,118.249 208.581,118.337 208.647,118.419 C208.854,118.695 209.069,118.949 209.245,119.205 C209.582,119.722 209.918,120.156 210.158,120.536 C210.629,121.299 210.925,121.734 210.925,121.734 C210.925,121.734 210.917,121.705 210.903,121.657 C212.704,124.807 213.355,127.192 213.355,127.192 C213.355,127.192 215.292,131.784 217.735,140.844 C221.727,155.648 222.468,158.885 221.253,167.036 C220.402,172.764 217.635,178.042 220.179,186.033 C227.864,210.168 221.891,224.113 214.718,231.86 C215.2,233.915 217.162,237.522 225.017,237.869 C228.928,238.039 231.557,236.854 233.253,235.064 L233.665,234.737 L234.054,234.355 C234.564,233.826 235.021,233.224 235.366,232.561 C235.702,231.899 235.983,231.203 236.126,230.494 C236.28,229.791 236.353,229.085 236.346,228.415 C236.334,227.061 236.053,225.838 235.664,224.864 C235.655,224.842 235.644,224.824 235.636,224.804 C235.381,223.686 234.981,222.797 234.514,222.307 C233.356,221.09 229.651,219.628 228.57,223.279 C228.57,223.279 227.72,227.004 234.589,228.541 C234.529,229.038 234.428,229.54 234.295,230.034 C234.139,230.598 233.916,231.138 233.646,231.652 C233.534,231.879 233.4,232.094 233.261,232.305 C230.243,231.563 221.716,228.67 225.113,220.114 C228.507,211.559 242.777,217.688 241.323,230.436 C239.744,244.31 220.041,253.823 207.648,237.661 C205.433,239.026 203.551,239.835 202.47,240.249 C205.385,243.299 203.171,245.044 202.415,247.11 C201.565,249.421 205.615,251.192 209.776,254.255 C213.936,257.317 213.476,258.906 210.804,264.33 C208.128,269.753 209.943,273.249 209.943,273.249 C210.024,275.941 209.664,280.258 209.094,282.641 C208.527,285.017 208.289,285.175 207.6,286.044 C206.906,286.912 206.671,286.093 206.49,285.415 C206.308,284.74 205.316,284.494 205.197,285.084 C205.081,285.682 205.003,286.078 205.003,286.078 C204.745,288.737 199.096,288.528 198.057,288.332 C197.022,288.142 197.679,287.568 197.679,287.568 C196.151,287.402 196.468,286.896 196.468,286.896 C196.468,286.896 198.25,286.268 198.811,284.767 C199.377,283.271 199.473,281.9 200.348,280.183 C202.92,275.105 203.678,269.471 203.9,266.75 C203.092,263.622 200.19,260.636 193.183,257.66 C192.597,257.41 192.028,257.152 191.472,256.882 C191.049,256.614 190.466,256.225 189.718,255.775 C189.325,255.525 188.919,255.207 188.457,254.882 C188.009,254.545 187.5,254.224 186.988,253.831 C185.984,253.021 184.83,252.157 183.679,251.091 C183.389,250.823 183.073,250.583 182.787,250.294 C182.497,250.007 182.203,249.715 181.904,249.421 C181.288,248.848 180.704,248.206 180.105,247.554 C179.479,246.915 178.924,246.185 178.312,245.484 C178.022,245.126 177.745,244.743 177.45,244.377 C177.304,244.188 177.158,244.001 177.008,243.814 C176.872,243.619 176.734,243.423 176.595,243.226 C176.031,242.444 175.495,241.63 174.964,240.801 C174.458,239.959 173.948,239.102 173.493,238.225 C173.392,238.031 173.292,237.833 173.193,237.637 C173.097,237.437 173.012,237.251 172.931,237.07 C172.908,237.021 172.88,236.967 172.864,236.924 C172.653,236.445 172.472,235.968 172.272,235.493 C172.081,235.017 171.873,234.54 171.693,234.058 L171.173,232.604 C170.488,230.671 169.915,228.707 169.541,226.755 C169.523,226.662 169.51,226.57 169.493,226.475 C169.404,226.007 169.327,225.54 169.259,225.073 C169.208,224.727 169.164,224.38 169.126,224.037 C169.103,223.843 169.088,223.652 169.073,223.461 C169.047,223.208 169.028,222.956 169.011,222.703 C168.999,222.548 168.992,222.397 168.985,222.242 C168.964,221.83 168.953,221.417 168.956,221.016 C168.961,220.606 168.984,220.203 169.011,219.8 C169.022,219.662 169.034,219.528 169.046,219.386 C169.068,219.125 169.096,218.86 169.128,218.6 C169.146,218.444 169.166,218.293 169.188,218.143 C169.243,217.791 169.301,217.441 169.369,217.094 C169.463,216.638 169.571,216.19 169.697,215.751 C170.157,214.116 170.847,212.648 171.643,211.368 C171.809,211.101 171.986,210.841 172.162,210.588 C172.231,210.486 172.301,210.39 172.375,210.29 C172.466,210.168 172.553,210.046 172.649,209.93 C172.86,209.657 173.07,209.391 173.287,209.138 L173.29,209.138 C173.6,208.774 173.913,208.425 174.224,208.106 C175.113,207.217 175.968,206.497 176.711,205.949 C177.46,205.413 178.077,205.007 178.513,204.757 C178.947,204.502 179.191,204.384 179.191,204.384 C179.191,204.384 178.921,204.422 178.427,204.551 C177.939,204.693 177.212,204.896 176.33,205.284 C175.452,205.666 174.393,206.187 173.27,206.959 C172.147,207.725 170.949,208.735 169.836,210.037 C168.902,211.126 168.032,212.429 167.333,213.91 C167.198,214.195 167.066,214.482 166.945,214.782 C166.19,216.623 165.698,218.693 165.521,220.843 C165.49,221.193 165.473,221.548 165.462,221.901 C165.457,221.989 165.455,222.072 165.455,222.16 C165.447,222.494 165.439,222.838 165.447,223.183 L165.447,223.218 C165.455,223.596 165.47,223.977 165.49,224.359 C165.496,224.399 165.498,224.434 165.5,224.471 C165.521,224.814 165.551,225.155 165.585,225.494 C165.346,224.959 165.102,224.441 164.877,223.87 C164.621,223.223 164.363,222.574 164.107,221.922 C163.891,221.334 163.666,220.649 163.448,220.021 C163.213,219.38 163.032,218.722 162.85,218.073 C162.106,215.464 161.559,212.811 161.319,210.181 C161.068,207.556 161.075,204.964 161.319,202.491 C161.793,197.536 163.232,193.095 164.919,189.546 C165.6,188.112 166.309,186.831 167.013,185.687 C167.21,185.719 167.402,185.757 167.598,185.78 C167.903,185.81 168.215,185.833 168.521,185.84 C168.831,185.847 169.143,185.842 169.45,185.816 C169.763,185.798 170.068,185.752 170.377,185.71 C170.987,185.606 171.593,185.45 172.178,185.254 C172.475,185.166 172.753,185.034 173.039,184.923 C173.324,184.803 173.594,184.665 173.873,184.532 L173.973,184.475 C174.168,184.363 174.466,184.202 174.727,184.074 C174.995,183.942 175.277,183.818 175.56,183.7 C176.121,183.457 176.696,183.261 177.275,183.091 C177.563,183.007 177.856,182.925 178.15,182.866 C178.442,182.801 178.732,182.746 179.026,182.697 L179.987,182.58 C180.436,182.524 180.803,182.438 181.186,182.328 C182.696,181.867 184.009,181.002 185,179.878 C185.49,179.311 185.902,178.677 186.173,177.982 C186.431,177.29 186.562,176.52 186.378,175.836 C186.227,176.355 185.979,176.795 185.672,177.183 C185.586,177.296 185.49,177.406 185.389,177.51 C184.964,177.977 184.467,178.358 183.95,178.691 C182.91,179.345 181.759,179.769 180.637,179.921 C180.362,179.959 180.06,179.98 179.831,179.98 L179.583,179.975 L179.341,179.98 L178.774,179.989 C178.397,180.019 178.017,180.035 177.645,180.102 C177.275,180.158 176.908,180.234 176.544,180.316 C175.815,180.49 175.113,180.733 174.428,181.013 C174.088,181.163 173.752,181.315 173.422,181.491 C173.097,181.657 172.813,181.813 172.463,182.041 C172.262,182.149 172.063,182.266 171.858,182.364 C171.637,182.463 171.417,182.584 171.196,182.673 C170.974,182.772 170.747,182.866 170.518,182.943 C170.292,183.028 170.057,183.09 169.83,183.168 C169.61,183.232 169.389,183.284 169.164,183.33 C168.996,183.372 168.822,183.394 168.652,183.425 C168.609,183.431 168.561,183.441 168.517,183.445 C167.997,183.524 167.468,183.565 166.931,183.562 C166.686,183.557 166.431,183.552 166.181,183.533 C165.929,183.517 165.679,183.483 165.427,183.445 C165.17,183.412 164.915,183.368 164.661,183.313 C164.41,183.257 164.151,183.201 163.899,183.128 C163.645,183.056 163.39,182.981 163.134,182.897 C162.883,182.805 162.623,182.725 162.37,182.623 C161.866,182.416 161.363,182.193 160.862,181.926 L160.864,181.927 C160.04,181.471 158.626,181.113 156.614,182.079 C154.773,182.957 154.441,184.553 153.369,186.493 C152.705,188.108 151.906,189.554 151.042,191.193 C149.62,193.878 149.285,193.995 148.186,194.824 C147.085,195.656 147.055,194.592 147.048,193.721 C147.039,192.852 145.921,192.251 145.597,192.929 C145.269,193.604 145.054,194.063 145.054,194.063 C143.916,197.174 137.192,195.175 136.002,194.624 C134.812,194.068 135.779,193.585 135.779,193.585 C133.993,192.908 134.533,192.395 134.533,192.395 C134.533,192.395 136.871,192.197 138.014,190.567 L138.014,190.567 Z M140.556,156.506 C142.951,156.465 148.775,155.396 148.775,155.396 C153.871,154.027 155.777,156.606 155.777,156.606 C158.354,159.386 162.964,161.736 167.877,163.338 C167.627,163.523 167.365,163.71 167.098,163.907 C166.587,164.299 166.018,164.675 165.457,165.1 C164.877,165.497 164.294,165.923 163.683,166.334 C163.079,166.75 162.465,167.171 161.836,167.57 C161.225,167.997 160.579,168.369 159.966,168.77 C159.336,169.137 158.734,169.533 158.119,169.869 C157.525,170.227 156.93,170.534 156.368,170.844 C156.089,171.008 155.806,171.124 155.538,171.27 C155.403,171.338 155.267,171.408 155.134,171.479 C155.052,170.732 155.105,170.265 155.105,170.265 C155.105,170.265 155.841,167.603 152.481,165.82 C150.684,164.866 149.203,165.552 147.002,165.843 L147.002,165.84 C145.315,166.272 143.678,166.49 141.843,166.771 C139.807,167.083 139.015,167.089 138.306,166.942 L138.306,175.836 C138.202,177.519 135.726,177.519 135.617,175.836 L135.617,163.74 C135.599,163.741 135.584,163.737 135.567,163.74 L135.567,154.4 C135.576,147.661 135.617,120.505 135.617,108.53 C135.726,106.848 138.202,106.848 138.306,108.53 L138.306,156.354 C138.993,156.449 139.725,156.52 140.556,156.506 L140.556,156.506 Z M93.569,109.773 L133.841,109.773 L133.841,145.357 L93.569,145.357 L106.425,127.567 L93.569,109.773 Z M360.826,278.802 L273.088,278.802 C283.78,264.742 291.004,248.261 291.004,229.067 L291.004,60.065 L69.826,60.065 L69.826,229.067 C69.826,248.261 77.046,264.742 87.739,278.802 L0,278.802 L24.509,312.1 L0,345.394 L44.167,345.394 L44.167,303.264 L90.675,282.488 C97.611,290.867 105.728,298.342 114.168,304.979 L46.214,304.979 L46.214,370.215 L314.613,370.215 L314.613,304.979 L246.656,304.979 C255.098,298.342 263.214,290.867 270.152,282.488 L316.66,303.264 L316.66,345.394 L360.826,345.394 L336.317,312.1 L360.826,278.802 L360.826,278.802 Z" id="Fill-10"></path>
                <path d="M154.215,121.901 L154.072,121.734 L154,121.653 L153.938,121.586 L153.925,121.569 L153.894,121.54 L153.778,121.429 C153.636,121.271 153.505,121.113 153.42,120.936 C153.324,120.764 153.266,120.576 153.225,120.389 C153.145,120.009 153.16,119.641 153.193,119.38 C153.193,119.367 153.193,119.358 153.195,119.345 L153.254,118.957 C153.254,118.957 153.112,119.043 152.927,119.262 C152.836,119.371 152.726,119.51 152.632,119.694 C152.537,119.873 152.435,120.095 152.385,120.359 C152.333,120.621 152.311,120.926 152.371,121.247 C152.423,121.569 152.557,121.896 152.742,122.197 L152.757,122.22 L151.95,127.512 C151.95,127.512 151.988,127.504 152.064,127.493 C152.131,127.469 152.255,127.46 152.381,127.394 C152.513,127.339 152.68,127.269 152.841,127.149 C153.016,127.042 153.188,126.895 153.369,126.725 C153.455,126.633 153.544,126.54 153.636,126.443 C153.718,126.336 153.804,126.226 153.889,126.111 C154.051,125.877 154.206,125.615 154.335,125.327 C154.461,125.04 154.57,124.725 154.638,124.392 C154.674,124.224 154.693,124.047 154.716,123.871 C154.723,123.691 154.723,123.508 154.716,123.323 C154.665,122.939 154.615,122.594 154.384,122.182 C154.331,122.085 154.268,121.969 154.215,121.901" id="Fill-11"></path>
                <polyline id="Fill-12" points="180.972 55.811 224.584 55.811 224.584 48.804 187.982 48.804 180.972 55.811"></polyline>
                <path d="M678.969,287.027 C675.671,284.111 671.608,284.063 667.449,284.063 L667.449,307.201 L668.834,307.201 C671.99,307.201 674.62,307.057 677.44,305.48 C680.881,303.568 682.747,299.599 682.747,295.727 C682.747,292.524 681.408,289.179 678.969,287.027 Z M680.834,311.025 C677.44,312.89 672.898,313.32 669.074,313.32 L660.899,313.32 L660.899,277.944 L668.93,277.944 C673.854,277.944 679.591,278.661 683.463,282.056 C687.24,285.401 689.295,290.708 689.295,295.727 C689.295,301.751 686.236,308.061 680.834,311.025 L680.834,311.025 Z" id="Fill-13"></path>
                <polyline id="Fill-14" points="698.805 313.32 698.805 277.944 717.832 277.944 717.832 284.063 705.355 284.063 705.355 292.716 717.306 292.716 717.306 298.835 705.355 298.835 705.355 307.201 717.832 307.201 717.832 313.32 698.805 313.32"></polyline>
                <polyline id="Fill-15" points="740.268 284.063 740.268 313.32 733.718 313.32 733.718 284.063 727.169 284.063 727.169 277.944 746.865 277.944 746.865 284.063 740.268 284.063"></polyline>
                <polyline id="Fill-16" points="798.492 313.32 783.719 287.6 783.624 287.6 783.624 313.32 777.075 313.32 777.075 277.944 784.532 277.944 799.161 303.663 799.256 303.663 799.256 277.944 805.806 277.944 805.806 313.32 798.492 313.32"></polyline>
                <path d="M834.723,283.346 C827.935,283.346 822.772,289.035 822.772,295.68 C822.772,302.277 828.031,307.918 834.723,307.918 C841.417,307.918 846.675,302.277 846.675,295.68 C846.675,289.035 841.512,283.346 834.723,283.346 Z M834.723,314.037 C824.588,314.037 816.222,305.91 816.222,295.727 C816.222,285.449 824.493,277.226 834.723,277.226 C844.954,277.226 853.223,285.449 853.223,295.727 C853.223,305.91 844.858,314.037 834.723,314.037 L834.723,314.037 Z" id="Fill-17"></path>
                <path d="M874.303,284.063 L870.093,284.063 L870.093,294.867 L874.303,294.867 C877.793,294.867 880.613,293.146 880.613,289.417 C880.613,285.784 877.643,284.063 874.303,284.063 Z M879.563,313.32 L870.193,299.791 L870.093,299.791 L870.093,313.32 L863.543,313.32 L863.543,277.944 L874.393,277.944 C877.503,277.944 880.513,278.326 883.003,280.334 C885.633,282.437 887.163,285.545 887.163,288.891 C887.163,291.903 885.923,295.25 883.763,297.353 C881.953,299.074 880.273,299.695 877.883,300.269 L887.493,313.32 L879.563,313.32 L879.563,313.32 Z" id="Fill-18"></path>
                <path d="M907.013,314.037 C900.753,314.037 895.783,309.448 895.493,303.185 L902.383,303.185 C902.613,305.862 904.243,307.918 907.063,307.918 C909.603,307.918 911.943,306.149 911.943,303.473 C911.943,299.457 908.303,298.691 905.203,297.497 C904.103,297.066 903.053,296.683 901.993,296.158 C898.413,294.294 896.783,291.378 896.783,287.313 C896.783,281.481 901.373,277.226 907.163,277.226 C912.893,277.226 917.343,281.577 917.633,287.313 L910.933,287.313 C910.743,284.924 909.453,283.346 906.973,283.346 C904.913,283.346 903.333,284.828 903.333,286.932 C903.333,290.326 906.583,290.995 909.213,291.855 C914.573,293.624 918.493,296.54 918.493,302.755 C918.493,309.448 913.613,314.037 907.013,314.037" id="Fill-19"></path>
                <polyline id="Fill-20" points="947.923 313.32 936.883 297.783 936.783 297.783 936.783 313.32 930.233 313.32 930.233 277.944 936.783 277.944 936.783 293.242 936.883 293.242 947.923 277.944 955.623 277.944 942.283 295.346 955.623 313.32 947.923 313.32"></polyline>
                <polyline id="Fill-21" points="964.853 313.32 964.853 277.944 983.873 277.944 983.873 284.063 971.403 284.063 971.403 292.716 983.353 292.716 983.353 298.835 971.403 298.835 971.403 307.201 983.873 307.201 983.873 313.32 964.853 313.32"></polyline>
                <path d="M1025.653,314.037 C1019.393,314.037 1014.413,309.448 1014.133,303.185 L1021.013,303.185 C1021.253,305.862 1022.883,307.918 1025.703,307.918 C1028.233,307.918 1030.573,306.149 1030.573,303.473 C1030.573,299.457 1026.943,298.691 1023.833,297.497 C1022.733,297.066 1021.683,296.683 1020.633,296.158 C1017.043,294.294 1015.423,291.378 1015.423,287.313 C1015.423,281.481 1020.013,277.226 1025.793,277.226 C1031.533,277.226 1035.983,281.577 1036.263,287.313 L1029.573,287.313 C1029.383,284.924 1028.093,283.346 1025.603,283.346 C1023.553,283.346 1021.973,284.828 1021.973,286.932 C1021.973,290.326 1025.223,290.995 1027.853,291.855 C1033.203,293.624 1037.123,296.54 1037.123,302.755 C1037.123,309.448 1032.253,314.037 1025.653,314.037" id="Fill-22"></path>
                <polyline id="Fill-23" points="1058.113 284.063 1058.113 313.32 1051.563 313.32 1051.563 284.063 1045.013 284.063 1045.013 277.944 1064.713 277.944 1064.713 284.063 1058.113 284.063"></polyline>
                <path d="M1097.083,308.778 C1094.693,312.173 1090.583,314.037 1086.513,314.037 C1082.553,314.037 1078.393,312.221 1076.003,308.97 C1074.233,306.628 1073.803,303.281 1073.803,300.413 L1073.803,277.944 L1080.353,277.944 L1080.353,300.413 C1080.353,304.524 1081.693,307.918 1086.473,307.918 C1091.253,307.918 1092.593,304.524 1092.593,300.413 L1092.593,277.944 L1099.143,277.944 L1099.143,300.413 C1099.143,303.281 1098.753,306.341 1097.083,308.778" id="Fill-24"></path>
                <path d="M1129.763,287.027 C1126.463,284.111 1122.393,284.063 1118.233,284.063 L1118.233,307.201 L1119.623,307.201 C1122.783,307.201 1125.413,307.057 1128.233,305.48 C1131.673,303.568 1133.533,299.599 1133.533,295.727 C1133.533,292.524 1132.193,289.179 1129.763,287.027 Z M1131.623,311.025 C1128.233,312.89 1123.683,313.32 1119.863,313.32 L1111.693,313.32 L1111.693,277.944 L1119.723,277.944 C1124.643,277.944 1130.383,278.661 1134.253,282.056 C1138.033,285.401 1140.083,290.708 1140.083,295.727 C1140.083,301.751 1137.023,308.061 1131.623,311.025 L1131.623,311.025 Z" id="Fill-25"></path>
                <polyline id="Fill-26" points="1151.393 313.32 1151.393 277.944 1170.423 277.944 1170.423 284.063 1157.943 284.063 1157.943 292.716 1169.893 292.716 1169.893 298.835 1157.943 298.835 1157.943 307.201 1170.423 307.201 1170.423 313.32 1151.393 313.32"></polyline>
                <polyline id="Fill-27" points="1204.323 313.32 1189.543 287.6 1189.453 287.6 1189.453 313.32 1182.903 313.32 1182.903 277.944 1190.363 277.944 1204.983 303.663 1205.083 303.663 1205.083 277.944 1211.633 277.944 1211.633 313.32 1204.323 313.32"></polyline>
                <polyline id="Fill-28" points="1234.273 284.063 1234.273 313.32 1227.723 313.32 1227.723 284.063 1221.173 284.063 1221.173 277.944 1240.873 277.944 1240.873 284.063 1234.273 284.063"></polyline>
                <polyline id="Fill-29" points="1250.093 313.32 1250.093 277.944 1269.123 277.944 1269.123 284.063 1256.643 284.063 1256.643 292.716 1268.593 292.716 1268.593 298.835 1256.643 298.835 1256.643 307.201 1269.123 307.201 1269.123 313.32 1250.093 313.32"></polyline>
                <path d="M1291.393,284.063 L1287.193,284.063 L1287.193,294.867 L1291.393,294.867 C1294.883,294.867 1297.703,293.146 1297.703,289.417 C1297.703,285.784 1294.743,284.063 1291.393,284.063 Z M1296.653,313.32 L1287.283,299.791 L1287.193,299.791 L1287.193,313.32 L1280.643,313.32 L1280.643,277.944 L1291.493,277.944 C1294.603,277.944 1297.613,278.326 1300.093,280.334 C1302.723,282.437 1304.253,285.545 1304.253,288.891 C1304.253,291.903 1303.013,295.25 1300.863,297.353 C1299.043,299.074 1297.373,299.695 1294.983,300.269 L1304.593,313.32 L1296.653,313.32 L1296.653,313.32 Z" id="Fill-30"></path>
                <path d="M1324.113,314.037 C1317.843,314.037 1312.873,309.448 1312.593,303.185 L1319.473,303.185 C1319.713,305.862 1321.333,307.918 1324.153,307.918 C1326.693,307.918 1329.033,306.149 1329.033,303.473 C1329.033,299.457 1325.403,298.691 1322.293,297.497 C1321.193,297.066 1320.143,296.683 1319.093,296.158 C1315.503,294.294 1313.883,291.378 1313.883,287.313 C1313.883,281.481 1318.473,277.226 1324.253,277.226 C1329.993,277.226 1334.433,281.577 1334.723,287.313 L1328.033,287.313 C1327.843,284.924 1326.553,283.346 1324.063,283.346 C1322.003,283.346 1320.433,284.828 1320.433,286.932 C1320.433,290.326 1323.683,290.995 1326.313,291.855 C1331.663,293.624 1335.583,296.54 1335.583,302.755 C1335.583,309.448 1330.703,314.037 1324.113,314.037" id="Fill-31"></path>
                <path d="M1358.143,287.171 L1358.053,287.171 L1354.033,298.022 L1362.163,298.022 L1358.143,287.171 Z M1368.283,313.32 L1364.503,304.189 L1351.833,304.189 L1348.063,313.32 L1340.843,313.32 L1355.563,277.944 L1360.683,277.944 L1375.503,313.32 L1368.283,313.32 L1368.283,313.32 Z" id="Fill-32"></path>
                <polyline id="Fill-33" points="1413.643 313.32 1413.643 286.788 1413.503 286.788 1404.463 313.32 1398.923 313.32 1389.833 286.788 1389.743 286.788 1389.743 313.32 1383.193 313.32 1383.193 277.944 1392.273 277.944 1401.693 304.715 1401.783 304.715 1411.113 277.944 1420.193 277.944 1420.193 313.32 1413.643 313.32"></polyline>
                <polyline id="Fill-34" points="1439.543 284.063 1439.543 292.716 1450.493 292.716 1450.493 298.835 1439.543 298.835 1439.543 313.32 1432.993 313.32 1432.993 277.944 1451.013 277.944 1451.013 284.063 1439.543 284.063"></polyline>
                <path d="M1484.723,308.778 C1482.333,312.173 1478.223,314.037 1474.163,314.037 C1470.193,314.037 1466.033,312.221 1463.643,308.97 C1461.873,306.628 1461.443,303.281 1461.443,300.413 L1461.443,277.944 L1467.993,277.944 L1467.993,300.413 C1467.993,304.524 1469.333,307.918 1474.113,307.918 C1478.893,307.918 1480.233,304.524 1480.233,300.413 L1480.233,277.944 L1486.783,277.944 L1486.783,300.413 C1486.783,303.281 1486.403,306.341 1484.723,308.778" id="Fill-35"></path>
                <polyline id="Fill-36" points="1520.053 313.32 1505.283 287.6 1505.183 287.6 1505.183 313.32 1498.633 313.32 1498.633 277.944 1506.093 277.944 1520.723 303.663 1520.813 303.663 1520.813 277.944 1527.363 277.944 1527.363 313.32 1520.053 313.32"></polyline>
                <path d="M1557.523,287.027 C1554.233,284.111 1550.163,284.063 1546.003,284.063 L1546.003,307.201 L1547.393,307.201 C1550.543,307.201 1553.173,307.057 1555.993,305.48 C1559.443,303.568 1561.303,299.599 1561.303,295.727 C1561.303,292.524 1559.963,289.179 1557.523,287.027 Z M1559.393,311.025 C1555.993,312.89 1551.453,313.32 1547.633,313.32 L1539.453,313.32 L1539.453,277.944 L1547.483,277.944 C1552.413,277.944 1558.143,278.661 1562.023,282.056 C1565.793,285.401 1567.853,290.708 1567.853,295.727 C1567.853,301.751 1564.793,308.061 1559.393,311.025 L1559.393,311.025 Z" id="Fill-37"></path>
                <path d="M467.3,245.177 C427.839,245.177 398.334,217.662 398.334,177.476 C398.334,136.387 428.745,110.14 467.843,110.14 C485.764,110.14 505.132,116.656 515.813,128.965 L494.815,149.963 C489.022,141.998 478.705,138.196 468.93,138.196 C447.389,138.196 432.002,154.85 432.002,177.476 C432.002,200.828 447.027,216.757 468.386,216.757 C480.515,216.757 490.109,211.327 495.539,203.724 L517.08,223.998 C505.857,237.031 488.841,245.177 467.3,245.177" id="Fill-38"></path>
                <polyline id="Fill-39" points="615.84 241.737 615.84 188.157 565.88 188.157 565.88 241.737 534.926 241.737 534.926 113.579 565.88 113.579 565.88 162.091 615.84 162.091 615.84 113.579 646.793 113.579 646.793 241.737 615.84 241.737"></polyline>
                <path d="M728.248,147.79 L711.957,191.777 L744.177,191.777 L728.248,147.79 Z M762.641,241.737 L752.685,216.576 L703.086,216.576 L693.674,241.737 L660.005,241.737 L713.767,113.579 L743.815,113.579 L797.034,241.737 L762.641,241.737 L762.641,241.737 Z" id="Fill-40"></path>
                <polyline id="Fill-41" points="851.878 140.007 851.878 241.737 820.925 241.737 820.925 140.007 784.722 140.007 784.722 113.579 888.083 113.579 888.083 140.007 851.878 140.007"></polyline>
                <polyline id="Fill-42" points="906.343 241.737 906.343 113.579 992.503 113.579 992.503 139.826 936.213 139.826 936.213 163.9 989.433 163.9 989.433 188.7 936.213 188.7 936.213 215.309 995.763 215.309 995.763 241.737 906.343 241.737"></polyline>
                <path d="M1078.123,147.79 L1061.833,191.777 L1094.053,191.777 L1078.123,147.79 Z M1112.523,241.737 L1102.563,216.576 L1052.963,216.576 L1043.553,241.737 L1009.883,241.737 L1063.643,113.579 L1093.693,113.579 L1146.913,241.737 L1112.523,241.737 L1112.523,241.737 Z" id="Fill-43"></path>
                <path d="M1206.823,245.177 C1173.153,245.177 1152.163,224.179 1152.163,193.406 L1152.163,113.579 L1182.933,113.579 L1182.933,190.872 C1182.933,204.629 1189.633,217.3 1207.003,217.3 C1224.563,217.3 1231.083,204.629 1231.083,190.872 L1231.083,113.579 L1262.033,113.579 L1262.033,193.406 C1262.033,224.179 1240.313,245.177 1206.823,245.177" id="Fill-44"></path>
                <polyline id="Fill-45" points="1413.723 241.737 1362.133 157.928 1361.593 157.928 1362.313 241.737 1332.263 241.737 1332.263 113.579 1367.563 113.579 1418.973 197.208 1419.513 197.208 1418.793 113.579 1448.843 113.579 1448.843 241.737 1413.723 241.737"></polyline>
                <polyline id="Fill-46" points="1476.893 241.737 1476.893 113.579 1563.053 113.579 1563.053 139.826 1506.763 139.826 1506.763 163.9 1559.983 163.9 1559.983 188.7 1506.763 188.7 1506.763 215.309 1566.313 215.309 1566.313 241.737 1476.893 241.737"></polyline>
                <path d="M1641.253,245.177 C1607.583,245.177 1586.583,224.179 1586.583,193.406 L1586.583,113.579 L1617.363,113.579 L1617.363,190.872 C1617.363,204.629 1624.053,217.3 1641.433,217.3 C1658.993,217.3 1665.513,204.629 1665.513,190.872 L1665.513,113.579 L1696.463,113.579 L1696.463,193.406 C1696.463,224.179 1674.743,245.177 1641.253,245.177" id="Fill-47"></path>
                <polyline id="Fill-48" points="1750.403 140.007 1750.403 166.434 1800.003 166.434 1800.003 191.958 1750.403 191.958 1750.403 241.737 1719.813 241.737 1719.813 113.579 1804.163 113.579 1804.163 140.007 1750.403 140.007"></polyline>
            </g>
        </g>
    </g>
</svg>