<?xml version="1.0" encoding="UTF-8"?>
<svg width="848px" height="606px" viewBox="0 0 848 606" version="1.1" xmlns="http://www.w3.org/2000/svg" xmlns:xlink="http://www.w3.org/1999/xlink">
    <!-- Generator: Sketch 56.3 (81716) - https://sketch.com -->
    <title>logo-xxl-nowhitespace</title>
    <desc>Created with Sketch.</desc>
    <g id="logo-xxl-nowhitespace" stroke="none" stroke-width="1" fill="none" fill-rule="evenodd">
        <rect fill="#FFFFFF" x="0" y="0" width="848" height="606"></rect>
        <g id="Group" transform="translate(234.000000, 15.000000)" fill="#000000">
            <path d="M138.755357,24.0380849 C138.885529,24.0380849 139.010968,24.0120505 139.135815,24.0002166 L144.149814,48.0743947 L181.511031,48.0743947 L190.383455,30.2780702 L199.255879,48.0743947 L236.480414,48.0743947 L241.499147,23.9795074 C243.145826,23.7014121 244.399622,22.2789842 244.399622,20.5547933 C244.399622,18.6329772 242.842288,17.0715016 240.916922,17.0715016 C238.995106,17.0715016 237.435406,18.6329772 237.435406,20.5547933 C237.435406,21.9032597 238.213481,23.0623846 239.335329,23.6398761 L222.820018,34.9636803 L217.115514,21.1813953 C218.611312,20.7914701 219.72251,19.4435954 219.72251,17.822359 C219.72251,15.9005429 218.164584,14.3402507 216.242176,14.3402507 C214.319177,14.3402507 212.760068,15.9005429 212.760068,17.822359 C212.760068,19.4495124 213.881325,20.8062624 215.387181,21.1879039 L209.432983,35.2370421 C209.432983,35.2370421 192.20705,20.611004 191.69642,8.21682876 C193.354341,7.6411123 194.547784,6.08496197 194.547784,4.23414896 C194.547784,1.89400654 192.653778,4.01456646e-13 190.31186,4.01456646e-13 C187.977635,4.01456646e-13 186.079486,1.89400654 186.079486,4.23414896 C186.079486,6.08496197 187.275888,7.6411123 188.930259,8.21682876 C188.42022,20.6127791 171.193104,35.2370421 171.193104,35.2370421 L165.266715,21.2488482 C166.921678,20.9802199 168.189674,19.5542419 168.189674,17.822359 C168.189674,15.9005429 166.630566,14.3402507 164.705199,14.3402507 C162.785158,14.3402507 161.222499,15.9005429 161.222499,17.822359 C161.222499,19.3382742 162.198791,20.6127791 163.549625,21.0938248 L157.807844,34.9636803 L140.842255,23.3292377 C141.682458,22.6931687 142.238057,21.693209 142.238057,20.5547933 C142.238057,18.6329772 140.678357,17.0715016 138.755357,17.0715016 C136.828808,17.0715016 135.272657,18.6329772 135.272657,20.5547933 C135.272657,22.4766093 136.828808,24.0380849 138.755357,24.0380849" id="Fill-1"></path>
            <polyline id="Fill-2" points="144.218451 51.3529609 144.218451 58.7266283 190.381088 58.7266283 183.008604 51.3529609 144.218451 51.3529609"></polyline>
            <path d="M180.554857,364.44094 C180.845969,364.987664 181.211043,365.414274 181.644162,365.719587 C182.064263,366.019575 182.595603,366.169273 183.229305,366.169273 C184.277192,366.169273 185.088402,365.67166 185.705537,364.648624 C186.344564,363.59482 186.667037,362.103756 186.667037,360.223359 C186.667037,359.558297 186.598992,358.844124 186.466453,358.103917 C186.334506,357.376728 186.137472,356.749534 185.875944,356.248963 C185.604949,355.725315 185.24875,355.301072 184.810898,354.984516 C184.385472,354.679795 183.852949,354.52418 183.229305,354.52418 C182.589094,354.52418 182.035862,354.683345 181.587951,354.995759 C181.127023,355.313497 180.749523,355.761408 180.461961,356.317599 C180.184457,356.847163 179.986241,357.458381 179.872044,358.135277 C179.757847,358.826965 179.697495,359.508003 179.697495,360.157089 C179.697495,361.011493 179.767906,361.809685 179.90577,362.529183 C180.042451,363.243355 180.261969,363.887116 180.554857,364.44094" id="Fill-3"></path>
            <path d="M225.818122,356.006369 C226.386738,355.608752 226.813348,355.096346 227.071918,354.475069 C227.357113,353.78634 227.50267,352.956787 227.50267,352.00653 C227.50267,350.972252 227.196173,350.121399 226.587322,349.483555 C225.976104,348.837427 225.209271,348.52383 224.25073,348.52383 C223.28923,348.52383 222.525947,348.825001 221.917688,349.444503 C221.307653,350.068738 221.008848,350.819004 221.008848,351.74796 C221.008848,352.630173 221.34848,353.358546 222.041943,353.976865 C222.741915,354.602283 224.013461,355.286279 225.818122,356.006369" id="Fill-4"></path>
            <path d="M224.25073,366.169273 C225.427605,366.169273 226.367804,365.82905 227.049433,365.154521 C227.742305,364.473483 228.078386,363.62973 228.078386,362.575927 C228.078386,362.053462 227.964781,361.590167 227.743488,361.200242 C227.516279,360.80085 227.181381,360.431634 226.747079,360.09792 C226.320469,359.767756 225.711618,359.41274 224.930584,359.046483 C224.186235,358.689693 223.362008,358.319885 222.47447,357.945344 C221.710004,358.384971 221.137837,358.935837 220.772763,359.586106 C220.386388,360.277203 220.191722,361.075987 220.191722,361.960567 C220.191722,363.222054 220.563304,364.251007 221.297594,365.01784 C222.038984,365.794732 223.005809,366.169273 224.25073,366.169273" id="Fill-5"></path>
            <polyline id="Fill-6" points="123.653007 358.867792 128.685349 358.867792 126.151723 352.378113 123.653007 358.867792"></polyline>
            <path d="M241.112772,154.565371 C241.326373,154.596139 241.541749,154.636374 241.760675,154.679568 C242.255921,154.775422 242.763002,154.902636 243.268898,155.041092 C243.341677,155.057067 243.414455,155.07186 243.486049,155.083102 C243.966503,155.168305 244.531569,155.268301 245.090127,155.413858 C245.975298,155.641067 246.838577,155.948747 247.67168,156.330389 C246.494804,155.549947 245.260534,154.948196 244.055849,154.500285 C243.194937,154.181955 242.3429,153.939361 241.529324,153.758303 C240.703321,153.591446 239.88797,153.435239 239.147171,153.223413 C237.686283,152.829346 236.478639,152.253038 235.544949,151.686789 C236.483965,152.684382 237.751369,153.41808 239.132379,153.939361 C239.773773,154.181955 240.435285,154.385497 241.112772,154.565371" id="Fill-7"></path>
            <path d="M242.706791,182.567793 C242.270122,182.908016 241.853571,183.264807 241.464237,183.640531 C240.68202,184.376596 239.996841,185.177156 239.508695,186.026826 C239.256634,186.450477 239.064334,186.893063 238.925286,187.333282 C238.788014,187.777051 238.688018,188.228512 238.6679,188.677015 C238.624115,189.576387 238.793339,190.478717 239.142437,191.331346 C239.646559,192.547273 240.413392,193.638353 241.253595,194.60932 C240.690896,193.699298 240.222867,192.649044 239.980865,191.455601 C239.823475,190.669242 239.773773,189.827856 239.870219,188.98292 C239.967848,188.135616 240.2063,187.285355 240.556582,186.484795 C241.259512,184.874209 242.380177,183.45829 243.669474,182.213961 C243.983071,181.904506 244.343411,181.598602 244.687184,181.299205 C245.020899,181.02821 245.358755,180.753665 245.698978,180.476162 C245.893053,180.319955 246.080028,180.159606 246.264636,180.000441 C245.540996,180.550715 244.809073,181.077913 244.075966,181.566059 C243.575395,181.908057 243.142276,182.225204 242.706791,182.567793" id="Fill-8"></path>
            <path d="M183.226938,124.599123 C183.183153,124.389072 183.094991,124.128136 182.951802,123.84294 C182.657139,123.276691 182.107457,122.675532 181.317548,122.33945 C181.118148,122.25543 180.903955,122.187386 180.676745,122.144192 C180.545981,122.128216 180.416401,122.109282 180.287412,122.09449 C180.184457,122.091531 180.079136,122.09094 179.977365,122.089756 C179.681519,122.086798 179.481527,122.14005 179.266743,122.212828 C179.060242,122.285606 178.885693,122.383236 178.743687,122.492699 C178.454941,122.712808 178.295776,122.949485 178.210572,123.124034 C178.123594,123.30805 178.103476,123.418105 178.103476,123.418105 C178.103476,123.418105 178.211756,123.392071 178.394589,123.383787 C178.480976,123.376687 178.585705,123.368995 178.698718,123.376687 C178.808773,123.376687 178.929478,123.376687 179.049592,123.402129 C179.170297,123.422839 179.292186,123.45479 179.40224,123.490883 C179.505787,123.53526 179.643651,123.58082 179.689803,123.637031 L179.714062,123.650048 L179.775006,123.67845 L179.895712,123.740577 L179.912279,123.746494 L179.918196,123.751228 C179.903404,123.746494 179.872044,123.739394 179.872044,123.739394 L179.877961,123.742352 L179.880919,123.745311 L179.903404,123.761287 L179.942455,123.796196 L180.023517,123.861283 C180.137714,123.951811 180.261969,124.038199 180.39155,124.128136 C180.916381,124.480193 181.572567,124.751188 182.161301,124.865976 C182.457739,124.91982 182.728734,124.946446 182.935826,124.949404 C183.034638,124.95473 183.127534,124.946446 183.183153,124.942896 C183.244689,124.940529 183.276049,124.940529 183.276049,124.940529 C183.276049,124.940529 183.27309,124.907394 183.264215,124.847633 C183.258298,124.787872 183.252973,124.696752 183.226938,124.599123" id="Fill-9"></path>
            <path d="M255.574912,320.907783 L244.890727,320.907783 C251.891628,315.968928 258.844602,310.553762 265.311797,304.548087 C275.181814,295.382184 282.850736,285.831681 288.119754,276.160473 C294.226017,264.957374 297.326484,253.189801 297.326484,241.195609 L297.326484,72.2462021 L82.3528955,72.2462021 L82.3528955,241.192059 C82.3528955,253.189801 85.4468537,264.95619 91.5513415,276.160473 C96.8203601,285.831681 104.495199,295.382184 114.361665,304.545128 C120.827677,310.551987 127.78361,315.968928 134.782736,320.907783 L124.098551,320.907783 C98.9616939,301.713881 75.8951675,275.581206 75.8951675,241.030527 L75.8951675,65.6257587 L303.781845,65.6257587 L303.781845,241.030527 C303.781845,275.581206 280.710585,301.713881 255.574912,320.907783 L255.574912,320.907783 Z M245.669985,367.349699 L236.180427,367.349699 L236.180427,365.848576 L236.437221,365.82905 C236.707624,365.808932 237.130092,365.771064 237.704034,365.714853 C238.270875,365.653317 238.656658,365.594148 238.843633,365.539121 C239.070843,365.467526 239.242433,365.350371 239.355447,365.194756 C239.469643,365.040324 239.526446,364.782347 239.526446,364.433248 L239.526446,355.112914 L236.124807,355.112914 L236.124807,353.413574 L237.151393,353.413574 C238.091592,353.413574 238.943629,353.237841 239.680286,352.892885 C240.417534,352.54852 240.947098,352.178712 241.258329,351.794112 L241.339982,351.688791 L242.893766,351.688791 L242.882523,351.97872 C242.857081,352.572188 242.828679,353.261509 242.80087,354.052601 C242.77306,354.86677 242.759451,355.564375 242.759451,356.176184 L242.759451,364.28355 C242.759451,364.558687 242.816846,364.792405 242.935184,365.000681 C243.049381,365.204815 243.206179,365.349188 243.412088,365.439717 C243.623914,365.527879 243.994313,365.616632 244.509085,365.694736 C245.036283,365.774614 245.429166,365.818991 245.67886,365.82905 L245.945714,365.837334 L245.945714,367.349699 L245.669985,367.349699 Z M218.670481,355.191609 C218.064588,354.374482 217.754542,353.433691 217.754542,352.402964 C217.754542,350.837938 218.426112,349.507814 219.752094,348.456969 C221.057367,347.417957 222.640144,346.89076 224.455455,346.89076 C226.272542,346.89076 227.771298,347.392515 228.90853,348.383007 C230.05523,349.378233 230.636271,350.648596 230.636271,352.158003 C230.636271,353.134887 230.316166,354.068577 229.68128,354.937181 C229.150532,355.664962 228.402633,356.287423 227.453559,356.794503 C228.728656,357.398029 229.68128,358.062499 230.287765,358.774896 C231.001937,359.606224 231.362869,360.668903 231.362869,361.935124 C231.362869,363.54216 230.661714,364.942695 229.278338,366.093536 C227.913304,367.234319 226.101543,367.812994 223.894531,367.812994 C221.824792,367.812994 220.136102,367.279879 218.878757,366.231401 C217.60721,365.171088 216.962266,363.784162 216.962266,362.111448 C216.962266,360.868895 217.345091,359.814499 218.104232,358.980805 C218.756868,358.261899 219.685825,357.638256 220.873351,357.11875 C219.92191,356.530016 219.182886,355.88448 218.670481,355.191609 L218.670481,355.191609 Z M210.009291,365.004231 C210.122305,365.204815 210.280286,365.349188 210.485012,365.439717 C210.700388,365.527879 211.067237,365.616632 211.583193,365.694736 C212.108615,365.774614 212.505641,365.818991 212.755335,365.82905 L213.019821,365.837334 L213.019821,367.349699 L203.255717,367.349699 L203.255717,365.848576 L203.510145,365.82905 C203.781732,365.808932 204.205383,365.771064 204.780508,365.714853 C205.346166,365.653317 205.730766,365.594148 205.918924,365.539121 C206.1485,365.467526 206.315357,365.353329 206.430737,365.194756 C206.546117,365.040324 206.604103,364.784713 206.604103,364.433248 L206.604103,355.112914 L203.197732,355.112914 L203.197732,353.413574 L204.226684,353.413574 C205.166883,353.413574 206.018328,353.237841 206.754985,352.892885 C207.491641,352.54852 208.023573,352.178712 208.332436,351.794112 L208.414089,351.688791 L209.971423,351.688791 L209.956631,351.97872 C209.928821,352.572188 209.901012,353.261509 209.874977,354.052601 C209.847168,354.834227 209.834742,355.550766 209.834742,356.176184 L209.834742,364.28355 C209.834742,364.558687 209.892136,364.792405 210.009291,365.004231 L210.009291,365.004231 Z M176.316566,360.389032 C176.316566,358.221664 176.960327,356.42292 178.231282,355.03481 C179.505787,353.6396 181.196251,352.93667 183.257115,352.93667 C185.213841,352.93667 186.852828,353.604099 188.129108,354.925939 C189.403021,356.246004 190.047965,358.018122 190.047965,360.197324 C190.047965,361.170066 189.889984,362.139849 189.582304,363.080048 C189.271665,364.023797 188.820796,364.842107 188.244488,365.503619 C187.588301,366.26276 186.816143,366.834335 185.952864,367.204142 C185.090769,367.570992 184.114477,367.760333 183.053573,367.760333 C182.160118,367.760333 181.299205,367.589926 180.496871,367.253253 C179.691578,366.915988 178.964388,366.421334 178.338378,365.774614 C177.72361,365.138545 177.225997,364.356328 176.863881,363.449264 C176.502357,362.543975 176.316566,361.510289 176.316566,360.389032 L176.316566,360.389032 Z M163.204668,354.533055 C163.540749,354.219458 163.867363,353.959706 164.169718,353.757347 C164.528283,353.528954 164.955485,353.33192 165.441264,353.181039 C165.930594,353.02424 166.489151,352.949095 167.096227,352.949095 C168.475462,352.949095 169.516248,353.391089 170.191369,354.264427 C170.850514,355.120014 171.185412,356.254879 171.185412,357.653048 L171.185412,364.66815 C171.185412,364.939145 171.228014,365.152154 171.314992,365.305402 C171.394871,365.447409 171.53451,365.557463 171.741602,365.642075 C171.944553,365.727279 172.119102,365.788815 172.2688,365.821358 C172.406664,365.856268 172.613757,365.881119 172.882385,365.897686 L173.142138,365.914254 L173.142138,367.349699 L166.001005,367.349699 L166.001005,365.917804 L166.250699,365.897686 C166.42584,365.881711 166.612223,365.868693 166.81399,365.852718 L166.948304,365.841475 C167.171964,365.827275 167.358347,365.794732 167.504495,365.744438 C167.69502,365.683494 167.832884,365.584089 167.919863,365.434391 C168.016309,365.272859 168.065419,365.053342 168.065419,364.778205 L168.065419,357.845348 C168.065419,356.96136 167.861877,356.274997 167.455384,355.810519 C167.054809,355.348999 166.57968,355.125339 166.011656,355.125339 C165.563745,355.125339 165.147193,355.196934 164.777977,355.333615 C164.400478,355.475621 164.062622,355.648987 163.770326,355.856079 C163.494597,356.046604 163.274488,356.252513 163.116506,356.469664 C162.969766,356.671431 162.856753,356.837105 162.777466,356.96136 L162.777466,364.64034 C162.777466,364.895951 162.82776,365.103044 162.927164,365.259842 C163.02361,365.410724 163.171533,365.527879 163.386318,365.620774 C163.5585,365.704203 163.746658,365.766331 163.946058,365.807157 C164.160843,365.849167 164.38036,365.881119 164.602837,365.897686 L164.857264,365.91662 L164.857264,367.349699 L157.699564,367.349699 L157.699564,365.917804 L157.953992,365.897686 L158.284156,365.871652 L158.606037,365.841475 C158.80662,365.827275 158.977028,365.794732 159.123767,365.747396 C159.317251,365.683494 159.452748,365.584089 159.54091,365.434391 C159.637356,365.27641 159.6841,365.056892 159.6841,364.778205 L159.6841,356.461972 C159.6841,356.196894 159.629664,355.953708 159.516651,355.73419 C159.403046,355.514673 159.252165,355.33894 159.061048,355.206993 C158.916675,355.116464 158.738576,355.047236 158.535625,355.003451 C158.314333,354.958482 158.068189,354.924756 157.807844,354.905821 L157.551641,354.889254 L157.551641,353.472743 L157.807844,353.456176 L162.292279,353.153821 L162.417718,353.147312 L162.504105,353.236658 L162.697588,353.425999 L162.777466,353.505286 L162.777466,354.937181 C162.909414,354.808784 163.048461,354.677428 163.204668,354.533055 L163.204668,354.533055 Z M144.558674,354.533055 C144.90008,354.219458 145.224919,353.959706 145.526682,353.757347 C145.884064,353.528954 146.313041,353.33192 146.797637,353.181039 C147.287558,353.02424 147.843157,352.949095 148.453191,352.949095 C149.828876,352.949095 150.870845,353.391089 151.548333,354.264427 C152.207478,355.120014 152.542376,356.254879 152.542376,357.653048 L152.542376,364.66815 C152.542376,364.939145 152.587344,365.152154 152.67314,365.305402 C152.750651,365.447409 152.888516,365.557463 153.098566,365.642075 C153.297967,365.727279 153.476066,365.788815 153.622806,365.821358 C153.761262,365.856268 153.968354,365.881119 154.240532,365.897686 L154.496735,365.914254 L154.496735,367.349699 L147.356194,367.349699 L147.356194,365.917804 L147.608847,365.897686 C147.781621,365.881711 147.968595,365.868693 148.168587,365.852718 L148.302902,365.841475 C148.530111,365.827275 148.712944,365.794732 148.861459,365.744438 C149.051984,365.683494 149.187481,365.584089 149.275643,365.434391 C149.370906,365.272859 149.422383,365.053342 149.422383,364.778205 L149.422383,357.845348 C149.422383,356.96136 149.214107,356.274997 148.812348,355.810519 C148.410589,355.348999 147.938419,355.125339 147.367436,355.125339 C146.919525,355.125339 146.505341,355.196934 146.134942,355.333615 C145.757442,355.475621 145.417219,355.648987 145.12729,355.856079 C144.852153,356.046604 144.629085,356.252513 144.471103,356.469664 C144.324364,356.671431 144.21135,356.837105 144.13443,356.96136 L144.13443,364.64034 C144.13443,364.895951 144.183541,365.103044 144.282945,365.259842 C144.381758,365.410724 144.527314,365.527879 144.742098,365.620774 C144.913689,365.704203 145.103622,365.766331 145.301839,365.807157 C145.516623,365.849167 145.739691,365.881119 145.960392,365.897686 L146.211861,365.91662 L146.211861,367.349699 L139.060079,367.349699 L139.060079,365.917804 L139.308589,365.897686 L139.63757,365.871652 L139.961226,365.841475 C140.162401,365.827275 140.333992,365.794732 140.479548,365.747396 C140.671848,365.683494 140.808529,365.584089 140.895508,365.434391 C140.993137,365.27641 141.040472,365.056892 141.040472,364.778205 L141.040472,356.461972 C141.040472,356.196894 140.984261,355.953708 140.873615,355.73419 C140.764744,355.518223 140.606762,355.335982 140.415645,355.206993 C140.273639,355.116464 140.097907,355.047236 139.892589,355.003451 C139.670113,354.958482 139.423969,354.924756 139.165991,354.905821 L138.909789,354.889254 L138.909789,353.472743 L139.165991,353.456176 L143.650426,353.153821 L143.775865,353.147312 L143.864619,353.236658 L144.05396,353.425999 L144.13443,353.505286 L144.13443,354.937181 C144.264011,354.808784 144.409567,354.677428 144.558674,354.533055 L144.558674,354.533055 Z M116.90535,370.551937 L245.945714,370.551937 L245.945714,372.424051 L116.630213,372.424051 L116.630213,370.551937 L116.90535,370.551937 Z M131.003598,365.065767 C130.989989,364.965179 130.966322,364.879976 130.937329,364.804831 L129.394787,360.633993 L122.962502,360.633993 C122.735292,361.213851 122.55601,361.699631 122.414004,362.117365 C122.252472,362.588352 122.112832,363.027388 121.985027,363.420271 C121.87083,363.796587 121.789177,364.110776 121.745391,364.347453 C121.705156,364.578804 121.683855,364.764596 121.683855,364.900093 C121.683855,365.13322 121.91284,365.330253 122.361343,365.487644 C122.9057,365.679352 123.532302,365.794732 124.225173,365.82905 L124.484926,365.841475 L124.484926,367.349699 L116.630213,367.349699 L116.630213,365.849167 L116.881682,365.82905 C117.110075,365.812483 117.393496,365.759822 117.72721,365.676985 C118.051457,365.600657 118.317719,365.495927 118.512977,365.369305 C118.850834,365.142095 119.11532,364.90246 119.294011,364.660458 C119.479802,364.408989 119.666777,364.055157 119.848426,363.609613 C120.834186,361.148173 121.919349,358.387338 123.071965,355.40876 C124.250024,352.372787 125.295544,349.669346 126.217992,347.300211 L126.28722,347.125661 L127.756984,347.125661 L134.29104,364.035039 C134.417662,364.366387 134.562035,364.630282 134.715283,364.823173 C134.870898,365.020207 135.09515,365.21724 135.369103,365.401848 C135.553711,365.516045 135.804588,365.616632 136.112268,365.691777 C136.430599,365.774614 136.699227,365.818991 136.907503,365.82905 L137.169031,365.839109 L137.169031,367.349699 L128.551626,367.349699 L128.551626,365.845026 L128.811379,365.82905 C129.493008,365.78704 130.069908,365.698286 130.523144,365.565155 C130.96218,365.43735 131.024899,365.32197 131.024899,365.32197 C131.026674,365.251558 131.018982,365.165171 131.003598,365.065767 L131.003598,365.065767 Z M252.831235,369.908176 C252.97975,370.028289 253.167908,370.140119 253.397484,370.240707 C253.669663,370.369695 253.959592,370.475017 254.268455,370.551937 C254.56371,370.629448 254.995053,370.667317 255.554794,370.667317 C256.064833,370.667317 256.568954,370.581521 257.043491,370.409931 C257.505603,370.244257 257.919788,369.972078 258.275986,369.606413 C258.649936,369.213529 258.946373,368.746684 259.158199,368.222445 C259.365291,367.698797 259.473571,366.98995 259.473571,366.117204 C259.473571,365.651542 259.422094,365.179964 259.320323,364.713119 C259.226244,364.274675 259.048144,363.8883 258.789575,363.564644 C258.539881,363.252231 258.188416,363.00372 257.746422,362.824437 C257.290819,362.641013 256.699718,362.5493 255.989096,362.5493 L253.922315,362.5493 L253.922315,360.429267 L255.387937,360.429267 C256.556529,360.429267 257.403832,360.113304 257.900853,359.489069 C258.415626,358.850633 258.676562,357.855407 258.676562,356.533566 C258.676562,355.471479 258.431601,354.667369 257.943455,354.143722 C257.452942,353.618299 256.77013,353.364463 255.85774,353.364463 C255.414563,353.364463 255.051856,353.417124 254.780861,353.516528 C254.489748,353.626583 254.251888,353.731312 254.072605,353.834859 C253.868471,353.95083 253.703389,354.073902 253.576767,354.204074 C253.48683,354.30052 253.411093,354.378624 253.347191,354.444893 L253.548366,355.372666 C253.642445,355.815844 253.692147,356.242454 253.692147,356.642438 C253.692147,357.057214 253.517006,357.42998 253.174417,357.752452 C252.83301,358.068416 252.346048,358.229356 251.718262,358.229356 C251.138404,358.229356 250.706469,358.012205 250.43074,357.581453 C250.179271,357.195078 250.049099,356.739475 250.049099,356.228845 C250.049099,355.714073 250.195838,355.18155 250.480442,354.653761 C250.760313,354.130113 251.177456,353.639008 251.724771,353.189914 C252.265577,352.742003 252.931823,352.378113 253.706348,352.101792 C254.480873,351.829614 255.38202,351.688791 256.383163,351.688791 C257.534596,351.688791 258.509705,351.865707 259.280088,352.215989 C260.043371,352.56272 260.656955,352.991697 261.1025,353.493452 C261.535618,353.983373 261.84034,354.509388 262.00838,355.060253 C262.16932,355.593368 262.250974,356.061988 262.250974,356.448363 C262.250974,356.931775 262.182929,357.421105 262.047432,357.898009 C261.910751,358.387338 261.687091,358.847083 261.374678,359.268368 C261.037413,359.72042 260.587727,360.136972 260.042187,360.499679 C259.656404,360.759432 259.194884,360.986641 258.667686,361.175983 C258.9801,361.238702 259.301389,361.319172 259.632736,361.424494 C260.238037,361.617977 260.79482,361.903173 261.283557,362.277122 C261.796554,362.678289 262.223164,363.190695 262.54682,363.80783 C262.875801,364.432065 263.042658,365.227891 263.042658,366.169273 C263.042658,368.001152 262.300084,369.508783 260.831505,370.650749 C259.384226,371.770231 257.558264,372.34003 255.400362,372.34003 C254.521108,372.34003 253.703981,372.225834 252.967916,372.006316 C252.225342,371.782656 251.581581,371.475568 251.055567,371.097477 C250.513577,370.712285 250.090517,370.260824 249.794079,369.753744 C249.492908,369.241339 249.340843,368.701715 249.340843,368.1544 C249.340843,367.658562 249.462732,367.200592 249.708876,366.802384 C249.973954,366.363348 250.418315,366.129038 250.996398,366.129038 C251.612941,366.129038 252.096945,366.29057 252.435985,366.60535 C252.775024,366.927231 252.95194,367.305914 252.95194,367.72779 C252.95194,368.037837 252.90283,368.43072 252.805201,368.896382 C252.728281,369.249031 252.664378,369.523576 252.614084,369.720609 C252.660828,369.766169 252.730056,369.826522 252.831235,369.908176 L252.831235,369.908176 Z M139.323973,258.893713 C139.323973,258.893713 140.439905,258.85762 141.742219,258.077178 C143.037433,257.301469 144.493588,256.412748 145.63437,257.181947 C146.768052,257.951147 149.853727,258.969449 149.853727,258.969449 C149.853727,258.969449 148.772113,258.758215 154.57188,259.992485 C160.368096,261.230897 160.665125,257.029883 160.665125,257.029883 L160.738495,256.96598 C160.581105,255.994421 159.959828,254.642996 158.314333,252.853128 C152.965436,247.029694 153.94942,223.931216 165.580312,221.993424 C166.093309,224.911058 166.921678,227.793782 167.950039,230.578877 C168.214525,231.296008 168.471912,232.016097 168.788467,232.708969 C169.096738,233.419591 169.367142,234.085836 169.707956,234.826635 C170.026878,235.485188 170.350534,236.1467 170.674781,236.801703 C170.987195,237.463215 171.376528,238.141294 171.726218,238.805173 C173.031491,241.171941 174.457469,243.392562 176.023678,245.449284 C176.09409,245.668802 176.165684,245.887728 176.248521,246.104879 L176.855006,247.752741 C177.066832,248.299465 177.302917,248.824296 177.525985,249.359186 C177.754378,249.8923 177.972712,250.438432 178.215306,250.946696 C178.502868,251.534246 178.767355,252.033634 179.060242,252.556098 C180.205758,254.606312 181.535882,256.46245 182.947068,258.154689 C183.121617,258.361782 183.29735,258.576566 183.471307,258.7807 C183.652365,258.986608 183.836381,259.185417 184.015072,259.384817 C184.380146,259.786576 184.731612,260.188927 185.105561,260.558143 C185.483652,260.930909 185.857602,261.293616 186.227409,261.653957 C186.24871,261.676441 186.268236,261.698925 186.293087,261.719043 C183.382553,261.660465 179.068526,260.9173 173.612533,258.089603 C169.096738,255.746502 164.318824,266.479798 164.318824,266.479798 C163.10053,268.641841 159.907168,270.786133 155.965315,268.366112 C152.02287,265.944908 147.255015,265.914732 147.255015,265.914732 L146.168076,266.888657 C143.736813,268.118785 143.955148,266.236021 143.955148,266.236021 C144.808368,265.78811 142.965838,264.266869 142.620882,265.075121 C142.281842,265.883372 142.019723,265.622436 142.019723,265.622436 C139.529882,265.436644 137.642976,263.159813 136.183271,262.464575 C134.720017,261.762828 134.45553,261.357519 134.45553,261.357519 C134.250805,259.948108 139.323973,258.893713 139.323973,258.893713 L139.323973,258.893713 Z M141.726243,172.187146 C139.067771,171.361144 137.169031,166.079109 136.931762,164.915842 C136.651892,163.564417 137.668419,164.078006 137.668419,164.078006 C137.126429,162.142581 137.892078,162.279853 137.892078,162.279853 C137.892078,162.279853 139.527515,164.130666 141.617964,164.074456 C141.649323,164.074456 141.687192,164.074456 141.726243,164.074456 L141.726243,172.187146 Z M257.509153,223.811694 C257.509153,223.811694 269.828184,236.229537 255.396812,244.212056 C255.421663,244.106143 255.447106,243.989579 255.464857,243.887808 L255.61633,242.819804 L255.634081,242.712116 L255.642956,242.607978 L255.649465,242.555318 L255.679049,242.090839 C255.694433,241.784935 255.721651,241.485538 255.73171,241.179633 C255.737035,240.810418 255.73171,240.437652 255.712184,240.066661 C256.992014,239.411066 262.516052,235.799969 257.509153,223.811694 L257.509153,223.811694 Z M189.959212,100.746237 C196.177896,99.2338723 202.201322,103.226611 202.643316,103.527782 C202.670534,103.546125 202.694793,103.5621 202.719644,103.58281 C202.89301,103.704106 203.050992,103.86623 203.226724,104.005278 C203.401274,104.157343 203.565172,104.3313 203.737355,104.499341 C203.894153,104.685132 204.077578,104.844297 204.221951,105.044289 C204.378749,105.233631 204.542056,105.415872 204.683471,105.619414 C204.82311,105.818814 204.99115,105.99573 205.113039,106.19868 C205.239661,106.399264 205.386401,106.577955 205.502372,106.760788 C205.614794,106.951313 205.739049,107.124679 205.846146,107.284436 C206.06803,107.603949 206.22897,107.893878 206.37216,108.081445 C206.506474,108.277295 206.591678,108.385575 206.591678,108.385575 C206.591678,108.385575 206.590494,108.248302 206.562685,108.012217 C206.527183,107.780274 206.503516,107.432359 206.384585,107.045984 C206.280448,106.650733 206.120691,106.19868 205.889931,105.740119 C205.780468,105.504626 205.640237,105.273274 205.492314,105.046064 C205.36155,104.808796 205.174575,104.599337 205.001209,104.381002 C204.830802,104.158526 204.618384,103.972735 204.418984,103.781618 C204.216625,103.59701 203.989416,103.441395 203.77404,103.288739 C203.674635,103.226611 203.576415,103.170992 203.475235,103.115373 C205.016593,102.47457 208.788039,101.735547 215.057017,105.533619 C215.057017,105.533619 217.9498,106.676768 219.450923,110.422179 C219.450923,110.422179 219.536718,110.456497 219.682275,110.520992 C221.482794,110.51685 223.64957,110.586669 226.105684,110.953519 C227.379598,111.147002 228.727472,111.42273 230.117949,111.850524 C231.506059,112.280092 232.936179,112.871193 234.31423,113.735655 C235.679263,114.602484 236.977436,115.794152 237.888642,117.33551 C238.815823,118.870951 239.293911,120.717031 239.361955,122.595061 C239.423491,124.479009 239.103386,126.381299 238.588614,128.248088 C238.314068,129.177636 238.014081,130.10896 237.651373,131.018982 C237.299908,131.913029 236.946076,132.818318 236.588102,133.729524 C235.892864,135.546611 235.24792,137.408666 234.719539,139.31924 C234.192341,141.228039 233.772831,143.191273 233.659818,145.147999 C233.616033,145.893531 233.630825,146.64143 233.705378,147.368028 C234.882254,147.404121 235.826595,148.363846 235.826595,149.547822 C235.826595,150.135372 235.587551,150.66967 235.207685,151.06137 C235.355608,151.148941 235.503531,151.238286 235.662104,151.325265 C236.60822,151.846546 237.820597,152.357768 239.284444,152.677873 C240.015775,152.851239 240.805092,152.954785 241.655946,153.096791 C242.517449,153.248264 243.400846,153.463049 244.314418,153.754753 C246.127955,154.347037 248.037937,155.246409 249.786979,156.616176 C251.279227,157.789502 252.670887,159.338552 253.568483,161.243209 C254.126449,162.065069 254.595069,162.941365 254.937659,163.879789 C255.733485,165.982071 255.92046,168.294404 255.540002,170.433963 C255.144751,172.57293 254.266089,174.537939 253.14779,176.21657 C252.030676,177.908809 250.704102,179.35313 249.30475,180.608109 C248.611878,181.238853 247.895339,181.816936 247.175842,182.36366 C246.826152,182.626963 246.483562,182.886715 246.141564,183.14706 C245.827967,183.399713 245.527979,183.637573 245.229174,183.909751 C244.041057,184.951129 243.040505,186.107887 242.424554,187.351624 C241.806827,188.590036 241.5737,189.904184 241.746475,191.152063 C241.907415,192.410592 242.435796,193.573859 243.054114,194.593344 C243.689592,195.61993 244.429798,196.511019 245.169414,197.280218 C245.913171,198.059477 246.648644,198.732823 247.341515,199.312089 C248.726075,200.469439 249.922477,201.25639 250.733095,201.797196 C251.211182,202.10606 251.559097,202.31966 251.774473,202.443916 C251.964406,202.548054 252.080969,202.604264 252.080969,202.604264 L252.007008,202.791831 C252.007008,202.791831 251.971506,202.784139 251.917662,202.764021 L251.895178,202.811357 L251.78749,202.766388 L251.776248,202.791239 C251.776248,202.791239 251.492236,202.689468 250.959121,202.502493 C250.428965,202.297176 249.659765,201.984763 248.698265,201.546319 C248.671048,201.533893 248.638505,201.521468 248.616612,201.506084 C247.630261,201.083024 246.466994,200.544584 245.184206,199.828045 C243.828639,199.078963 242.348817,198.138764 240.845327,196.915144 C240.098612,196.293868 239.350713,195.604546 238.65015,194.797478 C237.941302,193.995735 237.285707,193.06737 236.785136,191.992857 C236.282198,190.921303 235.936649,189.681116 235.9544,188.379985 C235.960909,187.078263 236.325983,185.764706 236.928325,184.614457 C237.525343,183.445865 238.340103,182.425787 239.244208,181.525824 C240.154823,180.611067 241.13644,179.816425 242.190835,179.069709 C242.7346,178.682151 243.203812,178.389855 243.775979,178.028331 C244.290751,177.715918 244.800198,177.386937 245.299586,177.040205 C246.29777,176.358576 247.253945,175.613636 248.155092,174.81426 C249.947328,173.206632 251.50762,171.322684 252.415867,169.189634 C252.651952,168.637585 252.837744,168.071928 252.972058,167.496803 C252.987442,167.199773 252.992175,166.905111 252.985667,166.61104 C252.893954,165.985621 252.74899,165.366711 252.530064,164.760818 C251.925354,163.079229 250.863267,161.517754 249.46924,160.2752 C248.076989,159.02318 246.362857,158.082981 244.516777,157.564067 C243.651723,157.31674 242.523366,157.143374 241.490864,156.865278 C240.445344,156.596059 239.39864,156.27122 238.372646,155.854668 C237.34606,155.431017 236.333675,154.905002 235.409452,154.203256 C234.511855,153.521626 233.713662,152.654797 233.12907,151.659571 C232.174079,151.427036 231.459907,150.574408 231.459907,149.547822 C231.459907,149.020624 231.655757,148.546087 231.960478,148.169179 C231.817289,147.11005 231.817289,146.054471 231.893025,145.031436 C232.065799,142.879451 232.564596,140.836338 233.149188,138.867187 C233.745613,136.900402 234.452094,135.011721 235.194667,133.180434 C235.9544,131.325479 236.756143,129.629098 237.285707,127.865263 C237.815864,126.107346 238.144253,124.338186 238.144253,122.621096 C238.137152,120.906372 237.759061,119.255551 236.977436,117.861524 C236.206461,116.460989 235.064495,115.339141 233.817208,114.490654 C232.556904,113.642759 231.210213,113.031541 229.881272,112.578305 C228.550556,112.120335 227.2441,111.809105 226.000363,111.583079 C223.983285,111.218005 222.146081,111.063573 220.555612,110.99257 C221.877452,111.807922 223.959617,113.569389 224.442438,116.787603 C224.64598,118.166246 224.658406,120.240127 223.022968,121.432978 C222.223592,122.01757 221.573323,122.492699 221.032516,122.886174 C220.910627,122.658964 220.780455,122.426429 220.634899,122.196853 C220.415381,121.845387 220.199414,121.461971 219.949719,121.090388 C219.684641,120.722947 219.412463,120.345448 219.136143,119.95789 C218.829646,119.585123 218.516049,119.203482 218.198902,118.814149 C217.864596,118.435466 217.504848,118.068025 217.148057,117.682833 C216.771741,117.319534 216.384774,116.952685 215.982424,116.589386 C215.569423,116.243838 215.158788,115.881131 214.717978,115.549191 C213.84109,114.878804 212.922192,114.241552 211.960692,113.674119 C210.040651,112.526828 207.995763,111.616805 206.023062,110.963577 C205.042628,110.619804 204.067519,110.376619 203.148621,110.14645 C202.223806,109.928116 201.346327,109.757709 200.526833,109.640554 C200.028628,109.561267 199.55705,109.50624 199.111506,109.461271 C199.076004,109.425178 199.047011,109.395593 199.009735,109.36305 C199.008551,109.355358 199.002043,109.354175 199.002043,109.354175 L198.915656,109.351808 C198.600284,109.018094 198.23521,108.735856 197.89262,108.428768 C197.71452,108.274337 197.521037,108.140614 197.337613,107.994466 C197.151821,107.85246 196.964847,107.703945 196.761896,107.576731 C196.563088,107.445376 196.370196,107.30692 196.159554,107.190948 L195.509284,106.844217 C195.283257,106.748362 195.059598,106.638899 194.819963,106.551329 C194.572635,106.470267 194.333,106.380922 194.065555,106.326486 C193.818819,106.267908 193.551375,106.235957 193.269729,106.228265 C193.134232,106.228265 192.994001,106.232999 192.847261,106.257258 C192.767974,106.26495 192.673895,106.289209 192.585733,106.31051 C192.544906,106.318794 192.494612,106.33477 192.44136,106.354887 C192.389883,106.37323 192.346098,106.385064 192.23841,106.444824 L192.343731,106.393347 C191.67216,106.657242 191.017157,106.977939 190.389372,107.35603 L190.350912,107.334729 C190.059799,107.50987 189.774604,107.692111 189.498283,107.891512 L186.389533,107.330588 C186.389533,107.330588 186.496629,106.347195 188.006036,105.835382 C187.230327,104.639572 185.768256,101.766315 189.959212,100.746237 L189.959212,100.746237 Z M145.222552,200.519733 C146.418954,198.806784 147.978654,197.887886 149.446051,195.835898 C150.909305,193.783318 153.652982,188.194194 153.652982,188.194194 C155.685444,183.022805 159.062823,183.025171 159.062823,183.025171 C165.782671,182.287923 175.117798,175.834929 180.487996,169.821561 C184.835749,164.959035 187.675872,165.281507 188.598911,165.584454 C191.675119,155.560597 181.386776,150.7815 181.386776,150.7815 L181.386776,150.77795 C169.419802,146.37576 159.878767,136.056058 159.878767,136.056058 C156.441035,135.072665 157.094263,131.352105 157.417327,130.752721 C157.742166,130.151562 157.180059,127.425044 157.180059,127.425044 C157.180059,127.425044 156.169449,123.194446 157.888906,123.057173 C159.613688,122.921084 159.326126,124.706811 160.065741,124.234049 C160.808315,123.759512 161.448526,124.010981 161.448526,124.010981 C161.448526,124.010981 164.618812,125.140521 170.257638,120.625318 C174.108371,117.543194 180.857211,114.858687 184.751729,113.46466 C177.221263,114.032684 177.41948,112.453458 177.41948,112.453458 L184.589605,109.555942 L187.285947,109.987285 C186.463494,110.831038 185.758197,111.80023 185.226266,112.845158 C185.140471,113.021483 185.062959,113.20254 184.986631,113.38064 C184.60854,114.227351 184.31151,115.099505 184.102643,115.98586 C184.089034,116.027279 184.085484,116.066922 184.0701,116.104199 C184.012706,116.360401 183.955903,116.616012 183.906793,116.875173 C183.652365,118.251449 183.557103,119.649026 183.581954,121.024119 L183.581954,121.033586 C183.603255,122.396845 183.6926,123.746494 183.857091,125.100878 C184.044065,126.463545 184.249974,127.804319 184.790781,129.218463 C184.938704,129.583537 185.08426,129.923169 185.39194,130.339128 L185.470635,130.437941 L185.557614,130.537345 L185.616191,130.606573 C185.704353,130.697694 185.813225,130.798873 185.955231,130.900644 C186.09487,130.997681 186.291904,131.114245 186.572957,131.168089 C186.852828,131.227258 187.193051,131.172822 187.418486,131.064543 C187.866988,130.8397 188.011361,130.60894 188.163426,130.435574 C188.302474,130.248599 188.401286,130.090617 188.499507,129.938553 L189.007771,129.0948 C189.653898,128.048096 190.420731,127.259962 191.427792,126.856428 C191.549088,126.807909 191.687544,126.757024 191.799374,126.724481 C191.849076,126.708505 191.940789,126.684246 192.021259,126.663537 L192.225984,126.619751 C192.523014,126.559399 192.810576,126.488987 193.119439,126.455853 C193.420611,126.403784 193.729474,126.36769 194.048396,126.346981 C194.358443,126.31148 194.674406,126.298463 194.994512,126.289587 C195.900984,126.252902 196.821657,126.260003 197.744105,126.298463 L197.747064,126.290179 C198.124563,126.304971 198.499696,126.321538 198.87187,126.342839 C199.946975,126.409701 201.023855,126.494904 202.10606,126.576558 C202.342736,126.5949 202.574088,126.615018 202.810173,126.630402 C203.471093,126.681287 204.140297,126.728031 204.814234,126.765308 C205.162149,126.779508 205.519532,126.800809 205.846146,126.794892 L206.091698,126.796667 L206.355593,126.791342 L206.852614,126.779508 C207.508801,126.765308 208.162029,126.758799 208.771472,126.791342 C209.376773,126.817377 209.963731,126.954057 210.13828,127.186592 C210.349514,127.404335 210.358982,128.033896 210.238868,128.62973 C210.150706,129.202488 209.919946,129.629098 209.469668,129.873466 C209.019982,130.121385 208.388647,130.161029 207.772695,130.098901 C207.14491,130.034998 206.513574,129.885892 205.891114,129.698917 C205.482255,129.571703 205.076354,129.42378 204.671045,129.266982 C204.583475,129.236214 204.494129,129.202488 204.407742,129.165211 C203.674635,128.872915 202.954546,128.546893 202.248657,128.183594 C203.328496,128.956935 204.474012,129.648032 205.714198,130.18943 C206.330741,130.459242 206.972727,130.694143 207.659682,130.828458 C208.341311,130.957446 209.099269,131.028449 209.862552,130.716628 C210.241235,130.566338 210.5927,130.289426 210.840027,129.95157 C211.084988,129.61253 211.234094,129.21728 211.315748,128.862856 C211.400951,128.5321 211.474913,128.1475 211.483788,127.7558 C211.49148,127.3641 211.425211,126.883054 211.129956,126.455853 C210.829968,126.035751 210.386791,125.799666 210.006333,125.675411 C209.623508,125.541688 209.258434,125.484294 208.906969,125.439326 C208.199305,125.34643 207.524184,125.335779 206.856164,125.31507 L206.359143,125.30442 L206.126016,125.295544 L205.881055,125.283119 C205.537282,125.27306 205.240845,125.240517 204.928431,125.215666 C204.28112,125.149396 203.628483,125.071885 202.974664,124.99319 C202.629115,124.952363 202.280609,124.911536 201.935061,124.871301 C201.523243,124.821007 201.112017,124.777814 200.696649,124.731662 C200.13395,124.671309 199.568292,124.611548 199.002043,124.56658 C197.66541,124.454158 196.314577,124.37073 194.941851,124.389072 C194.602812,124.39203 194.253121,124.402089 193.907573,124.428715 C193.558475,124.443508 193.213518,124.473684 192.859686,124.521611 C192.510588,124.552971 192.150248,124.623382 191.796416,124.694977 C191.70352,124.716278 191.631925,124.729295 191.517729,124.754146 L191.256792,124.826332 C191.047333,124.883727 190.880476,124.949404 190.692318,125.018041 C189.962762,125.307378 189.282907,125.749964 188.720208,126.279528 C188.154551,126.807909 187.700131,127.419719 187.320856,128.013186 L186.831527,128.812562 C186.809043,128.774102 186.787742,128.733867 186.768808,128.691266 C186.755199,128.658722 186.743365,128.62973 186.728573,128.597778 C186.710822,128.551034 186.688337,128.504291 186.673545,128.459322 C186.265278,127.396643 186.048127,126.100837 185.887778,124.841125 C185.729796,123.567803 185.638084,122.271406 185.606724,120.989209 C185.602582,120.672062 185.600216,120.357873 185.604949,120.04546 L185.604949,120.043685 C185.604949,120.025342 185.606724,120.011142 185.606724,119.995166 C185.613825,119.733047 185.625067,119.469744 185.642817,119.208807 C185.646959,119.109403 185.656426,119.007632 185.662935,118.908228 C185.675361,118.727762 185.693111,118.543745 185.715596,118.363279 C185.728021,118.256183 185.736896,118.144353 185.75228,118.036665 C185.778315,117.83194 185.810858,117.624256 185.842218,117.421305 C185.854643,117.357994 185.859968,117.294092 185.870027,117.23078 C186.085995,116.003019 186.443969,114.813126 186.983,113.723821 C187.174117,113.34218 187.387718,112.975331 187.617294,112.62209 C187.642145,112.581855 187.667588,112.548129 187.693622,112.508485 C187.805452,112.339262 187.922016,112.172996 188.042721,112.010281 C188.111357,111.922119 188.181768,111.838098 188.249813,111.751711 C188.346259,111.636923 188.435604,111.518585 188.534417,111.407346 C188.716658,111.203804 188.907183,111.006179 189.109542,110.819204 C189.803597,110.17071 190.606523,109.63582 191.468618,109.199743 L191.404716,109.189684 C191.629559,109.076079 191.853218,108.966616 192.088712,108.867212 L192.15794,108.832894 L192.15794,108.829344 L192.163265,108.829344 C192.186933,108.82461 192.195808,108.812776 192.231901,108.81041 C192.29107,108.795026 192.360298,108.78615 192.438993,108.782008 C192.524789,108.772855 192.615909,108.772855 192.71058,108.772855 C192.812943,108.772855 192.920039,108.772855 193.030686,108.792067 C193.213518,108.803901 193.403452,108.853011 193.593976,108.892063 C193.786868,108.938807 193.980351,109.011585 194.175018,109.066612 L194.75251,109.302106 L195.331185,109.577243 C195.527626,109.658896 195.71756,109.769543 195.909268,109.874272 C196.074942,109.969534 196.248307,110.060655 196.412798,110.161834 C196.412798,110.161834 196.418123,110.161834 196.42404,110.164201 C196.437649,110.17781 196.457766,110.186686 196.476701,110.197928 C196.84355,110.441705 197.227558,110.657081 197.592632,110.915059 C197.723988,111.006179 197.860077,111.094341 197.992616,111.185462 L197.995574,111.187237 C198.231068,111.348769 198.467153,111.508526 198.693179,111.687808 C199.04997,111.95762 199.431019,112.203764 199.780118,112.491326 C200.13395,112.764096 200.488373,113.036275 200.853447,113.30372 L200.853447,113.301353 C200.859364,113.306086 200.860548,113.31082 200.869423,113.317329 C200.764102,113.175323 200.654047,113.0416 200.549318,112.901961 C200.37891,112.678301 200.206728,112.451091 200.035137,112.229798 C199.950525,112.122702 199.861771,112.025073 199.773609,111.920343 C199.642253,111.765912 199.512673,111.610888 199.374809,111.458232 L199.75645,111.725085 C200.429204,111.942828 201.133318,112.189563 201.880033,112.443399 C202.738578,112.757588 203.636767,113.106095 204.550931,113.493061 C205.469829,113.872336 206.392277,114.307821 207.325968,114.759282 C208.244274,115.236186 209.184473,115.716049 210.074378,116.265731 C210.9844,116.790561 211.850637,117.385212 212.692615,117.975129 C213.114492,118.273342 213.510926,118.594631 213.915051,118.892844 C214.306752,119.214724 214.693126,119.533646 215.071218,119.84606 C215.435108,120.173857 215.795449,120.49988 216.146322,120.815251 C216.484179,121.149557 216.81671,121.47558 217.139182,121.790952 C217.748033,122.455422 218.336767,123.086166 218.837338,123.704484 C218.958043,123.843532 219.069282,123.984355 219.177561,124.126361 C219.232589,124.192038 219.282882,124.258308 219.336726,124.329311 C219.336726,124.331086 219.33791,124.335228 219.33791,124.335228 C219.407138,124.425165 219.475182,124.518061 219.54441,124.603856 C219.762153,124.894377 219.989363,125.161822 220.173971,125.431042 C220.528986,125.974807 220.882226,126.432185 221.134287,126.831577 C221.630125,127.634503 221.941355,128.091881 221.941355,128.091881 C221.941355,128.091881 221.933663,128.061705 221.917688,128.01082 C223.813469,131.325479 224.498057,133.835437 224.498057,133.835437 C224.498057,133.835437 226.536436,138.666603 229.106747,148.199947 C233.308353,163.778018 234.08702,167.183206 232.808965,175.760375 C231.913143,181.787351 229.001426,187.340974 231.679424,195.750103 C239.764898,221.145529 233.480535,235.818903 225.932319,243.970645 C226.439399,246.132097 228.504404,249.927802 236.76916,250.292876 C240.884379,250.472159 243.651723,249.224871 245.436267,247.340924 L245.869385,246.997151 L246.278836,246.595392 C246.815501,246.039201 247.296547,245.405499 247.659254,244.707302 C248.013086,244.01088 248.30834,243.278365 248.45863,242.532833 C248.620754,241.793218 248.698265,241.050053 248.689982,240.344756 C248.678148,238.920553 248.382302,237.633031 247.972851,236.608812 C247.963976,236.585736 247.95155,236.566802 247.943266,236.545501 C247.67523,235.368625 247.253945,234.434343 246.76284,233.917796 C245.544546,232.637374 241.645887,231.098974 240.508063,234.940832 C240.508063,234.940832 239.614016,238.8602 246.842127,240.477887 C246.778224,241.000351 246.67172,241.528732 246.532081,242.048238 C246.368774,242.641705 246.13328,243.210321 245.849268,243.751128 C245.731521,243.989579 245.590698,244.216789 245.443959,244.438082 C242.268347,243.657048 233.295927,240.613384 236.87034,231.610788 C240.442385,222.608192 255.457165,229.057045 253.927049,242.471297 C252.265577,257.070118 231.533868,267.079774 218.493565,250.073358 C216.16289,251.509987 214.182496,252.361432 213.045264,252.796917 C216.112596,256.006847 213.783104,257.842276 212.987278,260.016153 C212.09264,262.447416 216.354598,264.311838 220.732528,267.534193 C225.109275,270.755957 224.625862,272.42867 221.81355,278.135541 C218.998278,283.842412 220.908261,287.520962 220.908261,287.520962 C220.993464,290.3528 220.614781,294.895221 220.014806,297.402812 C219.41838,299.903895 219.167502,300.069569 218.443271,300.984325 C217.71194,301.897306 217.464612,301.035802 217.274679,300.322813 C217.082971,299.611599 216.039818,299.35303 215.914379,299.974306 C215.79249,300.603275 215.710837,301.019826 215.710837,301.019826 C215.438659,303.817347 209.494519,303.597829 208.401664,303.39192 C207.31295,303.191337 208.003455,302.587219 208.003455,302.587219 C206.395828,302.41267 206.729542,301.880738 206.729542,301.880738 C206.729542,301.880738 208.604614,301.219227 209.194531,299.640592 C209.790365,298.065508 209.892136,296.624145 210.812218,294.817118 C213.518618,289.474138 214.315627,283.545382 214.549937,280.682184 C213.699084,277.391192 210.646544,274.248716 203.272876,271.117481 C202.655742,270.854769 202.058133,270.582591 201.472949,270.29917 C201.026813,270.017525 200.41382,269.607482 199.626869,269.134129 C199.213868,268.870826 198.786075,268.53652 198.300296,268.195113 C197.828717,267.840098 197.292644,267.50165 196.754204,267.088649 C195.697442,266.236021 194.483881,265.327181 193.272688,264.205333 C192.967374,263.923096 192.634843,263.671035 192.333672,263.366905 C192.028951,263.064551 191.718904,262.758054 191.404716,262.447416 C190.756221,261.845665 190.141453,261.169361 189.511301,260.482998 C188.853339,259.811427 188.268747,259.043411 187.624986,258.305571 C187.319673,257.928663 187.02856,257.525721 186.718514,257.140529 C186.564082,256.942312 186.410834,256.745279 186.252852,256.548245 C186.109663,256.34352 185.96529,256.136427 185.81855,255.929335 C185.225083,255.106291 184.6612,254.250113 184.102643,253.377959 C183.569528,252.491604 183.033455,251.590457 182.554184,250.666825 C182.44768,250.463283 182.34295,250.255008 182.238813,250.049099 C182.137633,249.838456 182.048288,249.642606 181.963084,249.452081 C181.938825,249.400604 181.90924,249.343802 181.892673,249.298833 C181.670788,248.79412 181.479672,248.292365 181.269029,247.792385 C181.069037,247.291813 180.849519,246.790058 180.660178,246.282978 L180.112863,244.752862 C179.392773,242.718625 178.789839,240.652436 178.395772,238.598081 C178.37743,238.501043 178.363229,238.403414 178.345478,238.30401 C178.252583,237.81113 178.170337,237.320026 178.098743,236.828329 C178.04549,236.464439 177.999338,236.099956 177.959103,235.738433 C177.935436,235.534299 177.920052,235.333123 177.902893,235.13254 C177.876266,234.866278 177.856149,234.600609 177.837806,234.334347 C177.825973,234.172223 177.818281,234.013058 177.81118,233.849751 C177.788696,233.416633 177.777454,232.981147 177.781004,232.559862 C177.785738,232.127927 177.809997,231.703684 177.837806,231.280624 C177.850232,231.135068 177.862657,230.994245 177.875083,230.843955 C177.898751,230.570002 177.927744,230.290723 177.96147,230.017953 C177.980404,229.853463 178.001705,229.694297 178.024781,229.536316 C178.082175,229.165916 178.143711,228.797884 178.215306,228.43281 C178.314119,227.952356 178.428315,227.481369 178.560263,227.019849 C179.043675,225.299208 179.770273,223.754892 180.607517,222.407609 C180.782067,222.127147 180.969041,221.852601 181.153649,221.587523 C181.226427,221.479835 181.300389,221.378064 181.3779,221.272743 C181.473755,221.145529 181.566059,221.01654 181.666646,220.894652 C181.887939,220.607089 182.109824,220.326627 182.338217,220.061549 L182.340584,220.061549 C182.667198,219.677541 182.996178,219.310692 183.323384,218.975794 C184.259441,218.039737 185.159405,217.282371 185.940439,216.705471 C186.728573,216.141589 187.377659,215.714979 187.836812,215.451676 C188.293598,215.183048 188.549801,215.058792 188.549801,215.058792 C188.549801,215.058792 188.265789,215.099027 187.746283,215.234525 C187.232103,215.383631 186.467636,215.597232 185.539863,216.006091 C184.616232,216.40785 183.501484,216.956349 182.320466,217.768151 C181.138265,218.574035 179.877961,219.637306 178.707002,221.007665 C177.72361,222.152589 176.808262,223.524132 176.072789,225.082057 C175.930783,225.382045 175.791735,225.6844 175.664521,226.000363 C174.87047,227.936972 174.352148,230.11499 174.166357,232.377621 C174.133814,232.745654 174.116063,233.119603 174.103637,233.490002 C174.099495,233.58349 174.097129,233.670468 174.097129,233.763364 C174.088253,234.114829 174.07997,234.476353 174.088253,234.83906 L174.088253,234.876337 C174.097129,235.274546 174.112513,235.675713 174.133814,236.077472 C174.139731,236.118891 174.141506,236.155575 174.143872,236.194627 C174.166357,236.556151 174.197716,236.914717 174.23381,237.271507 C173.981749,236.708808 173.725546,236.163267 173.488277,235.562108 C173.219058,234.881662 172.947471,234.19885 172.678843,233.512487 C172.451633,232.893577 172.214364,232.174079 171.984788,231.511976 C171.73746,230.838038 171.546936,230.145167 171.355819,229.462354 C170.57301,226.717494 169.997886,223.925891 169.744641,221.158546 C169.480155,218.397119 169.488439,215.668827 169.744641,213.067156 C170.244029,207.853165 171.757578,203.180572 173.532654,199.446403 C174.249194,197.936997 174.994726,196.589122 175.736116,195.385029 C175.942616,195.418755 176.145567,195.45899 176.351476,195.483249 C176.672765,195.514609 177.000562,195.53946 177.323034,195.545969 C177.649057,195.554252 177.976854,195.548336 178.30051,195.521709 C178.62949,195.502775 178.950779,195.453073 179.275618,195.409288 C179.918196,195.299825 180.554857,195.136518 181.170808,194.929426 C181.483222,194.837713 181.776109,194.698666 182.076097,194.581511 C182.376085,194.454888 182.660689,194.310516 182.954168,194.170285 L183.058898,194.109932 C183.264807,193.992185 183.578404,193.823553 183.852949,193.688055 C184.135186,193.549008 184.431624,193.419427 184.729245,193.295172 C185.319162,193.038378 185.925055,192.832469 186.533906,192.653186 C186.837444,192.565024 187.145124,192.478637 187.45517,192.417101 C187.761667,192.349056 188.067572,192.29107 188.376435,192.239593 L189.387045,192.115929 C189.859807,192.05676 190.246182,191.966231 190.649125,191.850851 C192.23841,191.366256 193.620011,190.456233 194.661981,189.27344 C195.177936,188.677015 195.611055,188.008994 195.896842,187.278255 C196.169021,186.549881 196.306293,185.739855 196.11281,185.019766 C195.953645,185.566489 195.6933,186.028601 195.369645,186.436868 C195.279116,186.555798 195.177936,186.67177 195.072023,186.781825 C194.625296,187.272929 194.101057,187.673505 193.557292,188.023787 C192.463253,188.711925 191.252059,189.158652 190.071041,189.317817 C189.782296,189.358644 189.464557,189.379945 189.223738,189.379945 L188.962802,189.375211 L188.707783,189.379945 L188.111357,189.389412 C187.714923,189.421955 187.314939,189.438523 186.923239,189.508342 C186.533906,189.567511 186.147531,189.64739 185.764706,189.733777 C184.997873,189.91661 184.259441,190.172812 183.538168,190.466883 C183.180195,190.624865 182.827546,190.785214 182.47904,190.970413 C182.137633,191.144371 181.838829,191.308861 181.470796,191.548497 C181.25897,191.662693 181.049511,191.785765 180.833544,191.88872 C180.602192,191.992857 180.370249,192.120663 180.137714,192.213559 C179.903404,192.317696 179.664952,192.417101 179.424133,192.498163 C179.185681,192.587508 178.938354,192.652594 178.699902,192.735431 C178.46855,192.802292 178.236607,192.85732 177.999338,192.905247 C177.822422,192.949032 177.640181,192.9727 177.460899,193.005243 C177.414747,193.011751 177.364453,193.02181 177.318892,193.026544 C176.771577,193.109381 176.214795,193.152574 175.649729,193.149616 C175.392343,193.143699 175.123715,193.139557 174.860412,193.119439 C174.595333,193.10228 174.33203,193.066779 174.066952,193.026544 C173.797141,192.991634 173.528513,192.945482 173.261068,192.887496 C172.996581,192.828327 172.724403,192.769749 172.459325,192.692829 C172.19188,192.616501 171.924435,192.538398 171.654624,192.449644 C171.390137,192.352606 171.117367,192.268586 170.850514,192.160898 C170.319766,191.943747 169.790793,191.708845 169.263596,191.427792 L169.265371,191.428975 C168.399133,190.948521 166.911619,190.572205 164.793361,191.588732 C162.856753,192.512363 162.507655,194.191585 161.379298,196.233515 C160.680509,197.932855 159.839715,199.454095 158.930876,201.178878 C157.434486,204.0048 157.081838,204.127872 155.92508,204.999434 C154.766546,205.875138 154.735187,204.755657 154.728678,203.839126 C154.718619,202.92437 153.541744,202.291851 153.201521,203.006023 C152.855973,203.715462 152.629354,204.199466 152.629354,204.199466 C151.432953,207.472707 144.356907,205.369242 143.105478,204.789383 C141.852865,204.203608 142.870576,203.695345 142.870576,203.695345 C140.99077,202.983539 141.559386,202.443916 141.559386,202.443916 C141.559386,202.443916 144.020234,202.23564 145.222552,200.519733 L145.222552,200.519733 Z M147.896409,164.680348 C150.417609,164.637746 156.545173,163.511756 156.545173,163.511756 C161.907679,162.070986 163.913515,164.785669 163.913515,164.785669 C166.624649,167.710404 171.475341,170.183085 176.644955,171.868816 C176.381652,172.063483 176.106515,172.261108 175.825461,172.467609 C175.288205,172.88061 174.689413,173.276452 174.099495,173.723179 C173.488277,174.140322 172.874693,174.588825 172.232115,175.021352 C171.596046,175.459204 170.949918,175.902381 170.288406,176.321891 C169.64642,176.771577 168.965383,177.162094 168.320438,177.584562 C167.658335,177.970937 167.024633,178.38808 166.377321,178.740729 C165.752494,179.117637 165.125892,179.4407 164.534792,179.767314 C164.241313,179.940089 163.943692,180.061977 163.661454,180.215225 C163.519448,180.28682 163.376259,180.36019 163.236619,180.434743 C163.150232,179.649568 163.205851,179.158463 163.205851,179.158463 C163.205851,179.158463 163.980968,176.356801 160.445608,174.480545 C158.553968,173.477035 156.995451,174.1989 154.679568,174.505396 L154.679568,174.501846 C152.905083,174.956266 151.182075,175.185251 149.251384,175.481097 C147.108867,175.810077 146.275764,175.815994 145.529049,175.661563 L145.529049,185.019766 C145.420769,186.791292 142.814365,186.791292 142.700169,185.019766 L142.700169,172.291284 C142.681234,172.293059 142.66585,172.288918 142.647508,172.291284 L142.647508,162.46387 C142.656383,155.373623 142.700169,126.799034 142.700169,114.198358 C142.814365,112.428607 145.420769,112.428607 145.529049,114.198358 L145.529049,164.52 C146.252097,164.619996 147.02248,164.694549 147.896409,164.680348 L147.896409,164.680348 Z M98.4557971,115.505998 L140.831013,115.505998 L140.831013,152.948277 L98.4557971,152.948277 L111.983063,134.229504 L98.4557971,115.505998 Z M379.672279,293.363922 L287.350555,293.363922 C298.604539,278.569843 306.201866,261.227347 306.201866,241.030527 L306.201866,63.201596 L73.4721882,63.201596 L73.4721882,241.030527 C73.4721882,261.227347 81.070107,278.569843 92.3217247,293.363922 L1.98951966e-13,293.363922 L25.7894936,328.400972 L1.98951966e-13,363.43388 L46.4738675,363.43388 L46.4738675,319.103122 L95.4109494,297.241872 C102.70888,306.058677 111.249956,313.924632 120.130664,320.907783 L48.6276269,320.907783 L48.6276269,389.551171 L331.047019,389.551171 L331.047019,320.907783 L259.538657,320.907783 C268.42114,313.924632 276.961624,306.058677 284.262513,297.241872 L333.200779,319.103122 L333.200779,363.43388 L379.672279,363.43388 L353.880419,328.400972 L379.672279,293.363922 L379.672279,293.363922 Z" id="Fill-10"></path>
            <path d="M162.269203,128.267022 L162.118913,128.091881 L162.043176,128.006678 L161.97809,127.936266 L161.964481,127.917924 L161.931938,127.887748 L161.81005,127.771184 C161.660352,127.604919 161.522487,127.438653 161.433142,127.25227 C161.331962,127.071212 161.270426,126.872996 161.227825,126.677145 C161.143804,126.277753 161.15978,125.890195 161.19469,125.615058 C161.19469,125.602041 161.19469,125.591982 161.196465,125.577781 L161.258001,125.169514 C161.258001,125.169514 161.109486,125.260634 160.914819,125.490211 C160.818374,125.605591 160.702994,125.751739 160.603589,125.945222 C160.503593,126.13338 160.396497,126.367099 160.343837,126.645786 C160.288809,126.920923 160.266325,127.24162 160.329044,127.579476 C160.384072,127.917924 160.524894,128.26288 160.719561,128.578844 L160.735537,128.603695 L159.885867,134.17211 C159.885867,134.17211 159.926102,134.163826 160.006572,134.151992 C160.076983,134.12655 160.207156,134.117674 160.340286,134.047854 C160.479334,133.99046 160.655067,133.915907 160.823699,133.789285 C161.007715,133.677455 161.188773,133.523024 161.379298,133.343741 C161.469827,133.247295 161.563906,133.149074 161.660352,133.046711 C161.746147,132.934882 161.837268,132.818318 161.926613,132.697613 C162.096429,132.450877 162.260327,132.175741 162.395825,131.872202 C162.528956,131.570439 162.643152,131.239092 162.714747,130.888218 C162.752615,130.711894 162.772733,130.525511 162.796401,130.340312 C162.804093,130.15097 162.804093,129.95867 162.796401,129.764595 C162.742557,129.359878 162.689896,128.99717 162.447302,128.56346 C162.391091,128.461097 162.324822,128.3398 162.269203,128.267022" id="Fill-11"></path>
            <polyline id="Fill-12" points="190.42369 58.7260367 236.313557 58.7260367 236.313557 51.3529609 197.799724 51.3529609 190.42369 58.7260367"></polyline>
        </g>
        <path d="M62.9129782,504.453954 L62.9129782,527.698683 C55.0891426,530.533406 50.7803636,531.440517 45.9046399,531.440517 C32.751525,531.440517 22.8866888,526.224627 16.6502981,520.101625 C9.28001814,512.731345 5.19801695,502.412953 5.19801695,492.548117 C5.19801695,481.77617 9.84696275,471.571167 16.6502981,464.654442 C23.3402445,457.851107 33.4318585,452.861995 45.2243064,452.861995 C48.8527519,452.861995 54.7489758,453.428939 62.9129782,456.717218 L62.9129782,480.188725 C56.5631986,472.364889 49.0795297,471.911333 45.791251,471.911333 C40.1218049,471.911333 35.8130259,473.612167 32.1845804,476.900446 C27.5356346,481.209225 25.6080229,487.105449 25.6080229,492.434728 C25.6080229,497.650619 27.7624124,503.433454 31.7310247,507.175288 C35.0193034,510.236789 40.2351938,512.391179 45.791251,512.391179 C48.739363,512.391179 55.996254,512.051012 62.9129782,504.453954 Z M98.4037108,454.109273 L98.4037108,482.343114 L126.750941,482.343114 L126.750941,454.109273 L146.480614,454.109273 L146.480614,529.739684 L126.750941,529.739684 L126.750941,499.124675 L98.4037108,499.124675 L98.4037108,529.739684 L78.7874273,529.739684 L78.7874273,454.109273 L98.4037108,454.109273 Z M216.554967,529.739684 L211.906022,517.040124 L184.465902,517.040124 L179.363401,529.739684 L158.613228,529.739684 L187.640792,454.109273 L209.071299,454.109273 L237.531918,529.739684 L216.554967,529.739684 Z M189.908571,502.072787 L206.690131,502.072787 L198.185962,477.58078 L189.908571,502.072787 Z M290.9381,470.777444 L274.836873,470.777444 L274.836873,529.739684 L255.22059,529.739684 L255.22059,470.777444 L239.119363,470.777444 L239.119363,454.109273 L290.9381,454.109273 L290.9381,470.777444 Z M346.045116,454.109273 L346.045116,470.777444 L322.686998,470.777444 L322.686998,483.363615 L344.797838,483.363615 L344.797838,500.031786 L322.686998,500.031786 L322.686998,513.071512 L346.045116,513.071512 L346.045116,529.739684 L303.070715,529.739684 L303.070715,454.109273 L346.045116,454.109273 Z M412.717802,529.739684 L408.068856,517.040124 L380.628737,517.040124 L375.526236,529.739684 L354.776063,529.739684 L383.803627,454.109273 L405.234133,454.109273 L433.694753,529.739684 L412.717802,529.739684 Z M386.071406,502.072787 L402.852966,502.072787 L394.348797,477.58078 L386.071406,502.072787 Z M445.827367,454.109273 L465.443651,454.109273 L465.443651,498.897897 C465.443651,502.072787 465.55704,506.94851 469.298874,510.576956 C471.566653,512.731345 475.195098,514.205401 478.596766,514.205401 C481.998434,514.205401 485.51349,512.844734 487.66788,510.917123 C492.203437,506.94851 492.090048,501.392453 492.090048,497.197063 L492.090048,454.109273 L511.706331,454.109273 L511.706331,497.53723 C511.706331,505.474454 511.366164,513.751846 503.202162,522.029237 C496.852382,528.492405 488.915158,531.440517 478.256599,531.440517 C466.350762,531.440517 457.846593,527.358516 453.197647,522.369404 C446.62109,515.225902 445.827367,505.587843 445.827367,497.53723 L445.827367,454.109273 Z M580.420018,529.739684 L560.803734,529.739684 L560.803734,454.109273 L580.420018,454.109273 L616.591084,500.371953 L616.591084,454.109273 L636.207367,454.109273 L636.207367,529.739684 L616.591084,529.739684 L580.420018,483.477003 L580.420018,529.739684 Z M698.457885,454.109273 L698.457885,470.777444 L675.099768,470.777444 L675.099768,483.363615 L697.210607,483.363615 L697.210607,500.031786 L675.099768,500.031786 L675.099768,513.071512 L698.457885,513.071512 L698.457885,529.739684 L655.483484,529.739684 L655.483484,454.109273 L698.457885,454.109273 Z M714.332335,454.109273 L733.948618,454.109273 L733.948618,498.897897 C733.948618,502.072787 734.062007,506.94851 737.803841,510.576956 C740.07162,512.731345 743.700065,514.205401 747.101733,514.205401 C750.503401,514.205401 754.018457,512.844734 756.172847,510.917123 C760.708404,506.94851 760.595015,501.392453 760.595015,497.197063 L760.595015,454.109273 L780.211298,454.109273 L780.211298,497.53723 C780.211298,505.474454 779.871131,513.751846 771.707129,522.029237 C765.357349,528.492405 757.420125,531.440517 746.761566,531.440517 C734.855729,531.440517 726.35156,527.358516 721.702614,522.369404 C715.126057,515.225902 714.332335,505.587843 714.332335,497.53723 L714.332335,454.109273 Z M842.801983,454.109273 L842.801983,470.777444 L819.103698,470.777444 L819.103698,483.363615 L840.647594,483.363615 L840.647594,500.031786 L819.103698,500.031786 L819.103698,529.739684 L799.487415,529.739684 L799.487415,454.109273 L842.801983,454.109273 Z" id="CHATEAUNEUF" fill="#000000" fill-rule="nonzero"></path>
        <path d="M97.080462,561.369807 L102.31903,561.369807 C105.798936,561.369807 108.829822,561.74399 111.59878,563.801999 C114.629665,566.084518 116.388328,569.714098 116.388328,573.867534 C116.388328,578.02097 114.667084,581.613131 111.37427,583.933068 C108.455639,585.991077 105.7241,586.327842 102.244194,586.327842 L97.080462,586.327842 L97.080462,561.369807 Z M100.897133,564.961968 L100.897133,582.735681 L102.54354,582.735681 C104.414458,582.735681 106.996323,582.586008 109.166587,580.977019 C110.887831,579.667377 112.571657,577.272603 112.571657,573.867534 C112.571657,570.57472 111.000086,567.992854 109.204006,566.683212 C107.033742,565.111641 104.377039,564.961968 102.54354,564.961968 L100.897133,564.961968 Z M138.349494,561.369807 L138.349494,564.961968 L128.396214,564.961968 L128.396214,571.285668 L138.050147,571.285668 L138.050147,574.877829 L128.396214,574.877829 L128.396214,582.735681 L138.349494,582.735681 L138.349494,586.327842 L124.579543,586.327842 L124.579543,561.369807 L138.349494,561.369807 Z M159.337783,564.961968 L153.612777,564.961968 L153.612777,586.327842 L149.796106,586.327842 L149.796106,564.961968 L144.071099,564.961968 L144.071099,561.369807 L159.337783,561.369807 L159.337783,564.961968 Z M182.043915,586.327842 L178.227244,586.327842 L178.227244,559.685981 L196.337723,578.657082 L196.337723,561.369807 L200.154394,561.369807 L200.154394,587.861995 L182.043915,568.890894 L182.043915,586.327842 Z M221.329775,560.920787 C228.813444,560.920787 234.31394,566.533538 234.31394,573.867534 C234.31394,581.201529 228.813444,586.814281 221.329775,586.814281 C213.846106,586.814281 208.345609,581.201529 208.345609,573.867534 C208.345609,566.533538 213.846106,560.920787 221.329775,560.920787 Z M221.329775,583.296957 C226.680598,583.296957 230.497269,579.405449 230.497269,573.867534 C230.497269,568.329619 226.680598,564.438111 221.329775,564.438111 C215.978952,564.438111 212.162281,568.329619 212.162281,573.867534 C212.162281,579.405449 215.978952,583.296957 221.329775,583.296957 Z M242.505156,561.369807 L246.957939,561.369807 C249.988825,561.369807 251.934579,561.74399 253.543568,562.829122 C256.275107,564.662621 256.499617,567.61867 256.499617,568.703802 C256.499617,572.295963 254.291934,574.915247 250.961702,575.663614 L258.744717,586.327842 L254.142261,586.327842 L246.995357,576.112634 L246.321827,576.112634 L246.321827,586.327842 L242.505156,586.327842 L242.505156,561.369807 Z M246.321827,564.887131 L246.321827,572.81982 L247.519214,572.81982 C248.566928,572.81982 252.832619,572.707565 252.832619,568.741221 C252.832619,565.223896 249.502386,564.887131 247.631469,564.887131 L246.321827,564.887131 Z M279.733007,565.111641 L276.664703,566.907722 C276.440193,566.346447 276.103427,565.82259 275.542152,565.336151 C274.756367,564.700039 273.933164,564.438111 272.848032,564.438111 C270.528094,564.438111 269.330707,565.82259 269.330707,567.431579 C269.330707,568.179946 269.592636,569.489588 272.024828,570.462465 L274.531857,571.47276 C279.134313,573.343677 280.406537,575.962961 280.406537,578.806755 C280.406537,583.558885 277.038886,586.814281 272.361593,586.814281 C269.480381,586.814281 267.759137,585.729149 266.486913,584.307252 C265.139853,582.810518 264.541159,581.164111 264.391486,579.442867 L268.170739,578.619664 C268.170739,579.854469 268.619759,581.014438 269.218452,581.800223 C269.929401,582.698263 270.977114,583.296957 272.473848,583.296957 C274.793785,583.296957 276.589866,581.613131 276.589866,579.106102 C276.589866,576.561655 274.644112,575.513941 272.997705,574.840411 L270.602931,573.830115 C268.544922,572.969494 265.514036,571.24825 265.514036,567.506415 C265.514036,564.138764 268.13332,560.920787 272.810613,560.920787 C275.504734,560.920787 277.038886,561.931082 277.824671,562.604612 C278.498202,563.203306 279.20915,564.063928 279.733007,565.111641 Z M292.414424,561.369807 L292.414424,571.323086 L302.068357,561.369807 L307.082415,561.369807 L295.819493,572.670147 L307.157252,586.327842 L302.068357,586.327842 L293.162791,575.252013 L292.414424,576.000379 L292.414424,586.327842 L288.597753,586.327842 L288.597753,561.369807 L292.414424,561.369807 Z M327.696521,561.369807 L327.696521,564.961968 L317.743241,564.961968 L317.743241,571.285668 L327.397174,571.285668 L327.397174,574.877829 L317.743241,574.877829 L317.743241,582.735681 L327.696521,582.735681 L327.696521,586.327842 L313.92657,586.327842 L313.92657,561.369807 L327.696521,561.369807 Z M362.002339,565.111641 L358.934035,566.907722 C358.709525,566.346447 358.37276,565.82259 357.811485,565.336151 C357.025699,564.700039 356.202496,564.438111 355.117364,564.438111 C352.797426,564.438111 351.600039,565.82259 351.600039,567.431579 C351.600039,568.179946 351.861968,569.489588 354.29416,570.462465 L356.801189,571.47276 C361.403646,573.343677 362.675869,575.962961 362.675869,578.806755 C362.675869,583.558885 359.308218,586.814281 354.630925,586.814281 C351.749713,586.814281 350.028469,585.729149 348.756245,584.307252 C347.409185,582.810518 346.810491,581.164111 346.660818,579.442867 L350.440071,578.619664 C350.440071,579.854469 350.889091,581.014438 351.487784,581.800223 C352.198733,582.698263 353.246447,583.296957 354.74318,583.296957 C357.063118,583.296957 358.859198,581.613131 358.859198,579.106102 C358.859198,576.561655 356.913444,575.513941 355.267037,574.840411 L352.872263,573.830115 C350.814254,572.969494 347.783368,571.24825 347.783368,567.506415 C347.783368,564.138764 350.402652,560.920787 355.079945,560.920787 C357.774066,560.920787 359.308218,561.931082 360.094004,562.604612 C360.767534,563.203306 361.478482,564.063928 362.002339,565.111641 Z M382.766119,564.961968 L377.041112,564.961968 L377.041112,586.327842 L373.224441,586.327842 L373.224441,564.961968 L367.499434,564.961968 L367.499434,561.369807 L382.766119,561.369807 L382.766119,564.961968 Z M389.535437,561.369807 L393.352108,561.369807 L393.352108,576.411981 C393.352108,577.759042 393.389527,579.405449 394.137894,580.715091 C394.88626,581.987315 396.570086,583.296957 398.777768,583.296957 C400.985451,583.296957 402.669276,581.987315 403.417643,580.715091 C404.16601,579.405449 404.203428,577.759042 404.203428,576.411981 L404.203428,561.369807 L408.020099,561.369807 L408.020099,577.422277 C408.020099,579.405449 407.608497,581.800223 405.700162,583.89565 C404.39052,585.317547 402.182838,586.814281 398.777768,586.814281 C395.372699,586.814281 393.165017,585.317547 391.855375,583.89565 C389.947039,581.800223 389.535437,579.405449 389.535437,577.422277 L389.535437,561.369807 Z M417.408702,561.369807 L422.64727,561.369807 C426.127176,561.369807 429.158062,561.74399 431.92702,563.801999 C434.957905,566.084518 436.716568,569.714098 436.716568,573.867534 C436.716568,578.02097 434.995324,581.613131 431.702509,583.933068 C428.783879,585.991077 426.052339,586.327842 422.572433,586.327842 L417.408702,586.327842 L417.408702,561.369807 Z M421.225373,564.961968 L421.225373,582.735681 L422.87178,582.735681 C424.742697,582.735681 427.324563,582.586008 429.494827,580.977019 C431.216071,579.667377 432.899896,577.272603 432.899896,573.867534 C432.899896,570.57472 431.328326,567.992854 429.532245,566.683212 C427.361982,565.111641 424.705279,564.961968 422.87178,564.961968 L421.225373,564.961968 Z M458.677734,561.369807 L458.677734,564.961968 L448.724454,564.961968 L448.724454,571.285668 L458.378387,571.285668 L458.378387,574.877829 L448.724454,574.877829 L448.724454,582.735681 L458.677734,582.735681 L458.677734,586.327842 L444.907783,586.327842 L444.907783,561.369807 L458.677734,561.369807 Z M470.835294,586.327842 L467.018623,586.327842 L467.018623,559.685981 L485.129102,578.657082 L485.129102,561.369807 L488.945773,561.369807 L488.945773,587.861995 L470.835294,568.890894 L470.835294,586.327842 Z M510.981776,564.961968 L505.256769,564.961968 L505.256769,586.327842 L501.440098,586.327842 L501.440098,564.961968 L495.715091,564.961968 L495.715091,561.369807 L510.981776,561.369807 L510.981776,564.961968 Z M531.521045,561.369807 L531.521045,564.961968 L521.567766,564.961968 L521.567766,571.285668 L531.221698,571.285668 L531.221698,574.877829 L521.567766,574.877829 L521.567766,582.735681 L531.521045,582.735681 L531.521045,586.327842 L517.751095,586.327842 L517.751095,561.369807 L531.521045,561.369807 Z M539.861934,561.369807 L544.314717,561.369807 C547.345603,561.369807 549.291357,561.74399 550.900346,562.829122 C553.631885,564.662621 553.856395,567.61867 553.856395,568.703802 C553.856395,572.295963 551.648713,574.915247 548.31848,575.663614 L556.101496,586.327842 L551.499039,586.327842 L544.352136,576.112634 L543.678605,576.112634 L543.678605,586.327842 L539.861934,586.327842 L539.861934,561.369807 Z M543.678605,564.887131 L543.678605,572.81982 L544.875992,572.81982 C545.923706,572.81982 550.189397,572.707565 550.189397,568.741221 C550.189397,565.223896 546.859165,564.887131 544.988247,564.887131 L543.678605,564.887131 Z M577.089785,565.111641 L574.021481,566.907722 C573.796971,566.346447 573.460206,565.82259 572.898931,565.336151 C572.113145,564.700039 571.289942,564.438111 570.20481,564.438111 C567.884872,564.438111 566.687485,565.82259 566.687485,567.431579 C566.687485,568.179946 566.949414,569.489588 569.381606,570.462465 L571.888635,571.47276 C576.491092,573.343677 577.763315,575.962961 577.763315,578.806755 C577.763315,583.558885 574.395664,586.814281 569.718371,586.814281 C566.837159,586.814281 565.115915,585.729149 563.843691,584.307252 C562.496631,582.810518 561.897937,581.164111 561.748264,579.442867 L565.527517,578.619664 C565.527517,579.854469 565.976537,581.014438 566.57523,581.800223 C567.286179,582.698263 568.333893,583.296957 569.830626,583.296957 C572.150564,583.296957 573.946644,581.613131 573.946644,579.106102 C573.946644,576.561655 572.00089,575.513941 570.354483,574.840411 L567.959709,573.830115 C565.9017,572.969494 562.870814,571.24825 562.870814,567.506415 C562.870814,564.138764 565.490098,560.920787 570.167391,560.920787 C572.861512,560.920787 574.395664,561.931082 575.18145,562.604612 C575.85498,563.203306 576.565928,564.063928 577.089785,565.111641 Z M603.241806,586.327842 L600.622522,580.303489 L589.958294,580.303489 L587.226755,586.327842 L583.110737,586.327842 L595.533627,559.910491 L607.357824,586.327842 L603.241806,586.327842 Z M591.529864,576.711328 L599.08837,576.711328 L595.383954,568.254782 L591.529864,576.711328 Z M617.045773,586.327842 L613.154266,586.327842 L618.392834,559.49889 L627.07389,578.881592 L635.829782,559.49889 L640.544494,586.327842 L636.652986,586.327842 L634.108538,571.285668 L626.84938,587.487811 L619.665058,571.24825 L617.045773,586.327842 Z M661.682456,561.369807 L661.682456,564.961968 L653.001401,564.961968 L653.001401,571.285668 L661.38311,571.285668 L661.38311,574.877829 L653.001401,574.877829 L653.001401,586.327842 L649.184729,586.327842 L649.184729,561.369807 L661.682456,561.369807 Z M669.424652,561.369807 L673.241323,561.369807 L673.241323,576.411981 C673.241323,577.759042 673.278741,579.405449 674.027108,580.715091 C674.775475,581.987315 676.459301,583.296957 678.666983,583.296957 C680.874665,583.296957 682.558491,581.987315 683.306858,580.715091 C684.055225,579.405449 684.092643,577.759042 684.092643,576.411981 L684.092643,561.369807 L687.909314,561.369807 L687.909314,577.422277 C687.909314,579.405449 687.497712,581.800223 685.589377,583.89565 C684.279735,585.317547 682.072052,586.814281 678.666983,586.814281 C675.261914,586.814281 673.054231,585.317547 671.744589,583.89565 C669.836254,581.800223 669.424652,579.405449 669.424652,577.422277 L669.424652,561.369807 Z M701.114588,586.327842 L697.297917,586.327842 L697.297917,559.685981 L715.408395,578.657082 L715.408395,561.369807 L719.225067,561.369807 L719.225067,587.861995 L701.114588,568.890894 L701.114588,586.327842 Z M728.613669,561.369807 L733.852237,561.369807 C737.332143,561.369807 740.363029,561.74399 743.131987,563.801999 C746.162873,566.084518 747.921535,569.714098 747.921535,573.867534 C747.921535,578.02097 746.200291,581.613131 742.907477,583.933068 C739.988846,585.991077 737.257307,586.327842 733.777401,586.327842 L728.613669,586.327842 L728.613669,561.369807 Z M732.43034,564.961968 L732.43034,582.735681 L734.076748,582.735681 C735.947665,582.735681 738.52953,582.586008 740.699794,580.977019 C742.421038,579.667377 744.104864,577.272603 744.104864,573.867534 C744.104864,570.57472 742.533293,567.992854 740.737213,566.683212 C738.566949,565.111641 735.910246,564.961968 734.076748,564.961968 L732.43034,564.961968 Z" id="DETNORSKESTUDENTERSAMFUND" fill="#000000" fill-rule="nonzero"></path>
    </g>
</svg>