<?xml version="1.0" encoding="UTF-8"?>
<svg width="848px" height="848px" viewBox="0 0 848 848" version="1.1" xmlns="http://www.w3.org/2000/svg" xmlns:xlink="http://www.w3.org/1999/xlink">
    <!-- Generator: Sketch 53.2 (72643) - https://sketchapp.com -->
    <title>logo-xl</title>
    <desc>Created with Sketch.</desc>
    <g id="logo-xl" stroke="none" stroke-width="1" fill="none" fill-rule="evenodd">
        <g id="Group" transform="translate(11.000000, 128.000000)" fill="#FFFFFF">
            <path d="M367.627006,24.287921 C367.757178,24.287921 367.882617,24.2618865 368.007464,24.2500527 L373.021463,48.3242308 L410.38268,48.3242308 L419.255104,30.5279063 L428.127527,48.3242308 L465.352063,48.3242308 L470.370796,24.2293435 C472.017475,23.9512482 473.271271,22.5288202 473.271271,20.8046293 C473.271271,18.8828133 471.713937,17.3213377 469.788571,17.3213377 C467.866755,17.3213377 466.307054,18.8828133 466.307054,20.8046293 C466.307054,22.1530957 467.08513,23.3122206 468.206978,23.8897122 L451.691667,35.2135164 L445.987163,21.4312313 C447.482961,21.0413062 448.594158,19.6934315 448.594158,18.072195 C448.594158,16.150379 447.036233,14.5900868 445.113825,14.5900868 C443.190826,14.5900868 441.631717,16.150379 441.631717,18.072195 C441.631717,19.6993484 442.752974,21.0560985 444.25883,21.4377399 L438.304632,35.4868781 C438.304632,35.4868781 421.078699,20.8608401 420.568069,8.46666483 C422.22599,7.89094838 423.419433,6.33479805 423.419433,4.48398503 C423.419433,2.14384262 421.525426,0.249836074 419.183509,0.249836074 C416.849283,0.249836074 414.951135,2.14384262 414.951135,4.48398503 C414.951135,6.33479805 416.147537,7.89094838 417.801908,8.46666483 C417.291869,20.8626152 400.064752,35.4868781 400.064752,35.4868781 L394.138364,21.4986842 C395.793327,21.230056 397.061323,19.8040779 397.061323,18.072195 C397.061323,16.150379 395.502214,14.5900868 393.576848,14.5900868 C391.656807,14.5900868 390.094148,16.150379 390.094148,18.072195 C390.094148,19.5881103 391.07044,20.8626152 392.421273,21.3436609 L386.679493,35.2135164 L369.713904,23.5790738 C370.554107,22.9430047 371.109706,21.943045 371.109706,20.8046293 C371.109706,18.8828133 369.550005,17.3213377 367.627006,17.3213377 C365.700456,17.3213377 364.144306,18.8828133 364.144306,20.8046293 C364.144306,22.7264454 365.700456,24.287921 367.627006,24.287921" id="Fill-1"></path>
            <polyline id="Fill-2" points="373.090099 51.602797 373.090099 58.9764644 419.252737 58.9764644 411.880253 51.602797 373.090099 51.602797"></polyline>
            <path d="M409.426506,364.690776 C409.717618,365.2375 410.082692,365.66411 410.515811,365.969423 C410.935912,366.269411 411.467252,366.419109 412.100954,366.419109 C413.148841,366.419109 413.960051,365.921496 414.577186,364.89846 C415.216213,363.844657 415.538685,362.353592 415.538685,360.473195 C415.538685,359.808133 415.470641,359.09396 415.338102,358.353753 C415.206154,357.626564 415.009121,356.99937 414.747593,356.498799 C414.476598,355.975151 414.120399,355.550908 413.682547,355.234352 C413.25712,354.929631 412.724598,354.774016 412.100954,354.774016 C411.460743,354.774016 410.907511,354.933181 410.4596,355.245595 C409.998672,355.563333 409.621172,356.011244 409.33361,356.567435 C409.056106,357.096999 408.857889,357.708217 408.743693,358.385113 C408.629496,359.076801 408.569144,359.757839 408.569144,360.406925 C408.569144,361.261329 408.639555,362.059521 408.777419,362.779019 C408.9141,363.493191 409.133618,364.136952 409.426506,364.690776" id="Fill-3"></path>
            <path d="M454.689771,356.256205 C455.258387,355.858588 455.684997,355.346182 455.943567,354.724906 C456.228762,354.036176 456.374318,353.206624 456.374318,352.256366 C456.374318,351.222088 456.067822,350.371235 455.458971,349.733391 C454.847753,349.087263 454.08092,348.773666 453.122378,348.773666 C452.160879,348.773666 451.397596,349.074837 450.789336,349.694339 C450.179302,350.318574 449.880497,351.06884 449.880497,351.997796 C449.880497,352.880009 450.220128,353.608382 450.913592,354.226701 C451.613563,354.852119 452.88511,355.536115 454.689771,356.256205" id="Fill-4"></path>
            <path d="M453.122378,366.419109 C454.299254,366.419109 455.239453,366.078886 455.921082,365.404357 C456.613954,364.723319 456.950035,363.879566 456.950035,362.825763 C456.950035,362.303298 456.83643,361.840004 456.615137,361.450078 C456.387927,361.050686 456.05303,360.68147 455.618728,360.347756 C455.192118,360.017592 454.583266,359.662576 453.802233,359.296319 C453.057884,358.939529 452.233657,358.569721 451.346119,358.19518 C450.581652,358.634807 450.009486,359.185673 449.644412,359.835942 C449.258037,360.527039 449.06337,361.325823 449.06337,362.210403 C449.06337,363.47189 449.434953,364.500843 450.169243,365.267676 C450.910633,366.044568 451.877458,366.419109 453.122378,366.419109" id="Fill-5"></path>
            <polyline id="Fill-6" points="352.524656 359.117628 357.556997 359.117628 355.023372 352.627949 352.524656 359.117628"></polyline>
            <path d="M469.984421,154.815207 C470.198022,154.845975 470.413398,154.88621 470.632324,154.929404 C471.12757,155.025258 471.63465,155.152472 472.140547,155.290928 C472.213325,155.306903 472.286103,155.321696 472.357698,155.332938 C472.838152,155.418142 473.403218,155.518137 473.961776,155.663694 C474.846947,155.890904 475.710226,156.198583 476.543328,156.580225 C475.366453,155.799783 474.132183,155.198032 472.927498,154.750121 C472.066586,154.431791 471.214549,154.189197 470.400972,154.008139 C469.57497,153.841282 468.759618,153.685075 468.01882,153.473249 C466.557932,153.079182 465.350288,152.502874 464.416598,151.936625 C465.355613,152.934218 466.623018,153.667916 468.004027,154.189197 C468.645422,154.431791 469.306934,154.635333 469.984421,154.815207" id="Fill-7"></path>
            <path d="M471.57844,182.817629 C471.141771,183.157852 470.72522,183.514643 470.335886,183.890367 C469.553669,184.626432 468.86849,185.426992 468.380344,186.276662 C468.128283,186.700313 467.935983,187.142899 467.796935,187.583118 C467.659663,188.026887 467.559667,188.478348 467.539549,188.926851 C467.495764,189.826223 467.664988,190.728553 468.014086,191.581182 C468.518208,192.797109 469.285041,193.888189 470.125244,194.859156 C469.562545,193.949134 469.094516,192.89888 468.852514,191.705437 C468.695124,190.919078 468.645422,190.077692 468.741868,189.232756 C468.839497,188.385453 469.077949,187.535191 469.42823,186.734631 C470.131161,185.124045 471.251826,183.708126 472.541123,182.463798 C472.85472,182.154343 473.21506,181.848438 473.558833,181.549042 C473.892548,181.278047 474.230404,181.003501 474.570627,180.725998 C474.764702,180.569791 474.951677,180.409442 475.136285,180.250277 C474.412645,180.800551 473.680722,181.327749 472.947615,181.815895 C472.447044,182.157893 472.013925,182.47504 471.57844,182.817629" id="Fill-8"></path>
            <path d="M412.098587,124.848959 C412.054802,124.638908 411.96664,124.377972 411.82345,124.092776 C411.528788,123.526527 410.979106,122.925368 410.189197,122.589286 C409.989796,122.505266 409.775604,122.437222 409.548394,122.394028 C409.41763,122.378052 409.28805,122.359118 409.159061,122.344326 C409.056106,122.341367 408.950785,122.340776 408.849014,122.339592 C408.553168,122.336634 408.353176,122.389886 408.138392,122.462664 C407.931891,122.535442 407.757342,122.633072 407.615336,122.742535 C407.32659,122.962644 407.167425,123.199321 407.082221,123.37387 C406.995243,123.557886 406.975125,123.667941 406.975125,123.667941 C406.975125,123.667941 407.083405,123.641907 407.266238,123.633623 C407.352625,123.626523 407.457354,123.618831 407.570367,123.626523 C407.680422,123.626523 407.801127,123.626523 407.921241,123.651966 C408.041946,123.672675 408.163835,123.704626 408.273889,123.740719 C408.377435,123.785096 408.5153,123.830657 408.561452,123.886867 L408.585711,123.899885 L408.646655,123.928286 L408.76736,123.990413 L408.783928,123.99633 L408.789845,124.001064 C408.775052,123.99633 408.743693,123.98923 408.743693,123.98923 L408.74961,123.992189 L408.752568,123.995147 L408.775052,124.011123 L408.814104,124.046033 L408.895166,124.111119 C409.009363,124.201648 409.133618,124.288035 409.263199,124.377972 C409.788029,124.730029 410.444216,125.001024 411.03295,125.115812 C411.329387,125.169656 411.600382,125.196282 411.807475,125.19924 C411.906287,125.204566 411.999183,125.196282 412.054802,125.192732 C412.116338,125.190365 412.147698,125.190365 412.147698,125.190365 C412.147698,125.190365 412.144739,125.15723 412.135864,125.097469 C412.129947,125.037709 412.124622,124.946588 412.098587,124.848959" id="Fill-9"></path>
            <path d="M484.44656,321.157619 L473.762375,321.157619 C480.763277,316.218764 487.716251,310.803598 494.183446,304.797923 C504.053463,295.63202 511.722385,286.081517 516.991403,276.410309 C523.097666,265.20721 526.198133,253.439637 526.198133,241.445445 L526.198133,72.4960381 L311.224544,72.4960381 L311.224544,241.441895 C311.224544,253.439637 314.318503,265.206027 320.42299,276.410309 C325.692009,286.081517 333.366848,295.63202 343.233314,304.794964 C349.699326,310.801823 356.655259,316.218764 363.654385,321.157619 L352.9702,321.157619 C327.833343,301.963717 304.766816,275.831042 304.766816,241.280363 L304.766816,65.8755948 L532.653494,65.8755948 L532.653494,241.280363 C532.653494,275.831042 509.582234,301.963717 484.44656,321.157619 L484.44656,321.157619 Z M474.541634,367.599535 L465.052075,367.599535 L465.052075,366.098412 L465.30887,366.078886 C465.579273,366.058769 466.001741,366.0209 466.575683,365.964689 C467.142524,365.903153 467.528307,365.843984 467.715282,365.788957 C467.942491,365.717362 468.114082,365.600207 468.227095,365.444592 C468.341292,365.29016 468.398094,365.032183 468.398094,364.683084 L468.398094,355.36275 L464.996456,355.36275 L464.996456,353.66341 L466.023042,353.66341 C466.963241,353.66341 467.815278,353.487677 468.551934,353.142721 C469.289183,352.798356 469.818747,352.428548 470.129977,352.043948 L470.211631,351.938627 L471.765414,351.938627 L471.754172,352.228556 C471.728729,352.822024 471.700328,353.511345 471.672519,354.302437 C471.644709,355.116606 471.6311,355.814211 471.6311,356.42602 L471.6311,364.533386 C471.6311,364.808523 471.688494,365.042241 471.806833,365.250517 C471.921029,365.454651 472.077828,365.599024 472.283737,365.689553 C472.495563,365.777715 472.865962,365.866469 473.380734,365.944572 C473.907932,366.02445 474.300815,366.068827 474.550509,366.078886 L474.817362,366.08717 L474.817362,367.599535 L474.541634,367.599535 Z M447.54213,355.441445 C446.936237,354.624318 446.62619,353.683527 446.62619,352.6528 C446.62619,351.087774 447.297761,349.75765 448.623743,348.706805 C449.929016,347.667793 451.511792,347.140596 453.327104,347.140596 C455.14419,347.140596 456.642947,347.642351 457.780179,348.632843 C458.926878,349.628069 459.50792,350.898432 459.50792,352.407839 C459.50792,353.384723 459.187815,354.318413 458.552929,355.187017 C458.022181,355.914798 457.274282,356.537259 456.325208,357.044339 C457.600305,357.647865 458.552929,358.312335 459.159413,359.024732 C459.873586,359.85606 460.234518,360.918739 460.234518,362.18496 C460.234518,363.791996 459.533363,365.192531 458.149987,366.343372 C456.784953,367.484155 454.973191,368.06283 452.76618,368.06283 C450.696441,368.06283 449.007751,367.529715 447.750405,366.481237 C446.478859,365.420924 445.833915,364.033998 445.833915,362.361284 C445.833915,361.118731 446.216739,360.064335 446.97588,359.230641 C447.628517,358.511735 448.557474,357.888092 449.745,357.368586 C448.793559,356.779852 448.054535,356.134316 447.54213,355.441445 L447.54213,355.441445 Z M438.88094,365.254067 C438.993953,365.454651 439.151935,365.599024 439.356661,365.689553 C439.572037,365.777715 439.938886,365.866469 440.454841,365.944572 C440.980264,366.02445 441.377289,366.068827 441.626984,366.078886 L441.89147,366.08717 L441.89147,367.599535 L432.127366,367.599535 L432.127366,366.098412 L432.381794,366.078886 C432.653381,366.058769 433.077032,366.0209 433.652157,365.964689 C434.217815,365.903153 434.602414,365.843984 434.790573,365.788957 C435.020149,365.717362 435.187006,365.603166 435.302386,365.444592 C435.417766,365.29016 435.475752,365.034549 435.475752,364.683084 L435.475752,355.36275 L432.06938,355.36275 L432.06938,353.66341 L433.098333,353.66341 C434.038532,353.66341 434.889977,353.487677 435.626634,353.142721 C436.36329,352.798356 436.895221,352.428548 437.204085,352.043948 L437.285738,351.938627 L438.843072,351.938627 L438.82828,352.228556 C438.80047,352.822024 438.772661,353.511345 438.746626,354.302437 C438.718817,355.084063 438.706391,355.800602 438.706391,356.42602 L438.706391,364.533386 C438.706391,364.808523 438.763785,365.042241 438.88094,365.254067 L438.88094,365.254067 Z M405.188215,360.638868 C405.188215,358.4715 405.831976,356.672756 407.10293,355.284646 C408.377435,353.889436 410.0679,353.186506 412.128764,353.186506 C414.085489,353.186506 415.724477,353.853935 417.000757,355.175775 C418.27467,356.49584 418.919614,358.267958 418.919614,360.44716 C418.919614,361.419902 418.761632,362.389686 418.453953,363.329884 C418.143314,364.273633 417.692445,365.091944 417.116137,365.753455 C416.45995,366.512596 415.687792,367.084171 414.824513,367.453979 C413.962417,367.820828 412.986125,368.010169 411.925221,368.010169 C411.031766,368.010169 410.170854,367.839762 409.36852,367.503089 C408.563227,367.165824 407.836037,366.67117 407.210027,366.02445 C406.595259,365.388381 406.097646,364.606164 405.73553,363.6991 C405.374006,362.793811 405.188215,361.760125 405.188215,360.638868 L405.188215,360.638868 Z M392.076317,354.782891 C392.412398,354.469295 392.739012,354.209542 393.041367,354.007183 C393.399932,353.77879 393.827134,353.581756 394.312913,353.430875 C394.802243,353.274076 395.3608,353.198932 395.967876,353.198932 C397.34711,353.198932 398.387897,353.640926 399.063018,354.514263 C399.722163,355.36985 400.05706,356.504716 400.05706,357.902884 L400.05706,364.917986 C400.05706,365.188981 400.099662,365.40199 400.186641,365.555238 C400.26652,365.697245 400.406159,365.807299 400.613251,365.891911 C400.816202,365.977115 400.990751,366.038651 401.140449,366.071194 C401.278313,366.106104 401.485405,366.130955 401.754034,366.147522 L402.013786,366.16409 L402.013786,367.599535 L394.872654,367.599535 L394.872654,366.16764 L395.122348,366.147522 C395.297489,366.131547 395.483872,366.118529 395.685639,366.102554 L395.819953,366.091312 C396.043613,366.077111 396.229996,366.044568 396.376144,365.994274 C396.566669,365.93333 396.704533,365.833925 396.791512,365.684227 C396.887957,365.522695 396.937068,365.303178 396.937068,365.028041 L396.937068,358.095184 C396.937068,357.211196 396.733526,356.524833 396.327033,356.060355 C395.926458,355.598835 395.451329,355.375175 394.883304,355.375175 C394.435393,355.375175 394.018842,355.44677 393.649626,355.583451 C393.272127,355.725457 392.93427,355.898823 392.641975,356.105915 C392.366246,356.29644 392.146137,356.502349 391.988155,356.7195 C391.841415,356.921267 391.728402,357.086941 391.649115,357.211196 L391.649115,364.890177 C391.649115,365.145788 391.699409,365.35288 391.798813,365.509678 C391.895259,365.66056 392.043182,365.777715 392.257966,365.87061 C392.430149,365.954039 392.618307,366.016167 392.817707,366.056993 C393.032491,366.099004 393.252009,366.130955 393.474485,366.147522 L393.728913,366.166456 L393.728913,367.599535 L386.571213,367.599535 L386.571213,366.16764 L386.825641,366.147522 L387.155805,366.121488 L387.477686,366.091312 C387.678269,366.077111 387.848677,366.044568 387.995416,365.997233 C388.1889,365.93333 388.324397,365.833925 388.412559,365.684227 C388.509005,365.526246 388.555749,365.306728 388.555749,365.028041 L388.555749,356.711808 C388.555749,356.44673 388.501313,356.203544 388.3883,355.984026 C388.274695,355.764509 388.123813,355.588776 387.932697,355.456829 C387.788324,355.3663 387.610225,355.297072 387.407274,355.253287 C387.185981,355.208318 386.939837,355.174592 386.679493,355.155657 L386.42329,355.13909 L386.42329,353.722579 L386.679493,353.706012 L391.163928,353.403657 L391.289366,353.397148 L391.375753,353.486494 L391.569237,353.675835 L391.649115,353.755122 L391.649115,355.187017 C391.781063,355.05862 391.92011,354.927264 392.076317,354.782891 L392.076317,354.782891 Z M373.430322,354.782891 C373.771729,354.469295 374.096568,354.209542 374.398331,354.007183 C374.755713,353.77879 375.18469,353.581756 375.669286,353.430875 C376.159207,353.274076 376.714806,353.198932 377.32484,353.198932 C378.700524,353.198932 379.742494,353.640926 380.419982,354.514263 C381.079127,355.36985 381.414025,356.504716 381.414025,357.902884 L381.414025,364.917986 C381.414025,365.188981 381.458993,365.40199 381.544788,365.555238 C381.6223,365.697245 381.760164,365.807299 381.970215,365.891911 C382.169615,365.977115 382.347715,366.038651 382.494454,366.071194 C382.63291,366.106104 382.840003,366.130955 383.112181,366.147522 L383.368384,366.16409 L383.368384,367.599535 L376.227843,367.599535 L376.227843,366.16764 L376.480495,366.147522 C376.65327,366.131547 376.840244,366.118529 377.040236,366.102554 L377.17455,366.091312 C377.40176,366.077111 377.584593,366.044568 377.733108,365.994274 C377.923633,365.93333 378.05913,365.833925 378.147292,365.684227 C378.242555,365.522695 378.294032,365.303178 378.294032,365.028041 L378.294032,358.095184 C378.294032,357.211196 378.085756,356.524833 377.683997,356.060355 C377.282238,355.598835 376.810068,355.375175 376.239085,355.375175 C375.791174,355.375175 375.37699,355.44677 375.00659,355.583451 C374.629091,355.725457 374.288868,355.898823 373.998939,356.105915 C373.723802,356.29644 373.500734,356.502349 373.342752,356.7195 C373.196012,356.921267 373.082999,357.086941 373.006079,357.211196 L373.006079,364.890177 C373.006079,365.145788 373.05519,365.35288 373.154594,365.509678 C373.253407,365.66056 373.398963,365.777715 373.613747,365.87061 C373.785338,365.954039 373.975271,366.016167 374.173488,366.056993 C374.388272,366.099004 374.61134,366.130955 374.832041,366.147522 L375.08351,366.166456 L375.08351,367.599535 L367.931727,367.599535 L367.931727,366.16764 L368.180238,366.147522 L368.509219,366.121488 L368.832875,366.091312 C369.03405,366.077111 369.205641,366.044568 369.351197,365.997233 C369.543497,365.93333 369.680178,365.833925 369.767156,365.684227 C369.864786,365.526246 369.912121,365.306728 369.912121,365.028041 L369.912121,356.711808 C369.912121,356.44673 369.85591,356.203544 369.745264,355.984026 C369.636392,355.768059 369.478411,355.585818 369.287294,355.456829 C369.145288,355.3663 368.969555,355.297072 368.764238,355.253287 C368.541762,355.208318 368.295618,355.174592 368.03764,355.155657 L367.781438,355.13909 L367.781438,353.722579 L368.03764,353.706012 L372.522075,353.403657 L372.647514,353.397148 L372.736268,353.486494 L372.925609,353.675835 L373.006079,353.755122 L373.006079,355.187017 C373.13566,355.05862 373.281216,354.927264 373.430322,354.782891 L373.430322,354.782891 Z M345.776999,370.801773 L474.817362,370.801773 L474.817362,372.673887 L345.501862,372.673887 L345.501862,370.801773 L345.776999,370.801773 Z M359.875247,365.315603 C359.861638,365.215016 359.837971,365.129812 359.808978,365.054667 L358.266436,360.883829 L351.834151,360.883829 C351.606941,361.463687 351.427659,361.949467 351.285652,362.367201 C351.12412,362.838188 350.984481,363.277224 350.856676,363.670107 C350.742479,364.046424 350.660826,364.360612 350.61704,364.597289 C350.576805,364.828641 350.555504,365.014432 350.555504,365.149929 C350.555504,365.383056 350.784489,365.58009 351.232992,365.73748 C351.777349,365.929188 352.403951,366.044568 353.096822,366.078886 L353.356575,366.091312 L353.356575,367.599535 L345.501862,367.599535 L345.501862,366.099004 L345.753331,366.078886 C345.981724,366.062319 346.265145,366.009658 346.598859,365.926821 C346.923106,365.850493 347.189368,365.745763 347.384626,365.619141 C347.722482,365.391931 347.986969,365.152296 348.16566,364.910294 C348.351451,364.658825 348.538426,364.304993 348.720075,363.859449 C349.705834,361.39801 350.790998,358.637174 351.943614,355.658596 C353.121673,352.622623 354.167193,349.919182 355.089641,347.550047 L355.158869,347.375497 L356.628632,347.375497 L363.162689,364.284875 C363.289311,364.616223 363.433684,364.880118 363.586932,365.073009 C363.742547,365.270043 363.966798,365.467076 364.240752,365.651684 C364.42536,365.765881 364.676237,365.866469 364.983917,365.941613 C365.302248,366.02445 365.570876,366.068827 365.779151,366.078886 L366.040679,366.088945 L366.040679,367.599535 L357.423275,367.599535 L357.423275,366.094862 L357.683028,366.078886 C358.364657,366.036876 358.941557,365.948122 359.394793,365.814991 C359.833829,365.687186 359.896548,365.571806 359.896548,365.571806 C359.898323,365.501395 359.890631,365.415007 359.875247,365.315603 L359.875247,365.315603 Z M481.702884,370.158012 C481.851399,370.278125 482.039557,370.389955 482.269133,370.490543 C482.541312,370.619532 482.831241,370.724853 483.140104,370.801773 C483.435358,370.879284 483.866702,370.917153 484.426443,370.917153 C484.936481,370.917153 485.440603,370.831357 485.91514,370.659767 C486.377252,370.494093 486.791436,370.221914 487.147635,369.856249 C487.521584,369.463365 487.818022,368.99652 488.029848,368.472281 C488.23694,367.948633 488.34522,367.239786 488.34522,366.36704 C488.34522,365.901378 488.293743,365.4298 488.191972,364.962955 C488.097893,364.524511 487.919793,364.138136 487.661224,363.81448 C487.41153,363.502067 487.060065,363.253556 486.618071,363.074273 C486.162468,362.890849 485.571367,362.799137 484.860745,362.799137 L482.793964,362.799137 L482.793964,360.679104 L484.259586,360.679104 C485.428178,360.679104 486.275481,360.36314 486.772502,359.738905 C487.287274,359.100469 487.548211,358.105243 487.548211,356.783403 C487.548211,355.721315 487.30325,354.917205 486.815104,354.393558 C486.324591,353.868135 485.641778,353.614299 484.729389,353.614299 C484.286212,353.614299 483.923505,353.66696 483.65251,353.766364 C483.361397,353.876419 483.123537,353.981149 482.944254,354.084695 C482.74012,354.200666 482.575038,354.323738 482.448416,354.453911 C482.358479,354.550356 482.282742,354.62846 482.218839,354.694729 L482.420015,355.622503 C482.514094,356.06568 482.563796,356.49229 482.563796,356.892274 C482.563796,357.30705 482.388655,357.679816 482.046065,358.002288 C481.704659,358.318252 481.217696,358.479192 480.589911,358.479192 C480.010053,358.479192 479.578117,358.262041 479.302389,357.831289 C479.05092,357.444914 478.920747,356.989311 478.920747,356.478681 C478.920747,355.963909 479.067487,355.431386 479.352091,354.903597 C479.631961,354.379949 480.049104,353.888845 480.59642,353.43975 C481.137226,352.991839 481.803472,352.627949 482.577997,352.351628 C483.352522,352.07945 484.253669,351.938627 485.254812,351.938627 C486.406245,351.938627 487.381353,352.115543 488.151737,352.465825 C488.915019,352.812557 489.528604,353.241533 489.974148,353.743288 C490.407267,354.233209 490.711988,354.759224 490.880029,355.310089 C491.040969,355.843204 491.122623,356.311824 491.122623,356.698199 C491.122623,357.181611 491.054578,357.670941 490.919081,358.147845 C490.7824,358.637174 490.55874,359.096919 490.246327,359.518204 C489.909062,359.970256 489.459376,360.386808 488.913836,360.749515 C488.528053,361.009268 488.066533,361.236478 487.539335,361.425819 C487.851749,361.488538 488.173037,361.569009 488.504385,361.67433 C489.109686,361.867813 489.666468,362.153009 490.155206,362.526958 C490.668203,362.928125 491.094813,363.440531 491.418469,364.057666 C491.74745,364.681901 491.914307,365.477727 491.914307,366.419109 C491.914307,368.250988 491.171733,369.758619 489.703153,370.900585 C488.255874,372.020067 486.429912,372.589866 484.272011,372.589866 C483.392757,372.589866 482.57563,372.47567 481.839565,372.256152 C481.096991,372.032492 480.45323,371.725404 479.927216,371.347313 C479.385226,370.962121 478.962166,370.51066 478.665728,370.00358 C478.364557,369.491175 478.212492,368.951551 478.212492,368.404236 C478.212492,367.908398 478.334381,367.450428 478.580524,367.05222 C478.845603,366.613184 479.289963,366.378874 479.868047,366.378874 C480.48459,366.378874 480.968594,366.540406 481.307634,366.855186 C481.646673,367.177067 481.823589,367.55575 481.823589,367.977626 C481.823589,368.287673 481.774479,368.680556 481.676849,369.146218 C481.599929,369.498867 481.536027,369.773412 481.485733,369.970445 C481.532477,370.016006 481.601705,370.076358 481.702884,370.158012 L481.702884,370.158012 Z M368.195622,259.143549 C368.195622,259.143549 369.311553,259.107456 370.613868,258.327014 C371.909082,257.551305 373.365236,256.662584 374.506019,257.431783 C375.639701,258.200983 378.725375,259.219285 378.725375,259.219285 C378.725375,259.219285 377.643762,259.008051 383.443529,260.242321 C389.239745,261.480733 389.536774,257.279719 389.536774,257.279719 L389.610144,257.215816 C389.452754,256.244257 388.831477,254.892832 387.185981,253.102964 C381.837084,247.27953 382.821068,224.181052 394.451961,222.24326 C394.964958,225.160894 395.793327,228.043618 396.821688,230.828713 C397.086174,231.545844 397.34356,232.265933 397.660116,232.958805 C397.968387,233.669427 398.238791,234.335672 398.579605,235.076471 C398.898527,235.735024 399.222183,236.396536 399.54643,237.051539 C399.858844,237.713051 400.248177,238.39113 400.597867,239.055009 C401.90314,241.421778 403.329118,243.642398 404.895327,245.69912 C404.965738,245.918638 405.037333,246.137564 405.12017,246.354715 L405.726655,248.002578 C405.93848,248.549301 406.174566,249.074132 406.397633,249.609022 C406.626027,250.142136 406.844361,250.688268 407.086955,251.196532 C407.374517,251.784082 407.639004,252.28347 407.931891,252.805934 C409.077407,254.856148 410.407531,256.712286 411.818717,258.404525 C411.993266,258.611618 412.168999,258.826402 412.342956,259.030536 C412.524014,259.236445 412.70803,259.435253 412.886721,259.634653 C413.251795,260.036412 413.60326,260.438763 413.97721,260.807979 C414.355301,261.180745 414.72925,261.543452 415.099058,261.903793 C415.120359,261.926277 415.139885,261.948761 415.164736,261.968879 C412.254202,261.910301 407.940175,261.167136 402.484182,258.339439 C397.968387,255.996338 393.190473,266.729634 393.190473,266.729634 C391.972179,268.891677 388.778817,271.035969 384.836964,268.615948 C380.894519,266.194744 376.126664,266.164568 376.126664,266.164568 L375.039725,267.138493 C372.608462,268.368621 372.826796,266.485857 372.826796,266.485857 C373.680017,266.037946 371.837487,264.516705 371.492531,265.324957 C371.153491,266.133208 370.891371,265.872272 370.891371,265.872272 C368.401531,265.686481 366.514625,263.409649 365.05492,262.714411 C363.591666,262.012664 363.327179,261.607355 363.327179,261.607355 C363.122454,260.197944 368.195622,259.143549 368.195622,259.143549 L368.195622,259.143549 Z M370.597892,172.436983 C367.939419,171.61098 366.040679,166.328945 365.803411,165.165678 C365.52354,163.814253 366.540067,164.327842 366.540067,164.327842 C365.998077,162.392417 366.763727,162.529689 366.763727,162.529689 C366.763727,162.529689 368.399164,164.380502 370.489613,164.324292 C370.520972,164.324292 370.558841,164.324292 370.597892,164.324292 L370.597892,172.436983 Z M486.380802,224.06153 C486.380802,224.06153 498.699832,236.479373 484.268461,244.461892 C484.293312,244.355979 484.318755,244.239416 484.336506,244.137644 L484.487979,243.06964 L484.50573,242.961952 L484.514605,242.857814 L484.521114,242.805154 L484.550698,242.340675 C484.566082,242.034771 484.5933,241.735374 484.603359,241.42947 C484.608684,241.060254 484.603359,240.687488 484.583833,240.316497 C485.863663,239.660902 491.387701,236.049805 486.380802,224.06153 L486.380802,224.06153 Z M418.83086,100.996073 C425.049545,99.4837084 431.072971,103.476447 431.514965,103.777618 C431.542183,103.795961 431.566442,103.811936 431.591293,103.832646 C431.764659,103.953942 431.922641,104.116066 432.098373,104.255114 C432.272922,104.407179 432.436821,104.581136 432.609004,104.749177 C432.765802,104.934968 432.949227,105.094133 433.093599,105.294125 C433.250398,105.483467 433.413705,105.665708 433.555119,105.86925 C433.694759,106.06865 433.862799,106.245566 433.984688,106.448517 C434.11131,106.6491 434.25805,106.827791 434.374021,107.010624 C434.486443,107.201149 434.610698,107.374515 434.717794,107.534272 C434.939679,107.853785 435.100619,108.143715 435.243809,108.331281 C435.378123,108.527131 435.463326,108.635411 435.463326,108.635411 C435.463326,108.635411 435.462143,108.498138 435.434334,108.262053 C435.398832,108.03011 435.375164,107.682195 435.256234,107.29582 C435.152096,106.900569 434.99234,106.448517 434.76158,105.989955 C434.652117,105.754462 434.511886,105.52311 434.363962,105.2959 C434.233199,105.058632 434.046224,104.849173 433.872858,104.630838 C433.702451,104.408362 433.490033,104.222571 433.290633,104.031454 C433.088274,103.846846 432.861064,103.691231 432.645689,103.538575 C432.546284,103.476447 432.448063,103.420828 432.346884,103.365209 C433.888242,102.724406 437.659688,101.985383 443.928666,105.783455 C443.928666,105.783455 446.821449,106.926604 448.322572,110.672015 C448.322572,110.672015 448.408367,110.706333 448.553923,110.770828 C450.354443,110.766686 452.521219,110.836505 454.977333,111.203355 C456.251246,111.396838 457.599121,111.672566 458.989598,112.10036 C460.377707,112.529928 461.807827,113.121029 463.185878,113.985491 C464.550912,114.85232 465.849085,116.043988 466.760291,117.585346 C467.687472,119.120787 468.165559,120.966867 468.233604,122.844897 C468.29514,124.728845 467.975035,126.631135 467.460262,128.497924 C467.185717,129.427473 466.885729,130.358796 466.523022,131.268818 C466.171557,132.162865 465.817725,133.068154 465.459751,133.97936 C464.764513,135.796447 464.119569,137.658502 463.591187,139.569076 C463.06399,141.477875 462.64448,143.441109 462.531467,145.397835 C462.487682,146.143367 462.502474,146.891266 462.577027,147.617864 C463.753903,147.653957 464.698243,148.613682 464.698243,149.797658 C464.698243,150.385208 464.4592,150.919506 464.079333,151.311206 C464.227257,151.398777 464.37518,151.488122 464.533753,151.575101 C465.479869,152.096382 466.692246,152.607604 468.156092,152.927709 C468.887424,153.101075 469.676741,153.204621 470.527594,153.346627 C471.389098,153.498101 472.272495,153.712885 473.186067,154.004589 C474.999604,154.596873 476.909586,155.496245 478.658628,156.866012 C480.150875,158.039338 481.542535,159.588388 482.440132,161.493045 C482.998098,162.314905 483.466718,163.191201 483.809308,164.129625 C484.605134,166.231907 484.792109,168.54424 484.411651,170.683799 C484.0164,172.822766 483.137737,174.787775 482.019439,176.466406 C480.902324,178.158646 479.575751,179.602966 478.176399,180.857945 C477.483527,181.488689 476.766988,182.066772 476.04749,182.613496 C475.6978,182.876799 475.355211,183.136552 475.013213,183.396896 C474.699616,183.649549 474.399628,183.887409 474.100823,184.159587 C472.912705,185.200965 471.912154,186.357724 471.296203,187.60146 C470.678476,188.839872 470.445349,190.15402 470.618123,191.401899 C470.779064,192.660428 471.307445,193.823695 471.925763,194.843181 C472.56124,195.869766 473.301447,196.760855 474.041062,197.530055 C474.784819,198.309313 475.520293,198.982659 476.213164,199.561925 C477.597724,200.719275 478.794125,201.506226 479.604744,202.047032 C480.082831,202.355896 480.430746,202.569497 480.646122,202.693752 C480.836055,202.79789 480.952618,202.8541 480.952618,202.8541 L480.878657,203.041667 C480.878657,203.041667 480.843155,203.033975 480.789311,203.013857 L480.766827,203.061193 L480.659139,203.016224 L480.647897,203.041075 C480.647897,203.041075 480.363885,202.939304 479.83077,202.752329 C479.300614,202.547012 478.531414,202.234599 477.569914,201.796155 C477.542696,201.783729 477.510153,201.771304 477.488261,201.75592 C476.50191,201.33286 475.338643,200.79442 474.055855,200.077881 C472.700288,199.328799 471.220466,198.3886 469.716976,197.16498 C468.970261,196.543704 468.222362,195.854382 467.521798,195.047314 C466.812951,194.245571 466.157356,193.317206 465.656785,192.242694 C465.153846,191.171139 464.808298,189.930952 464.826049,188.629821 C464.832558,187.328099 465.197632,186.014542 465.799974,184.864293 C466.396992,183.695701 467.211752,182.675623 468.115857,181.77566 C469.026471,180.860904 470.008089,180.066261 471.062484,179.319546 C471.606249,178.931987 472.075461,178.639691 472.647627,178.278167 C473.1624,177.965754 473.671846,177.636773 474.171235,177.290041 C475.169419,176.608412 476.125594,175.863472 477.026741,175.064096 C478.818976,173.456468 480.379269,171.57252 481.287516,169.43947 C481.523601,168.887421 481.709393,168.321764 481.843707,167.746639 C481.859091,167.449609 481.863824,167.154947 481.857316,166.860876 C481.765603,166.235457 481.620639,165.616547 481.401713,165.010654 C480.797003,163.329065 479.734916,161.76759 478.340889,160.525036 C476.948638,159.273016 475.234505,158.332817 473.388426,157.813903 C472.523372,157.566576 471.395015,157.39321 470.362512,157.115115 C469.316992,156.845895 468.270289,156.521056 467.244295,156.104504 C466.217709,155.680853 465.205324,155.154839 464.281101,154.453092 C463.383504,153.771462 462.585311,152.904633 462.000719,151.909407 C461.045728,151.676872 460.331555,150.824244 460.331555,149.797658 C460.331555,149.27046 460.527406,148.795923 460.832127,148.419015 C460.688938,147.359886 460.688938,146.304307 460.764674,145.281272 C460.937448,143.129287 461.436245,141.086174 462.020837,139.117023 C462.617262,137.150238 463.323743,135.261557 464.066316,133.43027 C464.826049,131.575315 465.627792,129.878934 466.157356,128.115099 C466.687512,126.357182 467.015902,124.588023 467.015902,122.870932 C467.008801,121.156208 466.63071,119.505387 465.849085,118.11136 C465.07811,116.710825 463.936144,115.588977 462.688857,114.74049 C461.428553,113.892595 460.081861,113.281377 458.752921,112.828141 C457.422205,112.370172 456.115749,112.058941 454.872012,111.832915 C452.854934,111.467841 451.017729,111.313409 449.427261,111.242406 C450.749101,112.057758 452.831266,113.819226 453.314087,117.037439 C453.517629,118.416082 453.530054,120.489963 451.894617,121.682814 C451.095241,122.267406 450.444971,122.742535 449.904165,123.13601 C449.782276,122.9088 449.652104,122.676265 449.506548,122.446689 C449.28703,122.095224 449.071062,121.711807 448.821368,121.340224 C448.55629,120.972784 448.284112,120.595284 448.007792,120.207726 C447.701295,119.83496 447.387698,119.453318 447.070551,119.063985 C446.736245,118.685302 446.376496,118.317861 446.019706,117.932669 C445.64339,117.56937 445.256423,117.202521 444.854072,116.839222 C444.441071,116.493674 444.030437,116.130967 443.589626,115.799027 C442.712739,115.12864 441.793841,114.491388 440.832341,113.923955 C438.9123,112.776664 436.867412,111.866641 434.89471,111.213413 C433.914276,110.86964 432.939168,110.626455 432.02027,110.396287 C431.095455,110.177952 430.217976,110.007545 429.398482,109.89039 C428.900277,109.811103 428.428699,109.756076 427.983154,109.711107 C427.947653,109.675014 427.91866,109.645429 427.881383,109.612886 C427.8802,109.605194 427.873691,109.604011 427.873691,109.604011 L427.787304,109.601644 C427.471932,109.26793 427.106858,108.985692 426.764269,108.678604 C426.586169,108.524173 426.392686,108.39045 426.209261,108.244302 C426.02347,108.102296 425.836495,107.953781 425.633545,107.826568 C425.434736,107.695212 425.241845,107.556756 425.031202,107.440784 L424.380933,107.094053 C424.154906,106.998199 423.931247,106.888736 423.691611,106.801165 C423.444284,106.720103 423.204649,106.630758 422.937204,106.576322 C422.690468,106.517745 422.423023,106.485793 422.141378,106.478101 C422.00588,106.478101 421.865649,106.482835 421.71891,106.507094 C421.639623,106.514786 421.545544,106.539045 421.457382,106.560346 C421.416555,106.56863 421.366261,106.584606 421.313009,106.604723 C421.261532,106.623066 421.217747,106.6349 421.110059,106.69466 L421.21538,106.643183 C420.543809,106.907078 419.888806,107.227775 419.261021,107.605866 L419.222561,107.584565 C418.931448,107.759706 418.646252,107.941948 418.369932,108.141348 L415.261182,107.580424 C415.261182,107.580424 415.368278,106.597031 416.877685,106.085218 C416.101976,104.889408 414.639905,102.016151 418.83086,100.996073 L418.83086,100.996073 Z M374.094201,200.769569 C375.290603,199.05662 376.850303,198.137722 378.3177,196.085734 C379.780954,194.033154 382.524631,188.44403 382.524631,188.44403 C384.557093,183.272641 387.934472,183.275007 387.934472,183.275007 C394.65432,182.537759 403.989446,176.084765 409.359644,170.071397 C413.707398,165.208871 416.54752,165.531344 417.47056,165.83429 C420.546768,155.810433 410.258425,151.031336 410.258425,151.031336 L410.258425,151.027786 C398.291451,146.625596 388.750415,136.305894 388.750415,136.305894 C385.312684,135.322501 385.965912,131.601941 386.288976,131.002557 C386.613815,130.401398 386.051708,127.67488 386.051708,127.67488 C386.051708,127.67488 385.041097,123.444282 386.760555,123.307009 C388.485337,123.17092 388.197775,124.956647 388.93739,124.483885 C389.679964,124.009348 390.320175,124.260817 390.320175,124.260817 C390.320175,124.260817 393.490461,125.390357 399.129287,120.875154 C402.98002,117.79303 409.72886,115.108523 413.623378,113.714496 C406.092912,114.28252 406.291129,112.703294 406.291129,112.703294 L413.461254,109.805778 L416.157595,110.237121 C415.335143,111.080874 414.629846,112.050066 414.097915,113.094994 C414.01212,113.271319 413.934608,113.452376 413.85828,113.630476 C413.480188,114.477187 413.183159,115.349341 412.974292,116.235696 C412.960683,116.277115 412.957133,116.316758 412.941749,116.354035 C412.884354,116.610237 412.827552,116.865848 412.778442,117.12501 C412.524014,118.501285 412.428751,119.898862 412.453603,121.273955 L412.453603,121.283422 C412.474903,122.646681 412.564249,123.99633 412.728739,125.350714 C412.915714,126.713381 413.121623,128.054155 413.66243,129.468299 C413.810353,129.833373 413.955909,130.173005 414.263589,130.588964 L414.342284,130.687777 L414.429263,130.787181 L414.48784,130.856409 C414.576002,130.94753 414.684874,131.048709 414.82688,131.15048 C414.966519,131.247518 415.163553,131.364081 415.444606,131.417925 C415.724477,131.477094 416.0647,131.422658 416.290134,131.314379 C416.738637,131.089536 416.88301,130.858776 417.035075,130.68541 C417.174122,130.498435 417.272935,130.340454 417.371156,130.188389 L417.879419,129.344636 C418.525547,128.297932 419.29238,127.509798 420.29944,127.106264 C420.420737,127.057746 420.559193,127.00686 420.671023,126.974317 C420.720725,126.958341 420.812437,126.934082 420.892908,126.913373 L421.097633,126.869587 C421.394662,126.809235 421.682225,126.738823 421.991088,126.705689 C422.292259,126.65362 422.601123,126.617527 422.920045,126.596817 C423.230091,126.561316 423.546055,126.548299 423.866161,126.539423 C424.772633,126.502738 425.693306,126.509839 426.615754,126.548299 L426.618712,126.540015 C426.996212,126.554807 427.371345,126.571375 427.743519,126.592675 C428.818624,126.659537 429.895503,126.74474 430.977708,126.826394 C431.214385,126.844736 431.445737,126.864854 431.681822,126.880238 C432.342742,126.931123 433.011946,126.977867 433.685883,127.015144 C434.033798,127.029344 434.39118,127.050645 434.717794,127.044728 L434.963347,127.046503 L435.227241,127.041178 L435.724263,127.029344 C436.380449,127.015144 437.033677,127.008635 437.64312,127.041178 C438.248421,127.067213 438.83538,127.203893 439.009929,127.436428 C439.221163,127.654171 439.23063,128.283732 439.110517,128.879566 C439.022355,129.452324 438.791595,129.878934 438.341317,130.123302 C437.891631,130.371221 437.260296,130.410865 436.644344,130.348737 C436.016559,130.284834 435.385223,130.135728 434.762763,129.948753 C434.353904,129.821539 433.948003,129.673616 433.542694,129.516818 C433.455123,129.48605 433.365778,129.452324 433.279391,129.415047 C432.546284,129.122751 431.826195,128.796729 431.120306,128.43343 C432.200144,129.206771 433.34566,129.897868 434.585847,130.439266 C435.20239,130.709078 435.844376,130.943979 436.531331,131.078294 C437.21296,131.207282 437.970918,131.278286 438.734201,130.966464 C439.112884,130.816174 439.464349,130.539262 439.711676,130.201406 C439.956637,129.862366 440.105743,129.467116 440.187397,129.112692 C440.2726,128.781936 440.346562,128.397337 440.355437,128.005636 C440.363129,127.613936 440.29686,127.13289 440.001605,126.705689 C439.701617,126.285587 439.25844,126.049502 438.877982,125.925247 C438.495157,125.791524 438.130083,125.73413 437.778618,125.689162 C437.070954,125.596266 436.395833,125.585615 435.727813,125.564906 L435.230791,125.554256 L434.997665,125.54538 L434.752704,125.532955 C434.408931,125.522896 434.112493,125.490353 433.80008,125.465502 C433.152769,125.399232 432.500132,125.321721 431.846312,125.243026 C431.500764,125.202199 431.152258,125.161372 430.806709,125.121137 C430.394892,125.070843 429.983666,125.02765 429.568298,124.981498 C429.005598,124.921145 428.439941,124.861384 427.873691,124.816416 C426.537059,124.703994 425.186226,124.620566 423.8135,124.638908 C423.47446,124.641866 423.12477,124.651925 422.779222,124.678551 C422.430124,124.693344 422.085167,124.72352 421.731335,124.771447 C421.382237,124.802807 421.021896,124.873218 420.668065,124.944813 C420.575169,124.966114 420.503574,124.979131 420.389378,125.003982 L420.128441,125.076169 C419.918982,125.133563 419.752125,125.19924 419.563967,125.267877 C418.834411,125.557214 418.154556,125.9998 417.591857,126.529364 C417.026199,127.057746 416.57178,127.669555 416.192505,128.263022 L415.703176,129.062398 C415.680691,129.023938 415.659391,128.983703 415.640456,128.941102 C415.626847,128.908559 415.615014,128.879566 415.600221,128.847614 C415.582471,128.800871 415.559986,128.754127 415.545194,128.709158 C415.136926,127.646479 414.919775,126.350673 414.759427,125.090961 C414.601445,123.817639 414.509733,122.521242 414.478373,121.239045 C414.474231,120.921898 414.471864,120.607709 414.476598,120.295296 L414.476598,120.293521 C414.476598,120.275179 414.478373,120.260978 414.478373,120.245002 C414.485473,119.982883 414.496715,119.71958 414.514466,119.458643 C414.518608,119.359239 414.528075,119.257468 414.534584,119.158064 C414.547009,118.977598 414.56476,118.793581 414.587244,118.613115 C414.59967,118.506019 414.608545,118.394189 414.623929,118.286501 C414.649964,118.081776 414.682507,117.874092 414.713867,117.671141 C414.726292,117.60783 414.731617,117.543928 414.741676,117.480617 C414.957644,116.252855 415.315617,115.062962 415.854649,113.973657 C416.045766,113.592016 416.259366,113.225167 416.488943,112.871926 C416.513794,112.831691 416.539237,112.797965 416.565271,112.758322 C416.677101,112.589098 416.793664,112.422832 416.91437,112.260117 C416.983006,112.171955 417.053417,112.087934 417.121462,112.001547 C417.217908,111.886759 417.307253,111.768421 417.406066,111.657182 C417.588307,111.45364 417.778832,111.256015 417.981191,111.06904 C418.675245,110.420546 419.478172,109.885656 420.340267,109.449579 L420.276364,109.43952 C420.501207,109.325915 420.724867,109.216452 420.96036,109.117048 L421.029588,109.08273 L421.029588,109.07918 L421.034914,109.07918 C421.058581,109.074446 421.067457,109.062612 421.10355,109.060246 C421.162719,109.044862 421.231947,109.035986 421.310642,109.031844 C421.396438,109.023561 421.487558,109.021194 421.582229,109.023561 C421.684592,109.021786 421.791688,109.023561 421.902334,109.041903 C422.085167,109.053737 422.2751,109.102848 422.465625,109.141899 C422.658517,109.188643 422.852,109.261421 423.046667,109.316448 L423.624158,109.551942 L424.202833,109.827079 C424.399275,109.908732 424.589208,110.019379 424.780917,110.124108 C424.94659,110.219371 425.119956,110.310491 425.284447,110.411671 C425.284447,110.411671 425.289772,110.411671 425.295689,110.414037 C425.309298,110.427646 425.329415,110.436522 425.348349,110.447764 C425.715198,110.691541 426.099207,110.906917 426.464281,111.164895 C426.595636,111.256015 426.731726,111.344177 426.864265,111.435298 L426.867223,111.437073 C427.102717,111.598605 427.338802,111.758362 427.564828,111.937645 C427.921618,112.207456 428.302668,112.4536 428.651767,112.741162 C429.005598,113.013933 429.360022,113.286111 429.725096,113.553556 L429.725096,113.551189 C429.731013,113.555923 429.732196,113.560656 429.741072,113.567165 C429.635751,113.425159 429.525696,113.291436 429.420966,113.151797 C429.250559,112.928137 429.078377,112.700927 428.906786,112.479635 C428.822174,112.372538 428.73342,112.274909 428.645258,112.17018 C428.513902,112.015748 428.384322,111.860725 428.246457,111.708068 L428.628099,111.974921 C429.300853,112.192664 430.004966,112.439399 430.751682,112.693235 C431.610227,113.007424 432.508416,113.355931 433.42258,113.742897 C434.341478,114.122172 435.263926,114.557657 436.197616,115.009118 C437.115923,115.486022 438.056121,115.965885 438.946026,116.515567 C439.856049,117.040398 440.722286,117.635048 441.564264,118.224965 C441.986141,118.523178 442.382574,118.844467 442.7867,119.14268 C443.1784,119.46456 443.564775,119.783482 443.942867,120.095896 C444.306757,120.423693 444.667098,120.749716 445.017971,121.065088 C445.355827,121.399394 445.688358,121.725416 446.010831,122.040788 C446.619682,122.705258 447.208415,123.336002 447.708987,123.95432 C447.829692,124.093368 447.94093,124.234191 448.04921,124.376197 C448.104237,124.441875 448.154531,124.508144 448.208375,124.579147 C448.208375,124.580922 448.209559,124.585064 448.209559,124.585064 C448.278787,124.675001 448.346831,124.767897 448.416059,124.853692 C448.633802,125.144213 448.861012,125.411658 449.04562,125.680878 C449.400635,126.224643 449.753875,126.682021 450.005936,127.081413 C450.501774,127.884339 450.813004,128.341717 450.813004,128.341717 C450.813004,128.341717 450.805312,128.311541 450.789336,128.260656 C452.685118,131.575315 453.369706,134.085273 453.369706,134.085273 C453.369706,134.085273 455.408085,138.916439 457.978396,148.449783 C462.180002,164.027854 462.958669,167.433042 461.680614,176.010211 C460.784792,182.037188 457.873075,187.59081 460.551073,195.999939 C468.636546,221.395365 462.352184,236.068739 454.803967,244.220481 C455.311048,246.381933 457.376053,250.177638 465.640809,250.542712 C469.756028,250.721995 472.523372,249.474708 474.307916,247.59076 L474.741034,247.246987 L475.150485,246.845228 C475.68715,246.289037 476.168196,245.655335 476.530903,244.957138 C476.884735,244.260716 477.179989,243.528202 477.330279,242.782669 C477.492403,242.043054 477.569914,241.299889 477.561631,240.594592 C477.549797,239.170389 477.253951,237.882867 476.8445,236.858648 C476.835624,236.835572 476.823199,236.816638 476.814915,236.795337 C476.546879,235.618461 476.125594,234.684179 475.634489,234.167632 C474.416195,232.88721 470.517536,231.348811 469.379712,235.190668 C469.379712,235.190668 468.485665,239.110036 475.713776,240.727723 C475.649873,241.250187 475.543369,241.778568 475.403729,242.298074 C475.240422,242.891541 475.004929,243.460157 474.720917,244.000964 C474.60317,244.239416 474.462347,244.466625 474.315608,244.687918 C471.139996,243.906885 462.167576,240.86322 465.741988,231.860624 C469.314034,222.858028 484.328814,229.306881 482.798698,242.721133 C481.137226,257.319954 460.405517,267.32961 447.365214,250.323194 C445.034539,251.759823 443.054145,252.611268 441.916913,253.046753 C444.984245,256.256683 442.654753,258.092112 441.858927,260.265989 C440.964288,262.697252 445.226247,264.561674 449.604177,267.784029 C453.980924,271.005793 453.497511,272.678507 450.685199,278.385377 C447.869927,284.092248 449.77991,287.770798 449.77991,287.770798 C449.865113,290.602637 449.48643,295.145057 448.886454,297.652648 C448.290029,300.153731 448.039151,300.319405 447.31492,301.234161 C446.583589,302.147142 446.336261,301.285638 446.146328,300.572649 C445.95462,299.861435 444.911467,299.602866 444.786028,300.224142 C444.664139,300.853111 444.582486,301.269662 444.582486,301.269662 C444.310307,304.067183 438.366168,303.847665 437.273313,303.641756 C436.184599,303.441173 436.875104,302.837055 436.875104,302.837055 C435.267476,302.662506 435.601191,302.130575 435.601191,302.130575 C435.601191,302.130575 437.476263,301.469063 438.06618,299.890428 C438.662014,298.315344 438.763785,296.873982 439.683867,295.066954 C442.390266,289.723974 443.187276,283.795218 443.421586,280.93202 C442.570732,277.641029 439.518193,274.498552 432.144525,271.367317 C431.52739,271.104605 430.929781,270.832427 430.344598,270.549007 C429.898462,270.267361 429.285469,269.857318 428.498518,269.383965 C428.085517,269.120662 427.657724,268.786356 427.171945,268.444949 C426.700366,268.089934 426.164293,267.751486 425.625853,267.338485 C424.569091,266.485857 423.35553,265.577017 422.144336,264.455169 C421.839023,264.172932 421.506492,263.920871 421.205321,263.616741 C420.9006,263.314387 420.590553,263.00789 420.276364,262.697252 C419.62787,262.095501 419.013102,261.419197 418.382949,260.732834 C417.724988,260.061263 417.140396,259.293247 416.496635,258.555407 C416.191322,258.178499 415.900209,257.775557 415.590163,257.390365 C415.435731,257.192148 415.282483,256.995115 415.124501,256.798081 C414.981311,256.593356 414.836938,256.386263 414.690199,256.179171 C414.096732,255.356127 413.532849,254.499949 412.974292,253.627795 C412.441177,252.74144 411.905104,251.840293 411.425833,250.916661 C411.319329,250.713119 411.214599,250.504844 411.110461,250.298935 C411.009282,250.088292 410.919936,249.892442 410.834733,249.701917 C410.810473,249.65044 410.780889,249.593638 410.764321,249.548669 C410.542437,249.043956 410.35132,248.542201 410.140678,248.042221 C409.940686,247.541649 409.721168,247.039894 409.531827,246.532814 L408.984512,245.002698 C408.264422,242.968461 407.661488,240.902272 407.267421,238.847917 C407.249078,238.750879 407.234878,238.65325 407.217127,238.553846 C407.124231,238.060966 407.041986,237.569862 406.970391,237.078166 C406.917139,236.714275 406.870987,236.349793 406.830752,235.988269 C406.807084,235.784135 406.7917,235.582959 406.774541,235.382376 C406.747915,235.116114 406.727798,234.850445 406.709455,234.584183 C406.697621,234.42206 406.689929,234.262894 406.682829,234.099587 C406.660345,233.666469 406.649103,233.230983 406.652653,232.809698 C406.657386,232.377763 406.681646,231.95352 406.709455,231.53046 C406.721881,231.384904 406.734306,231.244081 406.746732,231.093791 C406.7704,230.819838 406.799392,230.540559 406.833119,230.267789 C406.852053,230.103299 406.873354,229.944133 406.89643,229.786152 C406.953824,229.415752 407.01536,229.04772 407.086955,228.682646 C407.185767,228.202192 407.299964,227.731205 407.431911,227.269685 C407.915324,225.549044 408.641922,224.004728 409.479166,222.657445 C409.653715,222.376983 409.84069,222.102437 410.025298,221.837359 C410.098076,221.729671 410.172038,221.6279 410.249549,221.522579 C410.345403,221.395365 410.437707,221.266376 410.538295,221.144488 C410.759588,220.856925 410.981472,220.576463 411.209866,220.311385 L411.212232,220.311385 C411.538846,219.927377 411.867827,219.560528 412.195033,219.22563 C413.13109,218.289573 414.031054,217.532207 414.812087,216.955308 C415.600221,216.391425 416.249308,215.964815 416.708461,215.701512 C417.165247,215.432884 417.42145,215.308628 417.42145,215.308628 C417.42145,215.308628 417.137438,215.348863 416.617932,215.484361 C416.103751,215.633467 415.339285,215.847068 414.411512,216.255927 C413.48788,216.657686 412.373132,217.206185 411.192115,218.017987 C410.009914,218.823871 408.74961,219.887142 407.578651,221.257501 C406.595259,222.402425 405.679911,223.773968 404.944438,225.331893 C404.802431,225.631881 404.663384,225.934236 404.53617,226.250199 C403.742119,228.186808 403.223797,230.364827 403.038005,232.627457 C403.005462,232.99549 402.987712,233.369439 402.975286,233.739838 C402.971144,233.833326 402.968778,233.920305 402.968778,234.0132 C402.959902,234.364665 402.951618,234.726189 402.959902,235.088897 L402.959902,235.126173 C402.968778,235.524382 402.984162,235.925549 403.005462,236.327308 C403.011379,236.368727 403.013154,236.405412 403.015521,236.444463 C403.038005,236.805987 403.069365,237.164553 403.105458,237.521343 C402.853398,236.958644 402.597195,236.413104 402.359926,235.811944 C402.090706,235.131498 401.81912,234.448686 401.550491,233.762323 C401.323282,233.143413 401.086013,232.423915 400.856437,231.761812 C400.609109,231.087874 400.418584,230.395003 400.227468,229.71219 C399.444659,226.96733 398.869534,224.175727 398.61629,221.408383 C398.351804,218.646955 398.360087,215.918663 398.61629,213.316993 C399.115678,208.103001 400.629227,203.430409 402.404303,199.696239 C403.120842,198.186833 403.866374,196.838958 404.607765,195.634865 C404.814265,195.668591 405.017216,195.708826 405.223125,195.733086 C405.544413,195.764445 405.872211,195.789296 406.194683,195.795805 C406.520705,195.804089 406.848503,195.798172 407.172158,195.771545 C407.501139,195.752611 407.822428,195.702909 408.147267,195.659124 C408.789845,195.549661 409.426506,195.386354 410.042457,195.179262 C410.354871,195.087549 410.647758,194.948502 410.947746,194.831347 C411.247734,194.704725 411.532338,194.560352 411.825817,194.420121 L411.930547,194.359768 C412.136456,194.242021 412.450052,194.073389 412.724598,193.937892 C413.006835,193.798844 413.303272,193.669263 413.600894,193.545008 C414.190811,193.288214 414.796703,193.082305 415.405555,192.903022 C415.709093,192.81486 416.016773,192.728473 416.326819,192.666937 C416.633316,192.598892 416.939221,192.540906 417.248084,192.489429 L418.258694,192.365766 C418.731456,192.306596 419.117831,192.216067 419.520773,192.100687 C421.110059,191.616092 422.49166,190.706069 423.53363,189.523276 C424.049585,188.926851 424.482704,188.25883 424.768491,187.528091 C425.040669,186.799718 425.177942,185.989691 424.984459,185.269602 C424.825293,185.816325 424.564949,186.278437 424.241293,186.686704 C424.150764,186.805634 424.049585,186.921606 423.943672,187.031661 C423.496945,187.522765 422.972705,187.923341 422.42894,188.273623 C421.334902,188.961761 420.123708,189.408488 418.94269,189.567653 C418.653944,189.60848 418.336206,189.629781 418.095387,189.629781 L417.834451,189.625048 L417.579432,189.629781 L416.983006,189.639248 C416.586572,189.671791 416.186588,189.688359 415.794888,189.758178 C415.405555,189.817347 415.01918,189.897226 414.636355,189.983613 C413.869522,190.166446 413.13109,190.422649 412.409817,190.71672 C412.051844,190.874701 411.699195,191.03505 411.350688,191.22025 C411.009282,191.394207 410.710477,191.558697 410.342445,191.798333 C410.130619,191.912529 409.92116,192.035601 409.705193,192.138556 C409.473841,192.242694 409.241898,192.370499 409.009363,192.463395 C408.775052,192.567533 408.536601,192.666937 408.295782,192.747999 C408.05733,192.837344 407.810003,192.90243 407.571551,192.985267 C407.340199,193.052128 407.108256,193.107156 406.870987,193.155083 C406.694071,193.198868 406.51183,193.222536 406.332547,193.255079 C406.286395,193.261587 406.236102,193.271646 406.190541,193.27638 C405.643226,193.359217 405.086444,193.40241 404.521378,193.399452 C404.263992,193.393535 403.995363,193.389393 403.73206,193.369275 C403.466982,193.352116 403.203679,193.316615 402.938601,193.27638 C402.66879,193.24147 402.400161,193.195318 402.132717,193.137332 C401.86823,193.078163 401.596052,193.019585 401.330974,192.942665 C401.063529,192.866337 400.796084,192.788234 400.526272,192.69948 C400.261786,192.602442 399.989016,192.518422 399.722163,192.410734 C399.191415,192.193583 398.662442,191.958681 398.135244,191.677628 L398.137019,191.678811 C397.270782,191.198357 395.783268,190.822041 393.66501,191.838568 C391.728402,192.762199 391.379304,194.441422 390.250947,196.483351 C389.552158,198.182691 388.711364,199.703931 387.802525,201.428714 C386.306135,204.254636 385.953487,204.377708 384.796728,205.24927 C383.638195,206.124975 383.606836,205.005493 383.600327,204.088962 C383.590268,203.174206 382.413393,202.541687 382.07317,203.255859 C381.727621,203.965298 381.501003,204.449302 381.501003,204.449302 C380.304602,207.722543 373.228555,205.619078 371.977127,205.039219 C370.724514,204.453444 371.742225,203.945181 371.742225,203.945181 C369.862419,203.233375 370.431035,202.693752 370.431035,202.693752 C370.431035,202.693752 372.891883,202.485476 374.094201,200.769569 L374.094201,200.769569 Z M376.768058,164.930184 C379.289258,164.887583 385.416822,163.761592 385.416822,163.761592 C390.779328,162.320822 392.785164,165.035506 392.785164,165.035506 C395.496297,167.96024 400.34699,170.432921 405.516604,172.118652 C405.253301,172.313319 404.978164,172.510944 404.69711,172.717445 C404.159854,173.130446 403.561061,173.526288 402.971144,173.973015 C402.359926,174.390158 401.746342,174.838661 401.103764,175.271188 C400.467695,175.70904 399.821567,176.152217 399.160055,176.571727 C398.518069,177.021413 397.837032,177.41193 397.192087,177.834398 C396.529984,178.220773 395.896281,178.637916 395.24897,178.990565 C394.624143,179.367473 393.997541,179.690536 393.406441,180.017151 C393.112962,180.189925 392.81534,180.311813 392.533103,180.465062 C392.391097,180.536656 392.247908,180.610026 392.108268,180.684579 C392.021881,179.899404 392.0775,179.408299 392.0775,179.408299 C392.0775,179.408299 392.852617,176.606637 389.317256,174.730381 C387.425617,173.726871 385.8671,174.448736 383.551217,174.755232 L383.551217,174.751682 C381.776732,175.206102 380.053724,175.435087 378.123033,175.730933 C375.980516,176.059914 375.147413,176.06583 374.400698,175.911399 L374.400698,185.269602 C374.292418,187.041128 371.686014,187.041128 371.571817,185.269602 L371.571817,172.54112 C371.552883,172.542895 371.537499,172.538754 371.519157,172.54112 L371.519157,162.713706 C371.528032,155.623459 371.571817,127.04887 371.571817,114.448194 C371.686014,112.678443 374.292418,112.678443 374.400698,114.448194 L374.400698,164.769836 C375.123745,164.869832 375.894129,164.944385 376.768058,164.930184 L376.768058,164.930184 Z M327.327446,115.755834 L369.702662,115.755834 L369.702662,153.198113 L327.327446,153.198113 L340.854712,134.47934 L327.327446,115.755834 Z M608.543928,293.613758 L516.222203,293.613758 C527.476188,278.819679 535.073515,261.477183 535.073515,241.280363 L535.073515,63.4514321 L302.343837,63.4514321 L302.343837,241.280363 C302.343837,261.477183 309.941756,278.819679 321.193374,293.613758 L228.871649,293.613758 L254.661142,328.650808 L228.871649,363.683716 L275.345516,363.683716 L275.345516,319.352958 L324.282598,297.491708 C331.580529,306.308513 340.121605,314.174468 349.002312,321.157619 L277.499276,321.157619 L277.499276,389.801007 L559.918668,389.801007 L559.918668,321.157619 L488.410306,321.157619 C497.292788,314.174468 505.833273,306.308513 513.134162,297.491708 L562.072427,319.352958 L562.072427,363.683716 L608.543928,363.683716 L582.752068,328.650808 L608.543928,293.613758 L608.543928,293.613758 Z" id="Fill-10"></path>
            <path d="M391.140852,128.516858 L390.990562,128.341717 L390.914825,128.256514 L390.849739,128.186102 L390.83613,128.16776 L390.803587,128.137584 L390.681699,128.02102 C390.532,127.854755 390.394136,127.688489 390.304791,127.502106 C390.203611,127.321049 390.142075,127.122832 390.099473,126.926982 C390.015453,126.527589 390.031429,126.140031 390.066339,125.864894 C390.066339,125.851877 390.066339,125.841818 390.068114,125.827618 L390.12965,125.41935 C390.12965,125.41935 389.981135,125.510471 389.786468,125.740047 C389.690022,125.855427 389.574643,126.001575 389.475238,126.195058 C389.375242,126.383216 389.268146,126.616935 389.215485,126.895622 C389.160458,127.170759 389.137974,127.491456 389.200693,127.829312 C389.25572,128.16776 389.396543,128.512716 389.59121,128.82868 L389.607186,128.853531 L388.757516,134.421946 C388.757516,134.421946 388.797751,134.413662 388.878221,134.401828 C388.948632,134.376386 389.078805,134.36751 389.211935,134.297691 C389.350983,134.240296 389.526715,134.165743 389.695348,134.039121 C389.879364,133.927291 390.060422,133.77286 390.250947,133.593577 C390.341476,133.497131 390.435555,133.39891 390.532,133.296547 C390.617796,133.184718 390.708916,133.068154 390.798262,132.947449 C390.968078,132.700713 391.131976,132.425577 391.267474,132.122039 C391.400604,131.820276 391.514801,131.488928 391.586396,131.138055 C391.624264,130.96173 391.644382,130.775347 391.668049,130.590148 C391.675741,130.400806 391.675741,130.208506 391.668049,130.014431 C391.614205,129.609714 391.561545,129.247006 391.318951,128.813296 C391.26274,128.710933 391.196471,128.589636 391.140852,128.516858" id="Fill-11"></path>
            <polyline id="Fill-12" points="419.295339 58.9758727 465.185206 58.9758727 465.185206 51.602797 426.671373 51.602797 419.295339 58.9758727"></polyline>
            <path d="M41.6235706,515.570497 C18.274807,515.570497 0.816930418,499.29068 0.816930418,475.512939 C0.816930418,451.200309 18.8108801,435.670165 41.9448594,435.670165 C52.5485743,435.670165 64.0084677,439.526223 70.3283314,446.80877 L57.9039798,459.233122 C54.4763073,454.520294 48.3718195,452.271272 42.5880288,452.271272 C29.8423884,452.271272 20.7380214,462.125313 20.7380214,475.512939 C20.7380214,489.330134 29.6281958,498.754606 42.2661483,498.754606 C49.4427822,498.754606 55.1194766,495.54231 58.332365,491.043674 L71.0780054,503.039049 C64.4374445,510.751165 54.369211,515.570497 41.6235706,515.570497" id="Fill-38"></path>
            <polyline id="Fill-39" points="129.513521 513.535668 129.513521 481.832803 99.9525818 481.832803 99.9525818 513.535668 81.6373433 513.535668 81.6373433 437.705586 99.9525818 437.705586 99.9525818 466.409164 129.513521 466.409164 129.513521 437.705586 147.828168 437.705586 147.828168 513.535668 129.513521 513.535668"></polyline>
            <path d="M196.024451,457.947375 L186.385195,483.974728 L205.449515,483.974728 L196.024451,457.947375 Z M216.374519,513.535668 L210.483632,498.648102 L181.136294,498.648102 L175.567287,513.535668 L155.645605,513.535668 L187.456157,437.705586 L205.235323,437.705586 L236.724587,513.535668 L216.374519,513.535668 L216.374519,513.535668 Z" id="Fill-40"></path>
            <polyline id="Fill-41" points="269.175351 453.342235 269.175351 513.535668 250.860704 513.535668 250.860704 453.342235 229.439673 453.342235 229.439673 437.705586 290.596973 437.705586 290.596973 453.342235 269.175351 453.342235"></polyline>
            <polyline id="Fill-42" points="301.402455 513.535668 301.402455 437.705586 352.384425 437.705586 352.384425 453.23573 319.075116 453.23573 319.075116 467.480127 350.563788 467.480127 350.563788 482.154092 319.075116 482.154092 319.075116 497.898428 354.312749 497.898428 354.312749 513.535668 301.402455 513.535668"></polyline>
            <path d="M403.044514,457.947375 L393.405257,483.974728 L412.469578,483.974728 L403.044514,457.947375 Z M423.394582,513.535668 L417.503695,498.648102 L388.156948,498.648102 L382.58735,513.535668 L362.665667,513.535668 L394.47622,437.705586 L412.255386,437.705586 L443.74465,513.535668 L423.394582,513.535668 L423.394582,513.535668 Z" id="Fill-43"></path>
            <path d="M479.194701,515.570497 C459.273018,515.570497 446.849258,503.146145 446.849258,484.938595 L446.849258,437.705586 L465.056809,437.705586 L465.056809,483.438655 C465.056809,491.578564 469.019371,499.075895 479.301797,499.075895 C489.690728,499.075895 493.546785,491.578564 493.546785,483.438655 L493.546785,437.705586 L511.862024,437.705586 L511.862024,484.938595 C511.862024,503.146145 499.009287,515.570497 479.194701,515.570497" id="Fill-44"></path>
            <polyline id="Fill-45" points="601.615213 513.535668 571.089816 463.945949 570.770302 463.945949 571.19632 513.535668 553.415971 513.535668 553.415971 437.705586 574.302704 437.705586 604.721597 487.187617 605.041111 487.187617 604.615092 437.705586 622.395441 437.705586 622.395441 513.535668 601.615213 513.535668"></polyline>
            <polyline id="Fill-46" points="638.992406 513.535668 638.992406 437.705586 689.9726 437.705586 689.9726 453.23573 656.66625 453.23573 656.66625 467.480127 688.156106 467.480127 688.156106 482.154092 656.66625 482.154092 656.66625 497.898428 691.901517 497.898428 691.901517 513.535668 638.992406 513.535668"></polyline>
            <path d="M736.242926,515.570497 C716.320652,515.570497 703.895117,503.146145 703.895117,484.938595 L703.895117,437.705586 L722.107401,437.705586 L722.107401,483.438655 C722.107401,491.578564 726.065821,499.075895 736.34943,499.075895 C746.739544,499.075895 750.597377,491.578564 750.597377,483.438655 L750.597377,437.705586 L768.910249,437.705586 L768.910249,484.938595 C768.910249,503.146145 756.058696,515.570497 736.242926,515.570497" id="Fill-47"></path>
            <polyline id="Fill-48" points="800.826123 453.342235 800.826123 468.979475 830.174053 468.979475 830.174053 484.081233 800.826123 484.081233 800.826123 513.535668 782.72626 513.535668 782.72626 437.705586 832.635493 437.705586 832.635493 453.342235 800.826123 453.342235"></polyline>
        </g>
    </g>
</svg>