<?xml version="1.0" encoding="UTF-8"?>
<svg width="1848px" height="406px" viewBox="0 0 1848 406" version="1.1" xmlns="http://www.w3.org/2000/svg" xmlns:xlink="http://www.w3.org/1999/xlink">
    <!-- Generator: Sketch 54.1 (76490) - https://sketchapp.com -->
    <title>logo-h-s</title>
    <desc>Created with Sketch.</desc>
    <g id="logo-h-s" stroke="none" stroke-width="1" fill="none" fill-rule="evenodd">
        <path d="M502.634,163.466 L502.634,204.466 C488.834,209.466 481.234,211.066 472.634,211.066 C449.434,211.066 432.034,201.866 421.034,191.066 C408.034,178.066 400.834,159.866 400.834,142.466 C400.834,123.466 409.034,105.466 421.034,93.266 C432.834,81.266 450.634,72.466 471.434,72.466 C477.834,72.466 488.234,73.466 502.634,79.266 L502.634,120.666 C491.434,106.866 478.234,106.066 472.434,106.066 C462.434,106.066 454.834,109.066 448.434,114.866 C440.234,122.466 436.834,132.866 436.834,142.266 C436.834,151.466 440.634,161.666 447.634,168.266 C453.434,173.666 462.634,177.466 472.434,177.466 C477.634,177.466 490.434,176.866 502.634,163.466 Z M559.788562,74.666 L559.788562,124.466 L609.788562,124.466 L609.788562,74.666 L644.588562,74.666 L644.588562,208.066 L609.788562,208.066 L609.788562,154.066 L559.788562,154.066 L559.788562,208.066 L525.188562,208.066 L525.188562,74.666 L559.788562,74.666 Z M762.743123,208.066 L754.543123,185.666 L706.143123,185.666 L697.143123,208.066 L660.543123,208.066 L711.743123,74.666 L749.543123,74.666 L799.743123,208.066 L762.743123,208.066 Z M715.743123,159.266 L745.343123,159.266 L730.343123,116.066 L715.743123,159.266 Z M888.497685,104.066 L860.097685,104.066 L860.097685,208.066 L825.497685,208.066 L825.497685,104.066 L797.097685,104.066 L797.097685,74.666 L888.497685,74.666 L888.497685,104.066 Z M980.252246,74.666 L980.252246,104.066 L939.052246,104.066 L939.052246,126.266 L978.052246,126.266 L978.052246,155.666 L939.052246,155.666 L939.052246,178.666 L980.252246,178.666 L980.252246,208.066 L904.452246,208.066 L904.452246,74.666 L980.252246,74.666 Z M1092.40681,208.066 L1084.20681,185.666 L1035.80681,185.666 L1026.80681,208.066 L990.206808,208.066 L1041.40681,74.666 L1079.20681,74.666 L1129.40681,208.066 L1092.40681,208.066 Z M1045.40681,159.266 L1075.00681,159.266 L1060.00681,116.066 L1045.40681,159.266 Z M1145.36137,74.666 L1179.96137,74.666 L1179.96137,153.666 C1179.96137,159.266 1180.16137,167.866 1186.76137,174.266 C1190.76137,178.066 1197.16137,180.666 1203.16137,180.666 C1209.16137,180.666 1215.36137,178.266 1219.16137,174.866 C1227.16137,167.866 1226.96137,158.066 1226.96137,150.666 L1226.96137,74.666 L1261.56137,74.666 L1261.56137,151.266 C1261.56137,165.266 1260.96137,179.866 1246.56137,194.466 C1235.36137,205.866 1221.36137,211.066 1202.56137,211.066 C1181.56137,211.066 1166.56137,203.866 1158.36137,195.066 C1146.76137,182.466 1145.36137,165.466 1145.36137,151.266 L1145.36137,74.666 Z M1371.87049,208.066 L1337.27049,208.066 L1337.27049,74.666 L1371.87049,74.666 L1435.67049,156.266 L1435.67049,74.666 L1470.27049,74.666 L1470.27049,208.066 L1435.67049,208.066 L1371.87049,126.466 L1371.87049,208.066 Z M1574.62505,74.666 L1574.62505,104.066 L1533.42505,104.066 L1533.42505,126.266 L1572.42505,126.266 L1572.42505,155.666 L1533.42505,155.666 L1533.42505,178.666 L1574.62505,178.666 L1574.62505,208.066 L1498.82505,208.066 L1498.82505,74.666 L1574.62505,74.666 Z M1597.17962,74.666 L1631.77962,74.666 L1631.77962,153.666 C1631.77962,159.266 1631.97962,167.866 1638.57962,174.266 C1642.57962,178.066 1648.97962,180.666 1654.97962,180.666 C1660.97962,180.666 1667.17962,178.266 1670.97962,174.866 C1678.97962,167.866 1678.77962,158.066 1678.77962,150.666 L1678.77962,74.666 L1713.37962,74.666 L1713.37962,151.266 C1713.37962,165.266 1712.77962,179.866 1698.37962,194.466 C1687.17962,205.866 1673.17962,211.066 1654.37962,211.066 C1633.37962,211.066 1618.37962,203.866 1610.17962,195.066 C1598.57962,182.466 1597.17962,165.466 1597.17962,151.266 L1597.17962,74.666 Z M1818.33418,74.666 L1818.33418,104.066 L1776.53418,104.066 L1776.53418,126.266 L1814.53418,126.266 L1814.53418,155.666 L1776.53418,155.666 L1776.53418,208.066 L1741.93418,208.066 L1741.93418,74.666 L1818.33418,74.666 Z" id="CHATEAUNEUF" fill="#FFFFFF" fill-rule="nonzero"></path>
        <path d="M414.214,268.816 L426.254,268.816 C434.252,268.816 441.218,269.676 447.582,274.406 C454.548,279.652 458.59,287.994 458.59,297.54 C458.59,307.086 454.634,315.342 447.066,320.674 C440.358,325.404 434.08,326.178 426.082,326.178 L414.214,326.178 L414.214,268.816 Z M422.986,277.072 L422.986,317.922 L426.77,317.922 C431.07,317.922 437.004,317.578 441.992,313.88 C445.948,310.87 449.818,305.366 449.818,297.54 C449.818,289.972 446.206,284.038 442.078,281.028 C437.09,277.416 430.984,277.072 426.77,277.072 L422.986,277.072 Z M505.426,268.816 L505.426,277.072 L482.55,277.072 L482.55,291.606 L504.738,291.606 L504.738,299.862 L482.55,299.862 L482.55,317.922 L505.426,317.922 L505.426,326.178 L473.778,326.178 L473.778,268.816 L505.426,268.816 Z M550.026,277.072 L536.868,277.072 L536.868,326.178 L528.096,326.178 L528.096,277.072 L514.938,277.072 L514.938,268.816 L550.026,268.816 L550.026,277.072 Z M594.935999,326.178 L586.163999,326.178 L586.163999,264.946 L627.787999,308.548 L627.787999,268.816 L636.559999,268.816 L636.559999,329.704 L594.935999,286.102 L594.935999,326.178 Z M681.589999,267.784 C698.789999,267.784 711.431999,280.684 711.431999,297.54 C711.431999,314.396 698.789999,327.296 681.589999,327.296 C664.389999,327.296 651.747999,314.396 651.747999,297.54 C651.747999,280.684 664.389999,267.784 681.589999,267.784 Z M681.589999,319.212 C693.887999,319.212 702.659999,310.268 702.659999,297.54 C702.659999,284.812 693.887999,275.868 681.589999,275.868 C669.291999,275.868 660.519999,284.812 660.519999,297.54 C660.519999,310.268 669.291999,319.212 681.589999,319.212 Z M726.619999,268.816 L736.853999,268.816 C743.819999,268.816 748.291999,269.676 751.989999,272.17 C758.267999,276.384 758.783999,283.178 758.783999,285.672 C758.783999,293.928 753.709999,299.948 746.055999,301.668 L763.943999,326.178 L753.365999,326.178 L736.939999,302.7 L735.391999,302.7 L735.391999,326.178 L726.619999,326.178 L726.619999,268.816 Z M735.391999,276.9 L735.391999,295.132 L738.143999,295.132 C740.551999,295.132 750.355999,294.874 750.355999,285.758 C750.355999,277.674 742.701999,276.9 738.401999,276.9 L735.391999,276.9 Z M808.543999,277.416 L801.491999,281.544 C800.975999,280.254 800.201999,279.05 798.911999,277.932 C797.105999,276.47 795.213999,275.868 792.719999,275.868 C787.387999,275.868 784.635999,279.05 784.635999,282.748 C784.635999,284.468 785.237999,287.478 790.827999,289.714 L796.589999,292.036 C807.167999,296.336 810.091999,302.356 810.091999,308.892 C810.091999,319.814 802.351999,327.296 791.601999,327.296 C784.979999,327.296 781.023999,324.802 778.099999,321.534 C775.003999,318.094 773.627999,314.31 773.283999,310.354 L781.969999,308.462 C781.969999,311.3 783.001999,313.966 784.377999,315.772 C786.011999,317.836 788.419999,319.212 791.859999,319.212 C797.191999,319.212 801.319999,315.342 801.319999,309.58 C801.319999,303.732 796.847999,301.324 793.063999,299.776 L787.559999,297.454 C782.829999,295.476 775.863999,291.52 775.863999,282.92 C775.863999,275.18 781.883999,267.784 792.633999,267.784 C798.825999,267.784 802.351999,270.106 804.157999,271.654 C805.705999,273.03 807.339999,275.008 808.543999,277.416 Z M834.051999,268.816 L834.051999,291.692 L856.239999,268.816 L867.763999,268.816 L841.877999,294.788 L867.935999,326.178 L856.239999,326.178 L835.771999,300.722 L834.051999,302.442 L834.051999,326.178 L825.279999,326.178 L825.279999,268.816 L834.051999,268.816 Z M911.503998,268.816 L911.503998,277.072 L888.627998,277.072 L888.627998,291.606 L910.815998,291.606 L910.815998,299.862 L888.627998,299.862 L888.627998,317.922 L911.503998,317.922 L911.503998,326.178 L879.855998,326.178 L879.855998,268.816 L911.503998,268.816 Z M983.073998,277.416 L976.021998,281.544 C975.505998,280.254 974.731998,279.05 973.441998,277.932 C971.635998,276.47 969.743998,275.868 967.249998,275.868 C961.917998,275.868 959.165998,279.05 959.165998,282.748 C959.165998,284.468 959.767998,287.478 965.357998,289.714 L971.119998,292.036 C981.697998,296.336 984.621998,302.356 984.621998,308.892 C984.621998,319.814 976.881998,327.296 966.131998,327.296 C959.509998,327.296 955.553998,324.802 952.629998,321.534 C949.533998,318.094 948.157998,314.31 947.813998,310.354 L956.499998,308.462 C956.499998,311.3 957.531998,313.966 958.907998,315.772 C960.541998,317.836 962.949998,319.212 966.389998,319.212 C971.721998,319.212 975.849998,315.342 975.849998,309.58 C975.849998,303.732 971.377998,301.324 967.593998,299.776 L962.089998,297.454 C957.359998,295.476 950.393998,291.52 950.393998,282.92 C950.393998,275.18 956.413998,267.784 967.163998,267.784 C973.355998,267.784 976.881998,270.106 978.687998,271.654 C980.235998,273.03 981.869998,275.008 983.073998,277.416 Z M1027.158,277.072 L1014,277.072 L1014,326.178 L1005.228,326.178 L1005.228,277.072 L992.069998,277.072 L992.069998,268.816 L1027.158,268.816 L1027.158,277.072 Z M1039.078,268.816 L1047.85,268.816 L1047.85,303.388 C1047.85,306.484 1047.936,310.268 1049.656,313.278 C1051.376,316.202 1055.246,319.212 1060.32,319.212 C1065.394,319.212 1069.264,316.202 1070.984,313.278 C1072.704,310.268 1072.79,306.484 1072.79,303.388 L1072.79,268.816 L1081.562,268.816 L1081.562,305.71 C1081.562,310.268 1080.616,315.772 1076.23,320.588 C1073.22,323.856 1068.146,327.296 1060.32,327.296 C1052.494,327.296 1047.42,323.856 1044.41,320.588 C1040.024,315.772 1039.078,310.268 1039.078,305.71 L1039.078,268.816 Z M1099.502,268.816 L1111.542,268.816 C1119.54,268.816 1126.506,269.676 1132.87,274.406 C1139.836,279.652 1143.878,287.994 1143.878,297.54 C1143.878,307.086 1139.922,315.342 1132.354,320.674 C1125.646,325.404 1119.368,326.178 1111.37,326.178 L1099.502,326.178 L1099.502,268.816 Z M1108.274,277.072 L1108.274,317.922 L1112.058,317.922 C1116.358,317.922 1122.292,317.578 1127.28,313.88 C1131.236,310.87 1135.106,305.366 1135.106,297.54 C1135.106,289.972 1131.494,284.038 1127.366,281.028 C1122.378,277.416 1116.272,277.072 1112.058,277.072 L1108.274,277.072 Z M1190.714,268.816 L1190.714,277.072 L1167.838,277.072 L1167.838,291.606 L1190.026,291.606 L1190.026,299.862 L1167.838,299.862 L1167.838,317.922 L1190.714,317.922 L1190.714,326.178 L1159.066,326.178 L1159.066,268.816 L1190.714,268.816 Z M1215.018,326.178 L1206.246,326.178 L1206.246,264.946 L1247.87,308.548 L1247.87,268.816 L1256.642,268.816 L1256.642,329.704 L1215.018,286.102 L1215.018,326.178 Z M1303.65,277.072 L1290.492,277.072 L1290.492,326.178 L1281.72,326.178 L1281.72,277.072 L1268.562,277.072 L1268.562,268.816 L1303.65,268.816 L1303.65,277.072 Z M1347.218,268.816 L1347.218,277.072 L1324.342,277.072 L1324.342,291.606 L1346.53,291.606 L1346.53,299.862 L1324.342,299.862 L1324.342,317.922 L1347.218,317.922 L1347.218,326.178 L1315.57,326.178 L1315.57,268.816 L1347.218,268.816 Z M1362.75,268.816 L1372.984,268.816 C1379.95,268.816 1384.422,269.676 1388.12,272.17 C1394.398,276.384 1394.914,283.178 1394.914,285.672 C1394.914,293.928 1389.84,299.948 1382.186,301.668 L1400.074,326.178 L1389.496,326.178 L1373.07,302.7 L1371.522,302.7 L1371.522,326.178 L1362.75,326.178 L1362.75,268.816 Z M1371.522,276.9 L1371.522,295.132 L1374.274,295.132 C1376.682,295.132 1386.486,294.874 1386.486,285.758 C1386.486,277.674 1378.832,276.9 1374.532,276.9 L1371.522,276.9 Z M1444.674,277.416 L1437.622,281.544 C1437.106,280.254 1436.332,279.05 1435.042,277.932 C1433.236,276.47 1431.344,275.868 1428.85,275.868 C1423.518,275.868 1420.766,279.05 1420.766,282.748 C1420.766,284.468 1421.368,287.478 1426.958,289.714 L1432.72,292.036 C1443.298,296.336 1446.222,302.356 1446.222,308.892 C1446.222,319.814 1438.482,327.296 1427.732,327.296 C1421.11,327.296 1417.154,324.802 1414.23,321.534 C1411.134,318.094 1409.758,314.31 1409.414,310.354 L1418.1,308.462 C1418.1,311.3 1419.132,313.966 1420.508,315.772 C1422.142,317.836 1424.55,319.212 1427.99,319.212 C1433.322,319.212 1437.45,315.342 1437.45,309.58 C1437.45,303.732 1432.978,301.324 1429.194,299.776 L1423.69,297.454 C1418.96,295.476 1411.994,291.52 1411.994,282.92 C1411.994,275.18 1418.014,267.784 1428.764,267.784 C1434.956,267.784 1438.482,270.106 1440.288,271.654 C1441.836,273.03 1443.47,275.008 1444.674,277.416 Z M1501.142,326.178 L1495.122,312.332 L1470.612,312.332 L1464.334,326.178 L1454.874,326.178 L1483.426,265.462 L1510.602,326.178 L1501.142,326.178 Z M1474.224,304.076 L1491.596,304.076 L1483.082,284.64 L1474.224,304.076 Z M1529.23,326.178 L1520.286,326.178 L1532.326,264.516 L1552.278,309.064 L1572.402,264.516 L1583.238,326.178 L1574.294,326.178 L1568.446,291.606 L1551.762,328.844 L1535.25,291.52 L1529.23,326.178 Z M1628.182,268.816 L1628.182,277.072 L1608.23,277.072 L1608.23,291.606 L1627.494,291.606 L1627.494,299.862 L1608.23,299.862 L1608.23,326.178 L1599.458,326.178 L1599.458,268.816 L1628.182,268.816 Z M1642.338,268.816 L1651.11,268.816 L1651.11,303.388 C1651.11,306.484 1651.196,310.268 1652.916,313.278 C1654.636,316.202 1658.506,319.212 1663.58,319.212 C1668.654,319.212 1672.524,316.202 1674.244,313.278 C1675.964,310.268 1676.05,306.484 1676.05,303.388 L1676.05,268.816 L1684.822,268.816 L1684.822,305.71 C1684.822,310.268 1683.876,315.772 1679.49,320.588 C1676.48,323.856 1671.406,327.296 1663.58,327.296 C1655.754,327.296 1650.68,323.856 1647.67,320.588 C1643.284,315.772 1642.338,310.268 1642.338,305.71 L1642.338,268.816 Z M1711.534,326.178 L1702.762,326.178 L1702.762,264.946 L1744.386,308.548 L1744.386,268.816 L1753.158,268.816 L1753.158,329.704 L1711.534,286.102 L1711.534,326.178 Z M1771.098,268.816 L1783.138,268.816 C1791.136,268.816 1798.102,269.676 1804.466,274.406 C1811.432,279.652 1815.474,287.994 1815.474,297.54 C1815.474,307.086 1811.518,315.342 1803.95,320.674 C1797.242,325.404 1790.964,326.178 1782.966,326.178 L1771.098,326.178 L1771.098,268.816 Z M1779.87,277.072 L1779.87,317.922 L1783.654,317.922 C1787.954,317.922 1793.888,317.578 1798.876,313.88 C1802.832,310.87 1806.702,305.366 1806.702,297.54 C1806.702,289.972 1803.09,284.038 1798.962,281.028 C1793.974,277.416 1787.868,277.072 1783.654,277.072 L1779.87,277.072 Z" id="DETNORSKESTUDENTERSAMFUND" fill="#FFFFFF" fill-rule="nonzero"></path>
        <path d="M124.063622,308.096323 C126.279931,306.769418 128.771704,305.248068 130.725153,306.564171 C132.664199,307.880273 137.943012,309.623074 137.943012,309.623074 C137.943012,309.623074 136.093987,309.261191 146.016067,311.374877 C155.934547,313.492163 156.442263,306.303111 156.442263,306.303111 L156.568292,306.195086 C156.29823,304.531504 155.235986,302.219772 152.420139,299.157269 C143.268636,289.193779 144.952023,249.671095 164.851996,246.356534 C165.730598,251.347281 167.147524,256.280414 168.908329,261.044309 C169.360232,262.272191 169.799533,263.503674 170.341458,264.690147 C170.868979,265.907227 171.333486,267.045088 171.91502,268.31438 C172.460545,269.439639 173.015072,270.572099 173.5696,271.691956 C174.104323,272.824417 174.770476,273.985683 175.368213,275.121745 C177.602527,279.170875 180.042087,282.971549 182.721103,286.489557 C182.841731,286.864043 182.964159,287.24033 183.106392,287.611215 L184.14523,290.430663 C184.507114,291.365078 184.910406,292.263484 185.292094,293.179895 C185.682784,294.090904 186.055469,295.025319 186.471365,295.894919 C186.964678,296.90135 187.416582,297.754746 187.917097,298.649552 C189.877748,302.156758 192.153471,305.332688 194.567826,308.229554 C194.866694,308.582435 195.167364,308.95152 195.464432,309.298999 C195.774103,309.651881 196.089175,309.992159 196.395246,310.334237 C197.019989,311.021995 197.621328,311.709754 198.260474,312.341699 C198.908623,312.979045 199.54777,313.600188 200.179716,314.21593 C200.217524,314.255539 200.251732,314.293347 200.293142,314.327555 C195.313197,314.228532 187.931501,312.95564 178.596355,308.117928 C170.868979,304.108407 162.6933,322.474428 162.6933,322.474428 C160.610221,326.172477 155.145966,329.841721 148.401615,325.700769 C141.655465,321.558017 133.49779,321.505805 133.49779,321.505805 L131.637963,323.172988 C127.477206,325.277672 127.851693,322.056732 127.851693,322.056732 C129.310028,321.289755 126.157503,318.686357 125.568768,320.069075 C124.987234,321.453593 124.538931,321.00709 124.538931,321.00709 C120.279152,320.688417 117.05101,316.792322 114.552036,315.604049 C112.049461,314.403173 111.597557,313.708213 111.597557,313.708213 C111.246476,311.297459 119.926271,309.493444 119.926271,309.493444 C119.926271,309.493444 121.83651,309.43223 124.063622,308.096323 Z M124.038416,161.133947 C119.48877,159.722423 116.240824,150.684345 115.833931,148.693088 C115.35502,146.381356 117.09422,147.259958 117.09422,147.259958 C116.167007,143.947197 117.477708,144.183051 117.477708,144.183051 C117.477708,144.183051 120.275551,147.349979 123.851173,147.252757 C123.905186,147.252757 123.97,147.252757 124.038416,147.252757 L124.038416,161.133947 Z M318.533517,284.372271 C318.574926,284.190429 318.618136,283.992383 318.648743,283.817743 L318.908003,281.990323 L318.93861,281.806681 L318.954813,281.62844 L318.965616,281.538419 L319.016028,280.742636 C319.043034,280.220516 319.088044,279.707399 319.106048,279.183478 C319.11505,278.551533 319.106048,277.914186 319.073641,277.280441 C321.262944,276.156983 330.715116,269.977962 322.146947,249.465848 C322.146947,249.465848 343.226192,270.714332 318.533517,284.372271 Z M228.269771,43.655147 C228.314782,43.6875545 228.357992,43.7145607 228.399401,43.7487685 C228.69647,43.9576165 228.966532,44.2348802 229.267201,44.4725349 C229.566069,44.7335949 229.846934,45.0288627 230.140401,45.3187293 C230.408663,45.6356022 230.723735,45.9074647 230.970392,46.2495433 C231.238654,46.5736178 231.517718,46.8850893 231.758973,47.2343696 C231.998428,47.5746478 232.286495,47.8771173 232.495343,48.2245972 C232.711392,48.5684762 232.96165,48.8745466 233.161496,49.1878186 C233.35234,49.5118931 233.566589,49.8089613 233.750231,50.0826242 C234.128318,50.62995 234.403781,51.1250638 234.650438,51.4473379 C234.87909,51.7822148 235.024924,51.9676575 235.024924,51.9676575 C235.024924,51.9676575 235.023124,51.7318033 234.976313,51.3285106 C234.915099,50.9306191 234.873689,50.3364826 234.670242,49.6757307 C234.492001,48.9987751 234.218339,48.2245972 233.824048,47.4396168 C233.636805,47.0381245 233.39735,46.6420335 233.143492,46.2531441 C232.92024,45.848051 232.599767,45.4879682 232.302698,45.1152826 C232.012832,44.7353953 231.649148,44.416722 231.30707,44.0890467 C230.96139,43.7739743 230.572501,43.5075131 230.203416,43.2464531 C230.034177,43.1402287 229.864938,43.0448067 229.692098,42.9493848 C232.329705,41.8529328 238.782388,40.5890423 249.509253,47.0867357 C249.509253,47.0867357 254.45859,49.0437855 257.027781,55.4514581 C257.027781,55.4514581 257.175415,55.5108718 257.423872,55.620697 C260.50438,55.6134954 264.211432,55.7341231 268.413598,56.3606671 C270.593899,56.6919432 272.900229,57.1636516 275.278575,57.8946196 C277.655122,58.6309889 280.101884,59.6428214 282.460426,61.1209611 C284.795563,62.6045021 287.017273,64.6425705 288.576432,67.2801767 C290.162596,69.9069804 290.979984,73.0667066 291.097011,76.2804452 C291.201435,79.5031859 290.654109,82.758334 289.773707,85.9522681 C289.303799,87.5420335 288.790681,89.1372001 288.169538,90.694558 C287.5682,92.2231093 286.963261,93.7732656 286.35112,95.3324239 C285.161047,98.4399381 284.057393,101.626671 283.153585,104.896222 C282.251578,108.162173 281.533213,111.521745 281.338768,114.870514 C281.264951,116.145207 281.290157,117.425301 281.417986,118.667587 C283.430849,118.728801 285.047621,120.372579 285.047621,122.398044 C285.047621,123.402675 284.637126,124.317285 283.988977,124.987039 C284.241035,125.136474 284.494894,125.291309 284.766756,125.438943 C286.385328,126.330148 288.459405,127.205149 290.96378,127.754275 C292.215068,128.049543 293.565378,128.225984 295.021913,128.47084 C296.496452,128.7301 298.006999,129.097384 299.569758,129.596099 C302.673672,130.609732 305.941423,132.149085 308.93371,134.491424 C311.488497,136.498885 313.868644,139.150895 315.404397,142.407843 C316.358617,143.815767 317.161601,145.315511 317.746736,146.91968 C319.109649,150.516907 319.428322,154.474216 318.778373,158.134458 C318.101417,161.794699 316.598072,165.156071 314.684232,168.029532 C312.773993,170.924597 310.503671,173.396565 308.109121,175.542658 C306.922648,176.622907 305.698367,177.611334 304.466884,178.547549 C303.869146,178.997653 303.282211,179.442355 302.697077,179.887057 C302.160554,180.319156 301.647436,180.72605 301.134318,181.192357 C299.103451,182.974767 297.391258,184.953421 296.338015,187.08151 C295.279372,189.200597 294.881481,191.449314 295.176749,193.584605 C295.452212,195.7379 296.35602,197.727357 297.412862,199.471958 C298.502113,201.229162 299.767804,202.754112 301.033495,204.070215 C302.306387,205.402521 303.563076,206.556586 304.749549,207.546814 C307.118893,209.527269 309.165964,210.873979 310.552282,211.797591 C311.371471,212.326913 311.967408,212.692397 312.334692,212.904845 C312.660567,213.083086 312.858612,213.180309 312.858612,213.180309 L312.732583,213.500782 C312.732583,213.500782 312.671369,213.488179 312.579548,213.453972 L312.54174,213.53319 L312.358097,213.457572 L312.338293,213.498982 C312.338293,213.498982 311.852181,213.324342 310.939371,213.005669 C310.031963,212.654588 308.71586,212.119865 307.070282,211.369092 C307.025272,211.347487 306.969459,211.327683 306.93165,211.300677 C305.242862,210.57691 303.253405,209.655099 301.0587,208.429017 C298.739767,207.147122 296.206585,205.539353 293.633794,203.445471 C292.357301,202.381427 291.077206,201.202156 289.878131,199.821238 C288.666452,198.449323 287.542994,196.861358 286.687798,195.023136 C285.8272,193.188514 285.234864,191.067627 285.265471,188.840515 C285.278074,186.613403 285.902817,184.366486 286.932654,182.398634 C287.953488,180.398374 289.347009,178.653774 290.895365,177.112619 C292.452723,175.54806 294.132509,174.188747 295.936523,172.910454 C296.867337,172.247901 297.670322,171.747386 298.649747,171.128044 C299.530149,170.595121 300.401549,170.031592 301.254946,169.439256 C302.963538,168.272588 304.600114,166.997895 306.141269,165.62958 C309.209174,162.878548 311.879187,159.655807 313.431144,156.006369 C313.836237,155.061151 314.15491,154.092529 314.383563,153.109503 C314.410569,152.601786 314.417771,152.09587 314.406968,151.593554 C314.250332,150.522308 314.001875,149.465465 313.627389,148.426626 C312.593952,145.551366 310.775534,142.877751 308.389985,140.753263 C306.008038,138.610771 303.075164,137.003001 299.917238,136.113597 C298.435498,135.690499 296.505454,135.393431 294.739248,134.918122 C292.951437,134.457216 291.160025,133.902688 289.402822,133.187924 C287.647418,132.464158 285.91542,131.563951 284.332856,130.363075 C282.797103,129.196407 281.43239,127.712866 280.43136,126.011475 C278.798384,125.613583 277.575903,124.153448 277.575903,122.398044 C277.575903,121.496037 277.91078,120.68405 278.4311,120.037702 C278.186244,118.226486 278.186244,116.420671 278.317674,114.668868 C278.611141,110.987022 279.466338,107.492419 280.465568,104.122044 C281.486402,100.757071 282.69628,97.5253279 283.965572,94.3926079 C285.265471,91.2184784 286.637386,88.3162114 287.542994,85.2987179 C288.452203,82.2902264 289.012132,79.2619305 289.012132,76.3236552 C289.001329,73.3907811 288.35318,70.5659319 287.017273,68.1803836 C285.69757,65.7858333 283.744121,63.8647918 281.60883,62.4136582 C279.453735,60.9625247 277.149205,59.9164843 274.875283,59.140506 C272.597759,58.357326 270.361645,57.8262039 268.233556,57.439115 C264.782163,56.812571 261.640441,56.5497105 258.918215,56.4272824 C261.179535,57.8226031 264.742554,60.8364958 265.568944,66.3439615 C265.916424,68.7025036 265.938029,72.2511192 263.140186,74.2927884 C261.771871,75.2920181 260.659215,76.1058051 259.733803,76.7773594 C259.524955,76.3902705 259.303504,75.992379 259.053246,75.5980884 C258.67876,74.9985506 258.307875,74.3413996 257.881177,73.7058535 C257.427473,73.0775091 256.962966,72.4311606 256.489457,71.7668079 C255.963736,71.1294614 255.429013,70.4777116 254.885288,69.8115585 C254.312757,69.1634095 253.698816,68.5350651 253.086675,67.8761137 C252.443927,67.2531705 251.781375,66.6266265 251.093617,66.0036833 C250.386054,65.4131476 249.683893,64.7920049 248.92952,64.2230741 C247.429775,63.0780109 245.856213,61.9869602 244.210635,61.0165371 C240.92668,59.0540861 237.426676,57.4967282 234.052701,56.3786712 C232.374715,55.7899359 230.705731,55.3740403 229.13397,54.9797497 C227.551406,54.6070641 226.049861,54.315397 224.647339,54.1137507 C223.795743,53.9787197 222.989158,53.8850981 222.225782,53.8076803 C222.164568,53.7464663 222.115957,53.6942543 222.052943,53.6402419 C222.051142,53.627639 222.038539,53.6240381 222.038539,53.6240381 L221.890905,53.6204373 C221.350781,53.0497061 220.726038,52.5671952 220.140903,52.0414744 C219.836633,51.7768136 219.505357,51.548161 219.190285,51.2979035 C218.873412,51.0548477 218.552938,50.8009893 218.205458,50.5831393 C217.86518,50.3580875 217.535704,50.1222333 217.175622,49.9223874 L216.062966,49.3300513 C215.675877,49.1662136 215.292389,48.9789706 214.883695,48.8295362 C214.460598,48.689104 214.050103,48.5360688 213.592798,48.4442477 C213.169701,48.3434245 212.712396,48.2894121 212.229885,48.2768092 C211.997632,48.2768092 211.758177,48.2840109 211.507919,48.3254204 C211.372888,48.3380233 211.210851,48.3812332 211.059616,48.4154411 C210.9912,48.4298444 210.90478,48.458651 210.812959,48.4928589 C210.724739,48.5252663 210.649122,48.5450709 210.46548,48.645894 L210.645521,48.5594742 C209.496857,49.0095776 208.377,49.5587038 207.302152,50.2050524 L207.237338,50.1690441 C206.738623,50.4679128 206.250711,50.7811848 205.777202,51.121463 L200.45878,50.1618424 C200.45878,50.1618424 200.642422,48.4784555 203.224215,47.6034544 C201.89731,45.5581844 199.394735,40.6412543 206.565783,38.894853 C217.206229,36.3076583 227.513598,43.1402287 228.269771,43.655147 Z M137.246252,201.598247 C139.748827,198.08564 144.444306,188.523642 144.444306,188.523642 C147.922705,179.674608 153.702034,179.680009 153.702034,179.680009 C165.199476,178.417919 181.172747,167.375982 190.360259,157.086617 C197.799569,148.766905 202.658885,149.319632 204.239649,149.838151 C209.502258,132.685609 191.897812,124.508129 191.897812,124.508129 C171.423507,116.969797 155.097354,99.3131388 155.097354,99.3131388 C149.215403,97.6297519 150.331659,91.2634888 150.886187,90.2390533 C151.440714,89.211017 150.479293,84.5443445 150.479293,84.5443445 C150.479293,84.5443445 148.750896,77.3066811 151.692772,77.0708269 C154.64365,76.8385735 154.152137,79.8938757 155.417828,79.0836895 C156.68712,78.2717029 157.783572,78.7038022 157.783572,78.7038022 C157.783572,78.7038022 163.208218,80.6356462 172.854836,72.9100706 C179.44435,67.6366586 190.992204,63.0438031 197.655535,60.6582548 C184.771774,61.6286778 185.110252,58.9280572 185.110252,58.9280572 L197.378272,53.9697176 L201.992732,54.7078872 C200.584809,56.1518191 199.378531,57.8100002 198.467522,59.5978111 C198.319888,59.8984802 198.188458,60.2099518 198.058828,60.5142217 C197.410679,61.9635548 196.902962,63.4542974 196.54468,64.9720462 C196.521275,65.0422624 196.515874,65.1106781 196.488867,65.1736926 C196.391645,65.6129935 196.294423,66.0504941 196.209803,66.4933959 C195.774103,68.8483371 195.612066,71.2392866 195.653475,73.5924274 C195.691284,75.9419674 195.844319,78.2500979 196.125184,80.5672305 C196.445657,82.9005667 196.798538,85.1942939 197.722151,87.61405 C197.976009,88.2387936 198.224466,88.8185268 198.751987,89.5314907 L198.885218,89.6989292 L199.034652,89.8699685 L199.133675,89.9869954 C199.28671,90.1436314 199.472153,90.3164711 199.715209,90.4911112 C199.954664,90.6567493 200.291341,90.8565952 200.772052,90.9502168 C201.250962,91.0492395 201.834296,90.9574184 202.217784,90.7719758 C202.986561,90.3866872 203.233217,89.9923966 203.494277,89.6953283 C203.731932,89.3766551 203.89937,89.106593 204.068609,88.845533 L204.938209,87.4016012 C206.043663,85.6101895 207.356165,84.2616795 209.079161,83.5721211 C209.286208,83.489302 209.523863,83.4010818 209.714707,83.3470693 C209.799326,83.3182627 209.955962,83.2768532 210.094594,83.2408449 L210.445675,83.167028 C210.953392,83.0644044 211.444905,82.9437766 211.974226,82.8861634 C212.489145,82.7979431 213.016666,82.7349286 213.563992,82.7007208 C214.093313,82.6395067 214.633437,82.6161013 215.182564,82.601698 C216.73272,82.5386835 218.308082,82.5512864 219.885244,82.6161013 L219.892446,82.6034984 C220.536994,82.6287042 221.179742,82.6575109 221.817088,82.6935191 C223.655311,82.8069452 225.498935,82.9527787 227.34976,83.093211 C227.754853,83.123818 228.150944,83.1580259 228.554237,83.1850321 C229.684897,83.271452 230.82996,83.3524706 231.984025,83.4154851 C232.579962,83.4406909 233.190302,83.4766991 233.750231,83.4658966 L234.169727,83.4694975 L234.621631,83.4604954 L235.471427,83.4406909 C236.593084,83.4154851 237.712942,83.4046826 238.755381,83.4604954 C239.790619,83.5055058 240.79525,83.7395595 241.094119,84.1356506 C241.456002,84.5083362 241.470405,85.5867841 241.265158,86.6058183 C241.113923,87.5852434 240.719633,88.3162114 239.949056,88.7339074 C239.180279,89.158805 238.100031,89.2254203 237.046789,89.1191959 C235.971942,89.0093707 234.891693,88.7555124 233.825848,88.4350387 C233.127288,88.2171886 232.432328,87.9651307 231.739169,87.696869 C231.589734,87.6428566 231.434899,87.5852434 231.289065,87.5222289 C230.034177,87.0217139 228.802694,86.4635856 227.592816,85.8424428 C229.441841,87.165747 231.400691,88.3486188 233.523379,89.2740315 C234.578421,89.7367379 235.676674,90.1382301 236.852344,90.3686831 C238.019012,90.5883336 239.31531,90.7107617 240.62241,90.1760388 C241.268759,89.9203801 241.870097,89.4450708 242.294995,88.867138 C242.712691,88.2874048 242.96835,87.6104492 243.108782,87.0055102 C243.252815,86.4383798 243.380644,85.7812288 243.395048,85.1096744 C243.409451,84.4399205 243.296025,83.6171314 242.790109,82.8861634 C242.276991,82.1677983 241.519016,81.7627052 240.867267,81.5502564 C240.211916,81.3216038 239.587173,81.2243815 238.985834,81.1469637 C237.775956,80.9885273 236.620091,80.9687227 235.476828,80.9345149 L234.627033,80.9147103 L234.229141,80.9021074 L233.809645,80.8805025 C233.220909,80.8624983 232.713193,80.8066855 232.17847,80.7634756 C231.071215,80.6518499 229.954959,80.5186193 228.836902,80.3835882 C228.244566,80.3133721 227.648629,80.2449564 227.056293,80.1747402 C226.352331,80.0883204 225.650169,80.0145034 224.939006,79.9352852 C223.975785,79.8326616 223.008962,79.730038 222.038539,79.6526202 C219.752014,79.459976 217.440283,79.3177433 215.090743,79.3501507 C214.511009,79.355552 213.913272,79.3717557 213.322736,79.4185665 C212.724999,79.4419718 212.134463,79.4941838 211.529524,79.5770029 C210.931787,79.6310153 210.314245,79.751643 209.709306,79.8740711 C209.550869,79.9100794 209.428441,79.9316844 209.232196,79.9748943 L208.785693,80.0973225 C208.427411,80.1963452 208.142946,80.3079709 207.820672,80.4267982 C206.571184,80.921912 205.409918,81.6780858 204.446696,82.5854943 C203.478074,83.489302 202.700295,84.5353424 202.052146,85.5507758 L201.214953,86.9190903 C201.177145,86.852475 201.139336,86.7840593 201.106929,86.7102423 C201.083523,86.6544295 201.063719,86.6058183 201.038513,86.5518059 C201.007906,86.4707873 200.970097,86.391569 200.944891,86.3141513 C200.246331,84.4957333 199.873645,82.2776235 199.599982,80.1243287 C199.32992,77.9440276 199.173284,75.7259178 199.119272,73.5330138 C199.11207,72.9892888 199.108469,72.4527655 199.115671,71.9180426 L199.115671,71.9144418 C199.115671,71.8838348 199.119272,71.858629 199.119272,71.8316228 C199.130074,71.3833197 199.149879,70.9332163 199.180486,70.4867137 C199.187688,70.3156744 199.203891,70.1428346 199.214694,69.9717953 C199.236299,69.6639246 199.266906,69.3488521 199.304714,69.039181 C199.326319,68.8555388 199.340723,68.6646949 199.367729,68.4810527 C199.412739,68.129972 199.468552,67.7752905 199.520764,67.4278106 C199.542369,67.3197858 199.551371,67.2099606 199.569375,67.1019357 C199.93846,65.0008529 200.552401,62.9645849 201.472413,61.1011566 C201.800088,60.4476064 202.167372,59.8210624 202.559863,59.2161234 C202.601272,59.1477076 202.646282,59.0900944 202.689492,59.0216787 C202.880336,58.7318121 203.080182,58.4473467 203.28723,58.170083 C203.404257,58.0188482 203.524884,57.8748151 203.641911,57.7271812 C203.805749,57.5309361 203.958784,57.3274893 204.128023,57.1384459 C204.439495,56.7891656 204.765369,56.4506878 205.112849,56.1320145 C206.299322,55.0211592 207.673038,54.106549 209.147577,53.3611777 L209.039552,53.3431736 C209.42484,53.1487289 209.806528,52.9614859 210.209821,52.7904466 L210.328648,52.7328333 C210.377259,52.71843 210.393463,52.6986255 210.454677,52.6932242 C210.5555,52.6680184 210.674328,52.6518147 210.809359,52.644613 C210.956992,52.6302097 211.111828,52.6266089 211.273865,52.6302097 C211.448505,52.6284093 211.632148,52.6302097 211.821191,52.6626172 C212.134463,52.6824217 212.460338,52.7670412 212.786213,52.8336565 C213.115689,52.9128747 213.446965,53.0371032 213.780041,53.1325252 L214.768468,53.5340175 L215.758696,54.0057259 C216.093573,54.1461581 216.419448,54.3352016 216.747123,54.5134426 C217.029788,54.6772802 217.326856,54.8339162 217.607721,55.0067559 C217.607721,55.0067559 217.618523,55.0067559 217.627526,55.0103568 C217.650931,55.0337621 217.685139,55.0481654 217.717546,55.06797 C218.345891,55.485666 219.003042,55.8529504 219.627785,56.2958522 C219.851037,56.4506878 220.08509,56.6019225 220.311943,56.7567581 L220.317344,56.760359 C220.718836,57.0376227 221.123929,57.3094852 221.511018,57.6173559 C222.121358,58.0800623 222.773108,58.5013591 223.370846,58.9928721 C223.975785,59.4591792 224.582524,59.9254864 225.207268,60.3827915 C225.21627,60.3863923 225.21807,60.3953944 225.234274,60.4061969 C225.054232,60.163141 224.865189,59.9344885 224.685148,59.6950334 C224.395281,59.3115453 224.100013,58.9244563 223.806546,58.544569 C223.660712,58.3609268 223.509477,58.1934883 223.358243,58.0152474 C223.134991,57.7505865 222.91174,57.4859257 222.675886,57.2248657 L223.329436,57.6803704 C224.481701,58.0530561 225.686178,58.4761533 226.962671,58.910053 C228.431809,59.4483767 229.969362,60.0443137 231.533922,60.706866 C233.105683,61.3550149 234.684646,62.1003862 236.281613,62.8727638 C237.851574,63.6883512 239.461144,64.5111403 240.984294,65.4509563 C242.541652,66.3475624 244.023392,67.3665966 245.463723,68.3748283 C246.185689,68.8861458 246.864445,69.435272 247.555804,69.9465895 C248.225558,70.4975161 248.88631,71.0412411 249.534459,71.575964 C250.157402,72.1376931 250.773143,72.6958214 251.372681,73.2341451 C251.952414,73.8066767 252.519545,74.364805 253.072272,74.9049291 C254.114711,76.0409902 255.121143,77.1194381 255.97814,78.1780814 C256.185187,78.415736 256.374231,78.6569914 256.559673,78.9000473 C256.653295,79.0134734 256.739715,79.1268994 256.831536,79.2475271 C256.831536,79.251128 256.833336,79.2583296 256.833336,79.2583296 C256.952163,79.4113648 257.06919,79.5698012 257.188018,79.7174351 C257.560703,80.2143493 257.947792,80.6716545 258.264665,81.1325604 C258.871405,82.0633743 259.476344,82.8447539 259.908443,83.5289111 C260.756438,84.9026268 261.28936,85.6858068 261.28936,85.6858068 C261.28936,85.6858068 261.274957,85.6335948 261.249751,85.547175 C264.492296,91.2184784 265.664366,95.5124653 265.664366,95.5124653 C265.664366,95.5124653 269.151767,103.779965 273.550178,120.091714 C280.73743,146.74504 282.071537,152.572979 279.884034,167.248152 C278.351882,177.560922 273.370137,187.063506 277.950389,201.450613 C291.786569,244.9036 281.032698,270.01037 268.11833,283.958175 C268.986129,287.658026 272.518541,294.152118 286.660791,294.776862 C293.70221,295.082932 298.435498,292.949442 301.488999,289.726701 L302.23077,289.137966 L302.931131,288.450208 C303.849342,287.497789 304.672131,286.41394 305.293274,285.220266 C305.898213,284.028392 306.404129,282.775304 306.661588,281.49881 C306.938852,280.233119 307.070282,278.962027 307.057679,277.75575 C307.036074,275.31799 306.530158,273.116084 305.829797,271.362481 C305.813593,271.322872 305.793789,271.290464 305.779385,271.254456 C305.32028,269.241593 304.600114,267.641025 303.759321,266.758823 C301.674442,264.567719 295.003909,261.935514 293.057662,268.508825 C293.057662,268.508825 291.52731,275.215366 303.894352,277.982602 C303.786327,278.877408 303.604485,279.781215 303.36503,280.67062 C303.084166,281.686053 302.682674,282.658277 302.196562,283.583689 C301.994916,283.992383 301.75366,284.379472 301.503403,284.75936 C296.069754,283.423453 280.717625,278.214855 286.833631,262.810515 C292.944235,247.407975 318.63614,258.442711 316.018339,281.394386 C313.175485,306.373327 277.701932,323.500663 255.389404,294.402376 C251.401488,296.859941 248.013109,298.316475 246.066862,299.061847 C251.315068,304.553109 247.328952,307.694831 245.967839,311.414486 C244.437487,315.575242 251.729163,318.763775 259.220685,324.278442 C266.710406,329.791309 265.882216,332.652167 261.07151,342.417611 C256.253603,352.181255 259.521354,358.475502 259.521354,358.475502 C259.667187,363.322216 259.019038,371.094602 257.992803,375.384988 C256.971968,379.662771 256.54347,379.947236 255.302984,381.511796 C254.053497,383.074555 253.6304,381.600016 253.304525,380.379336 C252.97685,379.164056 251.190839,378.721155 250.97659,379.783399 C250.767742,380.860046 250.62731,381.57301 250.62731,381.57301 C250.162803,386.36031 239.992266,385.984024 238.121636,385.631143 C236.258207,385.289064 237.441079,384.255627 237.441079,384.255627 C234.690047,383.956758 235.260778,383.045749 235.260778,383.045749 C235.260778,383.045749 238.469116,381.915089 239.479148,379.212668 C240.498182,376.519249 240.671022,374.050881 242.246384,370.959571 C246.877048,361.81707 248.241762,351.673538 248.641453,346.774612 C247.186719,341.142918 241.961918,335.766883 229.346419,330.408851 C228.291376,329.958748 227.266941,329.494241 226.265911,329.008129 C225.504336,328.525618 224.454695,327.825257 223.107985,327.015071 C222.400423,326.564968 221.669455,325.992436 220.837663,325.407302 C220.031078,324.800562 219.114667,324.222629 218.192855,323.515067 C216.38524,322.056732 214.307563,320.501174 212.235286,318.581933 C211.713166,318.099422 211.144236,317.667323 210.629317,317.147003 C210.107197,316.630284 209.577876,316.104564 209.039552,315.575242 C207.930497,314.543605 206.879055,313.387739 205.800607,312.213869 C204.673548,311.063405 203.674319,309.749103 202.572465,308.487013 C202.050345,307.842465 201.551631,307.152906 201.020509,306.493955 C200.757648,306.153677 200.494788,305.816999 200.224726,305.480322 C199.97987,305.129241 199.731413,304.77636 199.481155,304.421679 C198.465722,303.013755 197.5007,301.548218 196.54468,300.055675 C195.633671,298.539727 194.71546,296.996772 193.896271,295.417809 C193.71443,295.068529 193.534388,294.712047 193.356147,294.359166 C193.183308,293.999083 193.030272,293.664206 192.884439,293.338331 C192.843029,293.250111 192.792618,293.152889 192.763811,293.075471 C192.383924,292.213073 192.058049,291.354275 191.697966,290.499079 C191.354087,289.642082 190.979601,288.783284 190.655527,287.915485 L189.719311,285.297683 C188.486028,281.817483 187.454391,278.281471 186.781036,274.767063 C186.748629,274.599625 186.725223,274.433987 186.694616,274.262947 C186.534379,273.420354 186.395748,272.57956 186.273319,271.738767 C186.181498,271.115824 186.10228,270.49108 186.033864,269.873538 C185.992455,269.524258 185.965449,269.180379 185.938443,268.8365 C185.891632,268.380995 185.857424,267.927291 185.826817,267.471786 C185.805212,267.192722 185.792609,266.92086 185.780006,266.641796 C185.742197,265.900025 185.722393,265.156454 185.727794,264.434488 C185.736796,263.696319 185.778206,262.970752 185.826817,262.245185 C185.846621,261.996728 185.868226,261.755473 185.889831,261.499814 C185.92944,261.029906 185.979852,260.552796 186.037465,260.084689 C186.069873,259.803824 186.105881,259.531962 186.14549,259.2619 C186.244513,258.628154 186.348937,257.998009 186.471365,257.373265 C186.640604,256.552277 186.835049,255.745691 187.061901,254.95531 C187.890091,252.011633 189.132377,249.368626 190.565506,247.064096 C190.864375,246.583386 191.183048,246.115278 191.499921,245.659773 C191.624149,245.476131 191.750178,245.303291 191.883409,245.12325 C192.047246,244.9036 192.203882,244.683949 192.376722,244.475101 C192.75661,243.983588 193.134696,243.504678 193.525386,243.049173 L193.530787,243.049173 C194.088916,242.393823 194.652445,241.765478 195.212374,241.191146 C196.812942,239.590579 198.352296,238.294281 199.690003,237.307654 C201.038513,236.342632 202.149368,235.611664 202.934349,235.161561 C203.715728,234.702455 204.155029,234.490006 204.155029,234.490006 C204.155029,234.490006 203.668917,234.558422 202.779513,234.790675 C201.900911,235.046334 200.59201,235.411818 199.004045,236.110379 C197.423282,236.798137 195.516644,237.736152 193.494779,239.126072 C191.472914,240.505189 189.316019,242.323607 187.312158,244.667745 C185.630572,246.628396 184.064212,248.974335 182.805723,251.640748 C182.562667,252.153866 182.325012,252.670585 182.107162,253.210709 C180.74785,256.525271 179.862046,260.252127 179.543373,264.123017 C179.48756,264.753162 179.456953,265.392308 179.437148,266.027855 C179.428146,266.186291 179.424545,266.335725 179.424545,266.494162 C179.410142,267.0955 179.395739,267.714842 179.410142,268.335985 L179.410142,268.399 C179.424545,269.079556 179.451552,269.765514 179.48756,270.453272 C179.498362,270.525288 179.501963,270.588303 179.505564,270.654918 C179.543373,271.27246 179.597385,271.886401 179.658599,272.496741 C179.2283,271.53352 178.788999,270.600906 178.383906,269.572869 C177.923,268.408002 177.458494,267.239533 176.997588,266.065663 C176.608698,265.00702 176.203605,263.773736 175.811115,262.643077 C175.388018,261.489011 175.062143,260.304339 174.734468,259.135871 C173.39496,254.438591 172.410133,249.662093 171.978034,244.927005 C171.52613,240.200919 171.538733,235.534246 171.978034,231.081823 C172.83143,222.160773 175.422226,214.165135 178.459524,207.775467 C179.685605,205.193673 180.962099,202.887343 182.22959,200.82767 C182.584272,200.885283 182.929951,200.953699 183.282832,200.995108 C183.831958,201.049121 184.393687,201.09053 184.944614,201.103133 C185.502742,201.115736 186.064471,201.106734 186.617199,201.059923 C187.180728,201.027516 187.729854,200.944697 188.286182,200.869079 C189.384434,200.681836 190.475485,200.400972 191.528727,200.048091 C192.06345,199.889654 192.563965,199.652 193.078884,199.452154 C193.592002,199.236104 194.078113,198.987647 194.580429,198.748192 L194.76047,198.645568 C195.111551,198.443922 195.648074,198.154055 196.117982,197.923602 C196.600493,197.685948 197.10821,197.462696 197.617727,197.250248 C198.627759,196.812747 199.662997,196.459866 200.705436,196.153796 C201.223956,196.002561 201.751477,195.854927 202.280798,195.748702 C202.806519,195.631676 203.328639,195.532653 203.857961,195.444432 L205.588159,195.233784 C206.396544,195.132961 207.057296,194.978125 207.746855,194.78008 C210.46548,193.950089 212.829423,192.392731 214.613633,190.369066 C215.495836,189.348231 216.237606,188.206769 216.725518,186.955481 C217.190025,185.709595 217.425879,184.323277 217.094603,183.091794 C216.822741,184.026208 216.376238,184.81839 215.823511,185.516951 C215.668675,185.720398 215.495836,185.918443 215.313994,186.105686 C214.548818,186.946479 213.654012,187.632437 212.723198,188.231975 C210.850768,189.409445 208.778492,190.172821 206.758428,190.446484 C206.263314,190.5149 205.719589,190.552708 205.307294,190.552708 L204.860791,190.543706 L204.425091,190.552708 L203.404257,190.568912 C202.725501,190.622924 202.041343,190.651731 201.371589,190.772359 C200.705436,190.873182 200.044685,191.010013 199.389334,191.157647 C198.076832,191.470919 196.812942,191.90842 195.579658,192.412536 C194.967518,192.682598 194.362579,192.956261 193.768442,193.273133 C193.183308,193.572002 192.67199,193.852867 192.041845,194.263361 C191.679962,194.457806 191.32168,194.668454 190.952595,194.844895 C190.554703,195.023136 190.158612,195.240986 189.760721,195.401223 C189.361029,195.579464 188.952335,195.748702 188.54004,195.887334 C188.133147,196.040369 187.71005,196.151995 187.301356,196.292427 C186.905265,196.407654 186.507373,196.501275 186.10228,196.584094 C185.799811,196.659712 185.486539,196.699321 185.180468,196.755134 C185.103051,196.765936 185.016631,196.78394 184.937412,196.791142 C184.001197,196.933375 183.048778,197.007192 182.081956,197.00179 C181.640855,196.992788 181.181749,196.983786 180.731646,196.949578 C180.277942,196.920772 179.827838,196.859558 179.374134,196.791142 C178.911427,196.731728 178.452322,196.65251 177.995017,196.553487 C177.543113,196.452664 177.076806,196.351841 176.623102,196.220411 C176.165796,196.090781 175.706691,195.95575 175.245785,195.804515 C174.793881,195.638877 174.325774,195.494844 173.870269,195.311202 C172.96286,194.938516 172.057252,194.537024 171.155245,194.056313 C169.675305,193.237125 167.12952,192.592577 163.507087,194.331777 C160.192525,195.91254 159.594788,198.786 157.664744,202.278803 C156.46927,205.186471 155.030739,207.78987 153.475182,210.740748 C150.914993,215.574859 150.311855,215.785507 148.3332,217.27805 C146.350944,218.775995 146.296932,216.860354 146.284329,215.292194 C146.268125,213.727634 144.255263,212.645586 143.671928,213.866266 C143.081393,215.081546 142.694304,215.907936 142.694304,215.907936 C140.645433,221.509023 128.539451,217.909996 126.396958,216.917968 C124.254466,215.916938 125.995466,215.047338 125.995466,215.047338 C122.779927,213.828458 123.75215,212.904845 123.75215,212.904845 C123.75215,212.904845 127.961518,212.548363 130.019391,209.613689 C132.066461,206.682615 134.734674,205.109054 137.246252,201.598247 Z M149.393643,146.291336 C158.568552,143.826569 162.000141,148.469836 162.000141,148.469836 C166.639807,153.474987 174.939715,157.705959 183.785148,160.590222 C183.335044,160.923299 182.863336,161.259976 182.382625,161.614657 C181.462614,162.32042 180.438178,162.997375 179.428146,163.762551 C178.383906,164.477315 177.334265,165.244292 176.234212,165.984262 C175.146762,166.733234 174.041308,167.491208 172.908848,168.209573 C171.808795,168.97835 170.645728,169.648104 169.542074,170.37007 C168.407813,171.030822 167.323964,171.743785 166.21671,172.348724 C165.147264,172.993273 164.076018,173.546 163.064185,174.104128 C162.56187,174.399396 162.052353,174.608244 161.569842,174.871104 C161.326786,174.993532 161.08193,175.119561 160.842475,175.247391 C160.694841,173.902482 160.790263,173.061688 160.790263,173.061688 C160.790263,173.061688 162.115367,168.268987 156.065977,165.058849 C152.830633,163.341254 150.164221,164.576338 146.20151,165.100259 C143.164212,165.872636 140.216934,166.265126 136.913175,166.771043 C133.247533,167.332772 131.821605,167.343574 130.545112,167.078913 L130.545112,183.091794 C130.357869,186.12189 125.900044,186.12189 125.703799,183.091794 L125.703799,161.313988 C125.671391,161.315789 125.644385,161.308587 125.613778,161.313988 L125.613778,144.498124 C125.629982,132.365135 125.703799,83.4730983 125.703799,61.9131432 C125.900044,58.8848472 130.357869,58.8848472 130.545112,61.9131432 L130.545112,148.016132 C131.781996,148.187171 133.099899,148.315001 134.596043,148.289795 C138.908034,148.215978 149.393643,146.291336 149.393643,146.291336 Z M50,64.1510575 L122.506264,64.1510575 L122.506264,128.216982 L50,128.216982 L73.1461196,96.1876205 L50,64.1510575 Z M194.576828,78.415736 C194.072712,77.4471134 193.131096,76.4172767 191.778985,75.8429447 C191.438707,75.6989116 191.073223,75.5818847 190.684333,75.5080677 C190.459282,75.4810615 190.237831,75.4486541 190.01818,75.4234483 C189.84174,75.418047 189.661698,75.418047 189.487058,75.4162466 C188.981142,75.4108454 188.637263,75.5026665 188.269978,75.626895 C187.917097,75.7511236 187.620029,75.9167616 187.375173,76.1058051 C186.881859,76.4820916 186.609997,76.8871847 186.464163,77.1860534 C186.314729,77.5011258 186.280521,77.6883688 186.280521,77.6883688 C186.280521,77.6883688 186.465964,77.6433585 186.779236,77.6289552 C186.925069,77.6181527 187.105111,77.6055498 187.299555,77.6181527 C187.486798,77.6181527 187.693846,77.6181527 187.899093,77.6613626 C188.106141,77.6973709 188.314989,77.7513833 188.502232,77.8125974 C188.680473,77.8900152 188.916327,77.9674329 188.993745,78.0628549 L189.036955,78.0862603 L189.139578,78.1348714 L189.346626,78.2410958 L189.375432,78.2500979 L189.384434,78.2591 C189.361029,78.2500979 189.307017,78.237495 189.307017,78.237495 L189.32142,78.2482975 L189.361029,78.2753037 L189.427644,78.3347174 L189.564476,78.446343 C189.760721,78.6011786 189.97317,78.7488125 190.194621,78.9036481 C191.093027,79.5067867 192.216485,79.9694931 193.222917,80.1657382 C193.730633,80.2575593 194.19514,80.30437 194.549822,80.3079709 C194.71726,80.3187733 194.877497,80.30437 194.972919,80.2971684 C195.077343,80.2935676 195.131355,80.2935676 195.131355,80.2935676 C195.131355,80.2935676 195.125954,80.2359543 195.10975,80.1333307 C195.100748,80.0325076 195.091746,79.8758716 195.046736,79.7084331 C194.972919,79.3501507 194.821684,78.9036481 194.576828,78.415736 Z M159.187894,85.9864759 L158.930435,85.6858068 L158.800806,85.5399733 L158.68918,85.4193456 L158.665774,85.3887386 L158.609962,85.3365266 L158.401114,85.1366806 C158.145455,84.8522153 157.909601,84.5677499 157.756566,84.2490766 C157.583726,83.9394055 157.479302,83.6009277 157.405485,83.2642503 C157.261452,82.5800931 157.288458,81.9175408 157.347872,81.4476328 C157.347872,81.4242274 157.347872,81.4080237 157.351472,81.3846183 L157.457697,80.6860578 C157.457697,80.6860578 157.202038,80.8408933 156.868962,81.235184 C156.705124,81.4314291 156.507078,81.6816866 156.337839,82.0129627 C156.1668,82.3352368 155.983158,82.7349286 155.893137,83.2102379 C155.799516,83.6819463 155.759907,84.2310725 155.867931,84.8090053 C155.961553,85.3887386 156.202808,85.9774739 156.535885,86.5193984 L156.562891,86.5608079 L155.109957,96.0885977 C155.109957,96.0885977 155.178373,96.0741944 155.315204,96.0543898 C155.435832,96.0111799 155.659083,95.9949762 155.885936,95.8761489 C156.12359,95.7771261 156.424259,95.6510972 156.714126,95.4350475 C157.029198,95.2424032 157.33887,94.9777424 157.664744,94.6716721 C157.81958,94.506034 157.979817,94.3385955 158.145455,94.1639554 C158.293089,93.9713111 158.447924,93.7732656 158.60096,93.566218 C158.892627,93.1449212 159.171691,92.6732127 159.403944,92.1546936 C159.630796,91.6379748 159.827041,91.0708445 159.94947,90.4713067 C160.014284,90.1688372 160.048492,89.8501639 160.089902,89.5332911 C160.102505,89.2092166 160.102505,88.8797409 160.089902,88.5466644 C159.998081,87.8553055 159.90806,87.2341627 159.492164,86.4923922 C159.396742,86.3177521 159.283316,86.1089041 159.187894,85.9864759 Z" id="grisen" fill="#FFFFFF"></path>
    </g>
</svg>