<?xml version="1.0" encoding="utf-8"?>
<!-- Generator: Adobe Illustrator 23.0.3, SVG Export Plug-In . SVG Version: 6.00 Build 0)  -->
<svg version="1.1" id="Layer_1" xmlns="http://www.w3.org/2000/svg" xmlns:xlink="http://www.w3.org/1999/xlink" x="0px" y="0px"
	 viewBox="0 0 6944.9 3619.6" style="enable-background:new 0 0 6944.9 3619.6;" xml:space="preserve">
<style type="text/css">
	.st0{fill:#F3D2E6;}
	.st1{fill:#FFDC6E;}
	.st2{fill:none;stroke:#12100B;stroke-width:21.992;stroke-miterlimit:10;}
	.st3{fill:#E84A1B;}
	.st4{fill:none;stroke:#12100B;stroke-width:10.996;stroke-miterlimit:10;}
	.st5{clip-path:url(#SVGID_2_);fill:#12100B;}
	.st6{clip-path:url(#SVGID_2_);fill:none;stroke:#12100B;stroke-width:5.498;stroke-miterlimit:10;stroke-dasharray:27.49,10.996;}
	.st7{clip-path:url(#SVGID_2_);fill:none;stroke:#12100B;stroke-width:5.498;stroke-miterlimit:10;}
	.st8{clip-path:url(#SVGID_2_);fill:none;stroke:#12100B;stroke-width:10.996;stroke-miterlimit:10;}
	.st9{clip-path:url(#SVGID_2_);fill:#E84A1B;}
	.st10{fill:#FCC427;}
	.st11{fill:#12100B;}
	.st12{clip-path:url(#SVGID_4_);fill:none;stroke:#12100B;stroke-width:21.992;stroke-miterlimit:10;}
	.st13{clip-path:url(#SVGID_6_);fill:none;stroke:#12100B;stroke-width:21.992;stroke-miterlimit:10;}
	.st14{clip-path:url(#SVGID_8_);fill:#12100B;}
	.st15{font-family:'Futura-Bold';}
	.st16{font-size:65.9762px;}
	.st17{font-size:93.4662px;}
	.st18{letter-spacing:-1;}
	.st19{letter-spacing:1;}
	.st20{font-size:189.7436px;}
	.st21{clip-path:url(#SVGID_10_);fill:#12100B;}
	.st22{clip-path:url(#SVGID_10_);fill:none;stroke:#12100B;stroke-width:10.996;stroke-miterlimit:10;}
	.st23{clip-path:url(#SVGID_10_);fill:#E84A1B;}
	.st24{clip-path:url(#SVGID_10_);fill:none;stroke:#12100B;stroke-width:5.498;stroke-miterlimit:10;}
	.st25{clip-path:url(#SVGID_12_);fill:none;stroke:#12100B;stroke-width:5.498;stroke-miterlimit:10;}
	.st26{clip-path:url(#SVGID_14_);fill:none;stroke:#12100B;stroke-width:5.498;stroke-miterlimit:10;}
	.st27{clip-path:url(#SVGID_16_);fill:none;stroke:#12100B;stroke-width:5.498;stroke-miterlimit:10;}
	.st28{clip-path:url(#SVGID_18_);fill:none;stroke:#12100B;stroke-width:5.498;stroke-miterlimit:10;}
	.st29{clip-path:url(#SVGID_20_);fill:none;stroke:#12100B;stroke-width:5.498;stroke-miterlimit:10;}
	.st30{clip-path:url(#SVGID_22_);fill:none;stroke:#12100B;stroke-width:5.498;stroke-miterlimit:10;}
	.st31{clip-path:url(#SVGID_24_);fill:none;stroke:#12100B;stroke-width:5.498;stroke-miterlimit:10;}
	.st32{clip-path:url(#SVGID_26_);fill:none;stroke:#12100B;stroke-width:10.996;stroke-miterlimit:10;}
	.st33{clip-path:url(#SVGID_26_);fill:#12100B;}
	.st34{clip-path:url(#SVGID_26_);fill:none;stroke:#12100B;stroke-width:5.498;stroke-miterlimit:10;}
	.st35{clip-path:url(#SVGID_26_);fill:#E84A1B;}
	.st36{clip-path:url(#SVGID_28_);fill:none;stroke:#12100B;stroke-width:21.992;stroke-miterlimit:10;}
	.st37{clip-path:url(#SVGID_30_);fill:none;stroke:#12100B;stroke-width:21.992;stroke-miterlimit:10;}
	.st38{clip-path:url(#SVGID_32_);fill:none;stroke:#12100B;stroke-width:21.992;stroke-miterlimit:10;}
	.st39{letter-spacing:2;}
	.st40{letter-spacing:-2;}
	.st41{clip-path:url(#SVGID_34_);fill:#12100B;}
	.st42{clip-path:url(#SVGID_34_);fill:none;stroke:#12100B;stroke-width:10.996;stroke-miterlimit:10;}
	.st43{clip-path:url(#SVGID_36_);fill:none;stroke:#12100B;stroke-width:10.996;stroke-miterlimit:10;}
	.st44{letter-spacing:-8;}
</style>
<polygon class="st0" points="126.9,1648 126.9,125.9 460.5,125.9 460.5,842.4 660.8,842.4 660.8,1648 "/>
<polygon class="st0" points="3122.4,1811.2 2629,1811.2 2629,2398.1 2860.2,2398.1 2860.2,2765.8 3122.2,2765.8 "/>
<rect x="3110.6" y="2092.4" class="st1" width="303.8" height="529.6"/>
<rect x="458.9" y="399" class="st1" width="599.7" height="441.8"/>
<polygon class="st1" points="539.5,3123.3 539.5,2785.6 495.8,2785.6 495.8,2598.8 125.6,2598.8 125.6,1648 660.8,1648 660.8,794.5 
	1048.6,397.4 2595.8,399 2595.8,612 2993.6,612 2993.6,1810.4 2629,1810.4 2629,2398.1 2853.1,2398.1 2853.1,2765.8 3122.2,2765.8 
	3122.4,3120.1 2249.6,3120.1 2249.6,3185.7 2477,3185.7 2477,3544.5 1779.6,3544.5 1779.6,3185.9 2006.8,3185.9 2006.8,3123.3 "/>
<line class="st2" x1="2921.3" y1="1810.4" x2="3122.4" y2="1810.4"/>
<polyline class="st3" points="447.6,135.3 952.1,135.3 952.1,387.8 447.6,387.8 "/>
<line class="st4" x1="483.8" y1="261.5" x2="606" y2="261.5"/>
<g>
	<defs>
		<rect id="SVGID_1_" x="113.4" y="113.4" width="3301.1" height="3442.2"/>
	</defs>
	<clipPath id="SVGID_2_">
		<use xlink:href="#SVGID_1_"  style="overflow:visible;"/>
	</clipPath>
	<path class="st5" d="M672.3,261.5c-31.2,11.6-70,31.4-94,52.3l18.9-52.3l-18.9-52.3C602.3,230.2,641.1,250,672.3,261.5"/>
	<line class="st6" x1="824.8" y1="135.3" x2="824.8" y2="387.8"/>
	<line class="st6" x1="782.3" y1="135.3" x2="782.3" y2="387.8"/>
	<line class="st6" x1="909.8" y1="135.3" x2="909.8" y2="387.8"/>
	<line class="st6" x1="867.3" y1="135.3" x2="867.3" y2="387.8"/>
	<line class="st6" x1="739.8" y1="135.3" x2="739.8" y2="387.8"/>
	<line class="st7" x1="697.4" y1="261.5" x2="697.4" y2="387.8"/>
	<line class="st6" x1="697.4" y1="135.3" x2="697.4" y2="261.5"/>
	<line class="st7" x1="654.9" y1="135.3" x2="654.9" y2="387.8"/>
	<line class="st7" x1="612.5" y1="135.3" x2="612.5" y2="387.8"/>
	<line class="st7" x1="570" y1="135.3" x2="570" y2="387.8"/>
	<line class="st7" x1="526.8" y1="135.3" x2="526.8" y2="387.8"/>
	<line class="st7" x1="484.4" y1="135.3" x2="484.4" y2="387.8"/>
	<line class="st8" x1="952.1" y1="135.3" x2="952.1" y2="387.8"/>
	<line class="st9" x1="654.2" y1="125.9" x2="740.6" y2="397.2"/>
	<line class="st8" x1="654.2" y1="125.9" x2="740.6" y2="397.2"/>
	<polyline class="st9" points="2853,1982.7 2853,2128.8 2635,2216.9 2635,1982.7 	"/>
	<line class="st8" x1="2744" y1="1982.1" x2="2744" y2="2104.3"/>
	<path class="st5" d="M2744,2170.7c-11.6-31.2-31.4-70-52.3-94l52.3,18.9l52.3-18.9C2775.4,2100.7,2755.6,2139.4,2744,2170.7"/>
	<line class="st7" x1="2686.1" y1="2195.7" x2="2628.2" y2="2195.7"/>
	<line class="st7" x1="2801.2" y1="2153.3" x2="2628.2" y2="2153.3"/>
	<line class="st7" x1="2859.8" y1="2110.8" x2="2628.2" y2="2110.8"/>
	<line class="st7" x1="2859.8" y1="2068.3" x2="2628.2" y2="2068.3"/>
	<line class="st7" x1="2859.8" y1="2025.2" x2="2628.2" y2="2025.2"/>
	<line class="st7" x1="2859.8" y1="1982.7" x2="2628.2" y2="1982.7"/>
	<line class="st8" x1="2859.8" y1="2128.8" x2="2628.2" y2="2222.4"/>
	<polyline class="st9" points="2635,2389 2635,2242.9 2853,2154.8 2853,2389 	"/>
	<line class="st6" x1="2750.8" y1="2196.1" x2="2859.8" y2="2196.1"/>
	<line class="st6" x1="2638.9" y1="2238.5" x2="2859.8" y2="2238.5"/>
	<line class="st6" x1="2628.2" y1="2281" x2="2859.8" y2="2281"/>
	<line class="st6" x1="2628.2" y1="2323.5" x2="2859.8" y2="2323.5"/>
	<line class="st6" x1="2628.2" y1="2366.7" x2="2859.8" y2="2366.7"/>
	<line class="st8" x1="2628.2" y1="2242.9" x2="2859.8" y2="2149.3"/>
</g>
<rect x="1778.3" y="2276.2" class="st1" width="698.7" height="497.2"/>
<rect x="1778.3" y="2276.2" class="st4" width="698.7" height="497.2"/>
<rect x="2477.9" y="614.8" class="st10" width="505.3" height="1055.8"/>
<rect x="537.7" y="2829.4" class="st1" width="1.8" height="288"/>
<rect x="539.5" y="2829.4" class="st10" width="566.7" height="288"/>
<path class="st11" d="M330,2120.3H137.9v-457.8H330V2120.3z M341,1651.5H126.9v479.8H341V1651.5z"/>
<path class="st11" d="M1051.6,829.8H469.9v-431h581.7V829.8z M1062.6,387.8H458.9v453h603.7V387.8z"/>
<line class="st2" x1="1773" y1="2465.8" x2="2478.2" y2="2465.8"/>
<g>
	<defs>
		<rect id="SVGID_3_" x="113.4" y="113.4" width="3301.1" height="3442.2"/>
	</defs>
	<clipPath id="SVGID_4_">
		<use xlink:href="#SVGID_3_"  style="overflow:visible;"/>
	</clipPath>
	<line class="st12" x1="2129.1" y1="3543.3" x2="2129.1" y2="3113.8"/>
	<polyline class="st12" points="543.3,3123.3 543.3,2785.6 495.8,2785.6 495.8,2598.8 125.6,2598.8 	"/>
</g>
<line class="st2" x1="1454" y1="2892.5" x2="1454" y2="3123.3"/>
<g>
	<defs>
		<rect id="SVGID_5_" x="113.4" y="113.4" width="3301.1" height="3442.2"/>
	</defs>
	<clipPath id="SVGID_6_">
		<use xlink:href="#SVGID_5_"  style="overflow:visible;"/>
	</clipPath>
	<path class="st13" d="M856,1652.9h137.3v130.6c134.2,0,329,197.2,329,331.1h126.9l4.8,651.2"/>
	<line class="st13" x1="605.8" y1="1652.9" x2="734.5" y2="1652.9"/>
	<line class="st13" x1="133.4" y1="1652.9" x2="487.5" y2="1652.9"/>
	<line class="st13" x1="660.8" y1="1648" x2="660.8" y2="1293.8"/>
	<polyline class="st13" points="2706.2,2758.1 2629,2758.1 2629,1810.4 2993.6,1810.4 2993.6,612 2595.8,612 2595.8,398 458.9,398 
		458.9,840.8 660.8,842.4 660.8,1035.2 	"/>
	<line class="st13" x1="2867.6" y1="2399.8" x2="2629" y2="2399.8"/>
	<line class="st13" x1="2866.2" y1="2758.1" x2="2860.7" y2="1983.5"/>
	<line class="st13" x1="2910.7" y1="2765.8" x2="2828.2" y2="2765.8"/>
</g>
<path class="st11" d="M135.4,135.4h2976.4v1959.3v22h22h258.7v485.6h-258.7h-22v22v487.5h-848.5h-22v22v36.5v22h22h207.4v341.3
	h-684.8v-341.3h205.4h22v-22v-36.5v-22h-22h-1856V135.4z M113.4,113.4v3020.4h1878v36.5h-227.4v385.3h728.8v-385.3h-229.4v-36.5
	h870.5v-509.5h280.7v-529.6h-280.7V113.4H113.4z"/>
<g>
	<defs>
		<rect id="SVGID_7_" x="113.4" y="113.4" width="3301.1" height="3442.2"/>
	</defs>
	<clipPath id="SVGID_8_">
		<use xlink:href="#SVGID_7_"  style="overflow:visible;"/>
	</clipPath>
	<path class="st14" d="M1932.9,3235.1c9.7,0,17.5,7.9,17.5,17.5c0,9.7-7.9,17.5-17.5,17.5c-9.7,0-17.5-7.9-17.5-17.5
		C1915.4,3242.9,1923.3,3235.1,1932.9,3235.1 M1932.9,3222.7c-16.5,0-29.9,13.4-29.9,29.9c0,16.5,13.4,29.9,29.9,29.9
		c16.5,0,29.9-13.4,29.9-29.9C1962.8,3236.1,1949.4,3222.7,1932.9,3222.7"/>
	<path class="st14" d="M1906.8,3484.3c-3.4,0-6.2-2.8-6.2-6.2v-178.4c0-3.4,2.8-6.2,6.2-6.2c3.4,0,6.2,2.8,6.2,6.2v178.4
		C1913,3481.5,1910.2,3484.3,1906.8,3484.3"/>
	<path class="st14" d="M1958.4,3484.3c-3.4,0-6.2-2.8-6.2-6.2v-178.4c0-3.4,2.8-6.2,6.2-6.2c3.4,0,6.2,2.8,6.2,6.2v178.4
		C1964.6,3481.5,1961.8,3484.3,1958.4,3484.3"/>
	<path class="st14" d="M2022.1,3305.8h-178.4c-3.4,0-6.2-2.8-6.2-6.2c0-3.4,2.8-6.2,6.2-6.2h178.4c3.4,0,6.2,2.8,6.2,6.2
		C2028.3,3303.1,2025.6,3305.8,2022.1,3305.8"/>
	<path class="st14" d="M1958.4,3419.3h-51.6c-3.4,0-6.2-2.8-6.2-6.2s2.8-6.2,6.2-6.2h51.6c3.4,0,6.2,2.8,6.2,6.2
		S1961.8,3419.3,1958.4,3419.3"/>
	<path class="st14" d="M2332.5,3235.7c9.6,0,17.5,7.8,17.5,17.4c0,9.6-7.8,17.4-17.5,17.4c-9.6,0-17.4-7.8-17.4-17.4
		C2315,3243.5,2322.8,3235.7,2332.5,3235.7 M2332.5,3223.3c-16.4,0-29.8,13.3-29.8,29.8c0,16.4,13.3,29.8,29.8,29.8
		c16.4,0,29.8-13.3,29.8-29.8C2362.2,3236.7,2348.9,3223.3,2332.5,3223.3"/>
	<path class="st14" d="M2306.5,3483.6c-3.4,0-6.2-2.8-6.2-6.2v-64.7c0-3.4,2.8-6.2,6.2-6.2c3.4,0,6.2,2.8,6.2,6.2v64.7
		C2312.6,3480.9,2309.9,3483.6,2306.5,3483.6"/>
	<path class="st14" d="M2357.8,3483.6c-3.4,0-6.2-2.8-6.2-6.2v-64.7c0-3.4,2.8-6.2,6.2-6.2c3.4,0,6.2,2.8,6.2,6.2v64.7
		C2364,3480.9,2361.2,3483.6,2357.8,3483.6"/>
	<path class="st14" d="M2421.2,3306.1h-177.5c-3.4,0-6.2-2.8-6.2-6.2c0-3.4,2.8-6.2,6.2-6.2h177.5c3.4,0,6.2,2.8,6.2,6.2
		C2427.4,3303.3,2424.6,3306.1,2421.2,3306.1"/>
	<path class="st14" d="M2383.5,3419h-108.8c-1.9,0-3.7-0.9-4.9-2.4c-1.2-1.5-1.5-3.5-1-5.4l31.8-112.9c0.7-2.6,3.2-4.5,5.9-4.5h51.3
		c2.9,0,5.4,2,6,4.8l25.7,112.9c0.4,1.8,0,3.7-1.2,5.2C2387.1,3418.1,2385.3,3419,2383.5,3419 M2282.8,3406.6h92.9l-22.9-100.6
		h-41.7L2282.8,3406.6z"/>
	<path class="st14" d="M2728.1,2607.7c27.1,0,49.1,22,49.1,49.1c0,27.1-22,49.1-49.1,49.1c-27.1,0-49.1-22-49.1-49.1
		C2679,2629.8,2701,2607.7,2728.1,2607.7 M2728.1,2595.2c-34,0-61.6,27.6-61.6,61.6c0,34,27.6,61.6,61.6,61.6
		c34,0,61.6-27.6,61.6-61.6C2789.7,2622.8,2762.1,2595.2,2728.1,2595.2"/>
	<path class="st14" d="M2732,2472.4c9.8,0,17.8,8,17.8,17.8c0,9.8-8,17.8-17.8,17.8c-9.8,0-17.8-8-17.8-17.8
		C2714.3,2480.3,2722.3,2472.4,2732,2472.4 M2732,2459.8c-16.7,0-30.3,13.6-30.3,30.3c0,16.7,13.6,30.3,30.3,30.3
		c16.7,0,30.3-13.6,30.3-30.3C2762.3,2473.4,2748.8,2459.8,2732,2459.8"/>
	<path class="st14" d="M2774,2576.2h-52.2c-3.5,0-6.3-2.8-6.3-6.3c0-3.5,2.8-6.3,6.3-6.3h52.2c3.5,0,6.3,2.8,6.3,6.3
		C2780.3,2573.4,2777.5,2576.2,2774,2576.2"/>
	<path class="st14" d="M2814.7,2700.2c-2.8,0-5.3-1.8-6-4.6l-16.1-59.8l-63.8,16.8c-1.8,0.5-3.7,0.1-5.2-0.9
		c-1.5-1.1-2.5-2.8-2.6-4.6l-8.6-108.7c-0.3-3.5,2.3-6.5,5.8-6.7c3.5-0.3,6.5,2.3,6.7,5.8l8,101.2l62.5-16.5
		c3.3-0.9,6.8,1.1,7.6,4.4l17.8,65.8c0.9,3.3-1.1,6.8-4.4,7.7C2815.8,2700.1,2815.3,2700.2,2814.7,2700.2"/>
</g>
<text transform="matrix(-6.123234e-17 1 -1 -6.123234e-17 3244.3115 2271.9131)" class="st11 st15 st16">Heis</text>
<text transform="matrix(1 0 0 1 732.5195 2348.418)"><tspan x="0" y="0" class="st11 st15 st17">K</tspan><tspan x="74" y="0" class="st11 st15 st17 st18">L</tspan><tspan x="122.5" y="0" class="st11 st15 st17">UBB</tspan></text>
<text transform="matrix(1 0 0 1 1560.8174 1351.6011)"><tspan x="0" y="0" class="st11 st15 st17">BE</tspan><tspan x="118" y="0" class="st11 st15 st17">T</tspan><tspan x="167.2" y="0" class="st11 st15 st17">O</tspan><tspan x="253.7" y="0" class="st11 st15 st17 st19">N</tspan><tspan x="340" y="0" class="st11 st15 st17">G</tspan></text>
<text transform="matrix(-6.123234e-17 1 -1 -6.123234e-17 2726.5645 1044.9272)" class="st11 st15 st16">Scene</text>
<text transform="matrix(1 0 0 1 719.4351 2996.0078)" class="st11 st15 st16">Scene</text>
<text transform="matrix(-6.123234e-17 1 -1 -6.123234e-17 211.8696 1822.0339)" class="st11 st15 st16">Bar</text>
<text transform="matrix(1 0 0 1 2066.7437 2401.1484)" class="st11 st15 st16">Bar</text>
<text transform="matrix(1 0 0 1 686.1919 635.0977)" class="st11 st15 st16">Bar</text>
<text transform="matrix(1 0 0 1 1932.9438 2645.3926)"><tspan x="0" y="0" class="st11 st15 st16">Ga</tspan><tspan x="104.3" y="0" class="st11 st15 st16">r</tspan><tspan x="135.4" y="0" class="st11 st15 st16">de</tspan><tspan x="224.4" y="0" class="st11 st15 st16">r</tspan><tspan x="255.3" y="0" class="st11 st15 st16">obe</tspan></text>
<text transform="matrix(1 0 0 1 2364.8657 322.9424)" class="st11 st15 st20">Kjeller</text>
<polygon class="st0" points="4028,113.4 4027.6,627.1 4547.4,627.1 4547.4,1647 4063.3,1647 4063.3,2591.5 4547.4,2591.5 
	4547.4,3133.8 5027.2,3133.8 5027.2,2107.7 6045.7,2107.7 6045.7,3130.4 6541.3,3132.1 6541.3,1636.6 5999,1636.6 5999,917.7 
	5018.5,917.7 5018.5,113.4 "/>
<rect x="3543.3" y="1129.6" class="st1" width="520" height="1461.9"/>
<polygon class="st1" points="4545.8,1444.2 4545.8,1139.8 4345.1,1139.8 4345.1,1444.2 4062.3,1444.2 4062.3,1645.4 4546.6,1645.4 
	4546.6,1444.2 "/>
<polygon class="st1" points="5999,655.7 5017.2,655.7 5017.2,917.7 5998.6,917.7 5999,917.7 "/>
<rect x="5027.2" y="2107.7" class="st1" width="1018.6" height="482.9"/>
<rect x="4063.3" y="2591.5" class="st1" width="484.2" height="519"/>
<rect x="5027.2" y="2580.2" class="st1" width="255.3" height="550.4"/>
<rect x="6518.2" y="2094.7" class="st1" width="303.8" height="529.6"/>
<polyline class="st4" points="4709.8,950.2 4709.8,520.2 4637.9,520.2 "/>
<g>
	<defs>
		<rect id="SVGID_9_" x="3520.9" y="113.4" width="3301.1" height="3254.8"/>
	</defs>
	<clipPath id="SVGID_10_">
		<use xlink:href="#SVGID_9_"  style="overflow:visible;"/>
	</clipPath>
	<path class="st21" d="M4571.5,520.2c31.2-11.6,70-31.4,94-52.3l-18.9,52.3l18.9,52.3C4641.5,551.6,4602.8,531.8,4571.5,520.2"/>
	<polyline class="st22" points="4830.2,594.9 4830.2,244.4 4672.7,244.4 	"/>
	<path class="st21" d="M4606.3,244.4c31.2-11.6,70-31.4,94-52.3l-18.9,52.3l18.9,52.3C4676.3,275.8,4637.5,256,4606.3,244.4"/>
	<polyline class="st22" points="6460.5,2795.8 6156.2,2795.8 6156.2,2707.1 	"/>
	<path class="st21" d="M6156.2,2640.8c11.6,31.2,31.4,70,52.3,94l-52.3-18.9l-52.3,18.9C6124.9,2710.7,6144.6,2672,6156.2,2640.8"/>
	<polyline class="st22" points="5716.9,1887.3 6142,1887.3 6142,2012.4 	"/>
	<path class="st21" d="M6142,2078.8c-11.6-31.2-31.4-70-52.3-94l52.3,18.9l52.3-18.9C6173.4,2008.8,6153.6,2047.6,6142,2078.8"/>
	<path class="st23" d="M4151.5,2416.9c-5.8-15.6-8.9-32.5-8.9-50.2c0-80.1,64.9-145.1,145.1-145.1c80.1,0,145.1,64.9,145.1,145.1
		c0,80.1-64.9,145.1-145.1,145.1c-8.1,0-16.1-0.7-23.8-1.9"/>
	<path class="st22" d="M4151.5,2416.9c-5.8-15.6-8.9-32.5-8.9-50.2c0-80.1,64.9-145.1,145.1-145.1c80.1,0,145.1,64.9,145.1,145.1
		c0,80.1-64.9,145.1-145.1,145.1c-8.1,0-16.1-0.7-23.8-1.9"/>
	<line class="st24" x1="4272.9" y1="2514" x2="4272.9" y2="2381.2"/>
	<line class="st24" x1="4316.6" y1="2511.8" x2="4277.8" y2="2384.9"/>
	<line class="st24" x1="4357.8" y1="2497" x2="4283.5" y2="2387"/>
	<line class="st24" x1="4392.8" y1="2470.8" x2="4289.6" y2="2387.3"/>
	<line class="st24" x1="4418.6" y1="2435.6" x2="4295.5" y2="2385.8"/>
	<line class="st24" x1="4433" y1="2394.3" x2="4300.8" y2="2382.7"/>
	<line class="st24" x1="4434.7" y1="2350.6" x2="4304.9" y2="2378.2"/>
	<line class="st24" x1="4423.6" y1="2308.3" x2="4307.5" y2="2372.6"/>
	<line class="st24" x1="4400.6" y1="2271.1" x2="4308.3" y2="2366.6"/>
	<line class="st24" x1="4367.7" y1="2242.3" x2="4307.4" y2="2360.6"/>
	<line class="st24" x1="4327.8" y1="2224.3" x2="4304.7" y2="2355.1"/>
	<line class="st24" x1="4284.4" y1="2218.8" x2="4300.6" y2="2350.6"/>
	<line class="st24" x1="4241.3" y1="2226.3" x2="4295.3" y2="2347.6"/>
	<line class="st24" x1="4202.2" y1="2246" x2="4289.4" y2="2346.2"/>
	<line class="st24" x1="4170.7" y1="2276.2" x2="4283.3" y2="2346.6"/>
	<line class="st24" x1="4149.3" y1="2314.4" x2="4277.6" y2="2348.8"/>
	<line class="st24" x1="4140.1" y1="2357.1" x2="4272.7" y2="2352.5"/>
	<line class="st24" x1="4143.7" y1="2400.7" x2="4269.2" y2="2357.5"/>
	<path class="st24" d="M4266.6,2366.7c0-11.7,9.5-21.1,21.1-21.1c11.7,0,21.1,9.5,21.1,21.1c0,11.7-9.5,21.1-21.1,21.1
		C4276,2387.8,4266.6,2378.4,4266.6,2366.7z"/>
	<path class="st22" d="M4205.4,2352.4c6.8-39.3,41.1-69.2,82.3-69.2c46.1,0,83.5,37.4,83.5,83.5c0,46.1-37.4,83.5-83.5,83.5
		c-4.8,0-9.5-0.4-14-1.2"/>
	<polygon class="st21" points="4205.1,2379.6 4221.9,2341.8 4206,2350.4 4190.6,2340.8 	"/>
	<polyline class="st23" points="6261.7,2116.9 6261.7,2302.6 6050.7,2387.9 6050.7,2116.9 	"/>
	<polyline class="st22" points="6261.7,2116.9 6261.7,2302.6 6050.7,2387.9 6050.7,2116.9 	"/>
	<polyline class="st23" points="6050.7,2621.4 6050.7,2408.9 6261.7,2323.7 6261.7,2621.4 	"/>
	<polyline class="st22" points="6050.7,2621.4 6050.7,2408.9 6261.7,2323.7 6261.7,2621.4 	"/>
	<line class="st22" x1="6156.2" y1="2153.1" x2="6156.2" y2="2275.3"/>
	<path class="st21" d="M6156.2,2341.6c-11.6-31.2-31.4-70-52.3-94l52.3,18.9l52.3-18.9C6187.5,2271.7,6167.8,2310.4,6156.2,2341.6"
		/>
	<line class="st22" x1="6156.2" y1="2366.7" x2="6156.2" y2="2537.3"/>
	<path class="st21" d="M6156.2,2603.6c-11.6-31.2-31.4-70-52.3-94l52.3,18.9l52.3-18.9C6187.5,2533.7,6167.8,2572.4,6156.2,2603.6"
		/>
	<line class="st24" x1="6261.7" y1="2494.1" x2="6050.7" y2="2494.1"/>
	<line class="st24" x1="6261.7" y1="2451.6" x2="6050.7" y2="2451.6"/>
	<line class="st24" x1="6261.7" y1="2579.1" x2="6050.7" y2="2579.1"/>
	<line class="st24" x1="6261.7" y1="2536.7" x2="6050.7" y2="2536.7"/>
	<line class="st24" x1="6261.7" y1="2409.1" x2="6050.7" y2="2409.1"/>
	<line class="st24" x1="6103.5" y1="2366.7" x2="6050.7" y2="2366.7"/>
	<line class="st24" x1="6261.7" y1="2366.7" x2="6156.2" y2="2366.7"/>
	<line class="st24" x1="6208.2" y1="2324.2" x2="6050.7" y2="2324.2"/>
	<line class="st24" x1="6261.7" y1="2281.8" x2="6050.7" y2="2281.8"/>
	<line class="st24" x1="6261.7" y1="2239.3" x2="6050.7" y2="2239.3"/>
	<line class="st24" x1="6261.7" y1="2196.1" x2="6050.7" y2="2196.1"/>
	<line class="st24" x1="6261.7" y1="2153.7" x2="6050.7" y2="2153.7"/>
	<polyline class="st23" points="4547.2,347.7 4437.3,347.7 4350.8,135.5 4547.2,135.5 	"/>
	<polyline class="st23" points="4547.2,625.3 4032.5,625.3 4032.5,135.5 4322.2,135.5 4408.7,347.7 4242.1,347.7 4242.3,413 
		4547.2,413 	"/>
</g>
<g>
	<defs>
		<rect id="SVGID_11_" x="4239.5" y="413" width="5.5" height="212.3"/>
	</defs>
	<clipPath id="SVGID_12_">
		<use xlink:href="#SVGID_11_"  style="overflow:visible;"/>
	</clipPath>
	<line class="st25" x1="4242.3" y1="625.3" x2="4242.3" y2="413"/>
</g>
<g>
	<defs>
		<rect id="SVGID_13_" x="4283.2" y="413" width="5.5" height="212.3"/>
	</defs>
	<clipPath id="SVGID_14_">
		<use xlink:href="#SVGID_13_"  style="overflow:visible;"/>
	</clipPath>
	<line class="st26" x1="4286" y1="625.3" x2="4286" y2="413"/>
</g>
<g>
	<defs>
		<rect id="SVGID_15_" x="4326.9" y="413" width="5.5" height="212.3"/>
	</defs>
	<clipPath id="SVGID_16_">
		<use xlink:href="#SVGID_15_"  style="overflow:visible;"/>
	</clipPath>
	<line class="st27" x1="4329.7" y1="625.3" x2="4329.7" y2="413"/>
</g>
<g>
	<defs>
		<rect id="SVGID_17_" x="4370.6" y="413" width="5.5" height="212.3"/>
	</defs>
	<clipPath id="SVGID_18_">
		<use xlink:href="#SVGID_17_"  style="overflow:visible;"/>
	</clipPath>
	<line class="st28" x1="4373.3" y1="625.3" x2="4373.3" y2="413"/>
</g>
<g>
	<defs>
		<rect id="SVGID_19_" x="4414.3" y="413" width="5.5" height="212.3"/>
	</defs>
	<clipPath id="SVGID_20_">
		<use xlink:href="#SVGID_19_"  style="overflow:visible;"/>
	</clipPath>
	<line class="st29" x1="4417" y1="625.3" x2="4417" y2="413"/>
</g>
<g>
	<defs>
		<rect id="SVGID_21_" x="4458" y="413" width="5.5" height="212.3"/>
	</defs>
	<clipPath id="SVGID_22_">
		<use xlink:href="#SVGID_21_"  style="overflow:visible;"/>
	</clipPath>
	<line class="st30" x1="4460.7" y1="625.3" x2="4460.7" y2="413"/>
</g>
<g>
	<defs>
		<rect id="SVGID_23_" x="4501.7" y="413" width="5.5" height="212.3"/>
	</defs>
	<clipPath id="SVGID_24_">
		<use xlink:href="#SVGID_23_"  style="overflow:visible;"/>
	</clipPath>
	<line class="st31" x1="4504.4" y1="625.3" x2="4504.4" y2="413"/>
</g>
<g>
	<defs>
		<rect id="SVGID_25_" x="3520.9" y="113.4" width="3301.1" height="3254.8"/>
	</defs>
	<clipPath id="SVGID_26_">
		<use xlink:href="#SVGID_25_"  style="overflow:visible;"/>
	</clipPath>
	<polyline class="st32" points="4504.4,519.1 4260.9,519.1 4159.1,519.1 4159.1,241.6 4284.5,241.6 	"/>
	<path class="st33" d="M4350.9,241.6c-31.2,11.6-70,31.4-94,52.3l18.9-52.3l-18.9-52.3C4280.9,210.3,4319.6,230,4350.9,241.6"/>
	<line class="st32" x1="4394.1" y1="241.6" x2="4461.4" y2="241.6"/>
	<path class="st33" d="M4527.7,241.6c-31.2,11.6-70,31.4-94,52.3l18.9-52.3l-18.9-52.3C4457.8,210.3,4496.5,230,4527.7,241.6"/>
	<line class="st34" x1="4500.7" y1="135.5" x2="4500.7" y2="347.7"/>
	<line class="st34" x1="4457.6" y1="135.5" x2="4457.6" y2="347.7"/>
	<line class="st34" x1="4414.6" y1="135.5" x2="4414.6" y2="291.9"/>
	<line class="st34" x1="4371.5" y1="256.4" x2="4371.5" y2="347.7"/>
	<line class="st34" x1="4371.5" y1="135.5" x2="4371.5" y2="186.1"/>
	<line class="st34" x1="4328.4" y1="135.5" x2="4328.4" y2="347.7"/>
	<line class="st34" x1="4285.3" y1="135.5" x2="4285.3" y2="347.7"/>
	<line class="st34" x1="4242.3" y1="135.5" x2="4242.3" y2="347.7"/>
	<line class="st35" x1="4350.8" y1="413" x2="4437.3" y2="625.3"/>
	<line class="st32" x1="4350.8" y1="413" x2="4437.3" y2="625.3"/>
	<polyline class="st32" points="4317.8,124.7 4408.7,347.7 4242.1,347.7 4242.3,413 4547.2,413 	"/>
	<polyline class="st32" points="4547.2,347.7 4437.3,347.7 4346.5,124.7 	"/>
</g>
<path class="st11" d="M4545.8,1139.8l0.8,304.4v201.1h-472.3v-201.1h270.8v-304.4H4545.8z M4556.8,1128.8h-11h-200.7h-11v11v293.4
	h-259.8h-11v11v201.1v11h11h472.3h11v-11v-201.1l-0.8-304.5L4556.8,1128.8z"/>
<path class="st11" d="M4547.4,3110.4h-484.2v-519h484.2V3110.4z M4558.4,2580.5h-11h-484.2h-11v11v519v11h11h484.2h11v-11v-519
	V2580.5z"/>
<path class="st11" d="M5272.8,3113.7h-239.3v-511.4h239.3V3113.7z M5283.8,2591.3h-11h-239.3h-11v11v511.4v11h11h239.3h11v-11
	v-511.4V2591.3z"/>
<path class="st11" d="M5998.6,655.7l-0.4,262h-981v-262H5998.6z M6009.6,644.7h-11h-981.4h-11v11v262v11h11h981h11l0-11l0.4-262
	L6009.6,644.7z"/>
<g>
	<defs>
		<rect id="SVGID_27_" x="3520.9" y="113.4" width="3301.1" height="3254.8"/>
	</defs>
	<clipPath id="SVGID_28_">
		<use xlink:href="#SVGID_27_"  style="overflow:visible;"/>
	</clipPath>
	<polyline class="st36" points="4063.7,1444.2 4345.1,1444.2 4345.1,1139.8 4545.8,1139.8 4545.8,629.8 4027.6,629.8 4027.6,124.7 	
		"/>
	<line class="st36" x1="5017.2" y1="917.7" x2="5017.2" y2="118"/>
</g>
<line class="st2" x1="4057.3" y1="2156.8" x2="4057.3" y2="3127.5"/>
<g>
	<defs>
		<rect id="SVGID_29_" x="3520.9" y="113.4" width="3301.1" height="3254.8"/>
	</defs>
	<clipPath id="SVGID_30_">
		<use xlink:href="#SVGID_29_"  style="overflow:visible;"/>
	</clipPath>
	<line class="st37" x1="4547.4" y1="2591.5" x2="3527.3" y2="2591.5"/>
</g>
<polyline class="st2" points="6045.7,2591.5 5033.5,2591.5 5033.5,2531.7 "/>
<polyline class="st2" points="5031.1,2456.9 5031.1,2107.7 5443.2,2107.7 "/>
<line class="st2" x1="5526.9" y1="2094.4" x2="5526.9" y2="2587.9"/>
<polyline class="st2" points="5607.5,2107.7 6045.7,2107.7 6045.7,3123.7 "/>
<line class="st2" x1="5282.5" y1="2591.5" x2="5282.5" y2="3123.7"/>
<polyline class="st2" points="5017.2,655.7 5999,655.7 5999,1636.6 6518.2,1636.6 "/>
<g>
	<defs>
		<rect id="SVGID_31_" x="3520.9" y="113.4" width="3301.1" height="3254.8"/>
	</defs>
	<clipPath id="SVGID_32_">
		<use xlink:href="#SVGID_31_"  style="overflow:visible;"/>
	</clipPath>
	<polyline class="st38" points="3536.9,1127.9 4063.3,1127.9 4063.3,1991.3 	"/>
</g>
<line class="st2" x1="5248.8" y1="2602.3" x2="5248.8" y2="2107.7"/>
<path class="st11" d="M3542.9,135.4h2976.4v1959.3v22h22H6800v485.6h-258.7h-22v22v487.5H3542.9V135.4z M3520.9,113.4v3020.4h3020.4
	v-509.5H6822v-529.6h-280.7V113.4H3520.9z"/>
<rect x="4587" y="3065.1" class="st0" width="416.4" height="68.7"/>
<rect x="6078.9" y="3065.5" class="st0" width="416.4" height="68.7"/>
<text transform="matrix(1 0 0 1 5296.5859 823.4507)"><tspan x="0" y="0" class="st11 st15 st16">Ga</tspan><tspan x="104.3" y="0" class="st11 st15 st16">r</tspan><tspan x="135.4" y="0" class="st11 st15 st16">de</tspan><tspan x="224.4" y="0" class="st11 st15 st16">r</tspan><tspan x="255.3" y="0" class="st11 st15 st16">obe</tspan></text>
<text transform="matrix(1 0 0 1 4082.1621 2867.7891)"><tspan x="0" y="0" class="st11 st15 st16">Bill</tspan><tspan x="106" y="0" class="st11 st15 st16">e</tspan><tspan x="149.2" y="0" class="st11 st15 st16 st19">t</tspan><tspan x="175.5" y="0" class="st11 st15 st16">t</tspan><tspan x="200.4" y="0" class="st11 st15 st16">salg/</tspan></text>
<text transform="matrix(1 0 0 1 4082.1621 2946.9609)"><tspan x="0" y="0" class="st11 st15 st16">In</tspan><tspan x="67.2" y="0" class="st11 st15 st16">f</tspan><tspan x="93.6" y="0" class="st11 st15 st16">ormasjon</tspan></text>
<text transform="matrix(-6.123234e-17 1 -1 -6.123234e-17 3758.4922 1515.9238)"><tspan x="0" y="0" class="st11 st15 st17">G</tspan><tspan x="82.2" y="0" class="st11 st15 st17 st39">L</tspan><tspan x="134.9" y="0" class="st11 st15 st17">ASS</tspan><tspan x="330.6" y="0" class="st11 st15 st17 st18">B</tspan><tspan x="394.2" y="0" class="st11 st15 st17">AREN</tspan></text>
<text transform="matrix(-6.123234e-17 1 -1 -6.123234e-17 5122.5586 2642.1177)"><tspan x="0" y="0" class="st11 st15 st16">Sl</tspan><tspan x="62.7" y="0" class="st11 st15 st16">o</tspan><tspan x="109.1" y="0" class="st11 st15 st16 st19">t</tspan><tspan x="135.4" y="0" class="st11 st15 st16">t</tspan><tspan x="160.3" y="0" class="st11 st15 st16">sme</tspan><tspan x="302" y="0" class="st11 st15 st16">s</tspan><tspan x="336.5" y="0" class="st11 st15 st16">t</tspan><tspan x="361.7" y="0" class="st11 st15 st16">er</tspan></text>
<text transform="matrix(1 0 0 1 4095.9219 1605.9883)"><tspan x="0" y="0" class="st11 st15 st17">F</tspan><tspan x="51.3" y="0" class="st11 st15 st17 st40">O</tspan><tspan x="135.2" y="0" class="st11 st15 st17">AJE</tspan></text>
<text transform="matrix(1 0 0 1 4533.9434 3331.1836)"><tspan x="0" y="0" class="st11 st15 st16">H</tspan><tspan x="55" y="0" class="st11 st15 st16 st18">o</tspan><tspan x="99.5" y="0" class="st11 st15 st16 st18">v</tspan><tspan x="141" y="0" class="st11 st15 st16">edinn</tspan><tspan x="337.7" y="0" class="st11 st15 st16">g</tspan><tspan x="384.3" y="0" class="st11 st15 st16">ang</tspan></text>
<text transform="matrix(-6.123234e-17 1 -1 -6.123234e-17 4732.7256 520.2334)"><tspan x="0" y="0" class="st11 st15 st16">T</tspan><tspan x="36.2" y="0" class="st11 st15 st16">il </tspan><tspan x="98.8" y="0" class="st11 st15 st16">St</tspan><tspan x="167.2" y="0" class="st11 st15 st16">o</tspan><tspan x="213.4" y="0" class="st11 st15 st16">r</tspan><tspan x="244" y="0" class="st11 st15 st16">salen</tspan></text>
<text transform="matrix(-6.123234e-17 1 -1 -6.123234e-17 4859.1357 244.3867)"><tspan x="0" y="0" class="st11 st15 st16">T</tspan><tspan x="36.2" y="0" class="st11 st15 st16">il B</tspan><tspan x="144.5" y="0" class="st11 st15 st16">e</tspan><tspan x="187.6" y="0" class="st11 st15 st16">t</tspan><tspan x="212.8" y="0" class="st11 st15 st16">ong</tspan></text>
<text transform="matrix(1 0 0 1 6115.3574 2873.8125)"><tspan x="0" y="0" class="st11 st15 st16">T</tspan><tspan x="36.2" y="0" class="st11 st15 st16">il B</tspan><tspan x="144.5" y="0" class="st11 st15 st16">e</tspan><tspan x="187.6" y="0" class="st11 st15 st16">t</tspan><tspan x="212.8" y="0" class="st11 st15 st16">ong</tspan></text>
<text transform="matrix(1 0 0 1 5716.8613 1856.9873)"><tspan x="0" y="0" class="st11 st15 st16">T</tspan><tspan x="36.2" y="0" class="st11 st15 st16">il </tspan><tspan x="98.8" y="0" class="st11 st15 st16">St</tspan><tspan x="167.2" y="0" class="st11 st15 st16">o</tspan><tspan x="213.4" y="0" class="st11 st15 st16">r</tspan><tspan x="244" y="0" class="st11 st15 st16">salen</tspan></text>
<text transform="matrix(-6.123234e-17 1 -1 -6.123234e-17 6640.4834 2279.0068)" class="st11 st15 st16">Heis</text>
<g>
	<defs>
		<rect id="SVGID_33_" x="3520.9" y="113.4" width="3301.1" height="3254.8"/>
	</defs>
	<clipPath id="SVGID_34_">
		<use xlink:href="#SVGID_33_"  style="overflow:visible;"/>
	</clipPath>
	<path class="st41" d="M5387.9,2294.2c9.7,0,17.5,7.9,17.5,17.5c0,9.7-7.9,17.5-17.5,17.5c-9.7,0-17.5-7.9-17.5-17.5
		C5370.4,2302,5378.2,2294.2,5387.9,2294.2 M5387.9,2281.8c-16.5,0-29.9,13.4-29.9,29.9c0,16.5,13.4,29.9,29.9,29.9
		c16.5,0,29.9-13.4,29.9-29.9C5417.8,2295.2,5404.4,2281.8,5387.9,2281.8"/>
	<path class="st41" d="M5361.8,2543.3c-3.4,0-6.2-2.8-6.2-6.2v-178.4c0-3.4,2.8-6.2,6.2-6.2c3.4,0,6.2,2.8,6.2,6.2v178.4
		C5368,2540.6,5365.2,2543.3,5361.8,2543.3"/>
	<path class="st41" d="M5413.4,2543.3c-3.4,0-6.2-2.8-6.2-6.2v-178.4c0-3.4,2.8-6.2,6.2-6.2c3.4,0,6.2,2.8,6.2,6.2v178.4
		C5419.5,2540.6,5416.8,2543.3,5413.4,2543.3"/>
	<path class="st41" d="M5477.1,2364.9h-178.4c-3.4,0-6.2-2.8-6.2-6.2c0-3.4,2.8-6.2,6.2-6.2h178.4c3.4,0,6.2,2.8,6.2,6.2
		C5483.3,2362.1,5480.5,2364.9,5477.1,2364.9"/>
	<path class="st41" d="M5413.4,2478.4h-51.6c-3.4,0-6.2-2.8-6.2-6.2c0-3.4,2.8-6.2,6.2-6.2h51.6c3.4,0,6.2,2.8,6.2,6.2
		C5419.5,2475.6,5416.8,2478.4,5413.4,2478.4"/>
	<path class="st41" d="M5658.4,2291.3c9.6,0,17.4,7.8,17.4,17.4c0,9.6-7.8,17.4-17.4,17.4c-9.6,0-17.4-7.8-17.4-17.4
		C5641,2299.2,5648.8,2291.3,5658.4,2291.3 M5658.4,2279c-16.4,0-29.8,13.3-29.8,29.8c0,16.4,13.3,29.8,29.8,29.8
		c16.4,0,29.8-13.3,29.8-29.8C5688.2,2292.3,5674.8,2279,5658.4,2279"/>
	<path class="st41" d="M5632.4,2539.3c-3.4,0-6.2-2.8-6.2-6.2v-64.7c0-3.4,2.8-6.2,6.2-6.2c3.4,0,6.2,2.8,6.2,6.2v64.7
		C5638.6,2536.5,5635.8,2539.3,5632.4,2539.3"/>
	<path class="st41" d="M5683.7,2539.3c-3.4,0-6.2-2.8-6.2-6.2v-64.7c0-3.4,2.8-6.2,6.2-6.2c3.4,0,6.2,2.8,6.2,6.2v64.7
		C5689.9,2536.5,5687.1,2539.3,5683.7,2539.3"/>
	<path class="st41" d="M5747.2,2361.7h-177.5c-3.4,0-6.2-2.8-6.2-6.2c0-3.4,2.8-6.2,6.2-6.2h177.5c3.4,0,6.2,2.8,6.2,6.2
		C5753.3,2359,5750.6,2361.7,5747.2,2361.7"/>
	<path class="st41" d="M5709.4,2474.6h-108.8c-1.9,0-3.7-0.9-4.9-2.4c-1.2-1.5-1.5-3.5-1-5.4l31.8-112.9c0.7-2.6,3.2-4.5,5.9-4.5
		h51.3c2.9,0,5.4,2,6,4.8l25.7,112.9c0.4,1.8,0,3.7-1.2,5.2C5713,2473.8,5711.3,2474.6,5709.4,2474.6 M5608.7,2462.3h92.9
		l-22.9-100.6h-41.7L5608.7,2462.3z"/>
	<path class="st41" d="M5127,2432.6c27.1,0,49.1,22,49.1,49.1c0,27.1-22,49.1-49.1,49.1c-27.1,0-49.1-22-49.1-49.1
		C5077.9,2454.7,5099.9,2432.6,5127,2432.6 M5127,2420.1c-34,0-61.6,27.6-61.6,61.6c0,34,27.6,61.6,61.6,61.6
		c34,0,61.6-27.6,61.6-61.6C5188.6,2447.7,5161,2420.1,5127,2420.1"/>
	<path class="st41" d="M5130.9,2297.3c9.8,0,17.8,8,17.8,17.8c0,9.8-8,17.8-17.8,17.8c-9.8,0-17.8-8-17.8-17.8
		C5113.2,2305.2,5121.1,2297.3,5130.9,2297.3 M5130.9,2284.7c-16.7,0-30.3,13.6-30.3,30.3c0,16.7,13.6,30.3,30.3,30.3
		c16.7,0,30.3-13.6,30.3-30.3C5161.2,2298.3,5147.7,2284.7,5130.9,2284.7"/>
	<path class="st41" d="M5172.9,2401.1h-52.2c-3.5,0-6.3-2.8-6.3-6.3c0-3.5,2.8-6.3,6.3-6.3h52.2c3.5,0,6.3,2.8,6.3,6.3
		C5179.2,2398.3,5176.4,2401.1,5172.9,2401.1"/>
	<path class="st41" d="M5213.6,2525.1c-2.8,0-5.3-1.8-6-4.6l-16.1-59.8l-63.8,16.8c-1.8,0.5-3.7,0.1-5.2-0.9
		c-1.5-1.1-2.5-2.8-2.6-4.6l-8.5-108.7c-0.3-3.5,2.3-6.5,5.8-6.7c3.5-0.3,6.5,2.3,6.7,5.8l8,101.2l62.5-16.5
		c3.4-0.9,6.8,1.1,7.6,4.4l17.8,65.8c0.9,3.3-1.1,6.8-4.4,7.7C5214.7,2525,5214.2,2525.1,5213.6,2525.1"/>
	<line class="st42" x1="4270.4" y1="2086.3" x2="3985.2" y2="2086.3"/>
	<path class="st41" d="M3918.9,2086.3c31.2-11.6,70-31.4,94-52.3l-18.9,52.3l18.9,52.3C3988.9,2117.6,3950.1,2097.9,3918.9,2086.3"
		/>
	<line class="st42" x1="6287.1" y1="3246.8" x2="6287.1" y2="3043.3"/>
	<path class="st41" d="M6287.1,2976.9c11.6,31.2,31.4,70,52.3,94l-52.3-18.9l-52.3,18.9C6255.7,3046.9,6275.5,3008.2,6287.1,2976.9"
		/>
	<line class="st42" x1="4794.1" y1="3246.8" x2="4794.1" y2="3043.3"/>
	<path class="st41" d="M4794.1,2976.9c11.6,31.2,31.4,70,52.3,94l-52.3-18.9l-52.3,18.9C4762.8,3046.9,4782.6,3008.2,4794.1,2976.9"
		/>
</g>
<text transform="matrix(-6.123234e-17 -1 1 -6.123234e-17 4481.062 1515.9258)"><tspan x="0" y="0" class="st11 st15 st17">B</tspan><tspan x="63.7" y="0" class="st11 st15 st17">AREN</tspan></text>
<g>
	<defs>
		<rect id="SVGID_35_" x="3520.9" y="113.4" width="3301.1" height="3254.8"/>
	</defs>
	<clipPath id="SVGID_36_">
		<use xlink:href="#SVGID_35_"  style="overflow:visible;"/>
	</clipPath>
	<path class="st43" d="M4459,1522.1c0,27.5-22.3,49.8-49.8,49.8"/>
</g>
<text transform="matrix(1 0 0 1 5851.4629 322.9434)"><tspan x="0" y="0" class="st11 st15 st20 st44">1</tspan><tspan x="120.7" y="0" class="st11 st15 st20">. </tspan><tspan x="249.7" y="0" class="st11 st15 st20 st19">e</tspan><tspan x="373.8" y="0" class="st11 st15 st20">tg</tspan></text>
</svg>
