<?xml version="1.0" encoding="utf-8"?>
<!-- Generator: Adobe Illustrator 23.0.3, SVG Export Plug-In . SVG Version: 6.00 Build 0)  -->
<svg version="1.1" id="Layer_1" xmlns="http://www.w3.org/2000/svg" xmlns:xlink="http://www.w3.org/1999/xlink" x="0px" y="0px"
	 viewBox="0 0 6944.9 3244.4" style="enable-background:new 0 0 6944.9 3244.4;" xml:space="preserve">
<style type="text/css">
	.st0{fill:#F3D2E6;}
	.st1{fill:#FFDC6E;}
	.st2{clip-path:url(#SVGID_2_);fill:#E84A1B;}
	.st3{clip-path:url(#SVGID_2_);fill:none;stroke:#12100B;stroke-width:11.012;stroke-miterlimit:10;}
	.st4{clip-path:url(#SVGID_2_);fill:none;stroke:#12100B;stroke-width:5.506;stroke-miterlimit:10;}
	.st5{clip-path:url(#SVGID_2_);fill:#12100B;}
	.st6{clip-path:url(#SVGID_4_);fill:none;stroke:#12100B;stroke-width:5.506;stroke-miterlimit:10;}
	.st7{clip-path:url(#SVGID_6_);fill:none;stroke:#12100B;stroke-width:5.506;stroke-miterlimit:10;}
	.st8{clip-path:url(#SVGID_8_);fill:none;stroke:#12100B;stroke-width:5.506;stroke-miterlimit:10;}
	.st9{clip-path:url(#SVGID_10_);fill:none;stroke:#12100B;stroke-width:5.506;stroke-miterlimit:10;}
	.st10{clip-path:url(#SVGID_12_);fill:none;stroke:#12100B;stroke-width:5.506;stroke-miterlimit:10;}
	.st11{clip-path:url(#SVGID_14_);fill:none;stroke:#12100B;stroke-width:5.506;stroke-miterlimit:10;}
	.st12{clip-path:url(#SVGID_16_);fill:none;stroke:#12100B;stroke-width:5.506;stroke-miterlimit:10;}
	.st13{clip-path:url(#SVGID_18_);fill:none;stroke:#12100B;stroke-width:11.012;stroke-miterlimit:10;}
	.st14{clip-path:url(#SVGID_18_);fill:#12100B;}
	.st15{clip-path:url(#SVGID_18_);fill:none;stroke:#12100B;stroke-width:5.506;stroke-miterlimit:10;}
	.st16{clip-path:url(#SVGID_18_);fill:#E84A1B;}
	.st17{fill:#12100B;}
	.st18{fill:#130F00;}
	.st19{fill:none;stroke:#12100B;stroke-width:5.506;stroke-miterlimit:10;}
	.st20{fill:none;stroke:#12100B;stroke-width:22.023;stroke-miterlimit:10;}
	.st21{clip-path:url(#SVGID_20_);fill:none;stroke:#12100B;stroke-width:22.023;stroke-miterlimit:10;}
	.st22{clip-path:url(#SVGID_22_);fill:none;stroke:#12100B;stroke-width:22.023;stroke-miterlimit:10;}
	.st23{clip-path:url(#SVGID_24_);fill:none;stroke:#12100B;stroke-width:22.023;stroke-miterlimit:10;}
	.st24{clip-path:url(#SVGID_26_);fill:none;stroke:#12100B;stroke-width:22.023;stroke-miterlimit:10;}
	.st25{fill:#FFFFFF;}
	.st26{fill:#FCC427;}
	.st27{clip-path:url(#SVGID_28_);fill:#12100B;}
	.st28{font-family:'FuturaPT-Bold';}
	.st29{font-size:93.5986px;}
	.st30{letter-spacing:-3;}
	.st31{letter-spacing:-1;}
	.st32{letter-spacing:-4;}
	.st33{letter-spacing:1;}
	.st34{font-size:66.0696px;}
	.st35{letter-spacing:-2;}
	.st36{font-size:190.0123px;}
	.st37{clip-path:url(#SVGID_30_);fill:#E84A1B;}
	.st38{clip-path:url(#SVGID_30_);fill:none;stroke:#12100B;stroke-width:11.012;stroke-miterlimit:10;}
	.st39{clip-path:url(#SVGID_30_);fill:none;stroke:#12100B;stroke-width:5.506;stroke-miterlimit:10;}
	.st40{clip-path:url(#SVGID_30_);fill:#12100B;}
	.st41{clip-path:url(#SVGID_32_);fill:none;stroke:#12100B;stroke-width:5.506;stroke-miterlimit:10;}
	.st42{clip-path:url(#SVGID_34_);fill:none;stroke:#12100B;stroke-width:5.506;stroke-miterlimit:10;}
	.st43{clip-path:url(#SVGID_36_);fill:none;stroke:#12100B;stroke-width:5.506;stroke-miterlimit:10;}
	.st44{clip-path:url(#SVGID_38_);fill:none;stroke:#12100B;stroke-width:5.506;stroke-miterlimit:10;}
	.st45{clip-path:url(#SVGID_40_);fill:none;stroke:#12100B;stroke-width:5.506;stroke-miterlimit:10;}
	.st46{clip-path:url(#SVGID_42_);fill:none;stroke:#12100B;stroke-width:5.506;stroke-miterlimit:10;}
	.st47{clip-path:url(#SVGID_44_);fill:none;stroke:#12100B;stroke-width:5.506;stroke-miterlimit:10;}
	.st48{clip-path:url(#SVGID_46_);fill:none;stroke:#12100B;stroke-width:11.012;stroke-miterlimit:10;}
	.st49{clip-path:url(#SVGID_46_);fill:#12100B;}
	.st50{clip-path:url(#SVGID_46_);fill:none;stroke:#12100B;stroke-width:5.506;stroke-miterlimit:10;}
	.st51{clip-path:url(#SVGID_46_);fill:#E84A1B;}
	
		.st52{clip-path:url(#SVGID_46_);fill:none;stroke:#12100B;stroke-width:5.506;stroke-miterlimit:10;stroke-dasharray:27.529,27.529;}
	.st53{clip-path:url(#SVGID_46_);fill:none;stroke:#12100B;stroke-width:22.023;stroke-miterlimit:10;}
	.st54{font-size:93.5984px;}
	.st55{font-size:66.0698px;}
</style>
<polygon class="st0" points="124.5,1099.7 497.5,1099.7 495.9,1604 639,1604 639,617.7 1642.3,617.7 1642.3,113.9 124.5,113.9 "/>
<rect x="2642.9" y="1614.3" class="st0" width="482.4" height="1509.5"/>
<rect x="636.8" y="2340.5" class="st0" width="243.8" height="254.5"/>
<rect x="3115.7" y="2093.4" class="st1" width="303.4" height="530.3"/>
<path class="st1" d="M1642.4,1614.3V617.7H628.3V1604H123.7v1518.3h504.6h343.1h614.3h56.7h1004.1v-1508H1642.4z M881.6,2595H637.8
	v-254.5h243.8V2595z"/>
<g>
	<defs>
		<rect id="SVGID_1_" x="113.4" y="109.3" width="3305.7" height="3024.7"/>
	</defs>
	<clipPath id="SVGID_2_">
		<use xlink:href="#SVGID_1_"  style="overflow:visible;"/>
	</clipPath>
	<path class="st2" d="M751.9,2396.9c-5.8-15.7-8.9-32.6-8.9-50.2c0-80.2,65-145.3,145.3-145.3c80.2,0,145.3,65,145.3,145.3
		c0,80.2-65,145.3-145.3,145.3c-8.1,0-16.1-0.7-23.9-1.9"/>
	<path class="st3" d="M751.9,2396.9c-5.8-15.7-8.9-32.6-8.9-50.2c0-80.2,65-145.3,145.3-145.3c80.2,0,145.3,65,145.3,145.3
		c0,80.2-65,145.3-145.3,145.3c-8.1,0-16.1-0.7-23.9-1.9"/>
	<line class="st4" x1="873.5" y1="2494.1" x2="873.5" y2="2361.1"/>
	<line class="st4" x1="917.2" y1="2491.9" x2="878.4" y2="2364.8"/>
	<line class="st4" x1="958.4" y1="2477.1" x2="884.1" y2="2366.9"/>
	<line class="st4" x1="993.5" y1="2450.9" x2="890.2" y2="2367.2"/>
	<line class="st4" x1="1019.4" y1="2415.6" x2="896.1" y2="2365.8"/>
	<line class="st4" x1="1033.8" y1="2374.2" x2="901.4" y2="2362.6"/>
	<line class="st4" x1="1035.5" y1="2330.4" x2="905.5" y2="2358.1"/>
	<line class="st4" x1="1024.4" y1="2288.1" x2="908.1" y2="2352.6"/>
	<line class="st4" x1="1001.3" y1="2250.9" x2="908.9" y2="2346.5"/>
	<line class="st4" x1="968.3" y1="2222" x2="908" y2="2340.5"/>
	<line class="st4" x1="928.4" y1="2204" x2="905.3" y2="2335"/>
	<line class="st4" x1="885" y1="2198.5" x2="901.2" y2="2330.5"/>
	<line class="st4" x1="841.8" y1="2206" x2="895.9" y2="2327.4"/>
	<line class="st4" x1="802.7" y1="2225.7" x2="889.9" y2="2326"/>
	<line class="st4" x1="771.1" y1="2256" x2="883.8" y2="2326.5"/>
	<line class="st4" x1="749.7" y1="2294.2" x2="878.1" y2="2328.6"/>
	<line class="st4" x1="740.4" y1="2337" x2="873.3" y2="2332.4"/>
	<line class="st4" x1="744.1" y1="2380.7" x2="869.8" y2="2337.4"/>
	<path class="st4" d="M867.1,2346.6c0-11.7,9.5-21.1,21.1-21.1c11.7,0,21.1,9.5,21.1,21.1c0,11.7-9.5,21.1-21.1,21.1
		C876.6,2367.8,867.1,2358.3,867.1,2346.6z"/>
	<path class="st3" d="M805.8,2332.3c6.8-39.4,41.1-69.3,82.4-69.3c46.2,0,83.7,37.5,83.7,83.7c0,46.2-37.5,83.7-83.7,83.7
		c-4.8,0-9.5-0.4-14-1.2"/>
	<polygon class="st5" points="805.6,2359.5 822.4,2321.6 806.4,2330.3 791.1,2320.7 	"/>
	<polyline class="st2" points="2863.9,2115.7 2863.9,2301.7 2652.6,2387 2652.6,2115.7 	"/>
	<polyline class="st3" points="2863.9,2115.7 2863.9,2301.7 2652.6,2387 2652.6,2115.7 	"/>
	<polyline class="st2" points="2652.6,2620.9 2652.6,2408.1 2863.9,2322.8 2863.9,2620.9 	"/>
	<polyline class="st3" points="2652.6,2620.9 2652.6,2408.1 2863.9,2322.8 2863.9,2620.9 	"/>
	<line class="st3" x1="2758.3" y1="2151.9" x2="2758.3" y2="2274.3"/>
	<path class="st5" d="M2758.3,2340.7c-11.6-31.3-31.4-70.1-52.4-94.1l52.4,18.9l52.4-18.9
		C2789.7,2270.6,2769.9,2309.4,2758.3,2340.7"/>
	<line class="st3" x1="2758.3" y1="2365.8" x2="2758.3" y2="2536.6"/>
	<path class="st5" d="M2758.3,2603.1c-11.6-31.3-31.4-70.1-52.4-94.1l52.4,18.9l52.4-18.9C2789.7,2533,2769.9,2571.8,2758.3,2603.1"
		/>
	<line class="st4" x1="2863.9" y1="2493.4" x2="2652.6" y2="2493.4"/>
	<line class="st4" x1="2863.9" y1="2450.8" x2="2652.6" y2="2450.8"/>
	<line class="st4" x1="2863.9" y1="2578.5" x2="2652.6" y2="2578.5"/>
	<line class="st4" x1="2863.9" y1="2536" x2="2652.6" y2="2536"/>
	<line class="st4" x1="2863.9" y1="2408.3" x2="2652.6" y2="2408.3"/>
	<line class="st4" x1="2705.4" y1="2365.8" x2="2652.6" y2="2365.8"/>
	<line class="st4" x1="2863.9" y1="2365.8" x2="2758.3" y2="2365.8"/>
	<line class="st4" x1="2810.4" y1="2323.3" x2="2652.6" y2="2323.3"/>
	<line class="st4" x1="2863.9" y1="2280.8" x2="2652.6" y2="2280.8"/>
	<line class="st4" x1="2863.9" y1="2238.3" x2="2652.6" y2="2238.3"/>
	<line class="st4" x1="2863.9" y1="2195" x2="2652.6" y2="2195"/>
	<line class="st4" x1="2863.9" y1="2152.5" x2="2652.6" y2="2152.5"/>
	<polyline class="st2" points="1160.6,337.2 1050.5,337.2 963.9,124.6 1160.6,124.6 	"/>
	<polyline class="st2" points="1160.6,615.1 855,615.1 855,124.6 935.2,124.6 1021.8,337.2 855,337.2 855.2,402.6 1160.6,402.6 	"/>
</g>
<g>
	<defs>
		<rect id="SVGID_3_" x="852.4" y="402.6" width="5.5" height="212.6"/>
	</defs>
	<clipPath id="SVGID_4_">
		<use xlink:href="#SVGID_3_"  style="overflow:visible;"/>
	</clipPath>
	<line class="st6" x1="855.2" y1="615.1" x2="855.2" y2="402.6"/>
</g>
<g>
	<defs>
		<rect id="SVGID_5_" x="896.2" y="402.6" width="5.5" height="212.6"/>
	</defs>
	<clipPath id="SVGID_6_">
		<use xlink:href="#SVGID_5_"  style="overflow:visible;"/>
	</clipPath>
	<line class="st7" x1="898.9" y1="615.1" x2="898.9" y2="402.6"/>
</g>
<g>
	<defs>
		<rect id="SVGID_7_" x="939.9" y="402.6" width="5.5" height="212.6"/>
	</defs>
	<clipPath id="SVGID_8_">
		<use xlink:href="#SVGID_7_"  style="overflow:visible;"/>
	</clipPath>
	<line class="st8" x1="942.7" y1="615.1" x2="942.7" y2="402.6"/>
</g>
<g>
	<defs>
		<rect id="SVGID_9_" x="983.7" y="402.6" width="5.5" height="212.6"/>
	</defs>
	<clipPath id="SVGID_10_">
		<use xlink:href="#SVGID_9_"  style="overflow:visible;"/>
	</clipPath>
	<line class="st9" x1="986.4" y1="615.1" x2="986.4" y2="402.6"/>
</g>
<g>
	<defs>
		<rect id="SVGID_11_" x="1027.4" y="402.6" width="5.5" height="212.6"/>
	</defs>
	<clipPath id="SVGID_12_">
		<use xlink:href="#SVGID_11_"  style="overflow:visible;"/>
	</clipPath>
	<line class="st10" x1="1030.2" y1="615.1" x2="1030.2" y2="402.6"/>
</g>
<g>
	<defs>
		<rect id="SVGID_13_" x="1071.2" y="402.6" width="5.5" height="212.6"/>
	</defs>
	<clipPath id="SVGID_14_">
		<use xlink:href="#SVGID_13_"  style="overflow:visible;"/>
	</clipPath>
	<line class="st11" x1="1074" y1="615.1" x2="1074" y2="402.6"/>
</g>
<g>
	<defs>
		<rect id="SVGID_15_" x="1115" y="402.6" width="5.5" height="212.6"/>
	</defs>
	<clipPath id="SVGID_16_">
		<use xlink:href="#SVGID_15_"  style="overflow:visible;"/>
	</clipPath>
	<line class="st12" x1="1117.7" y1="615.1" x2="1117.7" y2="402.6"/>
</g>
<g>
	<defs>
		<rect id="SVGID_17_" x="113.4" y="109.3" width="3305.7" height="3024.7"/>
	</defs>
	<clipPath id="SVGID_18_">
		<use xlink:href="#SVGID_17_"  style="overflow:visible;"/>
	</clipPath>
	<line class="st13" x1="855.2" y1="230.9" x2="897.5" y2="230.9"/>
	<path class="st14" d="M963.9,230.9c-31.3,11.6-70.1,31.4-94.1,52.4l18.9-52.4l-18.9-52.4C893.8,199.5,932.6,219.3,963.9,230.9"/>
	<line class="st13" x1="1117.7" y1="508.8" x2="921.6" y2="508.8"/>
	<path class="st14" d="M855.2,508.8c31.3-11.6,70.1-31.4,94.1-52.4l-18.9,52.4l18.9,52.4C925.3,540.2,886.5,520.4,855.2,508.8"/>
	<line class="st13" x1="1007.2" y1="230.9" x2="1074.6" y2="230.9"/>
	<path class="st14" d="M1141.1,230.9c-31.3,11.6-70.1,31.4-94.1,52.4l18.9-52.4l-18.9-52.4C1071,199.5,1109.8,219.3,1141.1,230.9"/>
	<line class="st15" x1="1114" y1="124.6" x2="1114" y2="337.2"/>
	<line class="st15" x1="1070.8" y1="124.6" x2="1070.8" y2="337.2"/>
	<line class="st15" x1="1027.7" y1="124.6" x2="1027.7" y2="281.3"/>
	<line class="st15" x1="984.6" y1="245.8" x2="984.6" y2="337.2"/>
	<line class="st15" x1="984.6" y1="124.6" x2="984.6" y2="175.4"/>
	<line class="st15" x1="941.4" y1="124.6" x2="941.4" y2="337.2"/>
	<line class="st15" x1="898.3" y1="124.6" x2="898.3" y2="337.2"/>
	<line class="st15" x1="855.2" y1="124.6" x2="855.2" y2="337.2"/>
	<line class="st16" x1="963.9" y1="402.6" x2="1050.5" y2="615.1"/>
	<line class="st13" x1="963.9" y1="402.6" x2="1050.5" y2="615.1"/>
	<polyline class="st13" points="930.9,113.9 1021.8,337.2 855,337.2 855.2,402.6 1160.6,402.6 	"/>
	<polyline class="st13" points="1160.6,337.2 1050.5,337.2 959.5,113.9 	"/>
</g>
<rect x="1642.3" y="2050.6" class="st17" width="871.5" height="5.5"/>
<rect x="1642.3" y="2119.7" class="st17" width="871.5" height="5.5"/>
<rect x="1642.3" y="2188.9" class="st17" width="871.5" height="5.5"/>
<rect x="1642.3" y="2258" class="st17" width="871.5" height="5.5"/>
<polygon class="st18" points="1639.6,2010.6 1639.6,2332.7 2516.6,2332.7 2516.6,2015.7 2511.1,2015.7 2511.1,2050.6 2513.9,2050.6 
	2513.9,2056.1 2511.1,2056.1 2511.1,2119.7 2513.9,2119.7 2513.9,2125.2 2511.1,2125.2 2511.1,2188.9 2513.9,2188.9 2513.9,2194.4 
	2511.1,2194.4 2511.1,2258 2513.9,2258 2513.9,2263.6 2511.1,2263.6 2511.1,2327.2 1645.1,2327.2 1645.1,2263.6 1642.3,2263.6 
	1642.3,2258 1645.1,2258 1645.1,2194.4 1642.3,2194.4 1642.3,2188.9 1645.1,2188.9 1645.1,2125.2 1642.3,2125.2 1642.3,2119.7 
	1645.1,2119.7 1645.1,2056.1 1642.3,2056.1 1642.3,2050.6 1645.1,2050.6 1645.1,2010.6 "/>
<path d="M1645.1,2050.6h-2.8v5.5h2.8V2050.6z M2513.9,2050.6h-2.8v5.5h2.8V2050.6z"/>
<path d="M1645.1,2119.7h-2.8v5.5h2.8V2119.7z M2513.9,2119.7h-2.8v5.5h2.8V2119.7z"/>
<path d="M1645.1,2188.9h-2.8v5.5h2.8V2188.9z M2513.9,2188.9h-2.8v5.5h2.8V2188.9z"/>
<path d="M1645.1,2258h-2.8v5.5h2.8V2258z M2513.9,2258h-2.8v5.5h2.8V2258z"/>
<rect x="2436" y="2292.3" class="st19" width="77.9" height="37.4"/>
<rect x="2436" y="2223.4" class="st19" width="77.9" height="37.4"/>
<rect x="2436" y="2154.3" class="st19" width="77.9" height="37.4"/>
<rect x="2436" y="2085.1" class="st19" width="77.9" height="37.4"/>
<rect x="2436" y="2016" class="st19" width="77.9" height="37.4"/>
<rect x="1653.9" y="2292.3" class="st19" width="77.9" height="37.4"/>
<rect x="1653.9" y="2223.4" class="st19" width="77.9" height="37.4"/>
<rect x="1653.9" y="2154.3" class="st19" width="77.9" height="37.4"/>
<rect x="1653.9" y="2085.1" class="st19" width="77.9" height="37.4"/>
<rect x="1653.9" y="2016" class="st19" width="77.9" height="37.4"/>
<polyline class="st20" points="634.1,753.3 634.1,621.9 1642.3,621.9 "/>
<line class="st20" x1="634.1" y1="1462.1" x2="634.1" y2="866.7"/>
<g>
	<defs>
		<rect id="SVGID_19_" x="113.4" y="109.3" width="3305.7" height="3024.7"/>
	</defs>
	<clipPath id="SVGID_20_">
		<use xlink:href="#SVGID_19_"  style="overflow:visible;"/>
	</clipPath>
	<polyline class="st21" points="123.7,1604 495.9,1604 494.3,1099.7 124.5,1099.7 	"/>
</g>
<rect x="628.3" y="1593" class="st17" width="2508.2" height="22"/>
<g>
	<defs>
		<rect id="SVGID_21_" x="113.4" y="109.3" width="3305.7" height="3024.7"/>
	</defs>
	<clipPath id="SVGID_22_">
		<use xlink:href="#SVGID_21_"  style="overflow:visible;"/>
	</clipPath>
	<line class="st22" x1="123.7" y1="2597.6" x2="495.5" y2="2597.6"/>
</g>
<line class="st20" x1="639" y1="1604" x2="639" y2="2168.1"/>
<line class="st20" x1="1004.5" y1="2595" x2="2411.8" y2="2595"/>
<g>
	<defs>
		<rect id="SVGID_23_" x="113.4" y="109.3" width="3305.7" height="3024.7"/>
	</defs>
	<clipPath id="SVGID_24_">
		<use xlink:href="#SVGID_23_"  style="overflow:visible;"/>
	</clipPath>
	<line class="st23" x1="1642.3" y1="113.9" x2="1642.3" y2="2599.8"/>
</g>
<line class="st20" x1="632.2" y1="2398.8" x2="632.2" y2="2281.1"/>
<line class="st20" x1="635" y1="2333.8" x2="740.3" y2="2333.8"/>
<line class="st20" x1="635" y1="2488.8" x2="635" y2="2595"/>
<line class="st20" x1="751.6" y1="2597.6" x2="887.8" y2="2597.6"/>
<line class="st20" x1="2646.5" y1="2676.7" x2="2646.5" y2="1841.1"/>
<line class="st20" x1="2536.8" y1="2595.5" x2="2646.5" y2="2595.5"/>
<line class="st20" x1="2648.9" y1="1703.9" x2="2648.9" y2="1606.5"/>
<g>
	<defs>
		<rect id="SVGID_25_" x="113.4" y="109.3" width="3305.7" height="3024.7"/>
	</defs>
	<clipPath id="SVGID_26_">
		<use xlink:href="#SVGID_25_"  style="overflow:visible;"/>
	</clipPath>
	<rect x="2354.5" y="2821" class="st24" width="296.7" height="296.7"/>
</g>
<rect x="232.7" y="544.8" class="st25" width="162.9" height="155.8"/>
<rect x="232.7" y="544.8" class="st20" width="162.9" height="155.8"/>
<line class="st20" x1="398" y1="622.1" x2="460.3" y2="622.1"/>
<line class="st20" x1="578" y1="621.9" x2="634.1" y2="621.9"/>
<path class="st17" d="M135.4,131.3H3116v1962v22h22h259v486.3h-259h-22v22v488.2H135.4V131.3z M113.4,109.3V3134h3024.7v-510.2
	h281.1v-530.3h-281.1V109.3H113.4z"/>
<rect x="1750.3" y="1615" class="st26" width="655.7" height="183.2"/>
<rect x="1750.3" y="1609.6" class="st18" width="655.7" height="5.4"/>
<g>
	<defs>
		<rect id="SVGID_27_" x="113.4" y="109.3" width="3305.7" height="3024.7"/>
	</defs>
	<clipPath id="SVGID_28_">
		<use xlink:href="#SVGID_27_"  style="overflow:visible;"/>
	</clipPath>
	<path class="st27" d="M2499.7,2986.2c24.5,0,44.4,19.9,44.4,44.4c0,24.5-19.9,44.4-44.4,44.4c-24.5,0-44.4-19.9-44.4-44.4
		C2455.3,3006.1,2475.2,2986.2,2499.7,2986.2 M2499.7,2974.9c-30.8,0-55.7,25-55.7,55.7c0,30.8,25,55.7,55.7,55.7
		c30.8,0,55.7-25,55.7-55.7C2555.5,2999.8,2530.5,2974.9,2499.7,2974.9"/>
	<path class="st27" d="M2503.3,2863.8c8.9,0,16.1,7.2,16.1,16.1c0,8.9-7.2,16.1-16.1,16.1c-8.9,0-16.1-7.2-16.1-16.1
		C2487.3,2871,2494.5,2863.8,2503.3,2863.8 M2503.3,2852.5c-15.1,0-27.4,12.3-27.4,27.4c0,15.1,12.3,27.4,27.4,27.4
		c15.1,0,27.4-12.3,27.4-27.4C2530.7,2864.7,2518.4,2852.5,2503.3,2852.5"/>
	<path class="st27" d="M2541.3,2957.7h-47.2c-3.1,0-5.7-2.5-5.7-5.7c0-3.1,2.5-5.7,5.7-5.7h47.2c3.1,0,5.7,2.5,5.7,5.7
		C2546.9,2955.2,2544.4,2957.7,2541.3,2957.7"/>
	<path class="st27" d="M2578.1,3069.8c-2.5,0-4.8-1.7-5.5-4.2l-14.6-54.1l-57.7,15.2c-1.6,0.4-3.4,0.1-4.7-0.9
		c-1.4-1-2.2-2.5-2.4-4.2l-7.7-98.3c-0.2-3.1,2.1-5.9,5.2-6.1c3.1-0.2,5.8,2.1,6.1,5.2l7.2,91.6l56.5-14.9c3-0.8,6.1,1,6.9,4
		l16.1,59.5c0.8,3-1,6.1-4,6.9C2579.1,3069.7,2578.6,3069.8,2578.1,3069.8"/>
</g>
<text transform="matrix(1 0 0 1 881.606 2085.123)"><tspan x="0" y="0" class="st17 st28 st29">BIBLI</tspan><tspan x="218.3" y="0" class="st17 st28 st29">O</tspan><tspan x="294" y="0" class="st17 st28 st29">TEK</tspan></text>
<text transform="matrix(-6.123234e-17 1 -1 -6.123234e-17 342.9033 1823.0028)"><tspan x="0" y="0" class="st17 st28 st29">S</tspan><tspan x="53.4" y="0" class="st17 st28 st29 st30">Y</tspan><tspan x="110.2" y="0" class="st17 st28 st29">SE</tspan><tspan x="209.4" y="0" class="st17 st28 st29 st31">S</tspan><tspan x="261.5" y="0" class="st17 st28 st29">ALEN</tspan></text>
<text transform="matrix(1 0 0 1 967.5938 2917.2666)"><tspan x="0" y="0" class="st17 st28 st29">B</tspan><tspan x="57.4" y="0" class="st17 st28 st29">O</tspan><tspan x="133.8" y="0" class="st17 st28 st29 st32">K</tspan><tspan x="195" y="0" class="st17 st28 st29 st33">C</tspan><tspan x="251.7" y="0" class="st17 st28 st29">AFEEN</tspan></text>
<text transform="matrix(1 0 0 1 1796.9712 1996.6309)"><tspan x="0" y="0" class="st17 st28 st29">LILLE</tspan><tspan x="207" y="0" class="st17 st28 st29 st31">S</tspan><tspan x="259.3" y="0" class="st17 st28 st29">ALEN</tspan></text>
<text transform="matrix(1 0 0 1 1958.4868 1723.5195)" class="st17 st28 st34">Scene</text>
<text transform="matrix(1 0 0 1 880.6167 1120.7959)"><tspan x="0" y="0" class="st17 st28 st29">TE</tspan><tspan x="89.9" y="0" class="st17 st28 st29 st35">A</tspan><tspan x="153.3" y="0" class="st17 st28 st29">TER</tspan><tspan x="301.9" y="0" class="st17 st28 st29 st31">S</tspan><tspan x="354" y="0" class="st17 st28 st29">AL</tspan></text>
<text transform="matrix(-6.123234e-17 1 -1 -6.123234e-17 3236.459 2278.0029)" class="st17 st28 st34">Heis</text>
<text transform="matrix(1 0 0 1 2452.6299 319.1645)"><tspan x="0" y="0" class="st17 st28 st36">2. </tspan><tspan x="215.8" y="0" class="st17 st28 st36 st33">e</tspan><tspan x="324.7" y="0" class="st17 st28 st36">tg</tspan></text>
<rect x="4084.1" y="123.3" class="st0" width="982.3" height="373.3"/>
<polygon class="st0" points="6292.1,1753.7 6292.1,1595.7 6547.9,1595.7 6547.9,3121.3 6197,3121.3 6197,1753.7 "/>
<rect x="6527.3" y="2093.4" class="st1" width="304.2" height="530.3"/>
<polygon class="st1" points="5065.7,115.4 5065.7,475.6 4098.6,475.6 4098.3,115.4 3529.9,115.4 3529.9,3129.8 6209.5,3129.8 
	6209.5,1788.4 6306.7,1788.4 6306.7,1623.3 6543.6,1623.3 6543.6,115.4 "/>
<polygon class="st1" points="6543.6,123.3 6543.6,1351.1 6543.6,1351.1 "/>
<polygon class="st26" points="5332,123.3 5332.3,700.3 5296.1,786.9 5233.7,851.2 5833.5,1450.5 5833.5,1450.5 5932.4,1351.1 
	6543.6,1351.1 6543.6,737.2 6543.6,123.3 "/>
<g>
	<defs>
		<rect id="SVGID_29_" x="3525.8" y="109.3" width="3305.7" height="3024.7"/>
	</defs>
	<clipPath id="SVGID_30_">
		<use xlink:href="#SVGID_29_"  style="overflow:visible;"/>
	</clipPath>
	<path class="st37" d="M4166.7,2430.2c-5.8-15.7-8.9-32.6-8.9-50.2c0-80.2,65-145.3,145.3-145.3c80.2,0,145.3,65,145.3,145.3
		c0,80.2-65,145.3-145.3,145.3c-8.1,0-16.1-0.7-23.9-1.9"/>
	<path class="st38" d="M4166.7,2430.2c-5.8-15.7-8.9-32.6-8.9-50.2c0-80.2,65-145.3,145.3-145.3c80.2,0,145.3,65,145.3,145.3
		c0,80.2-65,145.3-145.3,145.3c-8.1,0-16.1-0.7-23.9-1.9"/>
	<line class="st39" x1="4288.2" y1="2527.4" x2="4288.2" y2="2394.5"/>
	<line class="st39" x1="4332" y1="2525.3" x2="4293.1" y2="2398.2"/>
	<line class="st39" x1="4373.2" y1="2510.5" x2="4298.8" y2="2400.3"/>
	<line class="st39" x1="4408.3" y1="2484.3" x2="4304.9" y2="2400.6"/>
	<line class="st39" x1="4434.2" y1="2448.9" x2="4310.9" y2="2399.1"/>
	<line class="st39" x1="4448.6" y1="2407.6" x2="4316.1" y2="2396"/>
	<line class="st39" x1="4450.3" y1="2363.8" x2="4320.2" y2="2391.5"/>
	<line class="st39" x1="4439.1" y1="2321.5" x2="4322.8" y2="2385.9"/>
	<line class="st39" x1="4416" y1="2284.2" x2="4323.7" y2="2379.9"/>
	<line class="st39" x1="4383.1" y1="2255.4" x2="4322.7" y2="2373.9"/>
	<line class="st39" x1="4343.2" y1="2237.4" x2="4320.1" y2="2368.4"/>
	<line class="st39" x1="4299.7" y1="2231.9" x2="4315.9" y2="2363.9"/>
	<line class="st39" x1="4256.5" y1="2239.3" x2="4310.6" y2="2360.8"/>
	<line class="st39" x1="4217.4" y1="2259.1" x2="4304.7" y2="2359.4"/>
	<line class="st39" x1="4185.8" y1="2289.4" x2="4298.6" y2="2359.8"/>
	<line class="st39" x1="4164.4" y1="2327.6" x2="4292.9" y2="2362"/>
	<line class="st39" x1="4155.2" y1="2370.4" x2="4288" y2="2365.8"/>
	<line class="st39" x1="4158.8" y1="2414" x2="4284.5" y2="2370.8"/>
	<path class="st39" d="M4281.9,2380c0-11.7,9.5-21.1,21.1-21.1c11.7,0,21.1,9.5,21.1,21.1c0,11.7-9.5,21.1-21.1,21.1
		C4291.3,2401.2,4281.9,2391.7,4281.9,2380z"/>
	<path class="st38" d="M4220.6,2365.6c6.8-39.3,41.1-69.3,82.4-69.3c46.2,0,83.7,37.5,83.7,83.7c0,46.2-37.5,83.7-83.7,83.7
		c-4.8,0-9.5-0.4-14-1.2"/>
	<polygon class="st40" points="4220.3,2392.9 4237.1,2355 4221.2,2363.6 4205.8,2354.1 	"/>
	<polyline class="st37" points="6418.4,2116.7 6418.4,2302.7 6207.1,2388 6207.1,2116.7 	"/>
	<polyline class="st38" points="6418.4,2116.7 6418.4,2302.7 6207.1,2388 6207.1,2116.7 	"/>
	<polyline class="st37" points="6207.1,2621.9 6207.1,2409.1 6418.4,2323.8 6418.4,2621.9 	"/>
	<polyline class="st38" points="6207.1,2621.9 6207.1,2409.1 6418.4,2323.8 6418.4,2621.9 	"/>
	<line class="st38" x1="6312.7" y1="2152.9" x2="6312.7" y2="2275.3"/>
	<path class="st40" d="M6312.7,2341.7c-11.6-31.3-31.4-70.1-52.4-94.1l52.4,18.9l52.4-18.9
		C6344.1,2271.7,6324.3,2310.5,6312.7,2341.7"/>
	<line class="st38" x1="6312.7" y1="2366.8" x2="6312.7" y2="2537.6"/>
	<path class="st40" d="M6312.7,2604.1c-11.6-31.3-31.4-70.1-52.4-94.1l52.4,18.9l52.4-18.9C6344.1,2534,6324.3,2572.8,6312.7,2604.1
		"/>
	<line class="st39" x1="6418.4" y1="2494.4" x2="6207.1" y2="2494.4"/>
	<line class="st39" x1="6418.4" y1="2451.9" x2="6207.1" y2="2451.9"/>
	<line class="st39" x1="6418.4" y1="2579.5" x2="6207.1" y2="2579.5"/>
	<line class="st39" x1="6418.4" y1="2537" x2="6207.1" y2="2537"/>
	<line class="st39" x1="6418.4" y1="2409.3" x2="6207.1" y2="2409.3"/>
	<line class="st39" x1="6259.9" y1="2366.8" x2="6207.1" y2="2366.8"/>
	<line class="st39" x1="6418.4" y1="2366.8" x2="6312.7" y2="2366.8"/>
	<line class="st39" x1="6364.9" y1="2324.3" x2="6207.1" y2="2324.3"/>
	<line class="st39" x1="6418.4" y1="2281.8" x2="6207.1" y2="2281.8"/>
	<line class="st39" x1="6418.4" y1="2239.3" x2="6207.1" y2="2239.3"/>
	<line class="st39" x1="6418.4" y1="2196" x2="6207.1" y2="2196"/>
	<line class="st39" x1="6418.4" y1="2153.5" x2="6207.1" y2="2153.5"/>
	<polyline class="st37" points="4614,289.8 4503.9,289.8 4417.3,128.3 4614,128.3 	"/>
	<polyline class="st37" points="4614,475.6 4098.6,475.6 4098.6,128.3 4388.6,128.3 4475.2,289.8 4308.4,289.8 4308.6,314.1 
		4614,314.1 	"/>
</g>
<g>
	<defs>
		<rect id="SVGID_31_" x="4305.8" y="314.1" width="5.5" height="161.5"/>
	</defs>
	<clipPath id="SVGID_32_">
		<use xlink:href="#SVGID_31_"  style="overflow:visible;"/>
	</clipPath>
	<line class="st41" x1="4308.6" y1="475.6" x2="4308.6" y2="314.1"/>
</g>
<g>
	<defs>
		<rect id="SVGID_33_" x="4349.6" y="314.1" width="5.5" height="161.5"/>
	</defs>
	<clipPath id="SVGID_34_">
		<use xlink:href="#SVGID_33_"  style="overflow:visible;"/>
	</clipPath>
	<line class="st42" x1="4352.3" y1="475.6" x2="4352.3" y2="314.1"/>
</g>
<g>
	<defs>
		<rect id="SVGID_35_" x="4393.3" y="314.1" width="5.5" height="161.5"/>
	</defs>
	<clipPath id="SVGID_36_">
		<use xlink:href="#SVGID_35_"  style="overflow:visible;"/>
	</clipPath>
	<line class="st43" x1="4396.1" y1="475.6" x2="4396.1" y2="314.1"/>
</g>
<g>
	<defs>
		<rect id="SVGID_37_" x="4437.1" y="314.1" width="5.5" height="161.5"/>
	</defs>
	<clipPath id="SVGID_38_">
		<use xlink:href="#SVGID_37_"  style="overflow:visible;"/>
	</clipPath>
	<line class="st44" x1="4439.8" y1="475.6" x2="4439.8" y2="314.1"/>
</g>
<g>
	<defs>
		<rect id="SVGID_39_" x="4480.9" y="314.1" width="5.5" height="161.5"/>
	</defs>
	<clipPath id="SVGID_40_">
		<use xlink:href="#SVGID_39_"  style="overflow:visible;"/>
	</clipPath>
	<line class="st45" x1="4483.6" y1="475.6" x2="4483.6" y2="314.1"/>
</g>
<g>
	<defs>
		<rect id="SVGID_41_" x="4524.6" y="314.1" width="5.5" height="161.5"/>
	</defs>
	<clipPath id="SVGID_42_">
		<use xlink:href="#SVGID_41_"  style="overflow:visible;"/>
	</clipPath>
	<line class="st46" x1="4527.4" y1="475.6" x2="4527.4" y2="314.1"/>
</g>
<g>
	<defs>
		<rect id="SVGID_43_" x="4568.4" y="314.1" width="5.5" height="161.5"/>
	</defs>
	<clipPath id="SVGID_44_">
		<use xlink:href="#SVGID_43_"  style="overflow:visible;"/>
	</clipPath>
	<line class="st47" x1="4571.1" y1="475.6" x2="4571.1" y2="314.1"/>
</g>
<g>
	<defs>
		<rect id="SVGID_45_" x="3525.8" y="109.3" width="3305.7" height="3024.7"/>
	</defs>
	<clipPath id="SVGID_46_">
		<use xlink:href="#SVGID_45_"  style="overflow:visible;"/>
	</clipPath>
	<polyline class="st48" points="4571.1,400.3 4327.2,400.3 4225.3,400.3 4225.3,203.5 4350.9,203.5 	"/>
	<path class="st49" d="M4417.3,203.5c-31.3,11.6-70.1,31.4-94.1,52.4l19-52.4l-19-52.4C4347.3,172.1,4386,191.9,4417.3,203.5"/>
	<line class="st48" x1="4460.6" y1="203.5" x2="4528" y2="203.5"/>
	<path class="st49" d="M4594.5,203.5c-31.3,11.6-70.1,31.4-94.1,52.4l18.9-52.4l-18.9-52.4C4524.4,172.1,4563.2,191.9,4594.5,203.5"
		/>
	<line class="st50" x1="4567.4" y1="128.3" x2="4567.4" y2="289.8"/>
	<line class="st50" x1="4524.3" y1="128.3" x2="4524.3" y2="289.8"/>
	<line class="st50" x1="4481.1" y1="128.3" x2="4481.1" y2="239.2"/>
	<line class="st50" x1="4438" y1="214.1" x2="4438" y2="289.8"/>
	<line class="st50" x1="4438" y1="128.3" x2="4438" y2="164.2"/>
	<line class="st50" x1="4394.9" y1="128.3" x2="4394.9" y2="289.8"/>
	<line class="st50" x1="4351.7" y1="128.3" x2="4351.7" y2="289.8"/>
	<line class="st50" x1="4308.6" y1="128.3" x2="4308.6" y2="289.8"/>
	<line class="st51" x1="4417.3" y1="314.1" x2="4503.9" y2="475.6"/>
	<line class="st48" x1="4417.3" y1="314.1" x2="4503.9" y2="475.6"/>
	<polyline class="st48" points="4384.3,120.7 4475.2,289.8 4308.4,289.8 4308.6,314.1 4614,314.1 	"/>
	<polyline class="st48" points="4614,289.8 4503.9,289.8 4412.9,120.7 	"/>
	<path class="st50" d="M4994.1,663.1c-109.1,126.7-175,291.5-175,471.8c0,399.5,323.9,723.3,723.3,723.3
		c189.4,0,361.8-72.8,490.7-192"/>
	<path class="st50" d="M5081.5,679.1c-115.8,117.1-187.4,278.1-187.4,455.8c0,358,290.2,648.2,648.2,648.2
		c181.1,0,344.7-74.3,462.4-193.9"/>
	<path class="st50" d="M5983.6,1502.7c-105.4,126.2-263.9,206.6-441.2,206.6c-317.2,0-574.4-257.2-574.4-574.4
		c0-173.7,77.1-329.3,198.9-434.6"/>
	<path class="st50" d="M6033.1,1763.7c-135.3,105.8-305.6,168.8-490.7,168.8c-440.5,0-797.6-357.1-797.6-797.6
		c0-179.6,59.3-345.2,159.5-478.5"/>
	<path class="st50" d="M5183,1929.9c-302.4-137-512.8-441.4-512.8-795c0-176.7,52.6-341.1,143-478.5"/>
	<path class="st50" d="M5183,1929.9c109.6,49.6,231.3,77.3,359.4,77.3c182,0,350.9-55.7,490.7-151.1"/>
	<path class="st50" d="M6033.1,1944.6c-143.1,86.9-311.1,137-490.7,137c-522.8,0-946.6-423.8-946.6-946.6
		c0-174.6,47.3-338.1,129.8-478.5"/>
	<path class="st50" d="M6033.1,2030.6c-145.6,80-312.8,125.5-490.7,125.5c-564,0-1021.2-457.2-1021.2-1021.2
		c0-172.9,43.1-335.8,118.9-478.5"/>
	<path class="st52" d="M6033.1,2111.8c-147.6,74.3-314.2,116.1-490.7,116.1c-603.7,0-1093.1-489.4-1093.1-1093.1
		c0-171.6,39.6-334,110.1-478.5"/>
	<path class="st52" d="M6033.1,2190.3c-149.1,69.4-315.4,108.3-490.7,108.3c-642.7,0-1163.7-521-1163.7-1163.7
		c0-170.6,36.7-332.6,102.6-478.5"/>
	<path class="st52" d="M6033.1,2270c-150.4,65.1-316.3,101.3-490.7,101.3c-682.9,0-1236.4-553.6-1236.4-1236.4
		c0-169.7,34.2-331.4,96-478.5"/>
	<path class="st52" d="M6033.1,2347.1c-151.5,61.4-317.1,95.3-490.7,95.3c-722.1,0-1307.5-585.4-1307.5-1307.5
		c0-168.9,32-330.3,90.4-478.5"/>
	<path class="st52" d="M6033.1,2424.3c-152.5,58.1-317.8,89.9-490.7,89.9c-761.8,0-1379.3-617.6-1379.3-1379.3
		c0-168.3,30.2-329.5,85.3-478.5"/>
	<path class="st52" d="M6033.1,2499.7c-153.3,55.1-318.5,85.2-490.7,85.2c-800.8,0-1450.1-649.2-1450.1-1450.1
		c0-167.7,28.6-328.7,80.9-478.5"/>
	<path class="st52" d="M4098.4,656.3c-49.8,150.5-76.9,311.3-76.9,478.5c0,840,680.9,1520.9,1520.9,1520.9
		c171.7,0,336.7-28.5,490.7-80.9"/>
	<rect x="5079.4" y="474.8" class="st50" width="43.1" height="204.2"/>
	<rect x="5165.9" y="474.8" class="st50" width="43.1" height="225.1"/>
	<rect x="5983.1" y="1464.9" class="st50" width="218.5" height="37.9"/>
	<rect x="6004.9" y="1551.3" class="st50" width="196.7" height="37.9"/>
	<rect x="6033.1" y="1628.4" class="st50" width="168.5" height="37.9"/>
	<rect x="6033.1" y="1726" class="st50" width="168.5" height="37.9"/>
	<rect x="6033.1" y="1818.1" class="st50" width="168.5" height="37.9"/>
	<rect x="6033.1" y="1906.8" class="st50" width="168.5" height="37.9"/>
	<rect x="6033.1" y="1992.5" class="st50" width="168.5" height="37.9"/>
	<rect x="6033.1" y="2074.4" class="st52" width="168.5" height="37.9"/>
	<rect x="6033.1" y="2152.2" class="st52" width="168.5" height="37.9"/>
	<rect x="6033.1" y="2232.2" class="st52" width="168.5" height="37.9"/>
	<rect x="6033.1" y="2309.1" class="st52" width="168.5" height="37.9"/>
	<rect x="6033.1" y="2386.3" class="st52" width="168.5" height="37.9"/>
	<rect x="6033.1" y="2461.9" class="st52" width="168.5" height="37.9"/>
	<rect x="6033.1" y="2536.9" class="st52" width="168.5" height="37.9"/>
	<rect x="4559.1" y="474.8" class="st52" width="37.9" height="180.9"/>
	<rect x="4481.4" y="474.8" class="st52" width="37.9" height="180.9"/>
	<rect x="4402" y="474.8" class="st52" width="37.9" height="180.9"/>
	<rect x="4325.4" y="474.8" class="st52" width="37.9" height="180.9"/>
	<rect x="4248.3" y="474.8" class="st52" width="37.9" height="180.9"/>
	<rect x="4173.1" y="474.8" class="st52" width="37.9" height="180.9"/>
	<rect x="4098.7" y="474.8" class="st52" width="37.9" height="180.9"/>
	<rect x="4639.4" y="474.8" class="st50" width="37.9" height="180.9"/>
	<rect x="4724.8" y="474.8" class="st50" width="37.9" height="180.9"/>
	<rect x="4812.3" y="474.8" class="st50" width="37.9" height="180.9"/>
	<rect x="4903.7" y="474.8" class="st50" width="37.9" height="180.9"/>
	<rect x="4992.7" y="474.8" class="st50" width="43.1" height="188.3"/>
	<line class="st50" x1="6201.6" y1="1464.9" x2="6201.6" y2="2574.8"/>
	<line class="st50" x1="5209" y1="474.8" x2="5054" y2="474.8"/>
	<polyline class="st53" points="4098.6,128.3 4098.6,475.6 5065.7,475.6 5065.7,314.1 	"/>
	<polyline class="st53" points="6209.5,3129.8 6209.5,1788.4 6306.7,1788.4 6306.7,1623.3 	"/>
	<polyline class="st52" points="4027.4,1173.4 4062.9,1173.4 4062.9,1094.7 4027.4,1094.7 	"/>
	<polyline class="st52" points="4095.9,1173.4 4131.4,1173.4 4131.4,1094.7 4095.9,1094.7 	"/>
	<polyline class="st52" points="4167.3,1173.4 4202.9,1173.4 4202.9,1094.7 4167.3,1094.7 	"/>
	<polyline class="st52" points="4234.9,1173.4 4270.5,1173.4 4270.5,1094.7 4234.9,1094.7 	"/>
	<polyline class="st52" points="4306.5,1173.4 4342,1173.4 4342,1094.7 4306.5,1094.7 	"/>
	<polyline class="st52" points="4379.4,1173.4 4414.9,1173.4 4414.9,1094.7 4379.4,1094.7 	"/>
	<polyline class="st52" points="4449.3,1173.4 4484.9,1173.4 4484.9,1094.7 4449.3,1094.7 	"/>
	<polyline class="st50" points="4521.2,1173.4 4556.7,1173.4 4556.7,1094.7 4521.2,1094.7 	"/>
	<polyline class="st50" points="4595.8,1173.4 4631.3,1173.4 4631.3,1094.7 4595.8,1094.7 	"/>
	<polyline class="st50" points="4670.1,1173.4 4705.7,1173.4 4705.7,1094.7 4670.1,1094.7 	"/>
	<polyline class="st50" points="4744.8,1173.4 4780.3,1173.4 4780.3,1094.7 4744.8,1094.7 	"/>
	<polyline class="st50" points="4819.6,1173.4 4855.1,1173.4 4855.1,1094.7 4819.6,1094.7 	"/>
	<polyline class="st50" points="4894.2,1173.4 4929.7,1173.4 4929.7,1094.7 4894.2,1094.7 	"/>
	<polyline class="st50" points="4968.5,1173.4 5004.1,1173.4 5004.1,1094.7 4968.5,1094.7 	"/>
	<polyline class="st52" points="4253.6,1929.9 4284.4,1912.1 4244.9,1844 4214.2,1861.8 	"/>
	<polyline class="st52" points="4312.9,1895.5 4343.7,1877.7 4304.2,1809.6 4273.5,1827.4 	"/>
	<polyline class="st52" points="4374.7,1859.8 4405.5,1842 4366.1,1773.9 4335.3,1791.7 	"/>
	<polyline class="st52" points="4433.2,1825.9 4464,1808.1 4424.6,1740 4393.8,1757.8 	"/>
	<polyline class="st52" points="4495.2,1790.1 4525.9,1772.2 4486.5,1704.1 4455.7,1721.9 	"/>
	<polyline class="st52" points="4558.3,1753.5 4589,1735.7 4549.6,1667.6 4518.8,1685.4 	"/>
	<polyline class="st52" points="4618.8,1718.5 4649.6,1700.7 4610.1,1632.6 4579.4,1650.4 	"/>
	<polyline class="st50" points="4681,1682.5 4711.8,1664.7 4672.3,1596.6 4641.6,1614.4 	"/>
	<polyline class="st50" points="4745.5,1645.2 4776.3,1627.4 4736.9,1559.3 4706.1,1577.1 	"/>
	<polyline class="st50" points="4809.9,1607.9 4840.7,1590.1 4801.3,1522 4770.5,1539.8 	"/>
	<polyline class="st50" points="4874.5,1570.5 4905.3,1552.7 4865.9,1484.6 4835.1,1502.4 	"/>
	<polyline class="st50" points="4939.3,1533.1 4970,1515.2 4930.6,1447.1 4899.8,1464.9 	"/>
	<polyline class="st50" points="5003.8,1495.7 5034.6,1477.9 4995.1,1409.8 4964.4,1427.6 	"/>
	<polyline class="st50" points="5068.2,1458.4 5098.9,1440.6 5059.5,1372.5 5028.8,1390.3 	"/>
	<polyline class="st52" points="4818.9,2472.1 4836.9,2441.5 4769,2401.6 4751,2432.3 	"/>
	<polyline class="st52" points="4854,2410.2 4872,2379.6 4804.1,2339.7 4786.1,2370.4 	"/>
	<polyline class="st52" points="4891.3,2350.1 4909.3,2319.5 4841.4,2279.6 4823.5,2310.3 	"/>
	<polyline class="st52" points="4925.5,2288.6 4943.5,2257.9 4875.6,2218.1 4857.7,2248.8 	"/>
	<polyline class="st52" points="4961.8,2226.9 4979.7,2196.2 4911.9,2156.4 4893.9,2187.1 	"/>
	<polyline class="st52" points="4998.6,2164 5016.6,2133.3 4948.8,2093.5 4930.8,2124.2 	"/>
	<polyline class="st52" points="5034,2103.7 5052,2073 4984.1,2033.2 4966.2,2063.9 	"/>
	<polyline class="st50" points="5070.4,2041.7 5088.4,2011 5020.5,1971.2 5002.5,2001.9 	"/>
	<polyline class="st50" points="5108.1,1977.4 5126.1,1946.7 5058.2,1906.9 5040.3,1937.6 	"/>
	<polyline class="st50" points="5145.8,1913.2 5163.8,1882.6 5095.9,1842.7 5077.9,1873.4 	"/>
	<polyline class="st50" points="5183.5,1848.8 5201.5,1818.2 5133.7,1778.4 5115.7,1809 	"/>
	<polyline class="st50" points="5221.4,1784.3 5239.4,1753.7 5171.5,1713.8 5153.5,1744.5 	"/>
	<polyline class="st50" points="5259.1,1720 5277.1,1689.3 5209.2,1649.5 5191.3,1680.2 	"/>
	<polyline class="st50" points="5296.8,1655.9 5314.8,1625.2 5246.9,1585.4 5228.9,1616 	"/>
	<polyline class="st52" points="5592.5,2652.9 5592.4,2617.3 5513.7,2617.6 5513.8,2653.1 	"/>
	<polyline class="st52" points="5591.3,2581.8 5591.2,2546.2 5512.5,2546.4 5512.6,2582 	"/>
	<polyline class="st52" points="5592.9,2511 5592.8,2475.5 5514.1,2475.7 5514.2,2511.2 	"/>
	<polyline class="st52" points="5591.1,2440.6 5591,2405.1 5512.3,2405.3 5512.4,2440.9 	"/>
	<polyline class="st52" points="5590.9,2369.1 5590.8,2333.5 5512.1,2333.8 5512.2,2369.3 	"/>
	<polyline class="st52" points="5590.7,2296.2 5590.6,2260.6 5511.9,2260.9 5512,2296.4 	"/>
	<polyline class="st52" points="5590.5,2226.3 5590.4,2190.7 5511.7,2190.9 5511.8,2226.5 	"/>
	<polyline class="st50" points="5590.3,2154.4 5590.2,2118.8 5511.5,2119 5511.6,2154.6 	"/>
	<polyline class="st50" points="5590.1,2079.8 5590,2044.3 5511.3,2044.5 5511.4,2080 	"/>
	<polyline class="st50" points="5589.9,2005.4 5589.8,1969.9 5511.1,1970.1 5511.2,2005.6 	"/>
	<polyline class="st50" points="5589.6,1930.8 5589.6,1895.2 5510.9,1895.4 5511,1931 	"/>
	<polyline class="st50" points="5589.4,1856 5589.3,1820.4 5510.7,1820.7 5510.8,1856.2 	"/>
	<polyline class="st50" points="5589.2,1781.4 5589.1,1745.9 5510.4,1746.1 5510.5,1781.6 	"/>
	<polyline class="st50" points="5589,1707 5588.9,1671.5 5510.2,1671.7 5510.3,1707.3 	"/>
</g>
<path class="st17" d="M3547.8,131.3h2980.6v1962v22h22h259.1v486.3h-259.1h-22v22v488.2H3547.8V131.3z M3525.8,109.3V3134h3024.7
	v-510.2h281.1v-530.3h-281.1V109.3H3525.8z"/>
<text transform="matrix(-6.123234e-17 1 -1 -6.123234e-17 6641.9834 2278.002)" class="st17 st28 st34">Heis</text>
<text transform="matrix(0.7088 0.7054 -0.7054 0.7088 5144.3096 1104.4901)"><tspan x="0" y="0" class="st17 st28 st54">S</tspan><tspan x="53.8" y="0" class="st17 st28 st54">T</tspan><tspan x="97.3" y="0" class="st17 st28 st54">OR</tspan><tspan x="232.4" y="0" class="st17 st28 st54 st31">S</tspan><tspan x="284.6" y="0" class="st17 st28 st54">ALEN</tspan></text>
<text transform="matrix(0.7144 0.6997 -0.6997 0.7144 5544.668 975.0931)" class="st17 st28 st55">Scene</text>
<text transform="matrix(1 0 0 1 5896.9092 333.7138)"><tspan x="0" y="0" class="st17 st28 st36">3. </tspan><tspan x="215.8" y="0" class="st17 st28 st36 st33">e</tspan><tspan x="324.7" y="0" class="st17 st28 st36">tg</tspan></text>
<text transform="matrix(1 0 0 1 3600.6104 3030.5586)"><tspan x="0" y="0" class="st17 st28 st36">5. </tspan><tspan x="215.8" y="0" class="st17 st28 st36 st33">e</tspan><tspan x="324.7" y="0" class="st17 st28 st36">tg</tspan></text>
</svg>
