
<svg width="140px" height="173px" viewBox="0 0 140 173" version="1.1" xmlns="http://www.w3.org/2000/svg" xmlns:xlink="http://www.w3.org/1999/xlink">
    <g id="grisen" stroke="none" stroke-width="1" fill="none" fill-rule="evenodd">
        <path d="M36.9264356,133.719934 C38.0243653,133.062603 39.2587558,132.308947 40.226468,132.960927 C41.187045,133.612906 43.8020977,134.476266 43.8020977,134.476266 C43.8020977,134.476266 42.8861157,134.296994 47.8013801,135.344085 C52.7148608,136.39296 52.9663768,132.831601 52.9663768,132.831601 L53.0288098,132.778087 C52.8950247,131.953971 52.3688033,130.808771 50.9738707,129.291648 C46.4403398,124.355869 47.2742669,104.776866 57.1324447,103.134877 C57.5676922,105.607226 58.269618,108.051034 59.1418968,110.411003 C59.3657639,111.019279 59.5833876,111.629339 59.8518497,112.217102 C60.1131766,112.820026 60.343287,113.383708 60.6313709,114.012498 C60.9016168,114.569935 61.1763222,115.130941 61.4510276,115.685703 C61.7159221,116.246709 62.0459253,116.821985 62.3420363,117.384774 C63.448885,119.390658 64.6574104,121.273461 65.9845586,123.016235 C66.0443159,123.20175 66.1049651,123.388157 66.1754253,123.571889 L66.690052,124.968605 C66.869324,125.431502 67.0691097,125.87656 67.2581927,126.330537 C67.4517351,126.781839 67.6363585,127.244736 67.8423876,127.675524 C68.0867684,128.174096 68.3106354,128.596857 68.5585838,129.040132 C69.5298636,130.777554 70.657226,132.350867 71.8532648,133.785935 C72.0013203,133.960747 72.1502677,134.143587 72.2974313,134.315724 C72.4508382,134.490536 72.6069208,134.659106 72.7585439,134.828567 C73.0680335,135.169273 73.3659283,135.509979 73.682553,135.823036 C74.0036372,136.138769 74.320262,136.446474 74.6333191,136.751504 C74.652049,136.771126 74.6689951,136.789856 74.6895088,136.806802 C72.2225117,136.757748 68.565719,136.127174 63.9412142,133.730637 C60.1131766,131.744374 56.0630558,140.842653 56.0630558,140.842653 C55.0311268,142.674617 52.3242083,144.49231 48.9831485,142.440939 C45.6411968,140.388675 41.599995,140.36281 41.599995,140.36281 L40.6786616,141.18871 C38.6174792,142.231342 38.8029946,140.635732 38.8029946,140.635732 C39.5254341,140.255782 37.963716,138.966094 37.6720645,139.651073 C37.3839806,140.336945 37.1618974,140.115754 37.1618974,140.115754 C35.0516604,139.957887 33.4524826,138.027814 32.2145245,137.43916 C30.9747826,136.844262 30.7509155,136.499989 30.7509155,136.499989 C30.5769949,135.305734 34.8768479,134.412049 34.8768479,134.412049 C34.8768479,134.412049 35.8231545,134.381724 36.9264356,133.719934 Z M36.913949,60.9167604 C34.6601161,60.2175103 33.0511273,55.7401691 32.8495578,54.753727 C32.6123122,53.6085265 33.4738882,54.043774 33.4738882,54.043774 C33.0145594,52.4026769 33.663863,52.5195158 33.663863,52.5195158 C33.663863,52.5195158 35.0498766,54.0883691 36.8211913,54.0402064 C36.8479483,54.0402064 36.8800568,54.0402064 36.913949,54.0402064 L36.913949,60.9167604 Z M133.264192,121.967359 C133.284705,121.877277 133.306111,121.779168 133.321273,121.692654 L133.449707,120.787375 L133.464869,120.696401 L133.472896,120.608103 L133.478248,120.563508 L133.503221,120.169288 C133.5166,119.910637 133.538897,119.656445 133.547816,119.396902 C133.552276,119.083845 133.547816,118.768112 133.531762,118.454163 C134.616313,117.897617 139.298791,114.836614 135.054236,104.67519 C135.054236,104.67519 145.496609,115.201401 133.264192,121.967359 Z M88.5487529,2.71935153 C88.5710504,2.73540574 88.5924561,2.74878425 88.6129698,2.76573036 C88.7601334,2.86919084 88.8939185,3.00654354 89.0428659,3.12427442 C89.1909214,3.25360002 89.3300579,3.39987172 89.4754377,3.54346772 C89.6083309,3.70044224 89.7644135,3.83511924 89.8866039,4.00458036 C90.0194971,4.16512247 90.1577417,4.31942128 90.2772564,4.49245001 C90.3958792,4.66101923 90.5385833,4.81085854 90.6420437,4.98299536 C90.7490718,5.15334839 90.873046,5.3049715 90.972047,5.46016221 C91.0665884,5.62070432 91.1727246,5.76786793 91.2636985,5.90343683 C91.4509976,6.17457462 91.5874584,6.4198473 91.7096488,6.57949751 C91.8229202,6.74539103 91.8951641,6.8372568 91.8951641,6.8372568 C91.8951641,6.8372568 91.8942722,6.72041782 91.8710828,6.52063207 C91.8407582,6.32352203 91.8202445,6.02919482 91.7194597,5.70186728 C91.6311616,5.36651264 91.4955927,4.98299536 91.3002664,4.59412668 C91.2075087,4.39523284 91.088886,4.1990147 90.963128,4.00636416 C90.8525323,3.80568651 90.693774,3.62730639 90.5466104,3.44268295 C90.4030144,3.25449192 90.2228504,3.0966255 90.0533893,2.93429959 C89.8821444,2.77821697 89.6894939,2.64621568 89.5066542,2.51689008 C89.4228156,2.46426795 89.3389769,2.41699721 89.2533544,2.36972648 C90.5599889,1.82655899 93.7565608,1.20044474 99.0705048,4.41931416 C99.0705048,4.41931416 101.52234,5.38881016 102.795082,8.56308455 C102.795082,8.56308455 102.868218,8.59251727 102.9913,8.64692321 C104.517342,8.6433556 106.353765,8.70311295 108.435462,9.01349437 C109.515553,9.17760409 110.658078,9.41128206 111.836279,9.77339372 C113.013588,10.1381811 114.225681,10.6394292 115.39407,11.3716797 C116.550866,12.1066058 117.651471,13.1162373 118.423857,14.4228718 C119.209621,15.7241548 119.614544,17.2894404 119.672518,18.8814831 C119.724248,20.4779852 119.45311,22.0905416 119.016971,23.6727733 C118.784185,24.4603216 118.529993,25.2505456 118.222287,26.0220396 C117.924393,26.7792633 117.624714,27.5471897 117.321468,28.3195757 C116.731921,29.8589962 116.185186,31.4376603 115.737452,33.0573519 C115.29061,34.6752597 114.934742,36.3395463 114.838416,37.9984815 C114.801848,38.6299471 114.814335,39.2640885 114.87766,39.8794999 C115.874805,39.9098246 116.675732,40.7241298 116.675732,41.7275181 C116.675732,42.2251986 116.472378,42.6782841 116.151294,43.0100712 C116.27616,43.0840989 116.401918,43.1608024 116.536595,43.2339382 C117.338414,43.6754291 118.365883,44.1088928 119.606517,44.3809225 C120.226388,44.5271942 120.895314,44.6146004 121.616861,44.7358989 C122.347328,44.8643326 123.095632,45.0462804 123.869802,45.2933368 C125.407439,45.7954769 127.026239,46.5580519 128.508577,47.7184147 C129.774184,48.7128839 130.953277,50.0266535 131.714068,51.6401018 C132.186776,52.3375681 132.584563,53.0805214 132.874431,53.8752048 C133.5496,55.6572223 133.707466,57.6176199 133.38549,59.4308539 C133.050136,61.2440879 132.305398,62.9092664 131.357308,64.3327399 C130.411002,65.7669161 129.286315,66.9914957 128.100087,68.0546413 C127.512324,68.5897816 126.905832,69.0794351 126.295772,69.5432234 C125.999661,69.7661986 125.708901,69.986498 125.419034,70.2067975 C125.153247,70.4208537 124.899056,70.6224232 124.644864,70.8534255 C123.6388,71.7364071 122.790602,72.7166059 122.268841,73.7708325 C121.744403,74.8205995 121.547293,75.9345834 121.693565,76.9923776 C121.830025,78.0590908 122.27776,79.044641 122.801305,79.9088927 C123.340905,80.7793877 123.967911,81.5348276 124.594917,82.1868069 C125.225491,82.8468134 125.848038,83.4185217 126.4358,83.9090671 C127.609542,84.8901578 128.623633,85.5572995 129.310396,86.0148445 C129.716211,86.2770633 130.01143,86.4581191 130.193378,86.5633634 C130.354812,86.6516616 130.452921,86.6998242 130.452921,86.6998242 L130.390488,86.8585825 C130.390488,86.8585825 130.360163,86.8523392 130.314676,86.8353931 L130.295946,86.8746367 L130.204972,86.8371769 L130.195162,86.8576906 C130.195162,86.8576906 129.954348,86.7711762 129.502155,86.6133098 C129.052637,86.4393892 128.400657,86.1744947 127.58546,85.8025722 C127.563163,85.7918693 127.535514,85.7820584 127.516784,85.7686799 C126.680181,85.4101359 125.694631,84.9534827 124.607404,84.3460984 C123.458636,83.7110651 122.203732,82.9145979 120.929206,81.8773174 C120.296848,81.3502041 119.662707,80.7660092 119.068701,80.0819214 C118.468452,79.4022931 117.911906,78.6156368 117.488253,77.7050062 C117.061925,76.7961595 116.768489,75.7455005 116.783652,74.6422194 C116.789895,73.5389383 117.099384,72.4258463 117.609552,71.4509989 C118.115259,70.4600973 118.80559,69.5958456 119.572625,68.8323786 C120.344119,68.057317 121.176262,67.383932 122.069947,66.7506825 C122.531059,66.4224631 122.928847,66.1745147 123.414041,65.8677009 C123.85018,65.6036983 124.28186,65.3245334 124.704621,65.0310981 C125.551035,64.4531465 126.361773,63.8216808 127.12524,63.1438363 C128.645038,61.7810121 129.967727,60.18451 130.736545,58.3766274 C130.937223,57.9083795 131.095089,57.428537 131.208361,56.9415592 C131.221739,56.6900433 131.225307,56.4394192 131.219955,56.1905789 C131.14236,55.659898 131.019278,55.1363523 130.833762,54.6217257 C130.321811,53.1973603 129.420992,51.8728879 128.239223,50.8204451 C127.059239,49.7590834 125.606333,48.9626161 124.041939,48.5220172 C123.307905,48.3124205 122.351787,48.1652569 121.476833,47.9297951 C120.591175,47.7014686 119.703734,47.4267632 118.833239,47.0726786 C117.963636,46.7141346 117.105628,46.2681842 116.321647,45.6732865 C115.560856,45.0953349 114.884795,44.3604088 114.388898,43.5175627 C113.579944,43.3204526 112.974344,42.5971212 112.974344,41.7275181 C112.974344,41.2806758 113.140237,40.8784287 113.397997,40.5582363 C113.276698,39.6609843 113.276698,38.7664079 113.341807,37.8985886 C113.487187,36.0746518 113.91084,34.3434726 114.405844,32.6738346 C114.911552,31.0068723 115.510909,29.4059107 116.139699,27.8540036 C116.783652,26.2815827 117.46328,24.8438389 117.911906,23.3490134 C118.362316,21.8586474 118.639697,20.3584706 118.639697,18.9028887 C118.634345,17.4499826 118.313261,16.0505904 117.651471,14.8688221 C116.997708,13.6825942 116.029996,12.7309363 114.972201,12.0120643 C113.904596,11.2931924 112.762963,10.7749981 111.636493,10.390589 C110.508239,10.0026122 109.400498,9.73950149 108.346272,9.54774286 C106.636498,9.23736143 105.080131,9.10714394 103.731578,9.04649469 C104.851805,9.73771769 106.616876,11.2307594 107.026259,13.9590834 C107.198395,15.1274733 107.209098,16.8854094 105.823085,17.8968248 C105.14524,18.3918296 104.594046,18.7949687 104.135609,19.1276477 C104.032148,18.935889 103.922444,18.738779 103.79847,18.5434527 C103.612955,18.2464498 103.429223,17.9209061 103.217843,17.6060652 C102.993084,17.2947918 102.762973,16.9745995 102.528404,16.6454882 C102.267969,16.3297553 102.003074,16.0068873 101.73372,15.6768841 C101.450096,15.3557998 101.145958,15.0445265 100.842711,14.7180909 C100.524303,14.4094933 100.196083,14.0991118 99.8553774,13.7905142 C99.5048604,13.4979708 99.1570192,13.1902651 98.7833128,12.9084245 C98.0403596,12.3411757 97.2608384,11.8006839 96.4456412,11.3199494 C94.8188145,10.3477777 93.0849596,9.57628368 91.4135378,9.02241338 C90.5822864,8.73076187 89.7554945,8.52473282 88.9768652,8.32940658 C88.1928846,8.14478314 87.4490394,8.00029524 86.7542488,7.90040237 C86.3323798,7.83350982 85.9328083,7.78713099 85.5546425,7.74877926 C85.5243179,7.71845464 85.5002365,7.69258952 85.46902,7.6658325 C85.4681281,7.65958919 85.4618848,7.65780539 85.4618848,7.65780539 L85.388749,7.65602159 C85.1211788,7.37328909 84.8116892,7.13425971 84.5218215,6.87382473 C84.3710903,6.74271533 84.2069806,6.62944395 84.050898,6.50546976 C83.8939235,6.38506317 83.7351652,6.25930518 83.5630283,6.15138521 C83.3944591,6.03989763 83.2312413,5.92305864 83.0528612,5.82405767 L82.5016666,5.53062236 C82.3099079,5.4494594 82.1199331,5.35670173 81.9174716,5.28267398 C81.707875,5.21310573 81.5045217,5.13729417 81.2779789,5.09180724 C81.0683822,5.04186081 80.8418395,5.01510379 80.6028101,5.00886048 C80.4877549,5.00886048 80.3691321,5.01242808 80.2451579,5.0329418 C80.1782654,5.0391851 80.0979943,5.06059072 80.0230747,5.07753683 C79.9891825,5.08467204 79.9463712,5.09894245 79.9008843,5.11588856 C79.8571812,5.13194277 79.8197213,5.14175368 79.7287475,5.19170011 L79.8179375,5.14888888 C79.2489049,5.37186404 78.6941427,5.64389374 78.161678,5.96408607 L78.1295696,5.94624806 C77.8825131,6.09430356 77.6408081,6.24949428 77.4062382,6.4180635 L74.7715637,5.94268046 C74.7715637,5.94268046 74.8625376,5.10875335 76.1415231,4.67528964 C75.4841923,3.66209051 74.2444504,1.22630985 77.7968907,0.36116623 C83.0680235,-0.920494995 88.1741547,2.46426795 88.5487529,2.71935153 Z M43.4569321,80.9622274 C44.696674,79.2221292 47.0227509,74.4852449 47.0227509,74.4852449 C48.7459029,70.1015532 51.608904,70.1042289 51.608904,70.1042289 C57.3045815,69.4790066 65.217524,64.0089799 69.768893,58.9117678 C73.4542264,54.7902949 75.8614663,55.0641084 76.644555,55.3209758 C79.2515806,46.8238383 70.5305761,42.7728256 70.5305761,42.7728256 C60.387882,39.0384376 52.300127,30.291568 52.300127,30.291568 C49.3862876,29.4576409 49.939266,26.3038802 50.2139714,25.7963888 C50.4886768,25.2871135 50.0124018,22.975307 50.0124018,22.975307 C50.0124018,22.975307 49.1561772,19.3898665 50.6135429,19.2730275 C52.075368,19.1579723 51.8318792,20.6715277 52.4588853,20.2701724 C53.0876753,19.8679252 53.6308427,20.0819814 53.6308427,20.0819814 C53.6308427,20.0819814 56.3181394,21.0389907 61.096943,17.2118451 C64.3612994,14.5994681 70.0819501,12.3242296 73.3828744,11.1424612 C67.0004334,11.6231957 67.1681107,10.2853447 67.1681107,10.2853447 L73.2455217,7.82905032 L75.531463,8.19472958 C74.8339967,8.9100339 74.2364233,9.73147439 73.7851216,10.6171317 C73.7119857,10.7660791 73.646877,10.9203779 73.5826601,11.0711092 C73.2615759,11.7890892 73.0100599,12.5275829 72.8325717,13.2794551 C72.820977,13.3142393 72.8183013,13.3481315 72.8049228,13.379348 C72.7567601,13.5969718 72.7085975,13.8137036 72.6666782,14.0331112 C72.4508382,15.1997172 72.3705672,16.3841613 72.3910809,17.5498754 C72.4098108,18.7138058 72.4856223,19.8572224 72.6247588,21.0050985 C72.7835172,22.1610018 72.9583297,23.2972832 73.4158747,24.4959976 C73.5416327,24.8054872 73.664715,25.0926792 73.9260419,25.4458718 L73.9920425,25.5288186 L74.0660703,25.6135491 L74.1151248,25.6715227 C74.1909364,25.749118 74.2828021,25.8347405 74.4032087,25.9212549 C74.5218315,26.0033097 74.6886169,26.1023107 74.9267544,26.1486895 C75.164,26.1977441 75.4529758,26.1522571 75.6429506,26.0603914 C76.0237922,25.8695246 76.1459826,25.6741984 76.2753082,25.5270348 C76.3930391,25.3691684 76.4759858,25.2353833 76.5598245,25.1060577 L76.9906125,24.3907534 C77.5382395,23.5033122 78.1884351,22.8352786 79.041984,22.4936807 C79.1445525,22.4526533 79.2622834,22.4089501 79.3568249,22.3821931 C79.3987442,22.3679227 79.4763396,22.347409 79.5450159,22.329571 L79.7189366,22.293003 C79.9704525,22.2421647 80.2139414,22.1824074 80.4761602,22.1538665 C80.7312438,22.1101634 80.9925707,22.0789469 81.2637085,22.0620008 C81.5259273,22.0316762 81.7934975,22.0200815 82.0655272,22.0129462 C82.8334536,21.9817297 83.6138667,21.987973 84.3951716,22.0200815 L84.3987392,22.0138381 C84.7180397,22.0263248 85.0364482,22.0405952 85.352181,22.0584332 C86.2628116,22.1146229 87.1761178,22.1868669 88.0929917,22.2564351 C88.2936693,22.2715974 88.4898875,22.2885435 88.6896732,22.3019221 C89.2497868,22.3447333 89.8170356,22.3848688 90.388744,22.4160853 C90.6839631,22.4285719 90.9863174,22.44641 91.2636985,22.4410586 L91.4715113,22.4428424 L91.6953784,22.4383829 L92.1163555,22.4285719 C92.6720096,22.4160853 93.2267718,22.4107339 93.7431823,22.4383829 C94.2560251,22.4606804 94.7537057,22.5766275 94.9017612,22.7728456 C95.0810332,22.957469 95.0881684,23.4917175 94.9864918,23.9965333 C94.9115721,24.4817272 94.7162459,24.8438389 94.3345124,25.0507598 C93.9536708,25.2612484 93.4185304,25.2942487 92.8967686,25.2416266 C92.3643039,25.1872206 91.8291635,25.0614626 91.3011583,24.9027043 C90.9551009,24.7947844 90.6108272,24.6699183 90.2674455,24.5370251 C90.1934177,24.510268 90.1167143,24.4817272 90.0444703,24.4505107 C89.4228156,24.2025623 88.8127555,23.9260731 88.2133983,23.6183674 C89.1293803,24.2739144 90.0997682,24.8598931 91.151319,25.31833 C91.6739728,25.5475485 92.2180322,25.7464423 92.8004433,25.8606056 C93.3783949,25.9694175 94.0205634,26.0300667 94.6680832,25.7651723 C94.9882756,25.6385224 95.2861704,25.4030606 95.4966589,25.1167605 C95.7035799,24.8295685 95.8302298,24.4942138 95.899798,24.1945352 C95.9711501,23.9135865 96.034475,23.5880428 96.0416102,23.2553638 C96.0487454,22.9235768 95.9925557,22.5159782 95.7419316,22.1538665 C95.4877399,21.7979982 95.1122498,21.5973205 94.7893817,21.4920763 C94.4647299,21.3788049 94.1552404,21.3306423 93.8573456,21.2922905 C93.2579883,21.2138033 92.6853881,21.2039924 92.1190312,21.1870462 L91.6980541,21.1772353 L91.5009441,21.170992 L91.2931312,21.1602892 C91.0014797,21.1513702 90.7499637,21.1237213 90.4850692,21.1023157 C89.9365503,21.0470178 89.3835719,20.9810172 88.8297016,20.9141247 C88.5362663,20.8793405 88.2410472,20.8454483 87.9476119,20.8106642 C87.5988787,20.7678529 87.2510375,20.731285 86.8987367,20.6920414 C86.4215699,20.6412031 85.9426193,20.5903647 85.4618848,20.552013 C84.329171,20.4565796 83.1839706,20.3861195 82.0200402,20.4021737 C81.7328482,20.4048494 81.4367372,20.4128765 81.1441938,20.4360659 C80.8480828,20.4476606 80.5555394,20.4735257 80.2558608,20.5145532 C79.9597497,20.5413102 79.6538278,20.6010675 79.3541492,20.6617168 C79.2756619,20.6795548 79.2150127,20.6902576 79.1177955,20.7116632 L78.8966042,20.7723125 C78.7191159,20.821367 78.5781956,20.8766648 78.4185454,20.9355303 C77.7995664,21.1808029 77.2242905,21.5554012 76.7471236,22.0049191 C76.2672811,22.4526533 75.88198,22.9708475 75.5608958,23.4738795 L75.146162,24.151724 C75.1274321,24.1187237 75.1087021,24.0848314 75.0926479,24.0482635 C75.0810532,24.0206146 75.0712423,23.9965333 75.0587557,23.9697763 C75.0435934,23.9296407 75.0248635,23.8903971 75.0123769,23.8520454 C74.6663194,22.9512257 74.481696,21.8524041 74.3461271,20.785691 C74.212342,19.7055993 74.1347466,18.6067777 74.1079896,17.5204427 C74.104422,17.2510887 74.1026382,16.9853023 74.1062058,16.7204078 L74.1062058,16.718624 C74.1062058,16.7034617 74.1079896,16.6909751 74.1079896,16.6775966 C74.113341,16.4555133 74.1231519,16.2325382 74.1383142,16.0113468 C74.1418818,15.9266163 74.1499089,15.8409938 74.1552604,15.7562632 C74.1659632,15.6037482 74.1811255,15.4476656 74.1998554,15.2942587 C74.2105582,15.2032848 74.2176934,15.1087434 74.2310719,15.0177695 C74.2533694,14.8438489 74.2810183,14.6681444 74.3068835,14.4960076 C74.3175863,14.4424936 74.3220458,14.3880876 74.3309648,14.3345736 C74.5138044,13.2937256 74.8179425,12.2849859 75.2737038,11.3618688 C75.4360297,11.0381088 75.6179774,10.7277274 75.8124117,10.4280488 C75.8329255,10.3941566 75.855223,10.3656157 75.8766286,10.3317235 C75.9711701,10.1881275 76.070171,10.0472072 76.1727396,9.90985452 C76.2307131,9.83493486 76.2904705,9.76358281 76.348444,9.69044696 C76.429607,9.59322979 76.5054185,9.49244502 76.5892572,9.39879545 C76.743556,9.22576672 76.90499,9.0580894 77.0771269,8.90022299 C77.6648894,8.34992029 78.3454096,7.89683476 79.0758762,7.5275879 L79.0223622,7.51866889 C79.2132289,7.42234362 79.4023118,7.32958596 79.6020976,7.24485539 L79.660963,7.21631457 C79.6850443,7.20917937 79.6930714,7.19936846 79.7233961,7.19669276 C79.7733425,7.18420615 79.8322079,7.17617904 79.8991005,7.17261144 C79.9722363,7.16547624 80.0489398,7.16369244 80.1292109,7.16547624 C80.2157252,7.16458434 80.3066991,7.16547624 80.4003487,7.18153045 C80.5555394,7.19134136 80.7169734,7.23326069 80.8784074,7.26626101 C81.0416252,7.30550464 81.2057349,7.36704578 81.3707366,7.41431652 L81.86039,7.61321036 L82.3509354,7.84688833 C82.5168289,7.91645658 82.6782629,8.01010615 82.8405888,8.09840431 C82.9806172,8.17956727 83.1277808,8.25716262 83.2669173,8.34278509 C83.2669173,8.34278509 83.2722687,8.34278509 83.2767282,8.34456889 C83.2883229,8.3561636 83.3052691,8.3632988 83.3213233,8.37310971 C83.6325966,8.58003066 83.9581403,8.76197839 84.2676298,8.98138595 C84.3782255,9.0580894 84.4941726,9.13300906 84.6065521,9.20971251 L84.6092278,9.21149631 C84.8081216,9.34884901 85.0087993,9.48352601 85.2005579,9.63604102 C85.5029122,9.86525948 85.8257803,10.0739642 86.1218913,10.3174531 C86.4215699,10.5484554 86.7221404,10.7794576 87.0316299,11.0060004 C87.0360894,11.0077842 87.0369813,11.0122437 87.0450084,11.0175951 C86.9558184,10.8971885 86.8621688,10.7839171 86.7729788,10.6652944 C86.6293827,10.4753195 86.483111,10.2835609 86.3377312,10.0953699 C86.2654873,10.004396 86.1905676,9.92144922 86.115648,9.83315106 C86.0050523,9.70204167 85.8944566,9.57093227 85.7776176,9.44160668 L86.1013776,9.66725754 C86.672194,9.85188097 87.2688755,10.0614776 87.9012331,10.2764257 C88.629024,10.543104 89.3907071,10.8383231 90.1657688,11.1665425 C90.9443981,11.4876268 91.7265949,11.8568736 92.5177108,12.239499 C93.2954482,12.64353 94.0928073,13.0511286 94.8473553,13.5167007 C95.6188493,13.9608672 96.3528836,14.465683 97.0664041,14.9651474 C97.4240562,15.2184471 97.7603028,15.4904768 98.1027926,15.7437766 C98.4345797,16.0166982 98.7619072,16.2860522 99.0829914,16.5509467 C99.3915891,16.8292197 99.6966191,17.1057089 99.993622,17.3723872 C100.280814,17.6560116 100.561763,17.9325008 100.835576,18.200071 C101.351987,18.7628603 101.850559,19.2971088 102.275104,19.8215464 C102.377672,19.9392772 102.471322,20.0587919 102.563188,20.1791985 C102.609567,20.2353883 102.652378,20.291578 102.697865,20.3513353 C102.697865,20.3531191 102.698757,20.3566868 102.698757,20.3566868 C102.757622,20.4324983 102.815596,20.5109856 102.874461,20.5841214 C103.059084,20.830286 103.250843,21.0568288 103.407818,21.2851553 C103.708388,21.746268 104.008067,22.1333528 104.222123,22.4722751 C104.642208,23.1527953 104.906211,23.540772 104.906211,23.540772 C104.906211,23.540772 104.899076,23.5149069 104.886589,23.4720957 C106.492902,26.2815827 107.073529,28.4087658 107.073529,28.4087658 C107.073529,28.4087658 108.801141,32.5043735 110.980054,40.5849933 C114.540521,53.7886905 115.20142,56.6757728 114.117761,63.945655 C113.358753,69.0544619 110.890864,73.7619135 113.159859,80.8890915 C120.014116,102.415114 114.686793,114.852668 108.28919,121.762222 C108.719086,123.595078 110.468995,126.812164 117.474875,127.121653 C120.963098,127.273276 123.307905,126.216374 124.820568,124.619872 L125.188031,124.32822 L125.534981,123.987514 C125.98985,123.515699 126.397449,122.978775 126.705154,122.387445 C127.004833,121.797006 127.255457,121.176244 127.382999,120.543886 C127.520352,119.91688 127.58546,119.287198 127.579217,118.689625 C127.568514,117.481991 127.31789,116.391197 126.970941,115.522485 C126.962914,115.502864 126.953103,115.486809 126.945968,115.468971 C126.718533,114.471826 126.361773,113.678927 125.945255,113.241895 C124.912434,112.156452 121.607942,110.852494 120.643798,114.108823 C120.643798,114.108823 119.885682,117.431153 126.012148,118.802004 C125.958634,119.245279 125.868552,119.693013 125.749929,120.133612 C125.610792,120.636644 125.411898,121.11827 125.171085,121.576707 C125.071192,121.779168 124.951678,121.970927 124.827703,122.159118 C122.135947,121.497328 114.530711,118.917059 117.560497,111.285957 C120.587608,103.655747 133.31503,109.122206 132.018206,120.492156 C130.609895,132.866385 113.036777,141.351036 101.983452,126.936138 C100.007892,128.153582 98.3293354,128.87513 97.3651908,129.244377 C99.9650812,131.964674 97.9904131,133.52104 97.3161363,135.363707 C96.5580207,137.424889 100.170218,139.004446 103.881417,141.736337 C107.591724,144.467337 107.181449,145.884567 104.798291,150.722236 C102.411565,155.559013 104.030364,158.677098 104.030364,158.677098 C104.102608,161.078095 103.781524,164.92843 103.273141,167.053829 C102.767433,169.172985 102.555161,169.313905 101.940641,170.088967 C101.321662,170.863136 101.112065,170.13267 100.950631,169.527961 C100.788305,168.925928 99.90354,168.706521 99.7974038,169.232742 C99.6939434,169.766099 99.6243751,170.119291 99.6243751,170.119291 C99.3942648,172.490855 94.355918,172.304448 93.4292333,172.129635 C92.5061161,171.960174 93.0920948,171.448223 93.0920948,171.448223 C91.7292706,171.300168 92.0120031,170.848866 92.0120031,170.848866 C92.0120031,170.848866 93.6013701,170.288752 94.1017263,168.95001 C94.6065421,167.615726 94.6921646,166.39293 95.4725776,164.861537 C97.7665461,160.332466 98.4426068,155.307497 98.6406087,152.880636 C97.919953,150.090771 95.3316573,147.427555 89.0821095,144.773259 C88.5594557,144.550284 88.0519643,144.320173 87.5560675,144.07936 C87.1787935,143.840331 86.6588155,143.493381 85.9916738,143.092026 C85.6411568,142.869051 85.2790452,142.585427 84.8669871,142.295559 C84.4674156,141.994988 84.0134382,141.708688 83.556785,141.358171 C82.6613168,140.635732 81.6320634,139.86513 80.6054858,138.914364 C80.3468346,138.675334 80.064994,138.461278 79.8099104,138.203519 C79.5512592,137.947543 79.2890405,137.687108 79.0223622,137.424889 C78.4729514,136.91383 77.9520814,136.34123 77.4178329,135.759711 C76.8595031,135.189786 76.3644982,134.538699 75.8186551,133.913477 C75.5600039,133.594176 75.3129474,133.252578 75.0498367,132.926143 C74.9196192,132.757573 74.7894017,132.590788 74.6556166,132.424003 C74.5343181,132.250082 74.4112358,132.075269 74.2872616,131.899565 C73.7842297,131.202099 73.3061709,130.476092 72.8325717,129.736706 C72.38127,128.985726 71.9264006,128.221367 71.5205859,127.43917 C71.4305039,127.266141 71.3413138,127.089545 71.2530157,126.914732 C71.1673932,126.736352 71.0915816,126.570459 71.0193377,126.409025 C70.998824,126.365322 70.9738508,126.317159 70.9595803,126.278807 C70.7713893,125.851587 70.6099553,125.42615 70.4315752,125.002497 C70.2612221,124.577953 70.0757068,124.152516 69.9151647,123.72262 L69.4513764,122.425796 C68.8404244,120.701752 68.3293653,118.95006 67.9957945,117.20907 C67.9797403,117.126123 67.9681456,117.044068 67.9529833,116.959337 C67.8736041,116.541928 67.8049278,116.12541 67.7442785,115.708893 C67.6987916,115.400295 67.659548,115.090805 67.6256557,114.784884 C67.605142,114.611855 67.5917635,114.441502 67.578385,114.271149 C67.5551956,114.045498 67.5382495,113.820739 67.5230872,113.595088 C67.5123844,113.456843 67.5061411,113.322166 67.4998978,113.183922 C67.4811678,112.816459 67.4713569,112.448104 67.4740326,112.090452 C67.4784921,111.724772 67.4990059,111.365336 67.5230872,111.005901 C67.5328981,110.882818 67.5436009,110.763304 67.5543037,110.636654 C67.5739255,110.403868 67.5988987,110.167514 67.6274395,109.93562 C67.6434938,109.796483 67.6613318,109.661806 67.6809536,109.528021 C67.7300081,109.214072 67.7817384,108.901907 67.8423876,108.592417 C67.9262263,108.185711 68.0225515,107.786139 68.134931,107.394595 C68.5452053,105.936337 69.1606167,104.627027 69.8705697,103.485394 C70.0186252,103.247257 70.1764916,103.015363 70.3334661,102.789712 C70.3950072,102.698738 70.4574403,102.613115 70.5234409,102.523925 C70.6046039,102.415114 70.6821992,102.306302 70.7678217,102.202841 C70.9560127,101.959352 71.1433119,101.722107 71.3368543,101.496456 L71.33953,101.496456 C71.6160192,101.171804 71.8951841,100.860531 72.1725652,100.576014 C72.9654649,99.7831147 73.7280399,99.1409463 74.3907221,98.6521847 C75.0587557,98.174126 75.6090584,97.8120143 75.9979271,97.5890392 C76.385012,97.3616045 76.6026357,97.2563602 76.6026357,97.2563602 C76.6026357,97.2563602 76.3618225,97.2902524 75.9212236,97.4053076 C75.4859761,97.5319575 74.8375643,97.7130133 74.050908,98.0590708 C73.2678192,98.3997768 72.3232964,98.8644571 71.321692,99.5530044 C70.3200876,100.2362 69.2515906,101.13702 68.2589052,102.298275 C67.42587,103.269554 66.6499164,104.431701 66.0264779,105.752606 C65.9060713,106.006797 65.7883404,106.262773 65.6804204,106.530343 C65.0070355,108.172332 64.5682203,110.018567 64.4103539,111.936153 C64.382705,112.248318 64.3675427,112.564943 64.3577318,112.879784 C64.3532723,112.958271 64.3514885,113.032299 64.3514885,113.110786 C64.3443533,113.408681 64.3372181,113.715495 64.3443533,114.0232 L64.3443533,114.054417 C64.3514885,114.391555 64.364867,114.73137 64.382705,115.072076 C64.3880564,115.107752 64.3898402,115.138968 64.391624,115.171968 C64.4103539,115.47789 64.4371109,115.782028 64.4674356,116.084383 C64.2542713,115.607216 64.0366476,115.145211 63.8359699,114.635936 C63.6076433,114.058876 63.377533,113.480033 63.1492064,112.898514 C62.9565559,112.374076 62.7558782,111.763124 62.5614439,111.203011 C62.3518472,110.631302 62.1904132,110.044432 62.0280873,109.465588 C61.3645132,107.138619 60.8766436,104.772407 60.6625874,102.426708 C60.4387204,100.085469 60.4449637,97.7736626 60.6625874,95.5679923 C61.0853483,91.1486246 62.3687934,87.1876938 63.8734297,84.0223385 C64.4808141,82.7433529 65.1131716,81.6008282 65.7410697,80.5804939 C65.9167741,80.6090347 66.088019,80.6429269 66.2628316,80.6634406 C66.5348613,80.6901977 66.8131343,80.7107114 67.0860559,80.7169547 C67.3625451,80.723198 67.6408181,80.7187385 67.9146316,80.6955491 C68.1937965,80.6794949 68.4658261,80.6384674 68.7414234,80.6010076 C69.2854828,80.5082499 69.8259746,80.3691134 70.3477365,80.1943009 C70.612631,80.1158136 70.8605794,79.9980828 71.115663,79.8990818 C71.3698546,79.7920537 71.6106678,79.6689714 71.8595081,79.5503486 L71.9486982,79.4995103 C72.1226188,79.3996174 72.3884052,79.2560214 72.6211912,79.1418581 C72.8602206,79.0241273 73.1117366,78.9135316 73.3641445,78.8082873 C73.8645007,78.5915555 74.3773436,78.4167429 74.8937541,78.2651198 C75.1506215,78.1902002 75.4119484,78.1170643 75.6741671,78.0644422 C75.9346021,78.0064686 76.1932533,77.9574141 76.4554721,77.913711 L77.3125886,77.8093586 C77.713052,77.7594121 78.0403796,77.6827087 78.3819775,77.5845996 C79.7287475,77.1734334 80.899813,76.4019394 81.7836866,75.399443 C82.2207179,74.8937354 82.5881809,74.3282704 82.829886,73.7083994 C83.0599964,73.0912042 83.1768354,72.4044407 83.0127256,71.7943806 C82.8780486,72.2572771 82.6568573,72.6497134 82.3830438,72.9957708 C82.3063403,73.0965556 82.2207179,73.1946647 82.1306359,73.2874223 C81.7515781,73.7039399 81.3083035,74.0437541 80.8471909,74.340757 C79.9196142,74.92406 78.8930366,75.3022259 77.892324,75.4377948 C77.6470514,75.471687 77.3776974,75.4904169 77.1734521,75.4904169 L76.9522608,75.4859574 L76.7364208,75.4904169 L76.2307131,75.498444 C75.8944666,75.525201 75.5555444,75.5394714 75.2237573,75.5992288 C74.8937541,75.6491752 74.5664265,75.7169597 74.2417747,75.7900955 C73.5915791,75.9452862 72.9654649,76.1620181 72.354513,76.4117503 C72.0512667,76.5455354 71.7515881,76.6811043 71.4572609,76.8380788 C71.1673932,76.9861343 70.9140934,77.1252708 70.6019282,77.3286241 C70.4226562,77.4249494 70.2451679,77.5293018 70.0623283,77.616708 C69.8652183,77.7050062 69.6690001,77.8129262 69.4718901,77.8923053 C69.2738881,77.9806035 69.0714267,78.0644422 68.8671814,78.1331185 C68.6656119,78.2089301 68.4560152,78.2642279 68.2535538,78.3337962 C68.0573357,78.3908778 67.8602256,78.4372566 67.659548,78.4782841 C67.5097087,78.5157439 67.3545179,78.5353657 67.2028948,78.5630146 C67.1645431,78.568366 67.1217319,78.577285 67.0824883,78.5808526 C66.6186999,78.6513128 66.1468845,78.6878807 65.6679338,78.685205 C65.4494182,78.6807455 65.2219835,78.676286 64.9990083,78.6593399 C64.7742494,78.6450695 64.5512742,78.6147449 64.3265153,78.5808526 C64.0972968,78.5514199 63.8698621,78.5121763 63.6433194,78.4631218 C63.4194523,78.4131753 63.18845,78.3632289 62.9636911,78.2981201 C62.7371483,78.2339033 62.5097137,78.1670107 62.2813871,78.0920911 C62.05752,78.0100362 61.8256259,77.9386842 61.599975,77.8477103 C61.1504571,77.6630869 60.701831,77.464193 60.2549888,77.2260556 C59.5218465,76.8202408 58.260699,76.5009403 56.4661949,77.3625164 C54.8242058,78.1456051 54.5280948,79.5690786 53.5719773,81.2993658 C52.9797553,82.7397853 52.2671267,84.0294737 51.4965245,85.4912988 C50.2282418,87.8860521 49.9294551,87.9904044 48.9492563,88.7297901 C47.9672737,89.4718514 47.9405166,88.5228691 47.9342733,87.7460237 C47.9262462,86.970962 46.9291013,86.4349297 46.6401255,87.0396383 C46.3475821,87.6416713 46.1558235,88.0510537 46.1558235,88.0510537 C45.1408405,90.8257566 39.1437006,89.0428472 38.0823388,88.5514099 C37.0209771,88.0555132 37.883445,87.6247252 37.883445,87.6247252 C36.2905104,87.0209084 36.7721368,86.5633634 36.7721368,86.5633634 C36.7721368,86.5633634 38.8574005,86.3867671 39.8768429,84.932969 C40.890934,83.4809548 42.2127307,82.7014336 43.4569321,80.9622274 Z M49.4745858,53.5639315 C54.0197114,52.3429195 55.7196741,54.6431313 55.7196741,54.6431313 C58.018102,57.1226151 62.129764,59.2185816 66.5116718,60.6474064 C66.2886967,60.812408 66.0550187,60.9791934 65.8168812,61.1548979 C65.36112,61.5045229 64.8536285,61.8398776 64.3532723,62.2189353 C63.8359699,62.5730199 63.3159918,62.9529696 62.7710405,63.3195407 C62.2323326,63.6905714 61.6847056,64.0660616 61.1237001,64.4219299 C60.5787488,64.8027715 60.0025809,65.1345585 59.4558459,65.4922107 C58.8939484,65.8195382 58.3570243,66.1727309 57.8085054,66.4724095 C57.2787164,66.7917099 56.7480355,67.0655234 56.2467873,67.3420126 C55.9979471,67.4882843 55.7455392,67.5917448 55.5065098,67.7219623 C55.3861032,67.7826116 55.2648047,67.8450446 55.1461819,67.9083695 C55.0730461,67.2421198 55.1203168,66.8256022 55.1203168,66.8256022 C55.1203168,66.8256022 55.7767557,64.4513627 52.7799695,62.8611038 C51.1772241,62.0102306 49.8563192,62.6220744 47.8932459,62.8816175 C46.3886095,63.2642429 44.9285682,63.4586772 43.2919305,63.7093013 C41.4760208,63.9875743 40.7696355,63.9929257 40.1372779,63.8618163 L40.1372779,71.7943806 C40.0445203,73.2954494 37.8361743,73.2954494 37.7389571,71.7943806 L37.7389571,61.0059505 C37.7229029,61.0068424 37.7095244,61.0032748 37.6943621,61.0059505 L37.6943621,52.6755985 C37.7023892,46.66508 37.7389571,22.4446262 37.7389571,11.764116 C37.8361743,10.2639391 40.0445203,10.2639391 40.1372779,11.764116 L40.1372779,54.4183723 C40.7500137,54.5031029 41.4028849,54.5664278 42.1440544,54.5539412 C44.2801564,54.5173733 49.4745858,53.5639315 49.4745858,53.5639315 Z M0.236318841,12.8727485 L36.1549415,12.8727485 L36.1549415,44.6101409 L0.236318841,44.6101409 L11.7025935,28.7432285 L0.236318841,12.8727485 Z M71.8577243,19.9392772 C71.6079921,19.4594347 71.1415281,18.9492675 70.4717107,18.6647512 C70.3031415,18.5933992 70.1220856,18.5354256 69.9294351,18.4988577 C69.8179475,18.4854792 69.7082437,18.469425 69.5994319,18.4569384 C69.5120256,18.4542627 69.4228355,18.4542627 69.3363212,18.4533708 C69.0856971,18.4506951 68.9153441,18.496182 68.7333963,18.5577232 C68.5585838,18.6192643 68.4114202,18.7013192 68.2901217,18.7949687 C68.0457409,18.981376 67.9110639,19.1820536 67.83882,19.3301091 C67.7647922,19.4861917 67.7478461,19.5789494 67.7478461,19.5789494 C67.7478461,19.5789494 67.8397119,19.5566519 67.9949026,19.5495167 C68.0671466,19.5441653 68.1563366,19.537922 68.2526619,19.5441653 C68.3454196,19.5441653 68.4479881,19.5441653 68.5496648,19.5655709 C68.6522334,19.5834089 68.7556939,19.6101659 68.8484515,19.6404905 C68.9367497,19.6788423 69.0535887,19.717194 69.0919404,19.7644647 L69.113346,19.7760594 L69.1641844,19.8001407 L69.2667529,19.8527629 L69.2810233,19.8572224 L69.2854828,19.8616819 C69.2738881,19.8572224 69.2471311,19.8509791 69.2471311,19.8509791 L69.2542663,19.8563305 L69.2738881,19.869709 L69.3068885,19.8991417 L69.3746729,19.9544396 C69.4718901,20.031143 69.5771343,20.1042789 69.6868381,20.1809823 C70.1318965,20.479769 70.6884426,20.7089875 71.187015,20.8062047 C71.438531,20.8516916 71.6686414,20.874881 71.8443458,20.8766648 C71.9272925,20.8820162 72.0066717,20.874881 72.0539424,20.8713134 C72.1056727,20.8695296 72.1324297,20.8695296 72.1324297,20.8695296 C72.1324297,20.8695296 72.129754,20.8409888 72.1217269,20.7901505 C72.1172674,20.740204 72.1128079,20.6626087 72.0905104,20.5796619 C72.0539424,20.4021737 71.9790228,20.1809823 71.8577243,19.9392772 Z M54.3265253,23.6897195 L54.1989835,23.540772 L54.1347666,23.4685281 L54.0794688,23.4087708 L54.0678741,23.3936084 L54.0402251,23.3677433 L53.9367647,23.2687424 C53.8101148,23.127822 53.6932758,22.9869017 53.6174642,22.8290353 C53.5318418,22.6756284 53.4801115,22.5079511 53.4435436,22.3411657 C53.3721916,22.0022434 53.3855701,21.674024 53.4150028,21.4412379 C53.4150028,21.4296432 53.4150028,21.4216161 53.4167866,21.4100214 L53.4694087,21.063964 C53.4694087,21.063964 53.3427588,21.1406674 53.1777572,21.3359937 C53.0965943,21.4332108 52.9984852,21.557185 52.9146465,21.7212947 C52.829916,21.8809449 52.7389421,22.0789469 52.6943471,22.3144087 C52.6479682,22.5480866 52.6283464,22.8201163 52.6818605,23.1064164 C52.7282393,23.3936084 52.847754,23.68526 53.0127556,23.953722 L53.0261341,23.9742358 L52.3063703,28.694174 C52.3063703,28.694174 52.3402625,28.6870388 52.408047,28.6772279 C52.4678043,28.6558222 52.5784,28.6477951 52.6907795,28.5889297 C52.8085104,28.5398752 52.9574578,28.4774421 53.1010538,28.370414 C53.2571364,28.2749807 53.4105433,28.1438713 53.5719773,27.9922482 C53.6486808,27.9101933 53.7280599,27.8272465 53.8101148,27.7407322 C53.8832506,27.6452988 53.9599541,27.5471897 54.0357656,27.4446212 C54.1802535,27.2359164 54.3184981,27.0022384 54.4335533,26.7453711 C54.5459328,26.4893956 54.64315,26.2084469 54.7037992,25.911444 C54.7359076,25.7616046 54.7528538,25.6037382 54.7733675,25.4467637 C54.7796108,25.2862216 54.7796108,25.1230038 54.7733675,24.9580022 C54.7278805,24.6155123 54.6832855,24.3078066 54.4772565,23.9403435 C54.4299857,23.8538292 54.373796,23.7503687 54.3265253,23.6897195 Z" fill="#FFFFFF"></path>
    </g>
</svg>